<svg width="248" height="73" viewBox="0 0 248 73" fill="none" xmlns="http://www.w3.org/2000/svg">
<path d="M40.9688 49.75C40.9688 51.4167 39.8646 52.8438 37.6562 54.0312C35.4479 55.1979 33.6354 55.7812 32.2188 55.7812C30.5104 55.7812 29.1354 55.3646 28.0938 54.5312C27.0521 53.6979 26.3438 52.4271 25.9688 50.7188C24.4479 52.4688 22.4583 53.7708 20 54.625C17.5417 55.4583 14.9167 55.875 12.125 55.875C8.9375 55.875 6.27083 54.9062 4.125 52.9688C2 51.0312 0.9375 48.5104 0.9375 45.4062C0.9375 39.8229 3.66667 36.4062 9.125 35.1562C14.5833 33.9062 19.9167 33.0521 25.125 32.5938V27.5312C25.125 25.9062 24.4271 24.7812 23.0312 24.1562C21.6354 23.5104 20.1354 23.1875 18.5312 23.1875C15.6146 23.1875 13.3958 23.5 11.875 24.125C10.375 24.75 8.625 25.6979 6.625 26.9688C6.4375 27.0729 6.25 27.1562 6.0625 27.2188C5.89583 27.2812 5.71875 27.3125 5.53125 27.3125C4.82292 27.3125 4.1875 26.9792 3.625 26.3125C3.0625 25.6458 2.78125 24.9479 2.78125 24.2188C2.78125 21.7188 4.60417 20.0417 8.25 19.1875C11.9167 18.3125 15.0417 17.875 17.625 17.875C22.8958 17.875 26.5 19 28.4375 21.25C30.375 23.4792 31.3438 27.1979 31.3438 32.4062V48.1562C31.3438 48.8021 31.4479 49.3438 31.6562 49.7812C31.8854 50.1979 32.2396 50.4062 32.7188 50.4062C33.6562 50.4062 34.7083 49.8438 35.875 48.7188C37.0417 47.5938 38 47.0312 38.75 47.0312C39.2083 47.0312 39.6875 47.3438 40.1875 47.9688C40.7083 48.5729 40.9688 49.1667 40.9688 49.75ZM25.125 37.2812C21.8333 37.6354 18.0938 38.1771 13.9062 38.9062C9.73958 39.6146 7.65625 41.7188 7.65625 45.2188C7.65625 46.9896 8.3125 48.3125 9.625 49.1875C10.9375 50.0417 12.5 50.4688 14.3125 50.4688C16.4792 50.4688 18.4583 50.0729 20.25 49.2812C22.0625 48.4688 23.6875 47.5 25.125 46.375V37.2812ZM77.5625 36.8125C77.5625 33.125 76.6354 29.9375 74.7812 27.25C72.9479 24.5417 70.2292 23.1875 66.625 23.1875C63.875 23.1875 61.5 23.7083 59.5 24.75C57.5208 25.7917 55.9062 27.125 54.6562 28.75V46.1562C55.9688 47.4688 57.6042 48.5208 59.5625 49.3125C61.5417 50.0833 63.8333 50.4688 66.4375 50.4688C70.0833 50.4688 72.8438 49.1146 74.7188 46.4062C76.6146 43.6771 77.5625 40.4792 77.5625 36.8125ZM84.4688 36.8125C84.4688 42.3542 82.8333 46.9062 79.5625 50.4688C76.2917 54.0104 71.9167 55.7812 66.4375 55.7812C63.875 55.7812 61.6354 55.3958 59.7188 54.625C57.8229 53.8542 56.1354 52.8438 54.6562 51.5938V67.4688H60.9688C61.7604 67.4688 62.3333 67.7604 62.6875 68.3438C63.0417 68.9271 63.2188 69.6042 63.2188 70.375C63.2188 71.0625 63.0104 71.6667 62.5938 72.1875C62.1979 72.7083 61.6354 72.9688 60.9062 72.9688H44.5312C43.6562 72.9688 43.0104 72.7188 42.5938 72.2188C42.1771 71.7188 41.9688 71.0729 41.9688 70.2812C41.9688 69.5104 42.1562 68.8438 42.5312 68.2812C42.9271 67.7396 43.5312 67.4688 44.3438 67.4688H48.25V24.4062L43.7812 25.5C43.7396 25.5208 43.6771 25.5417 43.5938 25.5625C43.5104 25.5625 43.4167 25.5625 43.3125 25.5625C42.6875 25.5625 42.1042 25.3125 41.5625 24.8125C41.0208 24.2917 40.75 23.7083 40.75 23.0625C40.75 22.3542 40.9062 21.7917 41.2188 21.375C41.5312 20.9375 41.9792 20.625 42.5625 20.4375L51.25 17.9375C51.3333 17.9375 51.3854 17.9271 51.4062 17.9062C51.4271 17.8854 51.4792 17.875 51.5625 17.875H51.7812C52.2188 17.875 52.5938 18.0104 52.9062 18.2812C53.2188 18.5312 53.375 18.8854 53.375 19.3438L54 25.25C55 23.125 56.6667 21.3646 59 19.9688C61.3333 18.5729 64.0208 17.875 67.0625 17.875C72.5208 17.875 76.7812 19.6667 79.8438 23.25C82.9271 26.8125 84.4688 31.3333 84.4688 36.8125ZM108.281 23.1875C104.323 23.1875 101.25 24.4688 99.0625 27.0312C96.8958 29.5938 95.8125 32.8542 95.8125 36.8125C95.8125 40.7917 96.8958 44.0625 99.0625 46.625C101.25 49.1875 104.323 50.4688 108.281 50.4688C112.135 50.4688 115.115 49.1667 117.219 46.5625C119.323 43.9583 120.375 40.7083 120.375 36.8125C120.375 32.9167 119.323 29.6771 117.219 27.0938C115.115 24.4896 112.135 23.1875 108.281 23.1875ZM108.281 55.7812C102.51 55.7812 97.8333 54.0625 94.25 50.625C90.6667 47.1875 88.875 42.5833 88.875 36.8125C88.875 31.0208 90.6667 26.4167 94.25 23C97.8542 19.5833 102.531 17.875 108.281 17.875C113.948 17.875 118.531 19.6146 122.031 23.0938C125.531 26.5521 127.281 31.125 127.281 36.8125C127.281 42.5 125.531 47.0833 122.031 50.5625C118.531 54.0417 113.948 55.7812 108.281 55.7812ZM145.656 0.78125C146.094 0.78125 146.479 0.927083 146.812 1.21875C147.146 1.48958 147.312 1.85417 147.312 2.3125V49.5H154.938C155.729 49.5 156.302 49.7917 156.656 50.375C157.01 50.9375 157.188 51.6042 157.188 52.375C157.188 53.0625 156.979 53.6771 156.562 54.2188C156.167 54.7396 155.604 55 154.875 55H134C133.125 55 132.479 54.75 132.062 54.25C131.646 53.75 131.438 53.1042 131.438 52.3125C131.438 51.5417 131.625 50.8854 132 50.3438C132.396 49.7812 133 49.5 133.812 49.5H140.906V7.5L133.562 9.4375C133.479 9.4375 133.427 9.44792 133.406 9.46875C133.385 9.48958 133.333 9.5 133.25 9.5C132.604 9.5 132.021 9.21875 131.5 8.65625C131 8.07292 130.75 7.45833 130.75 6.8125C130.75 5.91667 130.979 5.33333 131.438 5.0625C131.917 4.77083 132.5 4.52083 133.188 4.3125L145.219 0.84375C145.26 0.822917 145.312 0.8125 145.375 0.8125C145.458 0.791667 145.552 0.78125 145.656 0.78125ZM174.219 0.78125C174.656 0.78125 175.042 0.927083 175.375 1.21875C175.708 1.48958 175.875 1.85417 175.875 2.3125V49.5H183.5C184.292 49.5 184.865 49.7917 185.219 50.375C185.573 50.9375 185.75 51.6042 185.75 52.375C185.75 53.0625 185.542 53.6771 185.125 54.2188C184.729 54.7396 184.167 55 183.438 55H162.562C161.688 55 161.042 54.75 160.625 54.25C160.208 53.75 160 53.1042 160 52.3125C160 51.5417 160.188 50.8854 160.562 50.3438C160.958 49.7812 161.562 49.5 162.375 49.5H169.469V7.5L162.125 9.4375C162.042 9.4375 161.99 9.44792 161.969 9.46875C161.948 9.48958 161.896 9.5 161.812 9.5C161.167 9.5 160.583 9.21875 160.062 8.65625C159.562 8.07292 159.312 7.45833 159.312 6.8125C159.312 5.91667 159.542 5.33333 160 5.0625C160.479 4.77083 161.062 4.52083 161.75 4.3125L173.781 0.84375C173.823 0.822917 173.875 0.8125 173.938 0.8125C174.021 0.791667 174.115 0.78125 174.219 0.78125ZM208.219 23.1875C204.26 23.1875 201.188 24.4688 199 27.0312C196.833 29.5938 195.75 32.8542 195.75 36.8125C195.75 40.7917 196.833 44.0625 199 46.625C201.188 49.1875 204.26 50.4688 208.219 50.4688C212.073 50.4688 215.052 49.1667 217.156 46.5625C219.26 43.9583 220.312 40.7083 220.312 36.8125C220.312 32.9167 219.26 29.6771 217.156 27.0938C215.052 24.4896 212.073 23.1875 208.219 23.1875ZM208.219 55.7812C202.448 55.7812 197.771 54.0625 194.188 50.625C190.604 47.1875 188.812 42.5833 188.812 36.8125C188.812 31.0208 190.604 26.4167 194.188 23C197.792 19.5833 202.469 17.875 208.219 17.875C213.885 17.875 218.469 19.6146 221.969 23.0938C225.469 26.5521 227.219 31.125 227.219 36.8125C227.219 42.5 225.469 47.0833 221.969 50.5625C218.469 54.0417 213.885 55.7812 208.219 55.7812ZM239.938 43.5312C241.646 43.5312 243.135 44.1146 244.406 45.2812C245.698 46.4479 246.344 48.1771 246.344 50.4688C246.344 53.7604 245.5 56.4792 243.812 58.625C242.146 60.7708 240.135 62.4375 237.781 63.625C237.531 63.7708 237.281 63.875 237.031 63.9375C236.781 64 236.542 64.0312 236.312 64.0312C235.646 64.0312 235.083 63.8125 234.625 63.375C234.188 62.9375 233.969 62.4583 233.969 61.9375C233.969 61.6458 234.042 61.3542 234.188 61.0625C234.354 60.7708 234.604 60.5104 234.938 60.2812C236.125 59.4896 237.344 58.5312 238.594 57.4062C239.865 56.2812 240.5 54.8333 240.5 53.0625C238.812 53.0625 237.406 52.6875 236.281 51.9375C235.177 51.1667 234.625 49.9792 234.625 48.375C234.625 46.7708 235.167 45.5625 236.25 44.75C237.354 43.9375 238.583 43.5312 239.938 43.5312ZM240.531 31.25C238.594 31.25 236.99 30.6146 235.719 29.3438C234.448 28.0729 233.812 26.4688 233.812 24.5312C233.812 22.5938 234.448 20.9896 235.719 19.7188C237.01 18.4479 238.615 17.8125 240.531 17.8125C242.448 17.8125 244.042 18.4583 245.312 19.75C246.604 21.0417 247.25 22.6354 247.25 24.5312C247.25 26.4688 246.604 28.0729 245.312 29.3438C244.042 30.6146 242.448 31.25 240.531 31.25Z" fill="black"/>
</svg>
