<svg xmlns="http://www.w3.org/2000/svg" xmlns:xlink="http://www.w3.org/1999/xlink" preserveAspectRatio="xMidYMid" width="2100" height="1500" viewBox="0 0 2100 1500">
  <defs>
    <style>
      .cls-1 {
        fill: #fffcfc;
        fill-rule: evenodd;
      }

      .cls-2, .cls-3 {
        font-size: 570px;
      }

      .cls-3 {
        fill: #2055cf;
        font-family: "Determination Mono";
      }
    </style>
  </defs>
  <path d="M1538.125,718.000 L1714.172,221.000 L1382.688,221.000 L970.172,718.000 L837.766,718.000 C711.266,718.000 595.703,732.125 491.047,760.375 C357.266,796.844 257.391,853.125 191.422,929.234 C150.484,976.641 130.000,1025.172 130.000,1074.828 C130.000,1133.172 157.547,1177.375 212.609,1207.453 C256.313,1231.141 310.031,1243.000 373.750,1243.000 C592.687,1243.000 816.875,1104.344 1046.297,827.000 L1256.187,827.000 L1128.328,1183.000 L1373.000,1183.000 L1501.281,827.000 L1907.234,827.000 C1995.172,827.000 2050.750,790.672 2074.000,718.000 L1538.125,718.000 ZM1289.516,718.000 L1137.016,718.000 L1435.750,334.234 L1289.516,718.000 ZM706.969,995.000 C622.344,1059.000 551.828,1091.000 495.422,1091.000 C454.469,1091.000 434.000,1071.344 434.000,1032.031 C434.000,985.859 462.422,942.203 519.297,901.062 C588.000,851.688 707.656,827.000 878.266,827.000 C838.234,883.688 781.125,939.688 706.969,995.000 L706.969,995.000 Z" class="cls-1"/>
  <text transform="translate(1295 597) rotate(14.22)" class="cls-2"><tspan class="cls-3">;</tspan></text>
</svg>
