<svg xmlns="http://www.w3.org/2000/svg" xmlns:xlink="http://www.w3.org/1999/xlink" preserveAspectRatio="xMidYMid" width="2361" height="1062" viewBox="0 0 2361 1062">
  <defs>
    <style>
      .cls-1 {
        fill: #fffcfc;
        fill-rule: evenodd;
      }
    </style>
  </defs>
  <path d="M2272.044,307.906 L2108.208,307.906 C2113.966,311.746 2118.677,318.768 2122.341,328.975 C2126.005,339.182 2127.485,348.039 2126.790,355.539 C2124.344,384.680 2111.520,407.535 2088.317,424.109 C2066.157,439.988 2037.368,448.012 2001.950,448.188 C1960.770,448.535 1929.102,440.426 1906.946,423.848 C1887.231,409.191 1877.372,389.914 1877.372,366.008 C1877.372,361.297 1877.809,356.586 1878.680,351.875 C1883.220,325.531 1896.302,304.856 1917.938,289.848 C1940.969,273.973 1971.677,266.031 2010.063,266.031 L2334.856,266.031 C2327.876,293.949 2306.938,307.906 2272.044,307.906 ZM1989.649,307.906 L1966.094,374.906 C1964.872,378.399 1964.262,381.711 1964.262,384.852 C1964.262,399.859 1978.219,407.359 2006.137,407.359 C2009.450,407.359 2012.329,407.273 2014.774,407.098 L2049.583,307.906 L1989.649,307.906 ZM1839.967,436.148 C1828.975,441.383 1817.198,444.000 1804.635,444.000 L1703.873,444.000 C1678.049,444.000 1665.139,435.192 1665.139,417.566 C1665.139,413.031 1666.100,407.883 1668.018,402.125 L1765.115,128.367 L1857.764,128.367 L1760.143,402.125 L1870.065,402.125 C1865.701,417.481 1855.670,428.820 1839.967,436.148 ZM1708.323,887.962 L1655.979,887.962 L1725.596,823.579 C1722.455,818.173 1720.272,813.724 1719.053,810.231 C1716.783,803.778 1715.561,796.450 1715.389,788.247 L1779.772,719.677 C1808.733,724.563 1823.217,737.735 1823.217,759.196 C1823.217,771.759 1819.463,783.364 1811.963,794.005 C1818.416,811.107 1824.959,828.204 1831.592,845.302 C1839.615,867.286 1843.631,885.083 1843.631,898.692 C1843.631,913.700 1837.698,926.524 1825.834,937.165 L1930.260,937.165 C1929.561,948.856 1922.887,958.757 1910.239,966.870 C1897.586,974.983 1883.760,979.040 1868.756,979.040 L1669.850,979.040 C1631.639,979.040 1612.533,967.353 1612.533,943.970 C1612.533,941.876 1612.709,939.610 1613.057,937.165 C1614.451,926.696 1620.033,918.583 1629.807,912.825 C1638.182,907.767 1647.776,905.325 1658.596,905.497 C1677.440,906.020 1702.998,916.403 1735.280,936.642 C1744.526,925.126 1749.151,913.439 1749.151,901.571 C1749.151,895.642 1745.397,882.118 1737.897,861.005 L1708.323,887.962 ZM1618.051,436.148 C1607.058,441.383 1595.281,444.000 1582.719,444.000 L1481.957,444.000 C1456.133,444.000 1443.222,435.192 1443.222,417.566 C1443.222,413.031 1444.183,407.883 1446.101,402.125 L1479.519,307.906 L1331.489,307.906 C1337.247,311.746 1341.958,318.768 1345.622,328.975 C1349.286,339.182 1350.767,348.039 1350.071,355.539 C1347.626,384.680 1334.802,407.535 1311.599,424.109 C1289.439,439.988 1260.650,448.012 1225.232,448.188 C1184.052,448.535 1152.384,440.426 1130.228,423.848 C1110.513,409.191 1100.653,389.914 1100.653,366.008 C1100.653,361.297 1101.091,356.586 1101.962,351.875 C1106.501,325.531 1119.583,304.856 1141.220,289.848 C1164.251,273.973 1194.958,266.031 1233.345,266.031 L1494.372,266.031 L1543.199,128.367 L1635.847,128.367 L1538.226,402.125 L1648.148,402.125 C1643.785,417.481 1633.754,428.820 1618.051,436.148 ZM1212.931,307.906 L1189.376,374.906 C1188.153,378.399 1187.544,381.711 1187.544,384.852 C1187.544,399.859 1201.501,407.359 1229.419,407.359 C1232.731,407.359 1235.610,407.273 1238.056,407.098 L1272.864,307.906 L1212.931,307.906 ZM1069.530,433.793 C1058.362,440.598 1045.190,444.000 1030.010,444.000 L887.374,444.000 C865.913,444.000 854.920,432.922 854.397,410.762 C862.420,407.449 870.534,404.219 878.737,401.078 C890.253,395.844 898.975,389.477 904.909,381.973 C912.932,372.027 916.948,359.293 916.948,343.762 C916.948,334.168 912.499,325.703 903.600,318.375 C894.702,311.047 884.842,307.559 874.026,307.906 L792.108,544.762 L697.104,544.762 L778.835,307.906 L642.426,307.906 L593.223,444.000 L499.527,444.000 L548.730,307.906 L468.383,307.906 C380.445,413.992 294.512,467.031 210.590,467.031 C186.160,467.031 165.574,462.492 148.824,453.422 C127.715,441.906 117.156,424.984 117.156,402.648 C117.156,383.633 125.008,365.051 140.711,346.902 C166.008,317.766 204.309,296.219 255.605,282.258 C295.734,271.441 340.051,266.031 388.559,266.031 L439.332,266.031 C439.332,266.031 546.512,139.973 584.000,95.000 C589.273,88.674 260.447,81.627 105.000,81.000 C25.918,80.681 48.774,70.585 43.000,62.000 C38.873,55.864 726.000,70.000 726.000,70.000 L656.559,266.031 L793.284,266.031 L815.139,202.695 L909.881,202.695 L888.159,266.031 C927.417,266.031 953.413,267.863 966.151,271.527 C997.206,280.078 1012.123,300.055 1010.905,331.461 C1010.206,345.422 1004.010,359.465 992.323,373.598 C980.284,388.254 966.413,397.766 950.710,402.125 L1090.729,402.125 C1089.159,415.563 1082.092,426.117 1069.530,433.793 ZM266.336,336.172 C244.523,351.875 233.621,368.539 233.621,386.160 C233.621,401.168 241.473,408.668 257.176,408.668 C278.808,408.668 305.855,396.457 338.309,372.027 C366.746,350.918 388.644,329.543 404.000,307.906 C338.570,307.906 292.680,317.328 266.336,336.172 ZM503.191,266.031 L561.555,266.031 L617.824,119.207 L503.191,266.031 ZM435.145,610.802 L487.488,610.802 C504.410,610.802 519.549,617.259 532.896,630.169 C546.244,643.083 552.918,657.911 552.918,674.661 C552.918,692.981 545.676,708.423 531.195,720.985 C517.410,732.853 501.269,738.782 482.777,738.782 C464.105,738.782 447.793,732.853 433.836,720.985 C419.351,708.423 412.113,692.981 412.113,674.661 C412.113,668.556 412.808,663.321 414.207,658.958 C376.867,659.310 342.930,678.677 312.398,717.060 C283.781,753.353 269.477,790.692 269.477,829.075 C269.477,901.138 316.496,937.165 410.543,937.165 L542.187,937.165 C536.777,965.083 515.578,979.040 478.590,979.040 L382.016,979.040 C321.820,979.040 272.965,970.317 235.453,952.868 C183.980,928.790 158.508,889.622 159.031,835.356 C159.379,804.997 168.715,774.638 187.035,744.278 C211.984,702.755 249.109,665.078 295.000,641.000 C319.369,628.195 159.291,626.571 61.000,625.000 C7.752,624.149 14.049,610.902 16.000,607.000 C17.500,604.000 425.134,610.802 435.145,610.802 ZM590.585,824.888 C613.616,809.013 644.323,801.071 682.710,801.071 L1007.503,801.071 C1007.354,801.666 1007.190,802.246 1007.028,802.828 C1016.126,801.657 1025.611,801.071 1035.485,801.071 L1089.923,801.071 L1138.864,662.884 L1234.130,662.884 L1136.771,937.165 L1244.860,937.165 C1236.134,965.083 1214.763,979.040 1180.739,979.040 L1081.025,979.040 C1052.235,979.040 1038.103,969.970 1038.626,951.821 C1019.431,974.329 993.696,985.583 961.419,985.583 C940.306,985.583 923.208,979.649 910.122,967.786 C896.513,955.575 889.708,938.997 889.708,918.060 C889.708,887.774 899.542,862.739 919.193,842.946 L780.854,842.946 C786.612,846.786 791.323,853.808 794.987,864.015 C798.651,874.222 800.131,883.079 799.436,890.579 C796.991,919.720 784.166,942.575 760.963,959.149 C738.803,975.028 710.014,983.052 674.596,983.227 C633.416,983.575 601.748,975.466 579.592,958.888 C559.878,944.231 550.018,924.954 550.018,901.048 C550.018,896.337 550.456,891.626 551.327,886.915 C555.866,860.571 568.948,839.896 590.585,824.888 ZM1008.790,935.595 C1014.025,936.642 1025.188,937.165 1042.290,937.165 L1075.528,842.946 L1009.052,842.946 L989.161,899.216 C987.415,904.450 986.544,909.161 986.544,913.349 C986.544,925.040 993.958,932.454 1008.790,935.595 ZM678.784,942.399 C682.096,942.399 684.975,942.313 687.420,942.138 L722.229,842.946 L662.295,842.946 L638.741,909.946 C637.518,913.439 636.909,916.751 636.909,919.892 C636.909,934.899 650.866,942.399 678.784,942.399 ZM1388.523,801.071 L1426.472,801.071 C1448.629,801.071 1468.086,804.474 1484.836,811.278 C1507.168,820.353 1518.859,834.138 1519.906,852.630 C1520.777,871.302 1511.793,886.829 1492.949,899.216 L1406.320,899.216 L1434.586,842.946 L1379.363,842.946 L1357.902,906.020 C1356.679,909.685 1356.070,913.001 1356.070,915.966 C1356.070,930.099 1367.410,937.165 1390.094,937.165 L1594.234,937.165 C1590.570,950.603 1582.195,961.157 1569.109,968.833 C1557.418,975.638 1544.070,979.040 1529.066,979.040 L1383.289,979.040 C1298.492,979.040 1256.094,953.482 1256.094,902.356 C1256.094,869.556 1270.574,843.821 1299.539,825.149 C1324.488,809.099 1354.148,801.071 1388.523,801.071 Z" class="cls-1"/>
</svg>
