<svg xmlns="http://www.w3.org/2000/svg" xmlns:xlink="http://www.w3.org/1999/xlink" preserveAspectRatio="xMidYMid" width="1830" height="758" viewBox="0 0 1830 758">
  <defs>
    <style>
      .cls-1 {
        fill: #000;
      }

      .cls-1, .cls-2 {
        fill-rule: evenodd;
      }

      .cls-2 {
        fill: #fffcfc;
      }
    </style>
  </defs>
  <path d="M1791.921,242.737 C1768.029,263.306 1740.053,273.583 1708.003,273.583 C1675.640,273.583 1647.368,263.306 1623.177,242.737 C1598.072,220.964 1585.527,194.201 1585.527,162.448 C1585.527,151.866 1586.732,142.794 1589.156,135.231 C1524.438,135.841 1465.617,169.408 1412.701,235.933 C1363.101,298.837 1338.308,363.554 1338.308,430.080 C1338.308,554.979 1419.802,617.422 1582.806,617.422 L1810.973,617.422 C1801.596,665.810 1764.853,690.000 1700.745,690.000 L1533.362,690.000 C1429.031,690.000 1344.354,674.882 1279.338,644.639 C1194.346,604.881 1150.287,541.366 1147.090,454.121 L923.742,454.121 L838.462,690.000 L676.069,690.000 L761.348,454.121 L622.089,454.121 C469.675,637.990 320.734,729.918 175.280,729.918 C132.938,729.918 97.258,722.051 68.227,706.330 C31.640,686.371 13.340,657.042 13.340,618.329 C13.340,585.371 26.948,553.165 54.165,521.709 C98.010,471.210 164.393,433.864 253.301,409.667 C322.853,390.920 399.662,381.543 483.737,381.543 L571.738,381.543 L846.627,51.766 L1065.269,51.766 L948.237,381.543 L1154.190,381.543 C1161.879,348.732 1175.620,315.920 1195.420,283.109 C1238.662,211.140 1300.049,154.283 1379.587,112.550 C1456.701,72.030 1538.649,51.766 1625.445,51.766 L1716.168,51.766 C1745.497,51.766 1771.735,62.958 1794.870,85.333 C1818.004,107.716 1829.571,133.417 1829.571,162.448 C1829.571,194.201 1817.019,220.964 1791.921,242.737 ZM271.899,503.111 C234.094,530.328 215.198,559.211 215.198,589.751 C215.198,615.763 228.806,628.762 256.023,628.762 C293.517,628.762 340.395,607.598 396.643,565.256 C445.931,528.670 483.886,491.622 510.500,454.121 C397.097,454.121 317.558,470.451 271.899,503.111 ZM682.419,381.543 L783.575,381.543 L881.102,127.066 L682.419,381.543 Z" class="cls-1"/>
  <path d="M1783.921,222.737 C1760.029,243.306 1732.053,253.583 1700.003,253.583 C1667.640,253.583 1639.368,243.306 1615.177,222.737 C1590.072,200.964 1577.527,174.201 1577.527,142.448 C1577.527,131.866 1578.732,122.794 1581.156,115.231 C1516.438,115.841 1457.617,149.408 1404.701,215.933 C1355.101,278.837 1330.308,343.554 1330.308,410.080 C1330.308,534.979 1411.802,597.422 1574.806,597.422 L1802.973,597.422 C1793.596,645.810 1756.853,670.000 1692.745,670.000 L1525.362,670.000 C1421.031,670.000 1336.354,654.882 1271.338,624.639 C1186.346,584.881 1142.287,521.366 1139.090,434.121 L915.742,434.121 L830.462,670.000 L668.069,670.000 L753.348,434.121 L614.089,434.121 C461.675,617.990 312.734,709.918 167.280,709.918 C124.938,709.918 89.258,702.051 60.227,686.330 C23.640,666.371 5.340,637.042 5.340,598.329 C5.340,565.371 18.948,533.165 46.165,501.709 C90.010,451.210 156.393,413.864 245.301,389.667 C314.853,370.920 391.662,361.543 475.737,361.543 L563.738,361.543 L838.627,31.766 L1057.269,31.766 L940.237,361.543 L1146.190,361.543 C1153.879,328.732 1167.620,295.920 1187.420,263.109 C1230.662,191.140 1292.049,134.283 1371.587,92.550 C1448.701,52.030 1530.649,31.766 1617.445,31.766 L1708.168,31.766 C1737.497,31.766 1763.735,42.958 1786.870,65.333 C1810.004,87.716 1821.571,113.417 1821.571,142.448 C1821.571,174.201 1809.019,200.964 1783.921,222.737 ZM263.899,483.111 C226.094,510.328 207.198,539.211 207.198,569.751 C207.198,595.763 220.806,608.762 248.023,608.762 C285.517,608.762 332.395,587.598 388.643,545.256 C437.931,508.670 475.886,471.622 502.500,434.121 C389.097,434.121 309.558,450.451 263.899,483.111 ZM674.419,361.543 L775.575,361.543 L873.102,107.066 L674.419,361.543 Z" class="cls-2"/>
</svg>
