<svg height="512pt" viewBox="-1 0 512 512" width="512pt" xmlns="http://www.w3.org/2000/svg"><path d="m97.324219 183.199219c-1.09375 0-2.203125-.238281-3.257813-.738281-3.796875-1.800782-5.417968-6.34375-3.613281-10.140626.304687-.640624.609375-1.28125.925781-1.917968 1.847656-3.773438 6.40625-5.332032 10.183594-3.484375 3.773438 1.851562 5.332031 6.410156 3.484375 10.1875-.285156.578125-.5625 1.160156-.839844 1.742187-1.304687 2.742188-4.035156 4.351563-6.882812 4.351563zm13.523437-23.808594c-1.457031 0-2.929687-.414063-4.230468-1.285156-3.492188-2.339844-4.425782-7.066407-2.085938-10.558594.390625-.585937.785156-1.167969 1.183594-1.75 2.375-3.46875 7.109375-4.355469 10.578125-1.976563 3.46875 2.375 4.355469 7.113282 1.980469 10.578126-.371094.539062-.734376 1.078124-1.09375 1.617187-1.46875 2.191406-3.878907 3.375-6.332032 3.375zm16.851563-21.578125c-1.820313 0-3.648438-.652344-5.105469-1.96875-3.117188-2.820312-3.355469-7.632812-.535156-10.75.472656-.523438.949218-1.042969 1.425781-1.558594 2.855469-3.085937 7.667969-3.273437 10.757813-.417968 3.082031 2.855468 3.273437 7.667968.414062 10.753906-.4375.476562-.878906.957031-1.3125 1.4375-1.5 1.660156-3.570312 2.503906-5.644531 2.503906zm19.804687-18.910156c-2.191406 0-4.371094-.941406-5.875-2.765625-2.675781-3.242188-2.214844-8.039063 1.027344-10.714844.542969-.449219 1.089844-.894531 1.640625-1.335937 3.273437-2.640626 8.0625-2.125 10.703125 1.148437 2.636719 3.273437 2.121094 8.0625-1.152344 10.703125-.503906.40625-1.003906.816406-1.503906 1.226562-1.417969 1.171876-3.132812 1.738282-4.839844 1.738282zm22.335938-15.828125c-2.578125 0-5.09375-1.308594-6.523438-3.679688-2.171875-3.597656-1.015625-8.277343 2.582032-10.449219.601562-.359374 1.203124-.71875 1.804687-1.074218 3.613281-2.136719 8.285156-.941406 10.425781 2.679687 2.136719 3.617188.9375 8.285157-2.679687 10.425781-.5625.332032-1.125.667969-1.683594 1.003907-1.230469.742187-2.585937 1.09375-3.925781 1.09375zm24.398437-12.398438c-2.96875 0-5.792969-1.75-7.015625-4.660156-1.632812-3.875.1875-8.335937 4.058594-9.96875l.261719-.109375c3.878906-1.613281 8.335937.226562 9.949219 4.109375 1.613281 3.882813-.226563 8.335937-4.109376 9.949219l-.191406.082031c-.964844.40625-1.964844.597656-2.953125.597656zm0 0" fill="#6163aa"/><path d="m81.996094 295.023438c-3.644532 0-6.867188-2.625-7.496094-6.339844-.117188-.691406-.234375-1.386719-.34375-2.082032-.65625-4.152343 2.175781-8.050781 6.324219-8.710937 4.160156-.660156 8.050781 2.175781 8.710937 6.328125.101563.640625.207032 1.28125.316406 1.921875.703126 4.144531-2.085937 8.074219-6.230468 8.777344-.429688.070312-.859375.105469-1.28125.105469zm0 0" fill="#b200bf"/><path d="m286.835938 451.363281c-4.039063 0-7.402344-3.171875-7.597657-7.25-.199219-4.199219 3.039063-7.765625 7.238281-7.964843.648438-.03125 1.296876-.066407 1.945313-.101563 4.199219-.238281 7.796875 2.953125 8.042969 7.148437.246094 4.199219-2.953125 7.800782-7.152344 8.046876-.703125.039062-1.40625.078124-2.109375.113281-.121094.003906-.246094.007812-.367187.007812zm-25.335938-.507812c-.21875 0-.441406-.007813-.667969-.027344-.699219-.058594-1.398437-.125-2.101562-.195313-4.183594-.40625-7.246094-4.128906-6.835938-8.3125.410157-4.183593 4.152344-7.25 8.316407-6.835937.648437.0625 1.292968.121094 1.941406.179687 4.1875.363282 7.285156 4.054688 6.921875 8.242188-.34375 3.960938-3.667969 6.949219-7.574219 6.949219zm52.507812-2.796875c-3.5625 0-6.742187-2.507813-7.460937-6.132813-.816406-4.125 1.867187-8.128906 5.992187-8.945312.636719-.125 1.273438-.253907 1.910157-.386719 4.113281-.859375 8.148437 1.777344 9.007812 5.894531.855469 4.113281-1.78125 8.148438-5.898437 9.003907-.6875.144531-1.375.285156-2.066406.421874-.5.097657-.996094.144532-1.484376.144532zm0 0" fill="#6163aa"/><path d="m423.34375 368.910156c-1.332031 0-2.683594-.347656-3.910156-1.085937-3.605469-2.160157-4.773438-6.835938-2.613282-10.441407.335938-.558593.671876-1.121093 1.003907-1.683593 2.128906-3.625 6.792969-4.835938 10.417969-2.707031 3.621093 2.128906 4.835937 6.792968 2.707031 10.417968-.355469.601563-.714844 1.203125-1.070313 1.804688-1.429687 2.378906-3.949218 3.695312-6.535156 3.695312zm12.359375-24.425781c-.972656 0-1.964844-.1875-2.917969-.585937-3.882812-1.613282-5.722656-6.066407-4.109375-9.949219.25-.601563.5-1.207031.742188-1.808594 1.574219-3.898437 6.011719-5.78125 9.90625-4.207031 3.898437 1.574218 5.78125 6.011718 4.207031 9.910156-.261719.648438-.527344 1.300781-.796875 1.945312-1.214844 2.929688-4.046875 4.695313-7.03125 4.695313zm0 0" fill="#6163aa"/><path d="m232.433594 407.542969c0 28.496093-11.40625 54.320312-29.90625 73.167969-16.742188 17.058593-39.304688 28.402343-64.472656 30.808593-3.320313.320313-6.675782.480469-10.078126.480469-31.96875 0-60.585937-14.363281-79.75-36.992188-5.417968-6.394531-10.085937-13.460937-13.851562-21.046874-6.949219-13.980469-10.851562-29.742188-10.851562-46.417969 0-43.441407 26.515624-80.695313 64.25-96.441407 12.378906-5.164062 25.957031-8.015624 40.203124-8.015624 25.714844 0 49.257813 9.289062 67.457032 24.695312.007812.003906.007812.003906.011718.011719 22.625 19.160156 36.988282 47.777343 36.988282 79.75zm0 0" fill="#9bf2e5"/><path d="m232.433594 407.542969c0 28.496093-11.40625 54.320312-29.90625 73.167969-16.742188 17.058593-39.304688 28.402343-64.472656 30.808593-3.320313.320313-6.675782.480469-10.078126.480469-31.96875 0-60.585937-14.363281-79.75-36.992188v-.003906c18.199219 15.402344 41.738282 24.691406 67.449219 24.691406 3.398438 0 6.757813-.160156 10.078125-.480468 25.167969-2.40625 47.726563-13.746094 64.472656-30.808594 18.496094-18.84375 29.90625-44.667969 29.90625-73.167969 0-25.710937-9.289062-49.246093-24.6875-67.445312 22.625 19.160156 36.988282 47.777343 36.988282 79.75zm0 0" fill="#2de0c7"/><path d="m138.054688 478.675781v32.84375c-3.316407.320313-6.675782.480469-10.074219.480469-31.976563 0-60.59375-14.363281-79.75-36.988281v-.007813c-5.421875-6.394531-10.082031-13.453125-13.851563-21.039062h31.253906c1.226563 0 2.410157-.492188 3.277344-1.359375l8.121094-8.128907c.871094-.867187 1.359375-2.042968 1.359375-3.277343v-12.523438c0-2.5625-2.070313-4.640625-4.636719-4.640625h-20.753906c-2.566406 0-4.640625-2.078125-4.640625-4.640625v-16.921875c0-1.5625.785156-3.023437 2.09375-3.878906l15.097656-9.917969c.757813-.5 1.644531-.761719 2.546875-.761719h19.035156c15.117188 0 27.375 12.253907 27.375 27.367188v18.277344c0 1.230468.484376 2.410156 1.359376 3.277344l10.988281 10.996093c.871093.871094 1.359375 2.050781 1.359375 3.277344v13.882813c0 1.226562.492187 2.40625 1.359375 3.277343l7.125 7.125c.871093.871094 1.355469 2.050781 1.355469 3.28125zm0 0" fill="#84e507"/><path d="m125.753906 499.214844c4.175782-.398438 8.28125-1.042969 12.300782-1.925782v14.230469c-3.316407.320313-6.675782.480469-10.074219.480469-31.976563 0-60.59375-14.363281-79.75-36.988281v-.007813c18.199219 15.402344 41.738281 24.691406 67.445312 24.691406 3.398438 0 6.757813-.160156 10.078125-.480468zm0 0" fill="#69cc00"/><path d="m131.316406 480.78125c.003906.003906.007813.007812.011719.011719zm-59.667968-41.683594c-.003907.003906-.007813.007813-.011719.011719zm49.582031-7.660156.011719.015625c-.003907-.007813-.007813-.011719-.011719-.015625zm-51.476563-36.414062-.019531.015624c.003906-.003906.011719-.011718.019531-.015624zm0 0"/><path d="m202.53125 441.925781c0-1.226562-.488281-2.40625-1.359375-3.277343l-9.941406-9.945313c-.875-.871094-2.050781-1.355469-3.28125-1.355469h-35.875c-2.558594 0-4.640625-2.082031-4.640625-4.644531v-55.609375c0-1.230469-.484375-2.40625-1.359375-3.28125l-11.109375-11.109375c-.871094-.871094-2.050782-1.359375-3.28125-1.359375h-24.738282c-1.226562 0-2.40625-.484375-3.277343-1.359375l-14.53125-14.53125c-.871094-.875-1.363281-2.050781-1.363281-3.28125v-21.070313c12.378906-5.164062 25.953124-8.015624 40.203124-8.015624 25.71875 0 49.265626 9.292968 67.464844 24.703124l.007813.007813c22.625 19.160156 36.984375 47.773437 36.984375 79.742187 0 28.5-11.40625 54.324219-29.90625 73.167969v-38.78125zm0 0" fill="#84e507"/><path d="m202.53125 453.285156c11.113281-16.597656 17.601562-36.5625 17.601562-58.046875 0-25.710937-9.289062-49.242187-24.683593-67.441406 22.625 19.164063 36.984375 47.773437 36.984375 79.746094 0 28.496093-11.40625 54.320312-29.90625 73.167969v-27.425782zm0 0" fill="#69cc00"/><path d="m503.539062 181.140625c0 87.527344-70.957031 158.484375-158.484374 158.484375-87.527344 0-158.484376-70.957031-158.484376-158.484375s70.957032-158.484375 158.484376-158.484375c87.527343 0 158.484374 70.957031 158.484374 158.484375zm0 0" fill="#d82fea"/><path d="m457.121094 69.074219c61.894531 61.890625 61.886718 162.238281-.007813 224.128906-3.539062 3.542969-7.210937 6.890625-10.992187 10.023437 51.660156-62.261718 48.3125-154.78125-10.03125-213.121093-58.34375-58.34375-150.859375-61.691407-213.121094-10.03125 3.132812-3.78125 6.480469-7.453125 10.023438-10.996094 61.890624-61.890625 162.238281-61.898437 224.128906-.003906zm0 0" fill="#b200bf"/><path d="m188.089844 180.261719c-2.714844 0-5.34375-1.457031-6.714844-4.015625-1.988281-3.703125-.597656-8.316406 3.105469-10.304688 27.972656-15.007812 56.53125-36.714844 82.59375-62.78125 16.765625-16.765625 31.679687-34.484375 44.328125-52.664062 2.398437-3.449219 7.144531-4.304688 10.59375-1.902344 3.453125 2.398438 4.304687 7.144531 1.902344 10.59375-13.160157 18.917969-28.65625 37.335938-46.058594 54.738281-27.101563 27.101563-56.894532 49.726563-86.160156 65.429688-1.144532.613281-2.375.90625-3.589844.90625zm0 0" fill="#c5ee09"/><path d="m247.671875 277.015625c-2.847656 0-5.578125-1.605469-6.878906-4.347656-1.804688-3.796875-.191407-8.335938 3.605469-10.140625 15.402343-7.316406 31.402343-16.835938 47.554687-28.289063 3.429687-2.433593 8.179687-1.621093 10.609375 1.808594 2.433594 3.425781 1.625 8.179687-1.804688 10.609375-16.867187 11.960938-33.628906 21.925781-49.824218 29.621094-1.054688.5-2.167969.738281-3.261719.738281zm0 0" fill="#edff85"/><path d="m357.988281 195.195312c-1.925781 0-3.847656-.722656-5.332031-2.179687-3-2.945313-3.042969-7.761719-.097656-10.761719 11.808594-12.03125 22.886718-24.582031 32.925781-37.300781 2.605469-3.300781 7.390625-3.863281 10.691406-1.261719 3.300781 2.605469 3.863281 7.394532 1.257813 10.691406-10.378906 13.148438-21.820313 26.113282-34.011719 38.535157-1.492187 1.515625-3.460937 2.277343-5.433594 2.277343zm0 0" fill="#edff85"/><path d="m450.796875 60.761719c-3.28125 10.003906-7.613281 20.40625-12.972656 31.113281-4.34375 8.699219-9.367188 17.609375-15.039063 26.671875-1.441406 2.304687-3.925781 3.570313-6.453125 3.570313-1.382812 0-2.78125-.375-4.039062-1.15625-3.5625-2.230469-4.640625-6.929688-2.40625-10.492188 6.3125-10.089844 11.761719-19.933594 16.308593-29.472656 4.109376-8.585938 7.488282-16.929688 10.128907-24.964844 1.308593-4 5.601562-6.183594 9.601562-4.871094 3.996094 1.308594 6.179688 5.601563 4.871094 9.601563zm0 0" fill="#edff85"/><path d="m293.222656 337.417969c-3.277344 0-6.304687-2.132813-7.289062-5.433594-1.203125-4.03125 1.085937-8.269531 5.117187-9.472656 37.351563-11.15625 80.472657-39.246094 118.300781-77.074219 10.472657-10.476562 20.3125-21.46875 29.246094-32.671875 2.621094-3.289063 7.410156-3.828125 10.699219-1.207031 3.285156 2.621094 3.824219 7.410156 1.203125 10.699218-9.285156 11.644532-19.511719 23.066407-30.386719 33.941407-39.554687 39.558593-85.011719 69.042969-124.710937 80.898437-.722656.21875-1.457032.320313-2.179688.320313zm0 0" fill="#c5ee09"/><path d="m500.859375 132.015625c-4.433594 14.664063-11.214844 30.089844-20.207031 45.941406-1.664063 2.964844-3.417969 5.945313-5.257813 8.941407-1.4375 2.34375-3.9375 3.632812-6.503906 3.632812-1.347656 0-2.730469-.355469-3.96875-1.117188-3.582031-2.191406-4.707031-6.878906-2.515625-10.460937 4.941406-8.058594 9.285156-16.003906 13.011719-23.777344 4.546875-9.472656 8.179687-18.6875 10.867187-27.566406 1.21875-4.027344 5.472656-6.300781 9.488282-5.082031 4.019531 1.207031 6.304687 5.457031 5.085937 9.488281zm0 0" fill="#edff85"/><path d="m509.171875 173.777344c-7.460937 15.820312-16.808594 31.691406-27.796875 47.261718-12.6875 18.023438-27.554688 35.621094-44.179688 52.242188-1.480468 1.492188-3.429687 2.234375-5.378906 2.234375-1.949218 0-3.894531-.742187-5.378906-2.234375-2.972656-2.972656-2.972656-7.792969 0-10.757812 22.238281-22.246094 41.183594-46.265626 55.746094-70.5625 4.921875-8.210938 9.347656-16.460938 13.226562-24.683594 1.796875-3.804688 6.332032-5.429688 10.125-3.640625 3.808594 1.796875 5.433594 6.332031 3.636719 10.140625zm0 0" fill="#edff85"/><path d="m340.074219 211.585938h-.113281c-4.203126 0-7.609376-3.410157-7.609376-7.613282s3.40625-7.613281 7.609376-7.613281h.113281c4.203125 0 7.613281 3.410156 7.613281 7.613281s-3.410156 7.613282-7.613281 7.613282zm0 0" fill="#edff85"/><path d="m335.988281 99.210938c-.011719 0-.023437 0-.035156 0h-.113281c-4.203125-.015626-7.597656-3.441407-7.578125-7.644532.019531-4.191406 3.425781-7.578125 7.613281-7.578125h.035156.113282c4.203124.019531 7.59375 3.441407 7.578124 7.644531-.019531 4.191407-3.425781 7.578126-7.613281 7.578126zm0 0" fill="#c5ee09"/><path d="m412.261719 294.152344c-.011719 0-.023438 0-.035157 0h-.113281c-4.203125-.015625-7.59375-3.4375-7.578125-7.644532.019532-4.191406 3.425782-7.578124 7.613282-7.578124h.035156.113281c4.203125.019531 7.597656 3.441406 7.578125 7.644531-.019531 4.195312-3.425781 7.578125-7.613281 7.578125zm0 0" fill="#c5ee09"/><path d="m424.964844 415.828125c0 23.84375-19.328125 43.175781-43.171875 43.175781s-43.171875-19.332031-43.171875-43.175781c0-23.839844 19.328125-43.171875 43.171875-43.171875s43.171875 19.332031 43.171875 43.171875zm0 0" fill="#edff85"/><path d="m424.960938 415.828125c0 23.847656-19.328126 43.175781-43.167969 43.175781-4.148438 0-8.160157-.585937-11.953125-1.679687 18.03125-5.179688 31.222656-21.796875 31.222656-41.496094 0-19.695313-13.1875-36.3125-31.222656-41.492187 3.792968-1.09375 7.804687-1.679688 11.953125-1.679688 23.839843 0 43.167969 19.328125 43.167969 43.171875zm0 0" fill="#c5ee09"/><path d="m118.371094 230.824219c0 16.65625-13.5 30.15625-30.152344 30.15625s-30.15625-13.5-30.15625-30.15625c0-16.652344 13.503906-30.152344 30.15625-30.152344s30.152344 13.5 30.152344 30.152344zm0 0" fill="#fda736"/><path d="m118.371094 230.824219c0 16.65625-13.5 30.15625-30.152344 30.15625-2.894531 0-5.699219-.40625-8.347656-1.171875 12.59375-3.617188 21.804687-15.222656 21.804687-28.984375 0-13.757813-9.210937-25.363281-21.804687-28.980469 2.648437-.765625 5.449218-1.171875 8.347656-1.171875 16.652344 0 30.152344 13.5 30.152344 30.152344zm0 0" fill="#fd8f07"/><path d="m286.757812 15.222656c-.011718 0-.023437 0-.035156 0h-.109375c-4.203125-.019531-7.597656-3.441406-7.578125-7.644531.019532-4.191406 3.421875-7.578125 7.609375-7.578125h.035157.113281c4.203125.0195312 7.597656 3.441406 7.578125 7.644531-.019532 4.195313-3.425782 7.578125-7.613282 7.578125zm0 0" fill="#b200bf"/><path d="m251.664062 372.503906c-.011718 0-.023437 0-.035156 0h-.113281c-4.203125-.019531-7.597656-3.441406-7.578125-7.644531.019531-4.191406 3.421875-7.578125 7.613281-7.578125h.035157.109374c4.203126.019531 7.597657 3.441406 7.578126 7.644531-.019532 4.195313-3.421876 7.578125-7.609376 7.578125zm0 0" fill="#fd8f07"/><path d="m266.546875 21.730469h-.113281c-4.203125 0-7.613282-3.40625-7.613282-7.609375 0-4.207032 3.40625-7.613282 7.613282-7.613282h.113281c4.203125 0 7.609375 3.40625 7.609375 7.613282 0 4.203125-3.40625 7.609375-7.609375 7.609375zm0 0" fill="#69cc00"/><path d="m37.242188 246.28125c-.011719 0-.023438 0-.035157 0h-.113281c-4.203125-.015625-7.597656-3.4375-7.578125-7.644531.019531-4.191407 3.421875-7.578125 7.613281-7.578125h.03125l.113282.003906c4.203124.015625 7.597656 3.441406 7.578124 7.644531-.015624 4.191407-3.421874 7.574219-7.609374 7.574219zm0 0" fill="#b200bf"/><path d="m241.988281 354.253906c-.011719 0-.023437 0-.035156 0h-.113281c-4.203125-.015625-7.597656-3.441406-7.578125-7.644531s3.460937-7.589844 7.644531-7.578125h.113281c4.203125.019531 7.597657 3.441406 7.578125 7.644531-.015625 4.191407-3.421875 7.578125-7.609375 7.578125zm0 0" fill="#b200bf"/><g fill="#d82fea"><path d="m24.195312 280.570312c-.011718 0-.023437 0-.035156 0-4.203125-.019531-7.597656-3.445312-7.578125-7.648437l.015625-2.957031c.019532-4.191406 3.421875-7.578125 7.609375-7.578125h.039063c4.203125.019531 7.59375 3.445312 7.574218 7.648437l-.011718 2.957032c-.023438 4.195312-3.425782 7.578124-7.613282 7.578124zm0 0"/><path d="m24.101562 310.699219c-.011718 0-.023437 0-.035156 0-4.203125-.019531-7.597656-3.445313-7.578125-7.648438l.015625-2.960937c.019532-4.191406 3.425782-7.574219 7.609375-7.574219h.039063c4.203125.019531 7.597656 3.445313 7.574218 7.644531l-.011718 2.960938c-.019532 4.191406-3.425782 7.578125-7.613282 7.578125zm0 0"/><path d="m40.699219 294.207031c-.011719 0-.023438 0-.035157 0l-2.960937-.011719c-4.203125-.019531-7.59375-3.445312-7.574219-7.648437.019532-4.191406 3.421875-7.574219 7.609375-7.574219h.039063l2.957031.011719c4.203125.019531 7.597656 3.445313 7.578125 7.648437-.023438 4.191407-3.425781 7.574219-7.613281 7.574219zm0 0"/><path d="m10.574219 294.113281c-.015625 0-.027344 0-.039063 0l-2.960937-.011719c-4.199219-.023437-7.5937502-3.445312-7.574219-7.648437.0195312-4.191406 3.425781-7.574219 7.609375-7.574219h.039063l2.960937.011719c4.203125.019531 7.59375 3.445313 7.574219 7.648437-.019532 4.191407-3.425782 7.574219-7.609375 7.574219zm0 0"/></g><path d="m481.277344 356.597656c-.015625 0-.027344 0-.039063 0-4.203125-.023437-7.59375-3.445312-7.574219-7.648437l.011719-2.960938c.019531-4.191406 3.425781-7.574219 7.613281-7.574219h.035157c4.203125.019532 7.597656 3.441407 7.578125 7.644532l-.015625 2.960937c-.019531 4.191407-3.421875 7.578125-7.609375 7.578125zm0 0" fill="#edff85"/><path d="m481.183594 386.722656c-.011719 0-.027344 0-.039063 0-4.203125-.019531-7.59375-3.441406-7.574219-7.644531l.015626-2.960937c.019531-4.191407 3.421874-7.578126 7.609374-7.578126h.035157c4.203125.023438 7.597656 3.445313 7.578125 7.648438l-.015625 2.960938c-.019531 4.191406-3.425781 7.574218-7.609375 7.574218zm0 0" fill="#edff85"/><path d="m497.78125 370.234375c-.015625 0-.027344 0-.039062 0l-2.957032-.015625c-4.203125-.019531-7.597656-3.445312-7.578125-7.648438.019531-4.1875 3.425781-7.574218 7.613281-7.574218h.035157l2.960937.015625c4.203125.019531 7.59375 3.441406 7.574219 7.644531-.019531 4.191406-3.425781 7.578125-7.609375 7.578125zm0 0" fill="#edff85"/><path d="m467.652344 370.140625c-.011719 0-.023438 0-.035156 0l-2.960938-.015625c-4.203125-.019531-7.597656-3.441406-7.574219-7.644531.019531-4.191407 3.421875-7.578125 7.609375-7.578125h.035156l2.960938.015625c4.203125.019531 7.597656 3.441406 7.578125 7.644531-.023437 4.195312-3.425781 7.578125-7.613281 7.578125zm0 0" fill="#edff85"/><path d="m129.554688 36.203125c-.011719 0-.027344 0-.039063 0-4.203125-.023437-7.59375-3.445313-7.574219-7.652344l.015625-2.957031c.019531-4.191406 3.425781-7.574219 7.609375-7.574219h.042969c4.203125.019531 7.59375 3.445313 7.570313 7.648438l-.011719 2.960937c-.023438 4.191406-3.425781 7.574219-7.613281 7.574219zm0 0" fill="#fd8f07"/><path d="m129.460938 66.328125c-.011719 0-.023438 0-.039063 0-4.203125-.019531-7.59375-3.445313-7.574219-7.648437l.015625-2.960938c.023438-4.191406 3.425781-7.570312 7.613281-7.570312h.039063c4.203125.019531 7.59375 3.445312 7.574219 7.648437l-.015625 2.960937c-.023438 4.1875-3.425781 7.570313-7.613281 7.570313zm0 0" fill="#fd8f07"/><path d="m146.058594 49.839844c-.011719 0-.023438 0-.035156 0l-2.960938-.015625c-4.203125-.019531-7.59375-3.441407-7.574219-7.644531.019531-4.191407 3.421875-7.578126 7.609375-7.578126h.039063l2.957031.015626c4.207031.019531 7.597656 3.445312 7.578125 7.648437-.023437 4.1875-3.425781 7.574219-7.613281 7.574219zm0 0" fill="#fd8f07"/><path d="m115.933594 49.746094c-.015625 0-.027344 0-.039063 0l-2.957031-.015625c-4.207031-.019531-7.597656-3.441407-7.578125-7.644531.019531-4.191407 3.425781-7.578126 7.613281-7.578126h.035156l2.960938.015626c4.203125.019531 7.59375 3.445312 7.574219 7.648437-.019531 4.191406-3.425781 7.574219-7.609375 7.574219zm0 0" fill="#fd8f07"/><path d="m450.796875 60.761719c-3.28125 10.003906-7.613281 20.40625-12.972656 31.113281-.566407-.597656-1.144531-1.1875-1.734375-1.773438-3.195313-3.199218-6.496094-6.234374-9.894532-9.105468 4.109376-8.585938 7.488282-16.925782 10.128907-24.964844 1.308593-4 5.601562-6.179688 9.601562-4.871094 3.996094 1.308594 6.179688 5.601563 4.871094 9.601563zm0 0" fill="#c5ee09"/><path d="m500.859375 132.015625c-4.433594 14.664063-11.214844 30.089844-20.207031 45.941406-1.175782-7.683593-2.921875-15.304687-5.234375-22.785156 4.546875-9.46875 8.179687-18.683594 10.867187-27.5625 1.21875-4.03125 5.46875-6.300781 9.488282-5.085937 4.019531 1.210937 6.304687 5.460937 5.085937 9.492187zm0 0" fill="#c5ee09"/><path d="m509.171875 173.777344c-7.460937 15.820312-16.808594 31.691406-27.796875 47.261718 1.164062-9.652343 1.429688-19.386718.808594-29.078124 4.921875-8.207032 9.347656-16.460938 13.226562-24.679688 1.796875-3.808594 6.332032-5.429688 10.125-3.644531 3.808594 1.796875 5.433594 6.332031 3.636719 10.140625zm0 0" fill="#c5ee09"/></svg>