<svg height="512pt" viewBox="-12 0 512 512" width="512pt" xmlns="http://www.w3.org/2000/svg"><path d="m461.246094 446.53125c-4.1875 0-7.59375-3.386719-7.609375-7.578125v-.113281c-.019531-4.207032 3.375-7.628906 7.578125-7.648438h.03125c4.191406 0 7.59375 3.386719 7.613281 7.578125v.117188c.015625 4.203125-3.375 7.625-7.578125 7.644531-.011719 0-.023438 0-.035156 0zm0 0" fill="#fd8f07"/><path d="m487.296875 268.351562c0 9.265626-.515625 18.417969-1.53125 27.421876-2.324219 20.792968-7.265625 40.808593-14.5 59.683593-12.148437 31.714844-30.730469 60.242188-54.15625 83.988281-7.074219 7.175782-14.59375 13.914063-22.519531 20.167969-41.496094 32.808594-93.9375 52.386719-150.941406 52.386719-19.941407 0-39.324219-2.394531-57.878907-6.910156-7.253906-1.777344-14.390625-3.867188-21.382812-6.261719-21.515625-7.398437-41.660157-17.722656-59.964844-30.5-7.675781-5.367187-15.03125-11.152344-22.035156-17.332031-18.835938-16.644532-35.09375-36.171875-48.042969-57.878906-3.96875-6.605469-7.613281-13.425782-10.929688-20.429688-15.019531-31.632812-23.414062-67-23.414062-104.335938 0-5.136718.160156-10.242187.476562-15.292968 7.886719-127.4375 113.757813-228.355469 243.171876-228.355469 62.960937 0 120.355468 23.890625 163.597656 63.101563 23.988281 21.738281 43.628906 48.21875 57.449218 77.941406v.011718c5.378907 11.558594 9.875 23.605469 13.398438 36.066407 5.996094 21.152343 9.203125 43.457031 9.203125 66.527343zm0 0" fill="#9bf2e5"/><path d="m487.296875 268.351562c0 9.265626-.519531 18.417969-1.527344 27.421876-2.324219 20.796874-7.273437 40.804687-14.503906 59.679687-35.050781 91.542969-123.75 156.546875-227.617187 156.546875-6.707032 0-13.355469-.277344-19.925782-.808594 95.207032-7.671875 174.964844-70.085937 207.757813-155.734375 7.230469-18.875 12.175781-38.886719 14.5-59.683593 1.007812-9.003907 1.53125-18.152344 1.53125-27.421876 0-23.070312-3.207031-45.371093-9.207031-66.519531-3.523438-12.464843-8.015626-24.511719-13.394532-36.074219v-.011718c-13.824218-29.722656-33.464844-56.199219-57.457031-77.941406-38.640625-35.042969-88.589844-57.847657-143.71875-62.292969 6.570313-.53125 13.207031-.808594 19.917969-.808594 62.960937 0 120.351562 23.886719 163.589844 63.101563 23.992187 21.742187 43.632812 48.21875 57.457031 77.941406v.011718c5.378906 11.5625 9.871093 23.609376 13.394531 36.074219 6 21.148438 9.203125 43.449219 9.203125 66.519531zm0 0" fill="#2de0c7"/><path d="m487.296875 268.351562c0 9.265626-.519531 18.417969-1.527344 27.421876-2.324219 20.796874-7.273437 40.804687-14.503906 59.679687-14.394531 9.324219-31.335937 18.007813-51.296875 25.5-25.277344 9.503906-55.363281 17.105469-91.191406 21.660156-127.5 16.242188-185.058594 30.617188-224.359375 65.710938-7.675781-5.359375-15.03125-11.144531-22.027344-17.324219-18.84375-16.644531-35.097656-36.167969-48.046875-57.878906 40.085938-46.699219 94.671875-62.742188 239.464844-81.179688 86.605468-11.03125 139.707031-39.8125 172.246094-70.324218 14.265624-13.386719 24.585937-27.089844 32.039062-39.789063 6 21.152344 9.203125 43.453125 9.203125 66.523437zm0 0" fill="#fda736"/><path d="m487.296875 268.351562c0 9.265626-.519531 18.417969-1.527344 27.421876-2.324219 20.796874-7.273437 40.804687-14.503906 59.679687-14.394531 9.324219-31.335937 18.007813-51.296875 25.5 4.3125-8.226563 8.152344-16.738281 11.507812-25.5 7.230469-18.875 12.179688-38.886719 14.503907-59.679687 1.007812-9.003907 1.527343-18.15625 1.527343-27.421876 0-9.035156-.488281-17.953124-1.453124-26.730468 14.269531-13.386719 24.585937-27.09375 32.039062-39.789063 6 21.148438 9.203125 43.449219 9.203125 66.519531zm0 0" fill="#fd8f07"/><path d="m464.695312 165.746094v.011718c-5.839843 11.601563-14.160156 24.511719-26.019531 37.421876-29.949219 32.625-82.476562 65.289062-174.496093 77.007812-152.890626 19.472656-200.738282 36.148438-240.773438 92.5-15.007812-31.625-23.40625-67-23.40625-104.335938 0-5.136718.160156-10.242187.476562-15.296874 37.5625-31.277344 92.976563-44.664063 211.082032-59.695313 96.574218-12.292969 149.640625-47.644531 178.761718-81.839844 6.898438-8.078125 12.453126-16.09375 16.921876-23.714843 23.992187 21.742187 43.632812 48.21875 57.453124 77.941406zm0 0" fill="#2de0c7"/><path d="m464.695312 165.746094v.011718c-5.839843 11.601563-14.160156 24.511719-26.019531 37.421876-.117187-.457032-.242187-.902344-.371093-1.347657-3.527344-12.464843-8.015626-24.511719-13.398438-36.074219v-.011718c-9.128906-19.636719-20.796875-37.855469-34.585938-54.226563 6.898438-8.078125 12.453126-16.09375 16.921876-23.714843 23.992187 21.742187 43.632812 48.21875 57.453124 77.941406zm0 0" fill="#00c2cc"/><path d="m487.296875 268.351562c0 9.265626-.519531 18.417969-1.527344 27.421876-11.945312 11.898437-27.039062 23.652343-46.128906 34.203124-30.011719 16.613282-69.882813 30.289063-122.835937 37.03125-144.898438 18.449219-195.453126 34.394532-234.414063 83.992188-24.585937-21.71875-44.757813-48.335938-58.984375-78.3125 40.035156-56.351562 87.882812-73.03125 240.773438-92.5 92.019531-11.71875 144.546874-44.375 174.496093-77.007812 11.871094-12.917969 20.179688-25.828126 26.019531-37.433594 14.503907 31.179687 22.601563 65.949218 22.601563 102.605468zm0 0" fill="#00c4ce"/><path d="m487.296875 268.351562c0 9.265626-.519531 18.417969-1.527344 27.421876-11.945312 11.898437-27.039062 23.652343-46.128906 34.203124 2.898437-11.113281 5.035156-22.539062 6.339844-34.203124 1.007812-9.003907 1.527343-18.15625 1.527343-27.421876 0-22.582031-3.066406-44.429687-8.832031-65.171874 11.871094-12.921876 20.179688-25.828126 26.019531-37.433594 14.503907 31.179687 22.601563 65.949218 22.601563 102.605468zm0 0" fill="#00a6cc"/><path d="m417.109375 439.449219c-7.070313 7.171875-14.589844 13.910156-22.519531 20.160156-5.941406.992187-11.972656 1.859375-18.082032 2.640625-10.730468 1.371094-20.898437 2.710938-30.546874 4.050781h-.03125c-83.339844 11.550781-128.320313 22.417969-160.160157 38.789063-7.25-1.78125-14.390625-3.871094-21.378906-6.261719.21875-.1875.457031-.347656.699219-.5 42.269531-26.367187 104.699218-38.578125 204.539062-51.40625 1.601563-.210937 3.21875-.421875 4.851563-.621094 13.769531-1.761719 27.148437-4.03125 39.789062-6.761719.960938-.210937 1.917969-.230468 2.839844-.089843zm0 0" fill="#fef5e3"/><path d="m311.675781 103.976562c0-17.21875-26.726562-31.179687-59.695312-31.179687-32.964844 0-59.691407 13.960937-59.691407 31.179687s26.726563 31.175782 59.691407 31.175782c32.96875 0 59.695312-13.957032 59.695312-31.175782zm0 0" fill="#fef5e3"/><path d="m311.675781 103.972656c0 17.21875-26.730469 31.179688-59.691406 31.179688-29.101563 0-53.324219-10.871094-58.613281-25.257813 10.839844 5.820313 26.011718 9.441407 42.792968 9.441407 32.964844 0 59.695313-13.960938 59.695313-31.179688 0-2.027344-.371094-4.003906-1.082031-5.925781 10.457031 5.628906 16.898437 13.292969 16.898437 21.742187zm0 0" fill="#ffe5c0"/><g fill="#2de0c7"><path d="m34.386719 470.078125c-.015625 0-.027344 0-.039063 0-4.203125-.019531-7.59375-3.445313-7.574218-7.648437l.015624-3.058594c.019532-4.207032 3.46875-7.625 7.648438-7.574219 4.203125.019531 7.59375 3.445313 7.574219 7.648437l-.015625 3.058594c-.019532 4.191406-3.425782 7.574219-7.609375 7.574219zm0 0"/><path d="m34.289062 501.203125c-.011718 0-.023437 0-.039062 0-4.203125-.019531-7.59375-3.445313-7.574219-7.648437l.015625-3.058594c.019532-4.207032 3.40625-7.582032 7.648438-7.574219 4.207031.019531 7.597656 3.445313 7.574218 7.648437l-.015624 3.058594c-.019532 4.191406-3.421876 7.574219-7.609376 7.574219zm0 0"/><path d="m51.433594 484.164062c-.011719 0-.023438 0-.035156 0l-3.058594-.011718c-4.203125-.019532-7.59375-3.445313-7.574219-7.648438.019531-4.191406 3.421875-7.574218 7.609375-7.574218h.039062l3.054688.011718c4.207031.023438 7.597656 3.445313 7.578125 7.648438-.019531 4.191406-3.425781 7.574218-7.613281 7.574218zm0 0"/><path d="m20.3125 484.070312c-.011719 0-.027344 0-.039062 0l-3.054688-.015624c-4.207031-.019532-7.597656-3.441407-7.578125-7.644532.019531-4.191406 3.425781-7.578125 7.613281-7.578125h.035156l3.058594.015625c4.203125.019532 7.59375 3.441406 7.574219 7.644532-.019531 4.191406-3.425781 7.578124-7.609375 7.578124zm0 0"/><path d="m407.785156 18.28125c-.011718 0-.023437 0-.035156 0-4.203125-.019531-7.597656-3.445312-7.574219-7.648438l.015625-3.058593c.019532-4.191407 3.421875-7.574219 7.609375-7.574219h.039063c4.203125.0195312 7.59375 3.445312 7.570312 7.648438l-.011718 3.058593c-.019532 4.191407-3.425782 7.574219-7.613282 7.574219zm0 0"/><path d="m407.691406 49.40625c-.011718 0-.027344 0-.039062 0-4.203125-.019531-7.59375-3.445312-7.574219-7.648438l.015625-3.058593c.019531-4.191407 3.425781-7.574219 7.609375-7.574219h.039063c4.203124.019531 7.597656 3.445312 7.574218 7.648438l-.015625 3.058593c-.019531 4.191407-3.421875 7.574219-7.609375 7.574219zm0 0"/><path d="m424.839844 32.371094c-.015625 0-.027344 0-.039063 0l-3.058593-.015625c-4.203126-.019531-7.59375-3.445313-7.574219-7.644531.019531-4.207032 3.433593-7.617188 7.648437-7.578126l3.054688.015626c4.203125.019531 7.597656 3.441406 7.578125 7.644531-.019531 4.191406-3.425781 7.578125-7.609375 7.578125zm0 0"/><path d="m393.714844 32.273438c-.015625 0-.027344 0-.039063 0l-3.058593-.011719c-4.203126-.023438-7.59375-3.445313-7.574219-7.648438.019531-4.191406 3.425781-7.578125 7.609375-7.578125h.039062l3.054688.015625c4.207031.019531 7.597656 3.445313 7.578125 7.648438-.019531 4.191406-3.425781 7.574219-7.609375 7.574219zm0 0"/></g><path d="m449.347656 471.898438c-4.203125 0-7.609375-3.410157-7.609375-7.613282v-.117187c0-4.203125 3.40625-7.613281 7.609375-7.613281s7.613282 3.410156 7.613282 7.613281v.117187c0 4.203125-3.410157 7.613282-7.613282 7.613282zm0 0" fill="#fd8f07"/><path d="m51.433594 80.347656c-4.1875 0-7.59375-3.386718-7.609375-7.578125v-.121093c-.019531-4.203126 3.375-7.625 7.578125-7.640626h.03125c4.191406 0 7.59375 3.386719 7.613281 7.578126v.121093c.015625 4.203125-3.375 7.625-7.582031 7.640625-.007813 0-.019532 0-.03125 0zm0 0" fill="#fd8f07"/><path d="m417.109375 439.449219c-7.070313 7.171875-14.589844 13.910156-22.519531 20.160156-5.941406.992187-11.972656 1.859375-18.082032 2.640625-10.730468 1.371094-20.898437 2.710938-30.546874 4.050781 8.296874-5.972656 16.199218-12.441406 23.667968-19.378906 1.601563-.210937 3.21875-.421875 4.851563-.621094 13.769531-1.761719 27.148437-4.03125 39.789062-6.761719.960938-.210937 1.917969-.230468 2.839844-.089843zm0 0" fill="#ffe5c0"/></svg>