<svg height="512pt" viewBox="0 -46 512.00009 512" width="512pt" xmlns="http://www.w3.org/2000/svg"><path d="m321.9375 211.78125c0 19.613281-3.496094 38.410156-9.914062 55.792969-5.6875 15.375-13.644532 29.636719-23.476563 42.386719-29.425781 38.203124-75.617187 62.796874-127.570313 62.796874-66.472656 0-123.53125-40.277343-148.09375-97.765624-2.128906-4.996094-4.023437-10.109376-5.648437-15.347657-4.699219-15.121093-7.234375-31.195312-7.234375-47.863281 0-.5 0-.988281.0117188-1.503906.3554692-39.890625 15.2421872-76.320313 39.6132812-104.253906 29.503906-33.824219 72.9375-55.203126 121.347656-55.203126 88.898438 0 160.964844 72.066407 160.964844 160.960938zm0 0" fill="#fda736"/><path d="m238.789062 248.78125h-111.152343c-4.238281 0-7.675781-3.433594-7.675781-7.671875s3.4375-7.675781 7.675781-7.675781h111.152343c4.238282 0 7.671876 3.4375 7.671876 7.675781 0 4.234375-3.4375 7.671875-7.671876 7.671875zm0 0" fill="#fd8f07"/><path d="m321.941406 211.785156c0 19.613282-3.503906 38.402344-9.921875 55.785156-5.679687 15.375-13.644531 29.640626-23.472656 42.394532-29.425781 38.195312-75.621094 62.796875-127.570313 62.796875-49.734374 0-94.203124-22.546875-123.714843-57.988281 27.910156 23.273437 63.816406 37.261718 102.992187 37.261718 51.945313 0 98.140625-24.597656 127.566406-62.796875 9.828126-12.753906 17.792969-27.019531 23.476563-42.394531 6.414063-17.378906 9.921875-36.171875 9.921875-55.785156 0-39.171875-14.003906-75.082032-37.261719-102.980469 35.4375 29.515625 57.984375 73.980469 57.984375 123.707031zm0 0" fill="#fd8f07"/><path d="m312.019531 267.570312c-5.683593 15.375-13.644531 29.640626-23.476562 42.394532h-86.445313c-11.699218 0-21.195312-9.488282-21.195312-21.199219 0-11.707031 9.496094-21.195313 21.195312-21.195313zm0 0" fill="#fed370"/><path d="m180.902344 185.605469c0 6.816406-2.761719 12.992187-7.230469 17.449219-4.457031 4.46875-10.621094 7.230468-17.4375 7.230468h-156.2226562c.3554692-39.894531 15.2382812-76.332031 39.6054692-104.265625h51.730468c15.160156 0 27.453125 12.296875 27.453125 27.453125 0 7.585938 3.070313 14.4375 8.042969 19.410156 4.972656 4.972657 11.824219 8.042969 19.410156 8.042969h9.976563c13.625 0 24.671875 11.054688 24.671875 24.679688zm0 0" fill="#fed370"/><path d="m508.476562 211.789062c0 78.242188-63.425781 141.667969-141.664062 141.667969-78.242188 0-141.667969-63.425781-141.667969-141.667969 0-78.242187 63.425781-141.667968 141.667969-141.667968 78.238281 0 141.664062 63.425781 141.664062 141.667968zm0 0" fill="#6163aa"/><path d="m508.480469 211.785156c0 78.242188-63.425781 141.667969-141.671875 141.667969-45.714844 0-86.363282-21.640625-112.269532-55.246094 23.921876 18.457031 53.90625 29.433594 86.457032 29.433594 78.242187 0 141.671875-63.417969 141.671875-141.660156 0-32.539063-10.964844-62.523438-29.410157-86.433594 33.589844 25.90625 55.222657 66.546875 55.222657 112.238281zm0 0" fill="#4e5093"/><path d="m113.90625 317.636719c-.007812 0-.015625 0-.027344 0h-.136718c-4.238282-.015625-7.664063-3.464844-7.648438-7.703125.015625-4.226563 3.449219-7.644532 7.675781-7.644532h.027344.136719c4.238281.015626 7.660156 3.464844 7.644531 7.699219-.015625 4.230469-3.445313 7.648438-7.671875 7.648438zm0 0" fill="#fd8f07"/><path d="m91.0625 311.527344c-.011719 0-.019531 0-.03125 0h-.136719c-4.238281-.015625-7.660156-3.464844-7.644531-7.703125.015625-4.226563 3.449219-7.644531 7.671875-7.644531h.027344.140625c4.238281.015624 7.660156 3.464843 7.644531 7.703124-.015625 4.226563-3.449219 7.644532-7.671875 7.644532zm0 0" fill="#fed370"/><path d="m218.84375 113.695312c-.007812 0-.015625 0-.027344 0l-.136718-.003906c-4.238282-.011718-7.660157-3.460937-7.648438-7.699218.015625-4.238282 3.414062-7.675782 7.703125-7.644532h.136719c4.238281.015625 7.660156 3.460938 7.648437 7.699219-.015625 4.230469-3.449219 7.648437-7.675781 7.648437zm0 0" fill="#fd8f07"/><path d="m54.613281 267.316406c0 4.238282-3.4375 7.671875-7.671875 7.671875h-34.058594c-2.128906-4.992187-4.023437-10.105469-5.648437-15.34375h39.707031c4.234375 0 7.671875 3.4375 7.671875 7.671875zm0 0" fill="#fed370"/><path d="m54.640625 144.628906c-.007813 0-.019531 0-.027344 0h-.136719c-4.238281-.015625-7.664062-3.464844-7.648437-7.703125.015625-4.226562 3.449219-7.644531 7.675781-7.644531h.027344.136719c4.238281.015625 7.660156 3.464844 7.644531 7.703125-.015625 4.226563-3.445312 7.644531-7.671875 7.644531zm0 0" fill="#fd8f07"/><path d="m451.285156 163.5625c0 13.757812-11.15625 24.910156-24.914062 24.910156-13.757813 0-24.910156-11.152344-24.910156-24.910156 0-13.761719 11.152343-24.914062 24.910156-24.914062 13.757812 0 24.914062 11.152343 24.914062 24.914062zm0 0" fill="#4e5093"/><path d="m451.28125 163.5625c0 13.75-11.152344 24.914062-24.914062 24.914062-13.75 0-24.902344-11.160156-24.902344-24.914062 0-3.117188.574218-6.105469 1.628906-8.859375 3.570312 9.382813 12.644531 16.042969 23.273438 16.042969 10.640624 0 19.714843-6.660156 23.285156-16.042969 1.054687 2.753906 1.628906 5.742187 1.628906 8.859375zm0 0" fill="#383c7c"/><path d="m389.785156 232.105469c0 8.90625-7.21875 16.125-16.125 16.125s-16.128906-7.21875-16.128906-16.125 7.222656-16.128907 16.128906-16.128907 16.125 7.222657 16.125 16.128907zm0 0" fill="#4e5093"/><path d="m389.789062 232.101562c0 8.910157-7.222656 16.125-16.132812 16.125-8.898438 0-16.125-7.214843-16.125-16.125 0-2.933593.789062-5.6875 2.160156-8.0625 2.792969 4.828126 8 8.0625 13.964844 8.0625 5.976562 0 11.183594-3.234374 13.964844-8.0625 1.382812 2.375 2.167968 5.128907 2.167968 8.0625zm0 0" fill="#383c7c"/><path d="m366.878906 176.523438h-.136718c-4.238282 0-7.675782-3.433594-7.675782-7.671876 0-4.238281 3.4375-7.675781 7.675782-7.675781h.136718c4.238282 0 7.671875 3.4375 7.671875 7.675781.003907 4.234376-3.433593 7.671876-7.671875 7.671876zm0 0" fill="#4e5093"/><path d="m378.40625 153.507812c-.007812 0-.019531 0-.027344 0l-.140625-.003906c-4.234375-.015625-7.660156-3.460937-7.644531-7.699218.015625-4.230469 3.449219-7.644532 7.671875-7.644532h.03125.136719c4.238281.015625 7.660156 3.460938 7.644531 7.699219-.011719 4.230469-3.445313 7.648437-7.671875 7.648437zm0 0" fill="#4e5093"/><path d="m428.671875 382.558594c-.015625 0-.027344 0-.039063 0-4.238281-.019532-7.65625-3.472656-7.636718-7.710938l.015625-2.945312c.019531-4.226563 3.453125-7.636719 7.671875-7.636719h.035156c4.238281.019531 7.660156 3.472656 7.636719 7.710937l-.011719 2.945313c-.019531 4.226563-3.453125 7.636719-7.671875 7.636719zm0 0" fill="#6163aa"/><path d="m428.578125 412.554688c-.011719 0-.023437 0-.039063 0-4.234374-.019532-7.65625-3.472657-7.636718-7.710938l.015625-2.945312c.019531-4.226563 3.453125-7.636719 7.671875-7.636719h.039062c4.234375.019531 7.65625 3.472656 7.636719 7.710937l-.015625 2.945313c-.019531 4.226562-3.449219 7.636719-7.671875 7.636719zm0 0" fill="#6163aa"/><path d="m445.101562 396.136719c-.011718 0-.023437 0-.035156 0l-2.945312-.015625c-4.238282-.019532-7.65625-3.46875-7.636719-7.707032.019531-4.226562 3.449219-7.636718 7.671875-7.636718h.035156l2.945313.011718c4.238281.019532 7.660156 3.472657 7.636719 7.710938-.019532 4.226562-3.449219 7.636719-7.671876 7.636719zm0 0" fill="#6163aa"/><path d="m415.105469 396.046875c-.011719 0-.023438 0-.035157 0l-2.949218-.015625c-4.234375-.019531-7.65625-3.472656-7.636719-7.710938.023437-4.222656 3.453125-7.636718 7.671875-7.636718h.039062l2.945313.015625c4.238281.019531 7.660156 3.472656 7.636719 7.707031-.019532 4.226562-3.449219 7.640625-7.671875 7.640625zm0 0" fill="#6163aa"/><path d="m487.894531 344.71875c-.011719 0-.023437 0-.035156 0-4.238281-.019531-7.65625-3.472656-7.636719-7.710938l.011719-2.945312c.023437-4.226562 3.453125-7.636719 7.671875-7.636719h.039062c4.238282.019531 7.65625 3.46875 7.636719 7.707031l-.015625 2.949219c-.019531 4.222657-3.449218 7.636719-7.671875 7.636719zm0 0" fill="#898ec9"/><path d="m487.804688 374.714844c-.015626 0-.027344 0-.039063 0-4.238281-.019532-7.65625-3.472656-7.636719-7.710938l.015625-2.945312c.019531-4.226563 3.449219-7.636719 7.671875-7.636719h.035156c4.238282.019531 7.65625 3.46875 7.636719 7.707031l-.011719 2.949219c-.023437 4.222656-3.453124 7.636719-7.671874 7.636719zm0 0" fill="#898ec9"/><path d="m504.328125 358.296875c-.011719 0-.023437 0-.039063 0l-2.945312-.015625c-4.238281-.019531-7.65625-3.472656-7.636719-7.710938.019531-4.222656 3.453125-7.636718 7.671875-7.636718h.039063l2.945312.015625c4.238281.019531 7.65625 3.472656 7.636719 7.710937-.019531 4.222656-3.453125 7.636719-7.671875 7.636719zm0 0" fill="#898ec9"/><path d="m474.332031 358.203125c-.011719 0-.023437 0-.035156 0l-2.949219-.015625c-4.238281-.019531-7.65625-3.46875-7.636718-7.707031.019531-4.226563 3.453124-7.636719 7.671874-7.636719h.039063l2.945313.011719c4.238281.019531 7.65625 3.472656 7.636718 7.710937-.019531 4.226563-3.453125 7.636719-7.671875 7.636719zm0 0" fill="#898ec9"/><g fill="#fda736"><path d="m34.082031 52.835938c-.011719 0-.023437 0-.035156 0-4.238281-.019532-7.65625-3.472657-7.636719-7.710938l.011719-2.945312c.019531-4.238282 3.484375-7.644532 7.710937-7.636719 4.238282.019531 7.65625 3.46875 7.636719 7.707031l-.011719 2.949219c-.023437 4.222656-3.453124 7.636719-7.675781 7.636719zm0 0"/><path d="m33.988281 82.832031c-.011719 0-.023437 0-.035156 0-4.238281-.019531-7.65625-3.472656-7.636719-7.710937l.011719-2.945313c.023437-4.226562 3.453125-7.640625 7.675781-7.640625h.035156c4.238282.023438 7.65625 3.472656 7.636719 7.710938l-.015625 2.949218c-.019531 4.222657-3.449218 7.636719-7.671875 7.636719zm0 0"/><path d="m50.515625 66.414062c-.011719 0-.027344 0-.039063 0l-2.945312-.015624c-4.238281-.019532-7.65625-3.472657-7.636719-7.710938.019531-4.222656 3.453125-7.636719 7.671875-7.636719h.035156l2.949219.015625c4.238281.019532 7.65625 3.472656 7.636719 7.710938-.019531 4.222656-3.453125 7.636718-7.671875 7.636718zm0 0"/><path d="m20.519531 66.320312c-.011719 0-.027343 0-.039062 0l-2.945313-.015624c-4.238281-.019532-7.65625-3.46875-7.636718-7.707032.019531-4.226562 3.453124-7.636718 7.671874-7.636718h.035157l2.949219.011718c4.238281.019532 7.65625 3.472656 7.636718 7.710938-.019531 4.222656-3.453125 7.636718-7.671875 7.636718zm0 0"/></g><path d="m346.546875 396.214844c-4.238281 0-7.671875-3.4375-7.671875-7.671875v-.117188c0-4.238281 3.433594-7.671875 7.671875-7.671875s7.675781 3.433594 7.675781 7.671875v.117188c0 4.234375-3.4375 7.671875-7.675781 7.671875zm0 0" fill="#898ec9"/><path d="m357.535156 420.273438c-4.238281 0-7.675781-3.433594-7.675781-7.671876v-.117187c0-4.238281 3.4375-7.671875 7.675781-7.671875 4.238282 0 7.671875 3.433594 7.671875 7.671875v.117187c0 4.238282-3.433593 7.671876-7.671875 7.671876zm0 0" fill="#898ec9"/><path d="m273.234375 52.890625c-4.238281 0-7.675781-3.433594-7.675781-7.671875v-.113281c0-4.238281 3.4375-7.675781 7.675781-7.675781s7.671875 3.4375 7.671875 7.675781v.113281c0 4.238281-3.433594 7.671875-7.671875 7.671875zm0 0" fill="#4e5093"/><path d="m54.640625 390.277344c-4.238281 0-7.671875-3.433594-7.671875-7.671875v-.117188c0-4.238281 3.433594-7.671875 7.671875-7.671875s7.671875 3.433594 7.671875 7.671875v.117188c0 4.238281-3.433594 7.671875-7.671875 7.671875zm0 0" fill="#fd8f07"/><path d="m93.816406 29.347656c-4.222656 0-7.65625-3.414062-7.675781-7.640625v-.113281c-.019531-4.238281 3.402344-7.6875 7.640625-7.707031h.035156c4.222656 0 7.652344 3.414062 7.671875 7.640625v.113281c.019531 4.238281-3.402343 7.6875-7.640625 7.707031-.007812 0-.023437 0-.03125 0zm0 0" fill="#fd8f07"/><path d="m111.574219 15.460938c-4.234375 0-7.671875-3.433594-7.671875-7.671876v-.117187c0-4.238281 3.4375-7.671875 7.671875-7.671875 4.238281 0 7.675781 3.433594 7.675781 7.671875v.117187c0 4.234376-3.4375 7.671876-7.675781 7.671876zm0 0" fill="#fd8f07"/></svg>