<svg height="512pt" viewBox="-4 0 512 512" width="512pt" xmlns="http://www.w3.org/2000/svg"><path d="m438.652344 169.957031c-3.882813 0-7.226563-2.914062-7.679688-6.863281-.484375-4.246094 2.566406-8.082031 6.8125-8.566406.695313-.082032 1.390625-.15625 2.089844-.234375 4.269531-.460938 8.066406 2.609375 8.53125 6.855469.464844 4.25-2.605469 8.070312-6.855469 8.53125-.671875.074218-1.339843.148437-2.007812.226562-.300781.035156-.597657.050781-.890625.050781zm27.777344-2.132812c-4.132813 0-7.5625-3.265625-7.726563-7.433594-.171875-4.273437 3.152344-7.871094 7.425781-8.039063.699219-.027343 1.398438-.054687 2.101563-.078124 4.253906-.148438 7.851562 3.195312 8 7.46875.148437 4.269531-3.195313 7.851562-7.46875 8-.671875.023437-1.347657.046874-2.019531.074218-.105469.003906-.210938.007813-.3125.007813zm29.925781-.003907c-.101563 0-.207031-.003906-.308594-.007812-.671875-.027344-1.34375-.050781-2.019531-.074219-4.269532-.140625-7.617188-3.722656-7.472656-7.992187.144531-4.273438 3.734374-7.605469 7.996093-7.476563.703125.027344 1.40625.050781 2.109375.078125 4.269532.167969 7.59375 3.769532 7.425782 8.039063-.167969 4.167969-3.597657 7.433593-7.730469 7.433593zm0 0" fill="#6163aa"/><path d="m109.863281 512c-.191406 0-.386719-.007812-.582031-.023438-4.261719-.316406-7.460938-4.03125-7.140625-8.292968.050781-.703125.105469-1.402344.164063-2.105469.34375-4.261719 4.074218-7.433594 8.335937-7.089844s7.4375 4.074219 7.089844 8.335938c-.054688.671875-.105469 1.339843-.15625 2.011719-.304688 4.066406-3.695313 7.164062-7.710938 7.164062zm3.113281-27.683594c-.386718 0-.773437-.027344-1.164062-.085937-4.226562-.640625-7.136719-4.582031-6.5-8.808594l.320312-2.078125c.65625-4.222656 4.617188-7.113281 8.835938-6.453125 4.222656.65625 7.113281 4.613281 6.453125 8.835937l-.304687 2.003907c-.578126 3.835937-3.878907 6.585937-7.640626 6.585937zm5.164063-27.371094c-.570313 0-1.148437-.0625-1.726563-.195312-4.167968-.949219-6.773437-5.101562-5.824218-9.265625l.472656-2.046875c.972656-4.164062 5.140625-6.75 9.292969-5.78125 4.164062.96875 6.753906 5.128906 5.78125 9.292969l-.457031 1.976562c-.816407 3.589844-4.007813 6.019531-7.539063 6.019531zm7.210937-26.90625c-.757812 0-1.53125-.113281-2.292968-.347656-4.082032-1.265625-6.367188-5.597656-5.101563-9.679687l.625-2.007813c1.28125-4.078125 5.625-6.339844 9.707031-5.058594 4.074219 1.285157 6.339844 5.628907 5.054688 9.707032l-.601562 1.933594c-1.027344 3.320312-4.089844 5.453124-7.390626 5.453124zm0 0" fill="#6163aa"/><path d="m442.894531 218.605469c0 7.921875-.414062 15.746093-1.25 23.453125-4.910156 45.949218-24.050781 87.660156-52.945312 120.605468-34.660157 39.523438-83.34375 66.453126-138.273438 72.984376-7.179687.867187-14.457031 1.34375-21.832031 1.488281l-5.296875 8.304687c-1.980469 3.109375-5.550781 4.820313-9.222656 4.429688l-42.566407-4.625c-3.664062-.390625-6.789062-2.824219-8.058593-6.292969l-4.273438-11.628906c-10.152343-3.167969-20.007812-7.046875-29.457031-11.609375-20.09375-9.636719-38.480469-22.269532-54.585938-37.304688-3.109374-2.90625-6.140624-5.898437-9.070312-8.976562-4.71875-4.941406-9.195312-10.109375-13.414062-15.476563-2.816407-3.550781-5.511719-7.183593-8.082032-10.90625-3.476562-5.003906-6.757812-10.175781-9.8125-15.480469-.742187-1.289062-1.476562-2.589843-2.199218-3.898437l-10.265626-2.476563c-3.1875-.773437-5.777343-3.085937-6.871093-6.179687l-14.859375-41.785156c-1.09375-3.082031-.558594-6.53125 1.433594-9.128907l6.757812-8.875c-.734375-4.386718-1.351562-8.8125-1.835938-13.28125-.816406-7.667968-1.230468-15.46875-1.230468-23.339843 0-7.894531.414062-15.695313 1.230468-23.371094 3.054688-28.707031 11.671876-55.765625 24.742188-80.054687 2.847656-5.292969 5.902344-10.453126 9.175781-15.476563 6.210938-9.578125 13.167969-18.636719 20.761719-27.097656 40.015625-44.570313 98.089844-72.605469 162.695312-72.605469 36.15625 0 70.273438 8.78125 100.308594 24.332031 2.859375 1.476563 5.6875 3.023438 8.472656 4.621094l20.503907-4.3125c3.210937-.679687 6.542969.320313 8.851562 2.621094l63.679688 63.6875c2.320312 2.324219 3.3125 5.65625 2.640625 8.855469l-4.757813 22.554687-1.03125 4.921875c1.601563 3.46875 3.117188 6.996094 4.519531 10.558594 3.851563 9.636718 7.007813 19.613281 9.453126 29.871094 2.15625 9.007812 3.746093 18.246093 4.746093 27.636718.804688 7.644532 1.21875 15.40625 1.21875 23.257813zm0 0" fill="#fda736"/><path d="m442.894531 218.605469c0 7.921875-.417969 15.742187-1.25 23.457031-4.90625 45.949219-24.054687 87.65625-52.941406 120.597656-34.660156 39.523438-83.347656 66.457032-138.277344 72.992188-7.179687.859375-14.457031 1.339844-21.828125 1.484375l-5.296875 8.300781c-1.980469 3.105469-5.554687 4.828125-9.222656 4.429688l-42.566406-4.617188c-3.667969-.398438-6.789063-2.835938-8.058594-6.300781l-4.273437-11.625c-10.15625-3.167969-20.003907-7.050781-29.464844-11.605469 42.703125-134.28125 162.394531-234.230469 307.210937-248.007812 2.15625 9.007812 3.75 18.238281 4.746094 27.636718.804687 7.640625 1.222656 15.398438 1.222656 23.257813zm0 0" fill="#6163aa"/><path d="m324.605469 24.328125h-84.695313c-21.855468 0-42.820312 8.679687-58.269531 24.136719-7.730469 7.730468-16.835937 13.761718-26.734375 17.863281-9.902344 4.101563-20.605469 6.273437-31.535156 6.273437h-61.78125c40.019531-44.566406 98.085937-72.601562 162.699218-72.601562 36.160157 0 70.273438 8.785156 100.316407 24.328125zm0 0" fill="#fed370"/><path d="m442.894531 218.605469c0 7.921875-.417969 15.742187-1.25 23.457031-9.476562-.011719-25.910156-.027344-47.054687-.054688-17.15625-.019531-34.09375 4.308594-48.535156 12.988282-16.527344 9.941406-39.757813 16.125-65.496094 16.125-19.625 0-37.792969-3.601563-52.648438-9.722656-4.671875-1.917969-9.019531-4.082032-12.976562-6.472657-14.4375-8.71875-31.382813-13.0625-48.558594-13.0625-68.21875-.027343-129.90625-.019531-159.460938.078125-.816406-7.667968-1.234374-15.460937-1.234374-23.335937 0-7.894531.417968-15.699219 1.234374-23.375 29.601563-.097657 91.394532-.109375 159.722657-.082031 17.128906 0 34.039062-4.296876 48.46875-12.972657 16.523437-9.921875 39.734375-16.09375 65.453125-16.09375 25.761718 0 49.027344 6.199219 65.558594 16.167969 2.273437 1.367188 4.609374 2.625 6.996093 3.78125 12.785157 6.175781 27.097657 9.246094 41.554688 9.273438 21.121093.015624 37.53125.035156 47 .042968.808593 7.640625 1.226562 15.398438 1.226562 23.257813zm0 0" fill="#fd8f07"/><path d="m442.894531 218.605469c0 7.921875-.417969 15.742187-1.25 23.457031-9.476562-.011719-25.910156-.027344-47.054687-.054688-17.15625-.019531-34.09375 4.308594-48.535156 12.988282-16.527344 9.941406-39.757813 16.125-65.496094 16.125-19.625 0-37.792969-3.601563-52.648438-9.722656 35.746094-33.089844 78.25-58.980469 125.207032-75.363282 12.78125 6.171875 27.09375 9.242188 41.550781 9.269532 21.121093.015624 37.535156.035156 47.003906.042968.804687 7.640625 1.222656 15.398438 1.222656 23.257813zm0 0" fill="#4e5093"/><path d="m388.703125 362.660156c-34.65625 39.527344-83.347656 66.457032-138.28125 72.992188-3.355469-8.738282-5.1875-18.230469-5.1875-28.152344 0-43.480469 35.257813-78.738281 78.738281-78.738281 26.832032 0 50.523438 13.417969 64.730469 33.898437zm0 0" fill="#4e5093"/><path d="m274.128906 409.441406c0 7.386719 1.011719 14.546875 2.929688 21.339844-8.6875 2.15625-17.582032 3.785156-26.640625 4.867188-3.355469-8.738282-5.179688-18.230469-5.179688-28.148438 0-43.484375 35.257813-78.742188 78.730469-78.742188 6.789062 0 13.382812.855469 19.667969 2.476563-39.128907 4.570313-69.507813 37.851563-69.507813 78.207031zm0 0" fill="#383c7c"/><path d="m323.976562 218.605469c0 11.660156-18.917968 21.109375-42.25 21.109375-8.652343 0-16.691406-1.292969-23.382812-3.53125-11.367188-3.78125-18.863281-10.238282-18.863281-17.578125 0-11.667969 18.917969-21.121094 42.246093-21.121094 11.609376 0 22.109376 2.335937 29.75 6.121094 7.71875 3.828125 12.5 9.132812 12.5 15zm0 0" fill="#fed370"/><path d="m323.976562 218.605469c0 11.660156-18.917968 21.109375-42.25 21.109375-8.652343 0-16.691406-1.292969-23.382812-3.53125 16.660156-12.328125 34.429688-23.246094 53.132812-32.578125 7.71875 3.828125 12.5 9.132812 12.5 15zm0 0" fill="#898ec9"/><path d="m145.722656 335.308594c0 4.273437-3.46875 7.742187-7.738281 7.742187h-93.417969c-3.476562-5.007812-6.757812-10.175781-9.8125-15.480469h103.230469c4.269531 0 7.738281 3.457032 7.738281 7.738282zm0 0" fill="#fd8f07"/><path d="m111.125 361.695312c0 4.273438-3.457031 7.738282-7.742188 7.738282h-37.320312c-4.71875-4.941406-9.195312-10.113282-13.414062-15.476563h50.738281c4.28125 0 7.738281 3.464844 7.738281 7.738281zm0 0" fill="#fd8f07"/><path d="m427.476562 137.839844h-155.164062c-12.402344 0-24.0625-4.828125-32.824219-13.589844-5.851562-5.851562-13.621093-9.070312-21.886719-9.070312h-185.941406c2.847656-5.292969 5.898438-10.453126 9.171875-15.480469h176.769531c12.40625 0 24.066407 4.832031 32.824219 13.601562 5.851563 5.839844 13.621094 9.058594 21.886719 9.058594h151.675781l-1.03125 4.921875c1.601563 3.46875 3.117188 6.996094 4.519531 10.558594zm0 0" fill="#fed370"/><path d="m191.542969 330.695312c0 14.464844-11.722657 26.191407-26.179688 26.191407-3.503906 0-6.84375-.6875-9.894531-1.9375-9.550781-3.902344-16.285156-13.289063-16.285156-24.253907 0-14.457031 11.722656-26.179687 26.179687-26.179687 6.832031 0 13.054688 2.617187 17.714844 6.917969 5.207031 4.769531 8.464844 11.640625 8.464844 19.261718zm0 0" fill="#fed370"/><path d="m191.542969 330.695312c0 14.464844-11.722657 26.191407-26.179688 26.191407-3.503906 0-6.84375-.6875-9.894531-1.9375 8.164062-15.199219 17.40625-29.738281 27.609375-43.515625 5.207031 4.769531 8.464844 11.640625 8.464844 19.261718zm0 0" fill="#898ec9"/><path d="m111.125 189.664062c0 10.140626-8.21875 18.363282-18.363281 18.363282-10.140625 0-18.363281-8.222656-18.363281-18.363282 0-10.140624 8.222656-18.363281 18.363281-18.363281 10.144531 0 18.363281 8.222657 18.363281 18.363281zm0 0" fill="#fed370"/><path d="m305.875 64.652344c-.011719 0-.019531 0-.03125 0l-.128906-.003906c-4.277344-.015626-7.726563-3.492188-7.710938-7.765626.015625-4.265624 3.480469-7.710937 7.738282-7.710937h.03125.128906c4.277344.019531 7.726562 3.496094 7.710937 7.769531-.015625 4.265625-3.476562 7.710938-7.738281 7.710938zm0 0" fill="#fed370"/><path d="m395.925781 109.636719h-.128906c-4.277344 0-7.742187-3.464844-7.742187-7.738281 0-4.273438 3.464843-7.738282 7.742187-7.738282h.128906c4.277344 0 7.738281 3.464844 7.738281 7.738282 0 4.273437-3.464843 7.738281-7.738281 7.738281zm0 0" fill="#fd8f07"/><path d="m23.558594 282.3125h-.132813c-4.273437 0-7.738281-3.464844-7.738281-7.738281 0-4.273438 3.464844-7.738281 7.738281-7.738281h.132813c4.273437 0 7.738281 3.464843 7.738281 7.738281 0 4.273437-3.464844 7.738281-7.738281 7.738281zm0 0" fill="#fd8f07"/><path d="m287.675781 72.15625c-.007812 0-.019531 0-.03125 0h-.128906c-4.273437-.015625-7.726563-3.496094-7.710937-7.769531.015624-4.265625 3.480468-7.707031 7.738281-7.707031h.03125.132812c4.273438.015624 7.722657 3.496093 7.707031 7.769531-.015624 4.261719-3.476562 7.707031-7.738281 7.707031zm0 0" fill="#fed370"/><path d="m125.253906 297.738281c-.007812 0-.019531 0-.03125 0h-.128906c-4.277344-.019531-7.726562-3.496093-7.710938-7.769531.015626-4.265625 3.480469-7.710938 7.738282-7.710938h.03125.132812c4.273438.019532 7.722656 3.496094 7.707032 7.769532-.015626 4.265625-3.480469 7.710937-7.738282 7.710937zm0 0" fill="#fd8f07"/></svg>