<svg height="512pt" viewBox="0 -13 512.00102 512" width="512pt" xmlns="http://www.w3.org/2000/svg"><g fill="#6163aa"><path d="m110.992188 152.25c-3.074219 0-5.957032-1.894531-7.070313-4.949219-1.421875-3.90625.589844-8.222656 4.496094-9.644531.644531-.234375 1.289062-.46875 1.9375-.699219 3.914062-1.390625 8.21875.652344 9.613281 4.566407 1.390625 3.914062-.652344 8.21875-4.566406 9.609374-.617188.21875-1.226563.441407-1.839844.664063-.847656.304687-1.714844.453125-2.570312.453125zm25.792968-8.222656c-3.296875 0-6.320312-2.183594-7.246094-5.515625-1.109374-4.003907 1.238282-8.148438 5.242188-9.257813.660156-.183594 1.320312-.363281 1.980469-.542968 4.007812-1.085938 8.140625 1.285156 9.226562 5.296874 1.085938 4.011719-1.289062 8.144532-5.300781 9.226563-.628906.171875-1.261719.34375-1.890625.519531-.671875.1875-1.34375.273438-2.011719.273438zm26.332032-6.304688c-3.503907 0-6.640626-2.460937-7.363282-6.023437-.832031-4.070313 1.796875-8.042969 5.871094-8.875l2-.402344c4.074219-.808594 8.035156 1.835937 8.84375 5.910156.8125 4.078125-1.832031 8.039063-5.910156 8.847657l-1.933594.390624c-.503906.101563-1.011719.152344-1.507812.152344zm26.679687-4.5625c-3.691406 0-6.914063-2.722656-7.441406-6.484375-.574219-4.117187 2.296875-7.917969 6.410156-8.492187l2.019531-.277344c4.113282-.554688 7.902344 2.332031 8.460938 6.453125.554687 4.117187-2.332032 7.902344-6.453125 8.460937l-1.945313.265626c-.351562.046874-.703125.074218-1.050781.074218zm0 0"/><path d="m129.785156 364.703125c-.714844 0-1.441406-.101563-2.160156-.316406-.65625-.195313-1.3125-.394531-1.964844-.59375-3.972656-1.214844-6.207031-5.421875-4.996094-9.394531 1.21875-3.972657 5.425782-6.207032 9.394532-4.992188.625.1875 1.25.378906 1.878906.566406 3.980469 1.191406 6.242188 5.382813 5.050781 9.363282-.976562 3.261718-3.96875 5.367187-7.203125 5.367187zm-25.621094-8.777344c-.914062 0-1.839843-.167969-2.738281-.515625-.636719-.25-1.273437-.5-1.90625-.753906-3.859375-1.535156-5.746093-5.90625-4.210937-9.769531 1.53125-3.859375 5.90625-5.746094 9.769531-4.210938.605469.238281 1.214844.480469 1.824219.71875 3.871094 1.511719 5.78125 5.875 4.269531 9.746094-1.160156 2.96875-4 4.785156-7.007813 4.785156zm-24.726562-11.039062c-1.148438 0-2.3125-.261719-3.40625-.816407-.617188-.316406-1.226562-.628906-1.839844-.945312-3.6875-1.914062-5.125-6.457031-3.210937-10.144531 1.914062-3.6875 6.453125-5.125 10.144531-3.210938.574219.296875 1.152344.59375 1.730469.890625 3.703125 1.882813 5.175781 6.414063 3.292969 10.117188-1.328126 2.609375-3.972657 4.109375-6.710938 4.109375zm-23.339844-13.710938c-1.453125 0-2.921875-.417969-4.21875-1.296875-.578125-.394531-1.148437-.789062-1.71875-1.183594-3.414062-2.371093-4.253906-7.058593-1.886718-10.472656 2.371093-3.410156 7.058593-4.257812 10.472656-1.882812.523437.363281 1.054687.730468 1.585937 1.089844 3.4375 2.335937 4.332031 7.011718 2 10.449218-1.457031 2.144532-3.824219 3.296875-6.234375 3.296875zm-21.054687-16.96875c-1.882813 0-3.769531-.699219-5.230469-2.113281-.511719-.496094-1.019531-.992188-1.519531-1.492188-2.9375-2.9375-2.941407-7.699218-.003907-10.640624 2.933594-2.9375 7.699219-2.941407 10.640626-.003907.441406.441407.886718.882813 1.339843 1.320313 2.988281 2.886718 3.070313 7.648437.183594 10.636718-1.476563 1.527344-3.445313 2.292969-5.410156 2.292969zm-17.082031-20.910156c-2.523438 0-4.992188-1.269531-6.410157-3.578125-.382812-.617188-.753906-1.238281-1.117187-1.859375-2.101563-3.585937-.898438-8.195313 2.6875-10.292969 3.582031-2.101562 8.191406-.898437 10.292968 2.6875.308594.527344.625 1.050782.945313 1.578125 2.179687 3.535157 1.078125 8.171875-2.460937 10.347657-1.226563.757812-2.589844 1.117187-3.9375 1.117187zm-10.082032-24.960937c-3.511718 0-6.652344-2.472657-7.367187-6.046876-.144531-.734374-.28125-1.464843-.40625-2.203124-.6875-4.097657 2.074219-7.976563 6.171875-8.664063 4.09375-.6875 7.976562 2.074219 8.664062 6.171875.101563.582031.207032 1.160156.320313 1.738281.816406 4.074219-1.824219 8.039063-5.898438 8.855469-.496093.101562-.992187.148438-1.484375.148438zm.214844-26.875c-.523438 0-1.054688-.054688-1.585938-.171876-4.0625-.871093-6.648437-4.871093-5.777343-8.933593.15625-.722657.320312-1.449219.5-2.167969.992187-4.035156 5.0625-6.503906 9.101562-5.511719 4.035157.992188 6.5 5.066407 5.507813 9.101563-.140625.578125-.273438 1.15625-.398438 1.738281-.757812 3.527344-3.878906 5.945313-7.347656 5.945313zm10.378906-24.851563c-1.371094 0-2.761718-.375-4.007812-1.164063-3.511719-2.21875-4.5625-6.863281-2.34375-10.378906.382812-.605468.773437-1.214844 1.171875-1.816406 2.292969-3.46875 6.960937-4.417969 10.425781-2.125 3.46875 2.292969 4.417969 6.957031 2.125 10.425781-.339844.515625-.675781 1.03125-1 1.546875-1.433594 2.269532-3.875 3.511719-6.371094 3.511719zm0 0"/><path d="m318.257812 378.542969c-3.734374 0-6.96875-2.773438-7.453124-6.574219-.527344-4.121094 2.386718-7.886719 6.507812-8.414062l1.957031-.25c4.117188-.542969 7.902344 2.355468 8.445313 6.472656.542968 4.121094-2.359375 7.898437-6.476563 8.441406l-2.023437.265625c-.320313.039063-.640625.058594-.957032.058594zm26.722657-4.34375c-3.511719 0-6.652344-2.476563-7.367188-6.050781-.8125-4.074219 1.828125-8.039063 5.902344-8.851563.644531-.128906 1.285156-.257813 1.925781-.390625 4.074219-.835938 8.050782 1.785156 8.886719 5.855469.835937 4.070312-1.789063 8.046875-5.859375 8.882812-.664062.136719-1.332031.273438-2.003906.40625-.5.101563-.996094.148438-1.484375.148438zm26.34375-6.273438c-3.292969 0-6.320313-2.179687-7.246094-5.511719-1.113281-4 1.230469-8.148437 5.234375-9.261718l1.890625-.53125c4-1.132813 8.15625 1.1875 9.289063 5.1875 1.132812 4-1.191407 8.15625-5.1875 9.289062l-1.960938.550782c-.675781.1875-1.351562.277343-2.019531.277343zm25.820312-8.136719c-3.101562 0-6.007812-1.933593-7.09375-5.027343-1.382812-3.917969.675781-8.214844 4.59375-9.59375l1.859375-.660157c3.910156-1.398437 8.21875.640626 9.617188 4.554688 1.394531 3.914062-.644532 8.21875-4.558594 9.613281l-1.917969.683594c-.828125.289063-1.671875.429687-2.5.429687zm0 0"/><path d="m502.773438 272.902344c-.652344 0-1.320313-.085938-1.984376-.265625-4.007812-1.09375-6.371093-5.230469-5.277343-9.238281.15625-.574219.304687-1.152344.445312-1.730469.976563-4.039063 5.039063-6.515625 9.078125-5.546875 4.039063.976562 6.523438 5.042968 5.546875 9.082031-.171875.71875-.359375 1.4375-.554687 2.15625-.910156 3.34375-3.945313 5.542969-7.253906 5.542969zm1.691406-26.824219c-3.679688 0-6.894532-2.703125-7.433594-6.453125-.085938-.589844-.179688-1.179688-.28125-1.765625-.707031-4.097656 2.039062-7.988281 6.132812-8.695313 4.09375-.714843 7.988282 2.035157 8.695313 6.128907.125.726562.238281 1.457031.34375 2.1875.59375 4.113281-2.261719 7.925781-6.375 8.515625-.363281.054687-.722656.082031-1.082031.082031zm-8.792969-25.417969c-2.632813 0-5.191406-1.390625-6.570313-3.855468-.296874-.527344-.601562-1.058594-.914062-1.589844-2.109375-3.578125-.921875-8.1875 2.65625-10.300782 3.582031-2.109374 8.195312-.921874 10.304688 2.660157.367187.625.730468 1.253906 1.082031 1.886719 2.03125 3.625.734375 8.210937-2.890625 10.238281-1.164063.648437-2.421875.960937-3.667969.960937zm-16.335937-21.492187c-1.953126 0-3.90625-.757813-5.378907-2.265625-.441406-.449219-.886719-.898438-1.335937-1.347656-2.949219-2.929688-2.960938-7.691407-.035156-10.636719 2.929687-2.949219 7.695312-2.960938 10.640624-.035157.5.5.996094 1 1.488282 1.503907 2.90625 2.972656 2.851562 7.734375-.121094 10.640625-1.464844 1.425781-3.363281 2.140625-5.257812 2.140625zm-20.652344-17.472657c-1.507813 0-3.03125-.453124-4.351563-1.394531-.519531-.367187-1.042969-.734375-1.570312-1.101562-3.414063-2.367188-4.261719-7.054688-1.894531-10.46875 2.371093-3.410157 7.054687-4.261719 10.46875-1.894531.578124.402343 1.148437.800781 1.714843 1.203124 3.386719 2.410157 4.179688 7.105469 1.773438 10.492188-1.46875 2.0625-3.785157 3.164062-6.140625 3.164062zm-23.085938-14.117187c-1.183594 0-2.386718-.28125-3.507812-.875-.574219-.300781-1.148438-.601563-1.726563-.902344-3.6875-1.910156-5.128906-6.453125-3.21875-10.140625 1.910157-3.6875 6.449219-5.128906 10.140625-3.21875.613282.316406 1.226563.636719 1.832032.957032 3.675781 1.941406 5.078124 6.492187 3.140624 10.167968-1.351562 2.550782-3.960937 4.011719-6.660156 4.011719zm-24.566406-11.378906c-.941406 0-1.894531-.175781-2.820312-.550781-.601563-.246094-1.207032-.488282-1.816407-.726563-3.859375-1.535156-5.746093-5.90625-4.214843-9.769531 1.535156-3.863282 5.90625-5.75 9.769531-4.214844.636719.253906 1.273437.507812 1.90625.765625 3.855469 1.558594 5.710937 5.945313 4.152343 9.796875-1.183593 2.921875-4.003906 4.699219-6.976562 4.699219zm-25.507812-9.070313c-.738282 0-1.492188-.109375-2.234376-.339844-.621093-.191406-1.246093-.382812-1.871093-.574218-3.976563-1.207032-6.21875-5.410156-5.011719-9.386719s5.402344-6.214844 9.382812-5.011719c.65625.199219 1.3125.402344 1.964844.605469 3.96875 1.230469 6.183594 5.449219 4.953125 9.414063-1.003906 3.226562-3.976562 5.292968-7.183593 5.292968zm-26.140626-7.058594c-.558593 0-1.128906-.066406-1.703124-.195312l-1.925782-.445312c-4.050781-.917969-6.589844-4.949219-5.667968-9 .917968-4.054688 4.953124-6.59375 9-5.671876l1.984374.457032c4.046876.933594 6.570313 4.976562 5.636719 9.023437-.804687 3.476563-3.902343 5.832031-7.324219 5.832031zm0 0"/><path d="m58.144531 135.503906c-.0625 0-.125 0-.1875 0-4.15625-.105468-7.441406-3.554687-7.335937-7.707031.015625-.71875.042968-1.429687.070312-2.140625.175782-4.152344 3.683594-7.375 7.839844-7.195312 4.148438.175781 7.371094 3.6875 7.195312 7.835937-.027343.621094-.046874 1.246094-.0625 1.871094-.105468 4.089843-3.449218 7.335937-7.519531 7.335937zm4.070313-26.6875c-.722656 0-1.460938-.105468-2.1875-.328125-3.976563-1.207031-6.21875-5.410156-5.015625-9.382812.214843-.703125.4375-1.398438.664062-2.09375 1.304688-3.941407 5.5625-6.082031 9.507813-4.777344 3.945312 1.308594 6.082031 5.5625 4.777344 9.507813-.191407.574218-.375 1.148437-.550782 1.734374-.984375 3.246094-3.96875 5.339844-7.195312 5.339844zm12.277344-23.953125c-1.632813 0-3.277344-.53125-4.660157-1.625-3.257812-2.574219-3.8125-7.308593-1.234375-10.566406.460938-.582031.929688-1.160156 1.40625-1.726563 2.671875-3.183593 7.421875-3.59375 10.601563-.921874 3.179687 2.675781 3.59375 7.417968.917969 10.601562-.378907.453125-.753907.914062-1.125 1.378906-1.484376 1.878906-3.683594 2.859375-5.90625 2.859375zm127.832031-14.820312c-.847657 0-1.714844-.144531-2.558594-.449219-.613281-.222656-1.222656-.441406-1.832031-.65625-3.917969-1.382812-5.976563-5.679688-4.59375-9.597656 1.382812-3.917969 5.679687-5.972656 9.597656-4.589844.648438.226562 1.296875.460938 1.945312.695312 3.910157 1.414063 5.929688 5.726563 4.515626 9.632813-1.105469 3.0625-3.996094 4.964844-7.074219 4.964844zm-107.207031-2.449219c-2.675782 0-5.261719-1.425781-6.625-3.945312-1.976563-3.652344-.617188-8.21875 3.039062-10.195313.644531-.351563 1.300781-.691406 1.957031-1.023437 3.707031-1.878907 8.234375-.390626 10.109375 3.316406 1.875 3.707031.386719 8.234375-3.320312 10.109375-.535156.269531-1.0625.546875-1.589844.832031-1.136719.617188-2.363281.90625-3.570312.90625zm81.289062-5.332031c-.570312 0-1.152344-.0625-1.730469-.199219-.628906-.148438-1.253906-.292969-1.878906-.433594-4.054687-.910156-6.605469-4.933594-5.695313-8.988281.910157-4.054687 4.933594-6.601563 8.988282-5.691406.675781.148437 1.355468.304687 2.035156.464843 4.042969.953126 6.550781 5.003907 5.597656 9.046876-.816406 3.464843-3.90625 5.800781-7.316406 5.800781zm-55.734375-3.1875c-3.613281 0-6.796875-2.609375-7.414063-6.285157-.683593-4.097656 2.085938-7.976562 6.183594-8.660156.707032-.117187 1.414063-.226562 2.128906-.332031 4.117188-.597656 7.933594 2.238281 8.535157 6.351563.601562 4.109374-2.242188 7.933593-6.351563 8.535156-.617187.089844-1.226562.1875-1.835937.285156-.417969.070312-.835938.105469-1.246094.105469zm29.015625-1.0625c-.191406 0-.386719-.003907-.582031-.019531-.632813-.046876-1.265625-.09375-1.898438-.132813-4.148437-.261719-7.296875-3.832031-7.039062-7.980469.261719-4.144531 3.796875-7.304687 7.980469-7.035156.699218.042969 1.398437.089844 2.101562.144531 4.144531.3125 7.246094 3.929688 6.929688 8.070313-.300782 3.949218-3.597657 6.953125-7.492188 6.953125zm0 0"/><path d="m150.089844 328.011719c-2.042969 0-4.085938-.832031-5.570313-2.464844l-1.367187-1.511719c-2.78125-3.085937-2.535156-7.84375.550781-10.625 3.085937-2.785156 7.84375-2.539062 10.625.546875l1.332031 1.472657c2.792969 3.074218 2.566406 7.832031-.511718 10.625-1.441407 1.3125-3.253907 1.957031-5.058594 1.957031zm-17.648438-20.542969c-2.191406 0-4.363281-.953125-5.851562-2.789062l-1.28125-1.585938c-2.597656-3.242188-2.082032-7.976562 1.160156-10.578125 3.238281-2.601563 7.976562-2.082031 10.574219 1.15625l1.242187 1.539063c2.613282 3.226562 2.117188 7.964843-1.113281 10.578124-1.394531 1.128907-3.070313 1.679688-4.730469 1.679688zm-16.425781-21.535156c-2.34375 0-4.652344-1.089844-6.121094-3.140625-.398437-.554688-.792969-1.113281-1.1875-1.667969-2.398437-3.390625-1.597656-8.085938 1.792969-10.488281 3.394531-2.398438 8.085938-1.59375 10.488281 1.792969.378907.535156.757813 1.070312 1.140625 1.605468 2.417969 3.378906 1.640625 8.078125-1.738281 10.496094-1.328125.949219-2.855469 1.402344-4.375 1.402344zm-15.046875-22.511719c-2.515625 0-4.972656-1.257813-6.394531-3.550781l-1.074219-1.738282c-2.179688-3.539062-1.074219-8.171874 2.464844-10.347656 3.539062-2.179687 8.171875-1.074218 10.351562 2.46875l1.035156 1.675782c2.191407 3.527343 1.109376 8.167968-2.421874 10.359374-1.230469.769532-2.605469 1.132813-3.960938 1.132813zm-13.472656-23.488281c-2.703125 0-5.320313-1.464844-6.664063-4.027344-.320312-.605469-.636719-1.210938-.949219-1.820312-1.910156-3.6875-.464843-8.226563 3.222657-10.136719 3.691406-1.910157 8.230469-.464844 10.140625 3.222656.300781.582031.601562 1.160156.90625 1.738281 1.933594 3.679688.515625 8.226563-3.160156 10.160156-1.117188.585938-2.316407.863282-3.496094.863282zm0 0"/><path d="m373.375 453.136719c-4.132812 0-7.496094-3.339844-7.523438-7.476563-.023437-4.15625 3.328126-7.542968 7.480469-7.570312.628907 0 1.253907-.011719 1.878907-.023438 4.179687-.101562 7.597656 3.195313 7.695312 7.347656.09375 4.15625-3.199219 7.597657-7.351562 7.695313-.707032.015625-1.421876.023437-2.132813.027344-.015625 0-.03125 0-.046875 0zm-24.953125-2.042969c-.402344 0-.804687-.035156-1.214844-.097656-.6875-.113282-1.371093-.226563-2.0625-.347656-4.09375-.710938-6.835937-4.605469-6.125-8.699219.710938-4.09375 4.605469-6.839844 8.703125-6.125.632813.109375 1.265625.214843 1.894532.320312 4.101562.664063 6.886718 4.53125 6.222656 8.632813-.601563 3.6875-3.792969 6.316406-7.417969 6.316406zm51.734375-1.410156c-3.304688 0-6.335938-2.195313-7.25-5.535156-1.097656-4.007813 1.261719-8.148438 5.269531-9.242188.589844-.164062 1.179688-.332031 1.761719-.503906 3.980469-1.191406 8.171875 1.074218 9.363281 5.058594 1.183594 3.980468-1.078125 8.171874-5.0625 9.359374-.691406.207032-1.390625.40625-2.089843.597657-.664063.179687-1.335938.265625-1.992188.265625zm-78.085938-4.773438c-.722656 0-1.457031-.105468-2.183593-.324218-.65625-.199219-1.316407-.402344-1.976563-.605469-3.964844-1.238281-6.179687-5.453125-4.945312-9.421875 1.238281-3.964844 5.453125-6.183594 9.421875-4.945313.621093.195313 1.242187.382813 1.859375.570313 3.976562 1.203125 6.222656 5.402344 5.019531 9.382812-.980469 3.25-3.96875 5.34375-7.195313 5.34375zm102.4375-6.738281c-2.320312 0-4.605468-1.066406-6.078124-3.082031-2.453126-3.351563-1.722657-8.058594 1.628906-10.511719.476562-.351563.949218-.707031 1.414062-1.070313 3.273438-2.554687 8-1.972656 10.558594 1.300782 2.558594 3.277344 1.976562 8.003906-1.300781 10.558594-.589844.460937-1.183594.914062-1.789063 1.351562-1.335937.980469-2.894531 1.453125-4.433594 1.453125zm-127.90625-2.46875c-.96875 0-1.953124-.1875-2.902343-.585937-.632813-.261719-1.261719-.53125-1.894531-.800782-3.820313-1.632812-5.597657-6.050781-3.964844-9.871094 1.628906-3.820312 6.050781-5.597656 9.871094-3.96875.601562.257813 1.203124.511719 1.800781.761719 3.832031 1.605469 5.636719 6.015625 4.03125 9.847657-1.203125 2.882812-3.996094 4.617187-6.941407 4.617187zm145.882813-17.515625c-1.289063 0-2.59375-.332031-3.785156-1.027344-3.589844-2.097656-4.800781-6.703125-2.703125-10.292968.300781-.519532.597656-1.039063.886718-1.570313 1.996094-3.640625 6.570313-4.976563 10.214844-2.976563 3.644532 1.996094 4.976563 6.570313 2.980469 10.214844-.355469.644532-.71875 1.285156-1.089844 1.921875-1.398437 2.394531-3.917969 3.730469-6.503906 3.730469zm9.277344-25.3125c-.46875 0-.945313-.042969-1.421875-.136719-4.082032-.78125-6.757813-4.722656-5.976563-8.804687.117188-.601563.226563-1.210938.332031-1.820313.695313-4.097656 4.582032-6.851562 8.679688-6.152343 4.09375.695312 6.847656 4.582031 6.152344 8.675781-.121094.714843-.25 1.421875-.386719 2.128906-.6875 3.601563-3.839844 6.109375-7.378906 6.109375zm0 0"/><path d="m413.734375 252.152344c-2.554687 0-5.042969-1.300782-6.453125-3.648438-.335938-.558594-.675781-1.117187-1.015625-1.675781-2.164063-3.546875-1.039063-8.175781 2.507813-10.339844 3.546874-2.164062 8.175781-1.039062 10.339843 2.507813.355469.585937.710938 1.171875 1.0625 1.753906 2.140625 3.5625.988281 8.183594-2.574219 10.324219-1.210937.730469-2.546874 1.078125-3.867187 1.078125zm-14.738281-22.71875c-2.375 0-4.714844-1.125-6.179688-3.222656l-1.132812-1.621094c-2.386719-3.398438-1.566406-8.089844 1.832031-10.480469 3.402344-2.390625 8.09375-1.566406 10.480469 1.832031l1.167968 1.667969c2.375 3.40625 1.539063 8.097656-1.871093 10.472656-1.3125.914063-2.8125 1.351563-4.296875 1.351563zm-16.152344-21.734375c-2.222656 0-4.421875-.980469-5.90625-2.859375l-1.230469-1.546875c-2.585937-3.25-2.054687-7.984375 1.195313-10.574219 3.246094-2.589844 7.984375-2.054688 10.574218 1.195312l1.265626 1.59375c2.574218 3.261719 2.023437 7.992188-1.234376 10.570313-1.382812 1.089844-3.03125 1.621094-4.664062 1.621094zm-17.40625-20.75c-2.074219 0-4.140625-.855469-5.625-2.527344l-1.320312-1.476563c-2.773438-3.09375-2.511719-7.851562.582031-10.625 3.09375-2.773437 7.851562-2.511718 10.625.582032l1.359375 1.527344c2.761718 3.105468 2.480468 7.859374-.625 10.621093-1.433594 1.273438-3.21875 1.898438-4.996094 1.898438zm-18.550781-19.75c-1.933594 0-3.867188-.742188-5.335938-2.222657l-1.402343-1.402343c-2.9375-2.9375-2.941407-7.703125-.003907-10.640625 2.933594-2.9375 7.699219-2.945313 10.640625-.007813l1.441406 1.449219c2.929688 2.949219 2.910157 7.710938-.039062 10.640625-1.464844 1.457031-3.382812 2.183594-5.300781 2.183594zm0 0"/></g><path d="m336.421875 109.003906c0 32.539063-26.378906 58.921875-58.921875 58.921875-32.539062 0-58.917969-26.382812-58.917969-58.921875 0-32.542968 26.378907-58.921875 58.917969-58.921875 32.542969 0 58.921875 26.378907 58.921875 58.921875zm0 0" fill="#edff85"/><path d="m336.425781 109c0 32.542969-26.378906 58.921875-58.921875 58.921875-4.441406 0-8.777344-.492187-12.9375-1.421875 26.320313-5.898438 45.980469-29.402344 45.980469-57.496094 0-28.097656-19.660156-51.601562-45.980469-57.5 4.160156-.929687 8.496094-1.421875 12.9375-1.421875 32.542969 0 58.921875 26.378907 58.921875 58.917969zm0 0" fill="#c5ee09"/><path d="m277.492188 378.574219c0 33.601562-27.242188 60.839843-60.84375 60.839843-33.601563 0-60.839844-27.238281-60.839844-60.839843 0-33.601563 27.238281-60.839844 60.839844-60.839844 33.601562 0 60.84375 27.238281 60.84375 60.839844zm0 0" fill="#2de0c7"/><path d="m269.890625 349.132812c16.257813 29.40625 5.605469 66.421876-23.800781 82.683594-5.652344 3.125-11.574219 5.253906-17.589844 6.441406 17.691406-18.730468 22.121094-47.453124 8.988281-71.207031-13.132812-23.75-39.820312-35.269531-65.089843-30.242187 4.207031-4.464844 9.160156-8.347656 14.8125-11.472656 29.402343-16.261719 66.417968-5.605469 82.679687 23.796874zm0 0" fill="#00c2cc"/><path d="m284.214844 366.175781c-13.359375 11.957031-32.539063 25.078125-53.996094 36.945313-21.445312 11.867187-42.761719 21.125-59.996094 26.089844-8.925781 2.566406-16.339844 3.863281-22.289062 3.863281-8.234375 0-13.648438-2.480469-16.386719-7.433594-4.917969-8.886719 1.503906-20.835937 19.640625-36.515625 1.515625-1.300781 3.390625-1.90625 5.234375-1.824219.683594 4.703125 1.925781 9.378907 3.761719 13.933594-9.679688 8.503906-13.5 14.0625-14.703125 16.699219 3.089843.421875 10.632812.042968 24.753906-4.453125 15.417969-4.902344 34.136719-13.261719 52.703125-23.53125 18.578125-10.273438 35.609375-21.675781 47.957031-32.128907 11.316407-9.570312 15.640625-15.761718 16.933594-18.609374-2.878906-.378907-9.621094-.097657-21.96875 3.59375-2.867187-3.984376-6.179687-7.523438-9.800781-10.59375.914062-1.617188 2.429687-2.890626 4.332031-3.480469 22.921875-7.011719 36.453125-6.101563 41.371094 2.777343 4.710937 8.539063-1.023438 19.882813-17.546875 34.667969zm0 0" fill="#7e18ea"/><path d="m97.996094 179.640625c0 16.460937-13.34375 29.804687-29.804688 29.804687-16.460937 0-29.804687-13.34375-29.804687-29.804687s13.34375-29.804687 29.804687-29.804687c16.460938 0 29.804688 13.34375 29.804688 29.804687zm0 0" fill="#fda736"/><path d="m97.992188 179.640625c0 16.460937-13.34375 29.804687-29.800782 29.804687-2.863281 0-5.632812-.402343-8.25-1.160156 12.449219-3.574218 21.554688-15.046875 21.554688-28.644531s-9.105469-25.070313-21.554688-28.644531c2.617188-.757813 5.386719-1.160156 8.25-1.160156 16.457032 0 29.800782 13.339843 29.800782 29.804687zm0 0" fill="#fd8f07"/><path d="m497.613281 307.457031c0 24.375-19.761719 44.132813-44.136719 44.132813-14.613281 0-27.5625-7.101563-35.597656-18.042969-3.082031-4.195313-5.4375-8.949219-6.882812-14.085937-1.082032-3.820313-1.652344-7.84375-1.652344-12.003907 0-24.375 19.757812-44.136719 44.132812-44.136719s44.136719 19.761719 44.136719 44.136719zm0 0" fill="#e667f9"/><path d="m497.613281 307.457031c0 24.375-19.761719 44.132813-44.136719 44.132813-4.230468 0-8.335937-.601563-12.214843-1.714844 9.578125-2.746094 17.8125-8.65625 23.511719-16.519531 5.292968-7.273438 8.40625-16.21875 8.40625-25.898438 0-.695312-.019532-1.386719-.050782-2.066406-.882812-19.230469-14.0625-35.238281-31.867187-40.355469 3.878906-1.121094 7.984375-1.714844 12.214843-1.714844 12.039063 0 22.953126 4.816407 30.90625 12.640626 4.867188 4.761718 8.625 10.640624 10.875 17.222656 1.523438 4.472656 2.355469 9.277344 2.355469 14.273437zm0 0" fill="#d82fea"/><path d="m375.847656 66.410156c-.011718 0-.023437 0-.035156 0-4.15625-.019531-7.507812-3.402344-7.488281-7.558594l.011719-2.730468c.019531-4.140625 3.382812-7.488282 7.523437-7.488282h.035156c4.152344.023438 7.507813 3.40625 7.488281 7.558594l-.011718 2.730469c-.023438 4.144531-3.386719 7.488281-7.523438 7.488281zm0 0" fill="#c5ee09"/><path d="m375.761719 94.199219c-.011719 0-.023438 0-.035157 0-4.15625-.019531-7.507812-3.402344-7.488281-7.558594l.011719-2.726563c.019531-4.15625 3.359375-7.492187 7.558594-7.488281 4.152344.019531 7.507812 3.402344 7.488281 7.558594l-.011719 2.726563c-.019531 4.144531-3.386718 7.488281-7.523437 7.488281zm0 0" fill="#c5ee09"/><path d="m391.070312 78.992188c-.011718 0-.023437 0-.035156 0l-2.730468-.015626c-4.15625-.019531-7.507813-3.402343-7.488282-7.558593.019532-4.140625 3.382813-7.488281 7.523438-7.488281h.035156l2.730469.015624c4.15625.019532 7.507812 3.402344 7.488281 7.558594-.019531 4.144532-3.386719 7.488282-7.523438 7.488282zm0 0" fill="#c5ee09"/><path d="m363.28125 78.90625c-.011719 0-.023438 0-.035156 0l-2.730469-.015625c-4.15625-.019531-7.507813-3.402344-7.488281-7.558594.019531-4.140625 3.382812-7.488281 7.523437-7.488281h.035157l2.730468.015625c4.152344.019531 7.507813 3.402344 7.488282 7.558594-.019532 4.140625-3.386719 7.488281-7.523438 7.488281zm0 0" fill="#c5ee09"/><path d="m408.960938 17.777344c-.011719 0-.027344 0-.039063 0-4.15625-.023438-7.507813-3.40625-7.484375-7.5625l.011719-2.730469c.023437-4.140625 3.386719-7.484375 7.523437-7.484375h.039063c4.152343.0234375 7.503906 3.40625 7.484375 7.5625l-.015625 2.730469c-.019531 4.140625-3.382813 7.484375-7.519531 7.484375zm0 0" fill="#fda736"/><path d="m408.875 45.566406c-.011719 0-.023438 0-.035156 0-4.15625-.019531-7.507813-3.402344-7.488282-7.558594l.011719-2.726562c.019531-4.144531 3.386719-7.488281 7.523438-7.488281h.035156c4.15625.019531 7.507813 3.402343 7.488281 7.554687l-.011718 2.730469c-.019532 4.144531-3.386719 7.488281-7.523438 7.488281zm0 0" fill="#fda736"/><path d="m424.183594 30.355469c-.011719 0-.023438 0-.035156 0l-2.730469-.011719c-4.15625-.019531-7.507813-3.40625-7.488281-7.558594.023437-4.144531 3.382812-7.488281 7.523437-7.488281h.035156l2.730469.011719c4.15625.023437 7.507812 3.40625 7.488281 7.5625-.019531 4.140625-3.382812 7.484375-7.523437 7.484375zm0 0" fill="#fda736"/><path d="m396.394531 30.269531c-.011719 0-.023437 0-.039062 0l-2.726563-.011719c-4.15625-.019531-7.507812-3.40625-7.488281-7.558593.019531-4.144531 3.382813-7.488281 7.523437-7.488281h.035157l2.730469.011718c4.15625.023438 7.507812 3.40625 7.488281 7.5625-.023438 4.140625-3.386719 7.484375-7.523438 7.484375zm0 0" fill="#fda736"/><path d="m68.226562 400.414062c-.011718 0-.023437 0-.039062 0-4.152344-.019531-7.503906-3.40625-7.484375-7.5625l.015625-2.726562c.019531-4.144531 3.382812-7.488281 7.519531-7.488281h.039063c4.15625.023437 7.507812 3.40625 7.484375 7.5625l-.011719 2.730469c-.019531 4.140624-3.386719 7.484374-7.523438 7.484374zm0 0" fill="#fda736"/><path d="m68.140625 428.203125c-.011719 0-.023437 0-.035156 0-4.152344-.019531-7.507813-3.402344-7.488281-7.554687l.015624-2.730469c.019532-4.144531 3.382813-7.488281 7.519532-7.488281h.035156c4.15625.019531 7.511719 3.402343 7.488281 7.558593l-.011719 2.726563c-.019531 4.144531-3.382812 7.488281-7.523437 7.488281zm0 0" fill="#fda736"/><path d="m83.453125 412.992188c-.015625 0-.027344 0-.039063 0l-2.730468-.011719c-4.152344-.019531-7.507813-3.402344-7.484375-7.558594.019531-4.15625 3.402343-7.492187 7.554687-7.488281l2.730469.015625c4.15625.019531 7.507813 3.402343 7.488281 7.554687-.019531 4.144532-3.382812 7.488282-7.519531 7.488282zm0 0" fill="#fda736"/><path d="m55.660156 412.910156c-.011718 0-.023437 0-.035156 0l-2.730469-.015625c-4.152343-.019531-7.507812-3.402343-7.488281-7.558593.019531-4.140626 3.386719-7.488282 7.523438-7.488282h.035156l2.730468.015625c4.152344.019531 7.507813 3.402344 7.488282 7.558594-.019532 4.140625-3.382813 7.488281-7.523438 7.488281zm0 0" fill="#fda736"/><path d="m106.777344 445.496094c-.011719 0-.023438 0-.035156 0-4.152344-.023438-7.507813-3.40625-7.488282-7.558594l.011719-2.730469c.023437-4.144531 3.386719-7.488281 7.523437-7.488281h.035157c4.15625.019531 7.507812 3.402344 7.488281 7.558594l-.011719 2.730468c-.019531 4.140626-3.382812 7.488282-7.523437 7.488282zm0 0" fill="#2de0c7"/><path d="m106.691406 473.285156c-.011718 0-.023437 0-.035156 0-4.152344-.019531-7.507812-3.402344-7.488281-7.558594l.011719-2.730468c.023437-4.140625 3.386718-7.488282 7.523437-7.488282h.035156c4.15625.023438 7.507813 3.40625 7.488281 7.558594l-.011718 2.730469c-.019532 4.144531-3.386719 7.488281-7.523438 7.488281zm0 0" fill="#2de0c7"/><path d="m122.003906 458.074219c-.015625 0-.027344 0-.039062 0l-2.730469-.011719c-4.152344-.019531-7.507813-3.40625-7.484375-7.558594.019531-4.144531 3.382812-7.488281 7.519531-7.488281h.035157l2.730468.011719c4.15625.019531 7.507813 3.40625 7.488282 7.558594-.019532 4.140624-3.382813 7.488281-7.519532 7.488281zm0 0" fill="#2de0c7"/><path d="m94.210938 457.988281c-.011719 0-.023438 0-.035157 0l-2.730469-.011719c-4.15625-.019531-7.507812-3.40625-7.488281-7.558593.019531-4.144531 3.382813-7.488281 7.523438-7.488281h.035156l2.730469.011718c4.15625.019532 7.507812 3.40625 7.488281 7.558594-.023437 4.144531-3.386719 7.488281-7.523437 7.488281zm0 0" fill="#2de0c7"/><path d="m38.425781 23.074219c-.015625 0-.027343 0-.039062 0-4.152344-.019531-7.507813-3.402344-7.488281-7.558594l.015624-2.726563c.019532-4.144531 3.382813-7.488281 7.519532-7.488281h.039062c4.152344.019531 7.507813 3.402344 7.488282 7.558594l-.015626 2.726563c-.019531 4.144531-3.382812 7.488281-7.519531 7.488281zm0 0" fill="#fda736"/><path d="m38.335938 50.867188c-.011719 0-.023438 0-.035157 0-4.152343-.019532-7.507812-3.40625-7.488281-7.558594l.015625-2.730469c.019531-4.144531 3.382813-7.488281 7.519531-7.488281h.035156c4.15625.019531 7.507813 3.40625 7.488282 7.558594l-.011719 2.730468c-.019531 4.140625-3.382813 7.488282-7.523437 7.488282zm0 0" fill="#fda736"/><path d="m53.648438 35.65625c-.015626 0-.027344 0-.039063 0l-2.730469-.015625c-4.152344-.019531-7.503906-3.402344-7.484375-7.558594.019531-4.140625 3.382813-7.484375 7.519531-7.484375h.039063l2.730469.011719c4.152344.019531 7.503906 3.40625 7.484375 7.558594-.019531 4.140625-3.382813 7.488281-7.519531 7.488281zm0 0" fill="#fda736"/><path d="m25.855469 35.570312c-.011719 0-.023438 0-.035157 0l-2.730468-.015624c-4.15625-.019532-7.507813-3.402344-7.488282-7.558594.023438-4.140625 3.386719-7.484375 7.523438-7.484375h.039062l2.726563.011719c4.15625.019531 7.507813 3.40625 7.488281 7.558593-.019531 4.144531-3.382812 7.488281-7.523437 7.488281zm0 0" fill="#fda736"/><path d="m192.707031 175.773438c0 7.8125-6.332031 14.140624-14.140625 14.140624s-14.140625-6.332031-14.140625-14.140624c0-7.808594 6.332031-14.140626 14.140625-14.140626s14.140625 6.328126 14.140625 14.140626" fill="#ff2e04"/><path d="m455.582031 71.46875c0 7.808594-6.332031 14.140625-14.140625 14.140625s-14.140625-6.332031-14.140625-14.140625c0-7.8125 6.332031-14.144531 14.140625-14.144531s14.140625 6.332031 14.140625 14.144531" fill="#fd8f07"/><path d="m211.125 471.511719c0 7.808593-6.332031 14.140625-14.140625 14.140625s-14.140625-6.332032-14.140625-14.140625c0-7.8125 6.332031-14.144531 14.140625-14.144531s14.140625 6.332031 14.140625 14.144531" fill="#d82fea"/><path d="m277.5 122.996094c0 7.726562-6.261719 13.992187-13.992188 13.992187-7.726562 0-13.992187-6.265625-13.992187-13.992187 0-7.730469 6.265625-13.996094 13.992187-13.996094 7.730469 0 13.992188 6.265625 13.992188 13.996094zm0 0" fill="#c5ee09"/><path d="m277.503906 122.996094c0 7.722656-6.269531 13.992187-13.992187 13.992187-2.558594 0-4.945313-.683593-7-1.875 4.179687-2.417969 7-6.941406 7-12.117187 0-5.175782-2.820313-9.703125-7-12.117188 2.054687-1.195312 4.441406-1.878906 7-1.878906 7.722656 0 13.992187 6.273438 13.992187 13.996094zm0 0" fill="#84e507"/><path d="m457.121094 304.347656c-12.519532 20.59375-29.964844 27.132813-39.242188 29.199219-3.082031-4.195313-5.4375-8.949219-6.882812-14.082031 2.007812-.164063 20.605468-2.109375 33.265625-22.933594 2.15625-3.550781 6.78125-4.683594 10.332031-2.527344 3.546875 2.167969 4.679688 6.792969 2.527344 10.34375zm0 0" fill="#f0a9ff"/><path d="m495.257812 293.179688c-3.292968 10.945312-10.714843 27.175781-27.214843 38.863281-1.003907.71875-2.128907 1.140625-3.269531 1.3125-.351563.039062-.714844.070312-1.074219.070312-2.355469 0-4.675781-1.101562-6.148438-3.171875-2.398437-3.386718-1.59375-8.082031 1.796875-10.492187 5.964844-4.230469 10.441406-9.296875 13.78125-14.371094 8.304688-12.609375 9.640625-25.308594 9.660156-25.488281.140626-1.496094.710938-2.851563 1.59375-3.945313 4.867188 4.765625 8.625 10.644531 10.875 17.222657zm0 0" fill="#f0a9ff"/></svg>