<svg height="512pt" viewBox="0 0 512 512.00011" width="512pt" xmlns="http://www.w3.org/2000/svg"><path d="m94.375 417.625c-20.714844-20.714844-26.335938-52.742188-15.421875-87.878906 8.433594-27.144532 26.328125-55.34375 50.386719-79.40625 75.472656-75.472656 360.410156-269.515625 381.121094-248.800782 20.714843 20.714844-175.035157 307.355469-248.800782 381.121094-24.0625 24.058594-52.261718 41.953125-79.40625 50.386719-35.132812 10.914063-67.164062 5.292969-87.878906-15.421875zm0 0" fill="#ff5c3c"/><path d="m261.660156 382.652344c-24.0625 24.0625-52.257812 41.964844-79.40625 50.390625-35.132812 10.917969-67.164062 5.296875-87.875-15.417969-2.6875-2.6875-5.117187-5.558594-7.289062-8.605469 20.460937 14.585938 48.683594 17.597657 79.253906 8.109375 27.136719-8.433594 55.339844-26.324218 79.402344-50.386718 65.355468-65.347657 226.464844-297.8125 247.941406-364.378907 8.574219-2.75 14.398438-3.195312 16.773438-.820312 20.714843 20.714843-175.03125 307.351562-248.800782 381.109375zm0 0" fill="#ff2e04"/><path d="m269.261719 242.734375c-21.425781-21.429687-71.824219-5.777344-112.5625 34.964844-40.742188 40.738281-56.394531 91.136719-34.96875 112.566406 21.429687 21.425781 71.828125 5.773437 112.566406-34.96875 40.738281-40.738281 56.394531-91.136719 34.964844-112.5625zm0 0" fill="#fda736"/><path d="m234.300781 355.296875c-40.742187 40.746094-91.136719 56.402344-112.574219 34.96875-3.773437-3.777344-6.394531-8.445313-7.925781-13.804687 25.070313 7.199218 65.195313-9.335938 98.761719-42.902344 33.558594-33.558594 50.09375-73.683594 42.894531-98.753906 5.363281 1.53125 10.027344 4.152343 13.804688 7.925781 21.433593 21.4375 5.777343 71.832031-34.960938 112.566406zm0 0" fill="#fd8f07"/><path d="m245.292969 483.214844c-62.1875 0-116.511719-20.421875-156.300781-60.207032-61.527344-61.527343-76.742188-157.824218-41.742188-264.199218 1.3125-3.992188 5.617188-6.160156 9.609375-4.851563 3.992187 1.316407 6.164063 5.617188 4.851563 9.609375-33.136719 100.71875-19.269532 191.359375 38.046874 248.675782 57.316407 57.316406 147.957032 71.183593 248.675782 38.046874 3.988281-1.3125 8.296875.859376 9.609375 4.851563 1.3125 3.996094-.859375 8.296875-4.851563 9.609375-37.585937 12.367188-73.917968 18.464844-107.898437 18.464844zm0 0" fill="#fd8f07"/><path d="m235.859375 512c-.523437 0-1.054687-.054688-1.589844-.167969-45.542969-9.667969-98.496093-42.042969-145.277343-88.824219s-79.15625-99.734374-88.824219-145.277343c-.875-4.113281 1.753906-8.152344 5.863281-9.023438 4.117188-.875 8.15625 1.75 9.027344 5.863281 9.074218 42.738282 39.945312 92.917969 84.699218 137.675782 44.75 44.753906 94.933594 75.621094 137.671876 84.695312 4.113281.875 6.738281 4.914063 5.867187 9.027344-.761719 3.578125-3.921875 6.03125-7.4375 6.03125zm0 0" fill="#fda736"/><path d="m171.40625 453.308594c-33.957031 0-62.214844-10.101563-82.414062-30.300782-39.980469-39.980468-40.417969-111.550781-1.203126-196.371093 29.570313-63.957031 80.59375-133.921875 143.683594-197.007813 2.972656-2.972656 7.789063-2.972656 10.761719 0s2.972656 7.792969 0 10.765625c-61.851563 61.847657-111.792969 130.261719-140.628906 192.632813-36.382813 78.6875-37.054688 144.011718-1.851563 179.214844 35.207032 35.207031 100.527344 34.53125 179.21875-1.847657 62.371094-28.835937 130.785156-78.78125 192.632813-140.628906 2.972656-2.972656 7.792969-2.972656 10.765625 0 2.972656 2.96875 2.972656 7.789063 0 10.761719-63.085938 63.085937-133.050782 114.113281-197.007813 143.683594-41.96875 19.402343-80.695312 29.097656-113.957031 29.097656zm0 0" fill="#fda736"/><path d="m317.300781 235.339844c-1.964843 0-3.925781-.753906-5.417969-2.261719l-.078124-.082031c-2.953126-2.988282-2.925782-7.808594.066406-10.761719 2.988281-2.957031 7.808594-2.925781 10.761718.066406l.082032.078125c2.953125 2.992188 2.921875 7.8125-.066406 10.765625-1.480469 1.464844-3.414063 2.195313-5.347657 2.195313zm0 0" fill="#fda736"/><path d="m316.207031 258.125c-1.957031 0-3.910156-.75-5.398437-2.246094l-.082032-.082031c-2.960937-2.980469-2.949218-7.800781.035157-10.761719 2.980469-2.964844 7.800781-2.949218 10.761719.03125l.082031.082032c2.964843 2.980468 2.949219 7.800781-.03125 10.761718-1.488281 1.476563-3.425781 2.214844-5.367188 2.214844zm0 0" fill="#fd8f07"/><path d="m426.707031 88.441406c-1.949219 0-3.894531-.742187-5.382812-2.226562l-.078125-.082032c-2.972656-2.972656-2.972656-7.792968 0-10.765624 2.96875-2.96875 7.789062-2.96875 10.761718 0l.082032.082031c2.972656 2.972656 2.972656 7.792969 0 10.765625-1.484375 1.484375-3.433594 2.226562-5.382813 2.226562zm0 0" fill="#ff2e04"/><path d="m501.980469 257.847656c-1.957031 0-3.914063-.746094-5.398438-2.246094l-.082031-.078124c-2.964844-2.984376-2.949219-7.800782.03125-10.765626 2.984375-2.960937 7.800781-2.945312 10.765625.035157l.082031.078125c2.960938 2.984375 2.949219 7.800781-.035156 10.765625-1.484375 1.476562-3.425781 2.210937-5.363281 2.210937zm0 0" fill="#fd7504"/><path d="m261.84375 17.714844c-1.964844 0-3.925781-.753906-5.414062-2.261719l-.082032-.082031c-2.953125-2.992188-2.921875-7.808594.066406-10.765625 2.992188-2.953125 7.808594-2.921875 10.765626.066406l.078124.082031c2.953126 2.992188 2.925782 7.808594-.066406 10.765625-1.480468 1.464844-3.414062 2.195313-5.347656 2.195313zm0 0" fill="#fd7504"/><path d="m68.566406 136.878906c-1.957031 0-3.914062-.746094-5.398437-2.246094l-.082031-.078124c-2.964844-2.984376-2.949219-7.800782.03125-10.765626 2.984374-2.964843 7.800781-2.949218 10.765624.03125l.082032.082032c2.960937 2.984375 2.949218 7.800781-.035156 10.765625-1.484376 1.472656-3.425782 2.210937-5.363282 2.210937zm0 0" fill="#fda736"/><path d="m382.8125 451.128906c-1.945312 0-3.894531-.742187-5.382812-2.230468l-.078126-.082032c-2.972656-2.96875-2.972656-7.789062 0-10.761718 2.972657-2.972657 7.789063-2.972657 10.761719 0l.082031.082031c2.972657 2.96875 2.972657 7.789062 0 10.761719-1.484374 1.488281-3.433593 2.230468-5.382812 2.230468zm0 0" fill="#fda736"/><path d="m366.632812 148.125c-1.945312 0-3.894531-.742188-5.382812-2.226562-2.972656-2.972657-2.972656-7.792969 0-10.765626l42.125-42.125c2.972656-2.972656 7.792969-2.972656 10.765625 0 2.972656 2.972657 2.972656 7.792969 0 10.765626l-42.125 42.125c-1.484375 1.484374-3.433594 2.226562-5.382813 2.226562zm0 0" fill="#ff2e04"/><path d="m332.871094 219.210938c-1.949219 0-3.898438-.742188-5.382813-2.230469-2.972656-2.96875-2.972656-7.789063 0-10.761719l26.371094-26.371094c2.972656-2.972656 7.792969-2.972656 10.761719 0 2.972656 2.972656 2.972656 7.792969 0 10.761719l-26.371094 26.371094c-1.484375 1.488281-3.433594 2.230469-5.378906 2.230469zm0 0" fill="#ff2e04"/><g fill="#fda736"><path d="m426.664062 395.289062c-.011718 0-.027343 0-.039062 0-4.203125-.019531-7.59375-3.445312-7.574219-7.648437l.015625-2.65625c.019532-4.191406 3.421875-7.574219 7.609375-7.574219h.035157c4.207031.019532 7.597656 3.445313 7.574218 7.648438l-.011718 2.65625c-.019532 4.191406-3.425782 7.574218-7.609376 7.574218zm0 0"/><path d="m426.578125 422.320312c-.011719 0-.023437 0-.035156 0-4.203125-.019531-7.59375-3.441406-7.578125-7.644531l.015625-2.65625c.019531-4.191406 3.421875-7.578125 7.609375-7.578125h.035156c4.203125.023438 7.59375 3.445313 7.578125 7.648438l-.011719 2.65625c-.019531 4.191406-3.425781 7.574218-7.613281 7.574218zm0 0"/><path d="m441.472656 407.527344c-.015625 0-.027344 0-.039062 0l-2.65625-.015625c-4.203125-.019531-7.59375-3.445313-7.574219-7.648438s3.476563-7.617187 7.648437-7.574219l2.65625.015626c4.203126.019531 7.597657 3.445312 7.574219 7.648437-.019531 4.191406-3.425781 7.574219-7.609375 7.574219zm0 0"/><path d="m414.441406 407.441406c-.015625 0-.027344 0-.039062 0l-2.65625-.011718c-4.203125-.019532-7.59375-3.441407-7.574219-7.648438.019531-4.1875 3.421875-7.574219 7.609375-7.574219h.035156l2.65625.011719c4.203125.019531 7.597656 3.441406 7.578125 7.648438-.019531 4.191406-3.425781 7.574218-7.609375 7.574218zm0 0"/><path d="m482.34375 421.632812c-.011719 0-.023438 0-.039062 0-4.203126-.019531-7.59375-3.445312-7.574219-7.648437l.011719-2.65625c.019531-4.203125 3.46875-7.628906 7.644531-7.574219 4.207031.019532 7.597656 3.441406 7.578125 7.644532l-.011719 2.65625c-.019531 4.195312-3.425781 7.578124-7.609375 7.578124zm0 0"/><path d="m482.257812 448.664062c-.011718 0-.023437 0-.039062 0-4.203125-.019531-7.59375-3.445312-7.570312-7.648437l.011718-2.65625c.019532-4.191406 3.425782-7.574219 7.609375-7.574219h.039063c4.203125.019532 7.59375 3.445313 7.574218 7.648438l-.011718 2.65625c-.023438 4.191406-3.425782 7.574218-7.613282 7.574218zm0 0"/><path d="m497.152344 433.867188c-.015625 0-.027344 0-.039063 0l-2.65625-.011719c-4.203125-.019531-7.59375-3.445313-7.574219-7.648438.019532-4.191406 3.425782-7.574219 7.609376-7.574219h.039062l2.65625.011719c4.203125.023438 7.59375 3.445313 7.574219 7.652344-.019531 4.1875-3.425781 7.570313-7.609375 7.570313zm0 0"/><path d="m470.117188 433.785156c-.011719 0-.023438 0-.035157 0l-2.65625-.011718c-4.207031-.019532-7.597656-3.445313-7.574219-7.648438.019532-4.191406 3.425782-7.574219 7.609376-7.574219h.039062l2.65625.011719c4.203125.019531 7.59375 3.445312 7.574219 7.648438-.023438 4.191406-3.425781 7.574218-7.613281 7.574218zm0 0"/></g><path d="m302.722656 50.945312c-.011718 0-.023437 0-.035156 0-4.207031-.019531-7.597656-3.441406-7.578125-7.644531l.011719-2.65625c.019531-4.191406 3.425781-7.578125 7.609375-7.578125h.039062c4.203125.019532 7.59375 3.445313 7.574219 7.648438l-.011719 2.65625c-.019531 4.191406-3.421875 7.574218-7.609375 7.574218zm0 0" fill="#fd8f07"/><path d="m302.636719 77.976562c-.011719 0-.023438 0-.035157 0-4.203124-.019531-7.597656-3.445312-7.574218-7.648437l.011718-2.65625c.019532-4.191406 3.425782-7.574219 7.609376-7.574219h.039062c4.203125.019532 7.59375 3.445313 7.574219 7.652344l-.011719 2.652344c-.019531 4.191406-3.425781 7.574218-7.613281 7.574218zm0 0" fill="#fd8f07"/><path d="m317.53125 63.183594c-.011719 0-.023438 0-.039062 0l-2.65625-.011719c-4.203126-.023437-7.59375-3.445313-7.574219-7.652344.023437-4.1875 3.425781-7.574219 7.613281-7.574219h.035156l2.65625.015626c4.203125.019531 7.597656 3.445312 7.574219 7.648437-.019531 4.191406-3.421875 7.574219-7.609375 7.574219zm0 0" fill="#fd8f07"/><path d="m290.5 63.097656c-.011719 0-.027344 0-.039062 0l-2.65625-.011718c-4.203126-.019532-7.59375-3.441407-7.574219-7.644532.019531-4.191406 3.421875-7.578125 7.609375-7.578125h.035156l2.65625.011719c4.207031.019531 7.597656 3.445312 7.578125 7.648438-.019531 4.191406-3.425781 7.574218-7.609375 7.574218zm0 0" fill="#fd8f07"/><path d="m81.148438 65.789062c-.015626 0-.027344 0-.039063 0-4.203125-.019531-7.59375-3.441406-7.574219-7.644531l.011719-2.65625c.019531-4.191406 3.421875-7.578125 7.609375-7.578125h.035156c4.207032.019532 7.597656 3.445313 7.578125 7.648438l-.011719 2.65625c-.019531 4.191406-3.425781 7.574218-7.609374 7.574218zm0 0" fill="#fd7504"/><path d="m81.0625 92.824219c-.011719 0-.023438 0-.039062 0-4.203126-.019531-7.59375-3.445313-7.574219-7.648438l.015625-2.65625c.019531-4.191406 3.421875-7.574219 7.609375-7.574219h.039062c4.203125.019532 7.59375 3.445313 7.574219 7.648438l-.015625 2.65625c-.019531 4.1875-3.421875 7.574219-7.609375 7.574219zm0 0" fill="#fd7504"/><path d="m95.957031 78.027344c-.015625 0-.027343 0-.039062 0l-2.65625-.011719c-4.203125-.023437-7.59375-3.445313-7.574219-7.652344.019531-4.1875 3.425781-7.570312 7.609375-7.570312h.039063l2.65625.011719c4.203124.019531 7.59375 3.445312 7.574218 7.648437-.019531 4.191406-3.425781 7.574219-7.609375 7.574219zm0 0" fill="#fd7504"/><path d="m68.921875 77.941406c-.011719 0-.023437 0-.039063 0l-2.65625-.011718c-4.203124-.019532-7.59375-3.445313-7.574218-7.648438.019531-4.191406 3.425781-7.574219 7.609375-7.574219h.039062l2.65625.011719c4.203125.019531 7.597657 3.445312 7.574219 7.648438-.019531 4.191406-3.421875 7.574218-7.609375 7.574218zm0 0" fill="#fd7504"/></svg>