<svg height="512pt" viewBox="-26 0 512 512" width="512pt" xmlns="http://www.w3.org/2000/svg"><path d="m161.734375 438.066406c-1.945313 0-3.894531-.742187-5.378906-2.230468-2.976563-2.972657-2.976563-7.789063 0-10.761719l195.992187-195.996094c2.972656-2.972656 7.792969-2.972656 10.765625 0 2.972657 2.972656 2.972657 7.792969 0 10.765625l-195.996093 195.992188c-1.484376 1.488281-3.433594 2.230468-5.382813 2.230468zm0 0" fill="#898ec9"/><path d="m81.511719 327.992188c-1.949219 0-3.898438-.746094-5.382813-2.230469-2.972656-2.972657-2.972656-7.792969 0-10.765625l73.242188-73.238282c2.972656-2.972656 7.789062-2.972656 10.761718 0 2.972657 2.972657 2.972657 7.792969 0 10.761719l-73.238281 73.242188c-1.488281 1.484375-3.4375 2.230469-5.382812 2.230469zm0 0" fill="#6163aa"/><path d="m2.972656 450.898438 30.722656 30.722656c1.90625 1.90625 4.488282 2.972656 7.175782 2.972656h73.316406c2.691406 0 5.269531-1.066406 7.175781-2.972656l42.289063-42.289063c1.902344-1.902343 2.972656-4.484375 2.972656-7.175781v-76.289062c0-4.167969-2.546875-7.90625-6.417969-9.4375l-81.28125-32.125c-3.546875-1.402344-7.578125-.699219-10.4375 1.824218l-43.945312 38.71875c-1.519531 1.339844-2.605469 3.101563-3.113281 5.0625l-21.105469 81.261719c-.902344 3.480469.105469 7.183594 2.648437 9.726563zm0 0" fill="#898ec9"/><path d="m166.621094 355.867188v76.292968c0 2.691406-1.070313 5.273438-2.972656 7.175782l-42.285157 42.285156c-1.902343 1.902344-4.484375 2.972656-7.175781 2.972656h-73.316406c-2.691406 0-5.273438-1.070312-7.175782-2.972656l-17.34375-17.34375h81.722657l48.230469-48.230469v-75.109375l13.898437 5.492188c3.871094 1.527343 6.417969 5.269531 6.417969 9.4375zm0 0" fill="#6163aa"/><path d="m98.300781 443.042969c-1.949219 0-3.898437-.742188-5.382812-2.230469-2.972657-2.972656-2.972657-7.792969 0-10.761719l24.035156-24.039062v-21.320313c0-4.203125 3.410156-7.609375 7.613281-7.609375s7.609375 3.40625 7.609375 7.609375v24.472656c0 2.019532-.800781 3.953126-2.226562 5.382813l-26.269531 26.265625c-1.484376 1.484375-3.433594 2.230469-5.378907 2.230469zm0 0" fill="#a7acd3"/><path d="m211.570312 327.882812c-1.949218 0-3.894531-.742187-5.382812-2.226562-2.972656-2.972656-2.972656-7.792969 0-10.765625l63.777344-63.777344c2.972656-2.96875 7.789062-2.96875 10.761718 0 2.972657 2.972657 2.972657 7.792969 0 10.765625l-63.773437 63.777344c-1.488281 1.484375-3.433594 2.226562-5.382813 2.226562zm0 0" fill="#898ec9"/><path d="m152.722656 512c-1.949218 0-3.898437-.742188-5.382812-2.230469-2.972656-2.96875-2.972656-7.789062 0-10.761719l60.925781-60.929687c2.972656-2.972656 7.792969-2.972656 10.765625 0s2.972656 7.792969 0 10.765625l-60.929688 60.925781c-1.484374 1.488281-3.433593 2.230469-5.378906 2.230469zm0 0" fill="#898ec9"/><path d="m211.132812 133.382812c-1.949218 0-3.894531-.742187-5.382812-2.230468-2.972656-2.972656-2.972656-7.792969 0-10.761719l98.261719-98.261719c2.972656-2.972656 7.792969-2.972656 10.765625 0 2.972656 2.96875 2.972656 7.789063 0 10.761719l-98.261719 98.261719c-1.488281 1.488281-3.433594 2.230468-5.382813 2.230468zm0 0" fill="#6163aa"/><path d="m246.746094 184.863281c-1.949219 0-3.898438-.742187-5.382813-2.230469-2.972656-2.972656-2.972656-7.789062 0-10.761718l71.09375-71.09375c2.972657-2.972656 7.789063-2.972656 10.761719 0s2.972656 7.792968 0 10.761718l-71.09375 71.09375c-1.484375 1.488282-3.433594 2.230469-5.378906 2.230469zm0 0" fill="#6163aa"/><path d="m170.726562 192.847656 12.355469 12.359375c1.90625 1.902344 4.488281 2.972657 7.179688 2.972657h33.605469c2.691406 0 5.273437-1.070313 7.175781-2.972657l18.855469-18.855469c1.902343-1.902343 2.972656-4.484374 2.972656-7.175781v-33.828125c0-4.164062-2.546875-7.90625-6.417969-9.4375l-35.863281-14.175781c-3.546875-1.402344-7.578125-.695313-10.441406 1.824219l-19.195313 16.914062c-1.519531 1.339844-2.601563 3.101563-3.109375 5.0625l-9.765625 37.585938c-.902344 3.484375.105469 7.183594 2.648437 9.726562zm0 0" fill="#898ec9"/><path d="m274.453125 208.910156c-1.949219 0-3.894531-.742187-5.382813-2.230468-2.972656-2.96875-2.972656-7.789063 0-10.761719l32.789063-32.789063c2.972656-2.972656 7.792969-2.972656 10.765625 0s2.972656 7.792969 0 10.761719l-32.789062 32.789063c-1.484376 1.488281-3.433594 2.230468-5.382813 2.230468zm0 0" fill="#898ec9"/><path d="m332.945312 450.34375c-1.949218 0-3.898437-.742188-5.382812-2.230469-2.972656-2.96875-2.972656-7.789062 0-10.761719l117.15625-117.15625c2.972656-2.972656 7.792969-2.972656 10.761719 0 2.972656 2.96875 2.972656 7.789063 0 10.761719l-117.15625 117.15625c-1.484375 1.488281-3.433594 2.230469-5.378907 2.230469zm0 0" fill="#898ec9"/><path d="m299.597656 401.128906c-1.949218 0-3.898437-.742187-5.382812-2.230468-2.972656-2.96875-2.972656-7.789063 0-10.761719l53.503906-53.503907c2.972656-2.972656 7.792969-2.972656 10.765625 0 2.972656 2.96875 2.972656 7.789063 0 10.761719l-53.503906 53.503907c-1.488281 1.488281-3.4375 2.230468-5.382813 2.230468zm0 0" fill="#6163aa"/><path d="m258.164062 459.570312 12.355469 12.355469c1.90625 1.902344 4.484375 2.972657 7.175781 2.972657h33.609376c2.691406 0 5.273437-1.070313 7.175781-2.972657l18.855469-18.855469c1.902343-1.902343 2.972656-4.484374 2.972656-7.175781v-33.828125c0-4.164062-2.546875-7.90625-6.417969-9.4375l-35.863281-14.175781c-3.546875-1.398437-7.578125-.695313-10.441406 1.824219l-19.195313 16.914062c-1.519531 1.339844-2.601563 3.105469-3.113281 5.066406l-9.761719 37.585938c-.902344 3.480469.105469 7.179688 2.648437 9.726562zm0 0" fill="#898ec9"/><path d="m340.308594 412.066406v33.824219c0 2.6875-1.066406 5.277344-2.972656 7.175781l-18.855469 18.855469c-1.898438 1.90625-4.488281 2.972656-7.175781 2.972656h-33.601563c-2.703125 0-5.277344-1.066406-7.1875-2.972656l-10.707031-10.707031c1.910156 1.898437 4.488281 2.972656 7.175781 2.972656h33.613281c2.6875 0 5.265625-1.074219 7.175782-2.972656l18.855468-18.855469c1.898438-1.910156 2.972656-4.488281 2.972656-7.175781v-33.824219c0-.144531 0-.296875-.019531-.4375l4.3125 1.707031c3.867188 1.53125 6.414063 5.277344 6.414063 9.4375zm0 0" fill="#6163aa"/><path d="m361.890625 475.628906c-1.949219 0-3.898437-.742187-5.382813-2.226562-2.972656-2.972656-2.972656-7.792969 0-10.765625l32.789063-32.789063c2.972656-2.972656 7.792969-2.972656 10.765625 0s2.972656 7.792969 0 10.765625l-32.789062 32.789063c-1.488282 1.484375-3.4375 2.226562-5.382813 2.226562zm0 0" fill="#898ec9"/><path d="m46.230469 228.28125c-7.101563-7.097656-7.101563-18.609375 0-25.710938l18.804687-18.804687c7.101563-7.101563 18.613282-7.101563 25.710938 0 7.101562 7.097656 7.101562 18.613281 0 25.710937l-18.804688 18.804688c-7.097656 7.101562-18.609375 7.101562-25.710937 0zm0 0" fill="#6163aa"/><path d="m391.347656 306.261719c-7.097656-7.101563-7.097656-18.613281 0-25.714844l18.804688-18.804687c7.101562-7.097657 18.613281-7.097657 25.714844 0 7.097656 7.101562 7.097656 18.613281 0 25.710937l-18.804688 18.808594c-7.101562 7.097656-18.613281 7.097656-25.714844 0zm0 0" fill="#6163aa"/><path d="m169.671875 49.84375c-7.101563-7.101562-7.101563-18.613281 0-25.714844l18.804687-18.804687c7.097657-7.097657 18.609376-7.097657 25.710938 0 7.101562 7.101562 7.101562 18.613281 0 25.710937l-18.804688 18.808594c-7.101562 7.097656-18.613281 7.097656-25.710937 0zm0 0" fill="#6163aa"/><path d="m228.21875 171.425781c-.011719 0-.023438 0-.035156 0h-.105469c-4.207031-.019531-7.597656-3.445312-7.578125-7.648437.019531-4.191406 3.425781-7.574219 7.613281-7.574219h.035157.105468c4.203125.019531 7.597656 3.445313 7.574219 7.648437-.019531 4.191407-3.421875 7.574219-7.609375 7.574219zm0 0" fill="#6163aa"/><path d="m68.542969 365.753906c-.011719 0-.027344 0-.039063 0h-.105468c-4.203126-.023437-7.59375-3.445312-7.574219-7.648437.019531-4.191407 3.421875-7.578125 7.609375-7.578125h.039062.105469c4.203125.023437 7.59375 3.445312 7.574219 7.648437-.019532 4.191407-3.421875 7.578125-7.609375 7.578125zm0 0" fill="#6163aa"/><path d="m91.539062 363.054688h-.105468c-4.207032 0-7.613282-3.410157-7.613282-7.613282s3.410157-7.609375 7.613282-7.609375h.105468c4.203126 0 7.609376 3.40625 7.609376 7.609375s-3.40625 7.613282-7.609376 7.613282zm0 0" fill="#6163aa"/><path d="m204.867188 180.714844c-.011719 0-.027344 0-.039063 0l-.105469-.003906c-4.203125-.019532-7.59375-3.441407-7.574218-7.644532.019531-4.195312 3.421874-7.578125 7.609374-7.578125h.039063.105469c4.203125.019531 7.59375 3.445313 7.574218 7.648438-.019531 4.191406-3.425781 7.578125-7.609374 7.578125zm0 0" fill="#6163aa"/><g fill="#898ec9"><path d="m152.761719 92c-.011719 0-.027344 0-.039063 0-4.203125-.019531-7.59375-3.441406-7.574218-7.648438l.015624-2.929687c.019532-4.191406 3.421876-7.574219 7.609376-7.574219h.039062c4.203125.019532 7.59375 3.445313 7.574219 7.648438l-.015625 2.929687c-.019532 4.191407-3.425782 7.574219-7.609375 7.574219zm0 0"/><path d="m152.667969 121.824219c-.011719 0-.023438 0-.039063 0-4.203125-.019531-7.59375-3.445313-7.570312-7.648438l.011718-2.929687c.023438-4.207032 3.417969-7.578125 7.648438-7.574219 4.207031.019531 7.597656 3.445313 7.574219 7.648437l-.011719 2.929688c-.023438 4.191406-3.425781 7.574219-7.613281 7.574219zm0 0"/><path d="m169.097656 105.5c-.011718 0-.023437 0-.035156 0l-2.933594-.015625c-4.203125-.019531-7.59375-3.441406-7.574218-7.644531.019531-4.191406 3.425781-7.578125 7.613281-7.578125h.035156l2.929687.015625c4.203126.019531 7.597657 3.445312 7.574219 7.648437-.019531 4.191407-3.421875 7.574219-7.609375 7.574219zm0 0"/><path d="m139.273438 105.40625c-.011719 0-.023438 0-.035157 0l-2.929687-.011719c-4.203125-.019531-7.597656-3.445312-7.574219-7.648437.019531-4.191406 3.421875-7.574219 7.609375-7.574219h.035156l2.933594.011719c4.203125.019531 7.59375 3.445312 7.574219 7.648437-.019531 4.191407-3.425781 7.574219-7.613281 7.574219zm0 0"/><path d="m436.542969 406.929688c-.011719 0-.023438 0-.035157 0-4.203124-.019532-7.597656-3.445313-7.574218-7.648438l.011718-2.929688c.019532-4.203124 3.402344-7.597656 7.648438-7.574218 4.203125.019531 7.59375 3.441406 7.574219 7.648437l-.011719 2.929688c-.019531 4.191406-3.425781 7.574219-7.613281 7.574219zm0 0"/><path d="m436.453125 436.753906c-.011719 0-.027344 0-.039063 0-4.203124-.023437-7.59375-3.445312-7.574218-7.648437l.015625-2.929688c.019531-4.191406 3.421875-7.578125 7.609375-7.578125h.035156c4.207031.019532 7.597656 3.445313 7.578125 7.648438l-.015625 2.929687c-.019531 4.191407-3.425781 7.578125-7.609375 7.578125zm0 0"/><path d="m452.878906 420.429688c-.011718 0-.023437 0-.035156 0l-2.929688-.015626c-4.203124-.019531-7.59375-3.445312-7.574218-7.648437.019531-4.203125 3.445312-7.550781 7.648437-7.574219l2.929688.011719c4.203125.023437 7.59375 3.445313 7.574219 7.648437-.019532 4.191407-3.425782 7.578126-7.613282 7.578126zm0 0"/><path d="m423.058594 420.335938c-.015625 0-.027344 0-.039063 0l-2.929687-.015626c-4.203125-.019531-7.59375-3.441406-7.574219-7.648437.019531-4.191406 3.425781-7.574219 7.609375-7.574219h.039062l2.929688.015625c4.207031.019531 7.597656 3.445313 7.574219 7.648438-.019531 4.191406-3.425781 7.574219-7.609375 7.574219zm0 0"/><path d="m358.117188 147.769531c-.011719 0-.023438 0-.035157 0-4.207031-.019531-7.597656-3.441406-7.578125-7.648437l.015625-2.929688c.019531-4.203125 3.398438-7.582031 7.648438-7.574218 4.203125.019531 7.59375 3.445312 7.574219 7.648437l-.011719 2.929687c-.023438 4.191407-3.425781 7.574219-7.613281 7.574219zm0 0"/><path d="m358.027344 177.59375c-.015625 0-.027344 0-.039063 0-4.203125-.019531-7.59375-3.445312-7.574219-7.648438l.015626-2.929687c.019531-4.203125 3.472656-7.636719 7.648437-7.574219 4.203125.019532 7.59375 3.445313 7.574219 7.648438l-.015625 2.929687c-.023438 4.191407-3.425781 7.574219-7.609375 7.574219zm0 0"/><path d="m374.453125 161.269531c-.011719 0-.023437 0-.035156 0l-2.929688-.011719c-4.203125-.019531-7.59375-3.445312-7.574219-7.648437.019532-4.191406 3.421876-7.574219 7.609376-7.574219h.039062l2.929688.011719c4.203124.019531 7.59375 3.445313 7.574218 7.648437-.019531 4.191407-3.425781 7.574219-7.613281 7.574219zm0 0"/><path d="m344.632812 161.179688c-.011718 0-.023437 0-.039062 0l-2.929688-.015626c-4.203124-.019531-7.59375-3.445312-7.574218-7.648437.019531-4.191406 3.425781-7.574219 7.609375-7.574219h.039062l2.929688.011719c4.203125.023437 7.59375 3.445313 7.574219 7.648437-.019532 4.191407-3.425782 7.578126-7.609376 7.578126zm0 0"/></g></svg>