<svg height="511pt" viewBox="1 -9 511.99909 511" width="511pt" xmlns="http://www.w3.org/2000/svg"><path d="m511.996094 235.148438c0 28.710937-5.15625 56.222656-14.59375 81.644531-1.917969 5.175781-4.019532 10.257812-6.28125 15.253906-36.890625 81.25-118.738282 137.746094-213.769532 137.746094-129.597656 0-234.660156-105.046875-234.660156-234.644531 0-14.871094 1.382813-29.414063 4.03125-43.519532 1.105469-5.925781 2.445313-11.78125 3.988282-17.535156 10.148437-37.746094 29.460937-71.722656 55.421874-99.398438 3.46875-3.703124 7.0625-7.296874 10.765626-10.765624 41.964843-39.335938 98.394531-63.429688 160.453124-63.429688 103.605469 0 191.535157 67.152344 222.621094 160.308594 3.082032 9.214844 5.601563 18.691406 7.519532 28.386718 2.960937 14.855469 4.503906 30.222657 4.503906 45.953126zm0 0" fill="#d82fea"/><path d="m306.566406 311.417969c-1.949218 0-3.894531-.742188-5.382812-2.226563l-51.984375-51.988281c-2.972657-2.96875-2.972657-7.789063 0-10.761719 2.972656-2.972656 7.792969-2.972656 10.765625 0l51.984375 51.984375c2.972656 2.972657 2.972656 7.792969 0 10.765625-1.488281 1.484375-3.433594 2.226563-5.382813 2.226563zm0 0" fill="#b200bf"/><path d="m362.480469 411.289062c-1.949219 0-3.894531-.742187-5.382813-2.226562l-22.835937-22.835938c-2.972657-2.972656-2.972657-7.792968 0-10.765624 2.972656-2.96875 7.792969-2.96875 10.765625 0l22.835937 22.835937c2.972657 2.972656 2.972657 7.792969 0 10.765625-1.488281 1.484375-3.433593 2.226562-5.382812 2.226562zm0 0" fill="#b200bf"/><path d="m512 235.148438c0 129.59375-105.0625 234.648437-234.65625 234.648437-73.621094 0-139.316406-33.898437-182.339844-86.945313 40.320313 32.703126 91.722656 52.304688 147.699219 52.304688 129.59375 0 234.644531-105.050781 234.644531-234.648438 0-55.972656-19.601562-107.375-52.304687-147.699218 53.046875 43.027344 86.957031 108.722656 86.957031 182.339844zm0 0" fill="#b200bf"/><path d="m373.726562 341.589844c0 23.886718-19.363281 43.25-43.25 43.25-23.890624 0-43.253906-19.363282-43.253906-43.25 0-23.886719 19.363282-43.253906 43.253906-43.253906 23.886719 0 43.25 19.367187 43.25 43.253906zm0 0" fill="#7e18ea"/><path d="m361.054688 372.171875c-11.0625 11.0625-26.617188 14.878906-40.785157 11.449219 7.46875-1.804688 14.550781-5.621094 20.378907-11.449219 16.886718-16.886719 16.886718-44.277344 0-61.164063-5.828126-5.824218-12.910157-9.652343-20.378907-11.457031 14.167969-3.429687 29.722657.394531 40.785157 11.457031 16.898437 16.886719 16.898437 44.277344 0 61.164063zm0 0" fill="#5100cb"/><path d="m395.480469 201.972656c0 11.6875-9.472657 21.160156-21.15625 21.160156-11.6875 0-21.160157-9.472656-21.160157-21.160156s9.472657-21.160156 21.160157-21.160156c11.683593 0 21.15625 9.472656 21.15625 21.160156zm0 0" fill="#7e18ea"/><path d="m389.289062 216.929688c-6.261718 6.261718-15.457031 7.785156-23.148437 4.558593 2.464844-1.027343 4.78125-2.546875 6.789063-4.558593 8.261718-8.261719 8.261718-21.65625 0-29.917969-2.007813-2.007813-4.324219-3.523438-6.789063-4.558594 7.691406-3.214844 16.886719-1.695313 23.148437 4.558594 8.261719 8.261719 8.261719 21.65625 0 29.917969zm0 0" fill="#5100cb"/><path d="m207.273438 240.058594c0 11.6875-9.472657 21.160156-21.15625 21.160156-11.6875 0-21.160157-9.472656-21.160157-21.160156 0-11.683594 9.472657-21.15625 21.160157-21.15625 11.683593 0 21.15625 9.472656 21.15625 21.15625zm0 0" fill="#7e18ea"/><path d="m201.082031 255.015625c-6.820312 6.820313-17.128906 8.019531-25.167969 3.574219 1.703126-.933594 3.308594-2.132813 4.75-3.574219 8.261719-8.257813 8.261719-21.65625 0-29.917969-1.441406-1.4375-3.046874-2.636718-4.75-3.570312 8.039063-4.433594 18.347657-3.246094 25.167969 3.570312 8.261719 8.261719 8.261719 21.660156 0 29.917969zm0 0" fill="#5100cb"/><path d="m363.613281 100.992188c0 21.222656-17.203125 38.429687-38.429687 38.429687-21.222656 0-38.429688-17.207031-38.429688-38.429687 0-21.226563 17.207032-38.433594 38.429688-38.433594 21.226562 0 38.429687 17.207031 38.429687 38.433594zm0 0" fill="#7e18ea"/><path d="m352.359375 128.167969c-10.292969 10.292969-24.964844 13.519531-38.015625 9.695312 5.976562-1.746093 11.617188-4.984375 16.328125-9.695312 15.007813-15.007813 15.007813-39.34375 0-54.355469-4.710937-4.71875-10.351563-7.957031-16.328125-9.699219 13.050781-3.828125 27.722656-.589843 38.015625 9.699219 15.007813 15.011719 15.007813 39.347656 0 54.355469zm0 0" fill="#5100cb"/><g fill="#b200bf"><path d="m497.402344 316.792969c-1.917969 5.175781-4.019532 10.257812-6.28125 15.253906l-52.09375-52.105469c-3.390625-3.378906-7.882813-5.246094-12.675782-5.246094-4.78125 0-9.277343 1.867188-12.664062 5.246094-12.917969 12.921875-33.9375 12.921875-46.855469 0l-194.945312-194.933594c-2.976563-2.972656-2.976563-7.792968 0-10.769531 2.972656-2.972656 7.792969-2.972656 10.765625 0l194.945312 194.945313c3.382813 3.382812 7.875 5.25 12.667969 5.25 4.777344 0 9.273437-1.867188 12.664063-5.25 6.253906-6.261719 14.574218-9.710938 23.421874-9.710938 8.863282 0 17.183594 3.453125 23.433594 9.710938zm0 0"/><path d="m272.109375 228.207031c-1.949219 0-3.894531-.746093-5.382813-2.230469l-35.601562-35.601562c-2.972656-2.972656-2.972656-7.792969 0-10.761719 2.972656-2.972656 7.792969-2.972656 10.765625 0l35.601563 35.597657c2.972656 2.972656 2.972656 7.792968 0 10.765624-1.488282 1.484376-3.433594 2.230469-5.382813 2.230469zm0 0"/><path d="m459.128906 220.546875c-1.949218 0-3.894531-.742187-5.382812-2.226563l-95.769532-95.773437c-2.972656-2.96875-2.972656-7.789063 0-10.761719 2.972657-2.972656 7.792969-2.972656 10.765626 0l95.769531 95.769532c2.972656 2.972656 2.972656 7.792968 0 10.765624-1.488281 1.484376-3.433594 2.226563-5.382813 2.226563zm0 0"/><path d="m291.496094 425.636719c-1.492188 1.492187-3.4375 2.234375-5.378906 2.234375-1.949219 0-3.894532-.742188-5.386719-2.234375l-234.007813-234.007813c1.105469-5.925781 2.445313-11.78125 3.988282-17.535156l240.785156 240.785156c2.976562 2.972656 2.976562 7.792969 0 10.757813zm0 0"/></g><path d="m209.097656 396.257812c-1.957031 0-3.910156-.746093-5.398437-2.246093l-.078125-.078125c-2.964844-2.980469-2.949219-7.800782.03125-10.761719 2.984375-2.964844 7.804687-2.949219 10.765625.03125l.078125.082031c2.964844 2.980469 2.949218 7.800782-.03125 10.761719-1.488282 1.476563-3.425782 2.210937-5.367188 2.210937zm0 0" fill="#7e18ea"/><path d="m443.683594 326.085938c-1.957032 0-3.910156-.75-5.398438-2.246094l-.078125-.082032c-2.964843-2.980468-2.949219-7.800781.035157-10.761718 2.980468-2.964844 7.800781-2.949219 10.761718.035156l.078125.078125c2.964844 2.980469 2.949219 7.800781-.03125 10.761719-1.488281 1.476562-3.425781 2.214844-5.367187 2.214844zm0 0" fill="#5100cb"/><path d="m167.804688 186.53125c-1.957032 0-3.910157-.75-5.398438-2.246094l-.082031-.082031c-2.960938-2.980469-2.945313-7.800781.035156-10.761719 2.984375-2.964844 7.800781-2.949218 10.765625.03125l.078125.082032c2.964844 2.980468 2.949219 7.800781-.035156 10.761718-1.484375 1.476563-3.425781 2.214844-5.363281 2.214844zm0 0" fill="#5100cb"/><path d="m201.503906 378.382812c-1.957031 0-3.914062-.75-5.402344-2.246093l-.078124-.078125c-2.960938-2.984375-2.949219-7.800782.035156-10.765625 2.980468-2.960938 7.800781-2.945313 10.761718.035156l.082032.078125c2.960937 2.980469 2.945312 7.800781-.035156 10.765625-1.484376 1.472656-3.425782 2.210937-5.363282 2.210937zm0 0" fill="#7e18ea"/><path d="m261.9375 92.472656c-1.957031 0-3.910156-.746094-5.398438-2.242187l-.078124-.082031c-2.964844-2.980469-2.949219-7.800782.03125-10.761719 2.984374-2.964844 7.804687-2.949219 10.765624.03125l.078126.082031c2.964843 2.980469 2.949218 7.800781-.035157 10.761719-1.484375 1.476562-3.421875 2.210937-5.363281 2.210937zm0 0" fill="#b200bf"/><path d="m139.816406 209.953125c-1.949218 0-3.894531-.742187-5.382812-2.226563l-28.195313-28.199218c-2.972656-2.972656-2.972656-7.792969 0-10.765625 2.972657-2.96875 7.789063-2.96875 10.761719 0l28.199219 28.199219c2.972656 2.972656 2.972656 7.792968 0 10.765624-1.484375 1.484376-3.433594 2.226563-5.382813 2.226563zm0 0" fill="#b200bf"/><path d="m507.492188 189.195312c-.792969-.355468-1.523438-.863281-2.171876-1.515624l-71.175781-71.171876c-2.972656-2.960937-2.972656-7.78125 0-10.757812 2.976563-2.972656 7.796875-2.972656 10.769531 0l55.054688 55.058594c3.085938 9.214844 5.605469 18.691406 7.523438 28.386718zm0 0" fill="#b200bf"/><path d="m147.34375 105.152344c-1.480469 1.480468-3.429688 2.234375-5.378906 2.234375-1.949219 0-3.894532-.753907-5.378906-2.234375l-30.453126-30.457032c3.46875-3.703124 7.0625-7.296874 10.765626-10.765624l30.445312 30.453124c2.976562 2.976563 2.976562 7.796876 0 10.769532zm0 0" fill="#b200bf"/><path d="m165.921875 408.242188c0 33.996093-27.558594 61.554687-61.554687 61.554687-33.996094 0-61.554688-27.558594-61.554688-61.554687 0-33.996094 27.558594-61.554688 61.554688-61.554688 33.996093 0 61.554687 27.558594 61.554687 61.554688zm0 0" fill="#2de0c7"/><path d="m165.917969 408.242188c0 33.996093-27.554688 61.554687-61.550781 61.554687-6.535157 0-12.820313-1.011719-18.730469-2.90625 24.835937-7.925781 42.820312-31.1875 42.820312-58.644531 0-27.460938-17.988281-50.722656-42.820312-58.648438 5.910156-1.894531 12.195312-2.902344 18.730469-2.902344 33.992187-.003906 61.550781 27.554688 61.550781 61.546876zm0 0" fill="#00c2cc"/><path d="m167.492188 389.589844c-1.503907-.316406-2.996094-.164063-4.335938.363281 1.472656 4.730469 2.386719 9.703125 2.660156 14.847656 12.492188 2.761719 18.5 5.773438 20.835938 7.5-2.539063 1.886719-9.398438 5.246094-24.101563 8.191407-16.046875 3.195312-36.710937 4.960937-58.183593 4.960937-21.476563 0-42.136719-1.765625-58.183594-4.960937-14.703125-2.945313-21.566406-6.304688-24.101563-8.191407 2.335938-1.726562 8.34375-4.738281 20.835938-7.5.273437-5.144531 1.1875-10.117187 2.65625-14.847656-1.339844-.527344-2.828125-.679687-4.332031-.363281-23.738282 5.011718-35.265626 12.441406-35.265626 22.710937 0 9.875 10.625 17.101563 32.503907 22.105469 17.679687 4.046875 41.082031 6.269531 65.886719 6.269531 24.804687 0 48.207031-2.222656 65.894531-6.269531 21.871093-5.003906 32.496093-12.230469 32.496093-22.105469 0-10.269531-11.53125-17.699219-35.265624-22.710937zm0 0" fill="#edff85"/><path d="m482.226562 416.03125c-.011718 0-.027343 0-.039062 0-4.203125-.019531-7.59375-3.445312-7.574219-7.648438l.015625-2.929687c.019532-4.203125 3.464844-7.554687 7.648438-7.574219 4.203125.019532 7.59375 3.445313 7.574218 7.648438l-.015624 2.929687c-.019532 4.191407-3.425782 7.574219-7.609376 7.574219zm0 0" fill="#7e18ea"/><path d="m482.132812 445.855469c-.011718 0-.023437 0-.035156 0-4.203125-.019531-7.59375-3.445313-7.574218-7.648438l.011718-2.929687c.019532-4.191406 3.425782-7.574219 7.613282-7.574219h.035156c4.203125.019531 7.59375 3.441406 7.574218 7.644531l-.011718 2.933594c-.023438 4.1875-3.425782 7.574219-7.613282 7.574219zm0 0" fill="#7e18ea"/><path d="m498.5625 429.53125c-.011719 0-.023438 0-.039062 0l-2.929688-.015625c-4.203125-.019531-7.59375-3.441406-7.574219-7.644531.019531-4.191406 3.425781-7.578125 7.613281-7.578125h.035157l2.929687.015625c4.203125.019531 7.59375 3.445312 7.574219 7.648437-.019531 4.191407-3.421875 7.574219-7.609375 7.574219zm0 0" fill="#7e18ea"/><path d="m468.738281 429.441406c-.011719 0-.023437 0-.035156 0l-2.929687-.015625c-4.203126-.019531-7.59375-3.445312-7.574219-7.648437.019531-4.191406 3.421875-7.574219 7.609375-7.574219h.039062l2.929688.011719c4.203125.023437 7.59375 3.445312 7.574218 7.648437-.019531 4.191407-3.425781 7.578125-7.613281 7.578125zm0 0" fill="#7e18ea"/><path d="m24.027344 339.753906c-.011719 0-.023438 0-.039063 0-4.203125-.019531-7.59375-3.445312-7.574219-7.648437l.015626-2.929688c.019531-4.191406 3.425781-7.574219 7.609374-7.574219h.039063c4.203125.023438 7.59375 3.445313 7.574219 7.648438l-.015625 2.929688c-.019531 4.191406-3.421875 7.574218-7.609375 7.574218zm0 0" fill="#b200bf"/><path d="m23.933594 369.578125c-.011719 0-.023438 0-.035156 0-4.203126-.019531-7.59375-3.445313-7.574219-7.648437l.011719-2.929688c.019531-4.203125 3.425781-7.621094 7.648437-7.574219 4.203125.019531 7.597656 3.441407 7.574219 7.648438l-.011719 2.929687c-.019531 4.191406-3.425781 7.574219-7.613281 7.574219zm0 0" fill="#b200bf"/><path d="m40.363281 353.253906c-.011719 0-.023437 0-.035156 0l-2.929687-.011718c-4.207032-.023438-7.597657-3.445313-7.578126-7.648438.023438-4.191406 3.425782-7.578125 7.613282-7.578125h.035156l2.929688.015625c4.207031.019531 7.597656 3.445312 7.578124 7.648438-.019531 4.191406-3.425781 7.574218-7.613281 7.574218zm0 0" fill="#b200bf"/><path d="m10.542969 353.164062c-.011719 0-.027344 0-.039063 0l-2.929687-.015624c-4.203125-.019532-7.5937502-3.445313-7.574219-7.648438.0195312-4.191406 3.425781-7.574219 7.609375-7.574219h.039063l2.929687.015625c4.203125.019532 7.59375 3.441406 7.574219 7.644532-.019532 4.191406-3.425782 7.578124-7.609375 7.578124zm0 0" fill="#b200bf"/><path d="m453.8125 463.960938c-.011719 0-.023438 0-.035156 0-4.207032-.019532-7.597656-3.441407-7.578125-7.644532l.015625-2.933594c.019531-4.1875 3.425781-7.574218 7.609375-7.574218h.039062c4.203125.019531 7.59375 3.445312 7.574219 7.648437l-.015625 2.929688c-.019531 4.191406-3.421875 7.574219-7.609375 7.574219zm0 0" fill="#2de0c7"/><path d="m453.722656 493.785156c-.011718 0-.027344 0-.039062 0-4.203125-.019531-7.59375-3.445312-7.574219-7.648437l.015625-2.929688c.019531-4.191406 3.421875-7.574219 7.609375-7.574219h.035156c4.207031.019532 7.597657 3.445313 7.578125 7.648438l-.015625 2.929688c-.019531 4.191406-3.425781 7.574218-7.609375 7.574218zm0 0" fill="#2de0c7"/><path d="m470.148438 477.460938c-.011719 0-.023438 0-.035157 0l-2.929687-.011719c-4.203125-.023438-7.59375-3.445313-7.574219-7.648438.019531-4.191406 3.421875-7.578125 7.609375-7.578125h.039062l2.929688.015625c4.203125.019531 7.59375 3.445313 7.574219 7.648438-.019531 4.191406-3.425781 7.574219-7.613281 7.574219zm0 0" fill="#2de0c7"/><path d="m440.328125 477.371094c-.015625 0-.027344 0-.039063 0l-2.929687-.015625c-4.203125-.019531-7.59375-3.445313-7.574219-7.648438.019532-4.191406 3.425782-7.574219 7.609375-7.574219h.039063l2.929687.015626c4.203125.019531 7.597657 3.445312 7.574219 7.648437-.019531 4.191406-3.425781 7.574219-7.609375 7.574219zm0 0" fill="#2de0c7"/><path d="m82.878906 390.699219h-.109375c-4.203125 0-7.613281-3.410157-7.613281-7.613281 0-4.203126 3.410156-7.613282 7.613281-7.613282h.109375c4.207032 0 7.613282 3.410156 7.613282 7.613282 0 4.203124-3.40625 7.613281-7.613282 7.613281zm0 0" fill="#00c2cc"/><path d="m71.023438 407.484375c-.011719 0-.023438 0-.035157 0h-.109375c-4.203125-.019531-7.597656-3.441406-7.578125-7.644531.019531-4.191406 3.421875-7.578125 7.609375-7.578125h.035156.113282c4.203125.019531 7.597656 3.441406 7.578125 7.644531-.019531 4.191406-3.425781 7.578125-7.613281 7.578125zm0 0" fill="#00c2cc"/><path d="m104.925781 293.671875c-1.949219 0-3.898437-.746094-5.382812-2.230469l-11.558594-11.558594c-2.972656-2.96875-2.972656-7.789062 0-10.761718s7.792969-2.972656 10.765625 0l11.554688 11.554687c2.972656 2.972657 2.972656 7.792969 0 10.765625-1.484376 1.484375-3.433594 2.230469-5.378907 2.230469zm0 0" fill="#b200bf"/></svg>