<svg height="511pt" viewBox="1 -18 511.9995 511" width="511pt" xmlns="http://www.w3.org/2000/svg"><path d="m207.46875 159.5625c-1.976562 0-3.953125-.753906-5.464844-2.261719-3.015625-3.019531-3.015625-7.910156 0-10.929687l143.613282-143.609375c3.015624-3.015625 7.910156-3.015625 10.925781 0 3.019531 3.019531 3.019531 7.910156 0 10.929687l-143.609375 143.609375c-1.507813 1.507813-3.488282 2.261719-5.464844 2.261719zm0 0" fill="#fda736"/><path d="m305.816406 106.777344c-1.980468 0-3.957031-.753906-5.464844-2.265625-3.015624-3.015625-3.015624-7.90625 0-10.925781l24.613282-24.613282c3.019531-3.015625 7.910156-3.015625 10.929687 0 3.015625 3.019532 3.015625 7.910156-.003906 10.929688l-24.613281 24.609375c-1.507813 1.511719-3.484375 2.265625-5.460938 2.265625zm0 0" fill="#fed370"/><path d="m196.023438 117.980469c-1.976563 0-3.957032-.757813-5.464844-2.265625-3.015625-3.015625-3.015625-7.90625 0-10.925782l22.40625-22.40625c3.019531-3.015624 7.910156-3.015624 10.929687 0 3.015625 3.019532 3.015625 7.910157 0 10.925782l-22.40625 22.40625c-1.511719 1.511718-3.488281 2.265625-5.464843 2.265625zm0 0" fill="#fed370"/><path d="m187.996094 185.3125h33.292968c7.339844 0 14.382813 2.917969 19.574219 8.109375 10.8125 10.8125 28.339844 10.8125 39.152344 0l12.519531-12.519531c28.382813-28.382813 74.402344-28.382813 102.789063 0 28.382812 28.386718 28.382812 74.40625 0 102.792968l-103.941407 103.9375c-9.90625 9.90625-23.34375 15.472657-37.351562 15.472657s-27.441406 5.5625-37.347656 15.46875l-47.949219 47.949219c-5.191406 5.191406-12.234375 8.109374-19.574219 8.109374h-66.476562c-19.277344 0-37.761719-7.65625-51.394532-21.289062l-10-10c-28.386718-28.382812-28.386718-74.402344 0-102.789062l147.132813-147.132813c5.191406-5.191406 12.234375-8.109375 19.574219-8.109375zm0 0" fill="#fda736"/><path d="m402.972656 189.90625c9.09375 12.625 13.636719 27.507812 13.636719 42.390625 0 18.605469-7.089844 37.199219-21.289063 51.398437l-103.9375 103.9375c-9.910156 9.910157-23.335937 15.476563-37.347656 15.476563-7.003906 0-13.863281 1.390625-20.222656 4.015625-6.335938 2.628906-12.171875 6.492188-17.128906 11.449219l-47.949219 47.949219c-5.195313 5.191406-12.238281 8.109374-19.570313 8.109374h-66.472656c-19.28125-.007812-37.769531-7.660156-51.398437-21.289062l-10.003907-10c-13.527343-13.53125-20.609374-31.074219-21.242187-48.800781 2.265625 3.15625 4.816406 6.175781 7.652344 9.007812l10 10.003907c13.632812 13.628906 32.125 21.289062 51.398437 21.289062h66.472656c7.347657 0 14.386719-2.914062 19.578126-8.105469l47.949218-47.949219c4.949219-4.949218 10.789063-8.824218 17.132813-11.449218 6.351562-2.628906 13.207031-4.023438 20.214843-4.023438 14.011719 0 27.445313-5.574218 37.347657-15.472656l103.945312-103.945312c14.191407-14.191407 21.289063-32.796876 21.28125-51.390626 0-.875-.015625-1.730468-.046875-2.601562zm0 0" fill="#fd8f07"/><path d="m192.578125 295.417969c0 14.742187-11.949219 26.691406-26.691406 26.691406-14.742188 0-26.691407-11.949219-26.691407-26.691406 0-14.742188 11.949219-26.691407 26.691407-26.691407 14.742187 0 26.691406 11.949219 26.691406 26.691407zm0 0" fill="#fd7504"/><path d="m184.765625 314.292969c-8.078125 8.078125-20.039063 9.902343-29.867187 5.460937 2.863281-1.289062 5.542968-3.109375 7.890624-5.460937 10.425782-10.421875 10.425782-27.328125 0-37.746094-2.347656-2.347656-5.027343-4.171875-7.890624-5.457031 9.828124-4.441406 21.789062-2.617188 29.867187 5.457031 10.414063 10.417969 10.414063 27.320313 0 37.746094zm0 0" fill="#fc5921"/><g fill="#fd7504"><path d="m254.691406 274.789062c0 8.625-6.988281 15.613282-15.613281 15.613282s-15.617187-6.988282-15.617187-15.613282 6.992187-15.617187 15.617187-15.617187 15.613281 6.992187 15.613281 15.617187zm0 0"/><path d="m114.273438 393.449219c-.480469 0-.964844-.015625-1.445313-.046875-4.261719-.28125-7.488281-3.957032-7.207031-8.214844.277344-4.257812 3.980468-7.488281 8.214844-7.203125 2.28125.144531 4.765624-.90625 6.679687-2.820313 1.914063-1.917968 2.96875-4.414062 2.820313-6.683593-.277344-4.257813 2.949218-7.9375 7.207031-8.214844 4.230469-.28125 7.9375 2.949219 8.214843 7.207031.441407 6.742188-2.226562 13.527344-7.316406 18.617188-4.722656 4.722656-10.910156 7.359375-17.167968 7.359375zm0 0"/><path d="m324.480469 276.214844c-.480469 0-.960938-.015625-1.445313-.046875-4.257812-.28125-7.484375-3.957031-7.207031-8.214844.28125-4.257813 3.992187-7.488281 8.214844-7.207031 2.289062.148437 4.769531-.90625 6.683593-2.820313 1.914063-1.914062 2.96875-4.410156 2.820313-6.683593-.277344-4.257813 2.949219-7.933594 7.207031-8.210938 4.214844-.296875 7.933594 2.949219 8.210938 7.207031.441406 6.742188-2.226563 13.527344-7.3125 18.617188-4.722656 4.722656-10.914063 7.359375-17.171875 7.359375zm0 0"/><path d="m45.320312 397.832031c-.480468 0-.964843-.015625-1.445312-.046875-4.257812-.28125-7.484375-3.957031-7.207031-8.214844.28125-4.257812 3.980469-7.492187 8.214843-7.207031 2.277344.144531 4.769532-.90625 6.679688-2.820312 1.917969-1.914063 2.972656-4.410157 2.820312-6.679688-.277343-4.257812 2.949219-7.9375 7.207032-8.214843 4.222656-.285157 7.9375 2.945312 8.214844 7.203124.441406 6.746094-2.226563 13.53125-7.3125 18.621094-4.726563 4.722656-10.914063 7.359375-17.171876 7.359375zm0 0"/></g><path d="m244.503906 330c-1.996094 0-3.988281-.765625-5.5-2.296875-2.996094-3.035156-2.96875-7.925781.070313-10.925781l.078125-.078125c3.039062-3 7.929687-2.96875 10.929687.066406 2.996094 3.035156 2.96875 7.929687-.066406 10.925781l-.082031.082032c-1.507813 1.484374-3.46875 2.226562-5.429688 2.226562zm0 0" fill="#fc5921"/><path d="m218.375 393.382812c-1.976562 0-3.957031-.757812-5.464844-2.265624-3.015625-3.015626-3.015625-7.90625 0-10.925782l.078125-.082031c3.019531-3.015625 7.910157-3.015625 10.929688 0 3.015625 3.019531 3.015625 7.910156 0 10.929687l-.082031.078126c-1.507813 1.507812-3.484376 2.265624-5.460938 2.265624zm0 0" fill="#fda736"/><path d="m318.367188 318.40625c-2 0-4-.773438-5.511719-2.3125-2.988281-3.046875-2.945313-7.9375.101562-10.925781l.082031-.082031c3.042969-2.988282 7.9375-2.945313 10.925782.101562 2.988281 3.046875 2.945312 7.9375-.101563 10.925781l-.082031.082031c-1.503906 1.476563-3.457031 2.210938-5.414062 2.210938zm0 0" fill="#fc5921"/><path d="m192.6875 396.582031c-1.976562 0-3.957031-.753906-5.464844-2.261719-3.015625-3.019531-3.015625-7.910156 0-10.929687l.082032-.078125c3.015624-3.019531 7.90625-3.019531 10.925781 0 3.015625 3.015625 3.015625 7.90625 0 10.925781l-.078125.082031c-1.511719 1.507813-3.488282 2.261719-5.464844 2.261719zm0 0" fill="#fc5921"/><path d="m349.632812 215.785156c-1.976562 0-3.957031-.753906-5.464843-2.261718-3.015625-3.019532-3.015625-7.910157 0-10.929688l.082031-.078125c3.015625-3.015625 7.90625-3.015625 10.925781 0s3.019531 7.910156 0 10.925781l-.078125.082032c-1.511718 1.507812-3.488281 2.261718-5.464844 2.261718zm0 0" fill="#fc5921"/><path d="m454.253906 200.558594c3.125 3.125 7.578125 4.535156 11.9375 3.769531l23.921875-4.1875c2.75-.480469 5.285157-1.800781 7.257813-3.773437l6.566406-6.566407c10.75-10.75 10.75-28.179687 0-38.925781-5.300781-5.300781-13.894531-5.300781-19.191406 0l-30.492188 30.492188c-5.300781 5.300781-5.300781 13.890624 0 19.191406zm0 0" fill="#fd8f07"/><path d="m56.828125 222.242188c6.402344 6.398437 16.777344 6.398437 23.179687 0l19.78125-19.78125c1.816407-1.820313 3.179688-4.039063 3.984376-6.476563l10.625-32.371094c.96875-2.960937.191406-6.21875-2.007813-8.421875-3.230469-3.226562-8.460937-3.226562-11.6875 0l-43.875 43.875c-6.398437 6.398438-6.398437 16.773438 0 23.175782zm0 0" fill="#fed370"/><path d="m327.089844 195.175781c-1.976563 0-3.953125-.753906-5.460938-2.261719-3.019531-3.015624-3.019531-7.910156 0-10.925781l154.046875-154.046875c3.019531-3.019531 7.910157-3.019531 10.929688 0 3.015625 3.015625 3.015625 7.90625 0 10.925782l-154.050781 154.046874c-1.507813 1.507813-3.488282 2.261719-5.464844 2.261719zm0 0" fill="#fd8f07"/><path d="m404.117188 157.339844c-1.976563 0-3.957032-.753906-5.464844-2.261719-3.019532-3.019531-3.019532-7.910156 0-10.929687l14.265625-14.265626c3.015625-3.015624 7.90625-3.015624 10.925781 0 3.019531 3.019532 3.019531 7.910157 0 10.929688l-14.265625 14.265625c-1.507813 1.507813-3.484375 2.261719-5.460937 2.261719zm0 0" fill="#fed370"/><path d="m447.886719 302.421875c-5.308594-5.308594-5.308594-13.917969 0-19.230469l14.066406-14.0625c5.308594-5.3125 13.917969-5.3125 19.230469 0 5.308594 5.308594 5.308594 13.917969 0 19.230469l-14.066406 14.0625c-5.308594 5.3125-13.917969 5.3125-19.230469 0zm0 0" fill="#fd8f07"/><path d="m361.894531 66.25c-5.3125-5.308594-5.3125-13.917969 0-19.230469l14.0625-14.0625c5.3125-5.3125 13.921875-5.3125 19.230469 0 5.3125 5.308594 5.3125 13.917969 0 19.230469l-14.0625 14.0625c-5.3125 5.3125-13.921875 5.3125-19.230469 0zm0 0" fill="#fd8f07"/><path d="m315.765625 454.449219c-5.3125-5.308594-5.3125-13.917969 0-19.230469l14.0625-14.0625c5.3125-5.3125 13.921875-5.3125 19.234375 0 5.308594 5.308594 5.308594 13.917969 0 19.230469l-14.066406 14.0625c-5.3125 5.3125-13.921875 5.3125-19.230469 0zm0 0" fill="#fd8f07"/><path d="m426.976562 351.023438h-.113281c-4.265625 0-7.726562-3.460938-7.726562-7.726563 0-4.269531 3.460937-7.726563 7.726562-7.726563h.113281c4.269532 0 7.726563 3.457032 7.726563 7.726563 0 4.265625-3.457031 7.726563-7.726563 7.726563zm0 0" fill="#fc5921"/><path d="m421.511719 324.851562h-.113281c-4.269532 0-7.726563-3.460937-7.726563-7.726562s3.460937-7.726562 7.726563-7.726562h.113281c4.269531 0 7.726562 3.460937 7.726562 7.726562s-3.457031 7.726562-7.726562 7.726562zm0 0" fill="#fd8f07"/><path d="m143.421875 132.757812c-.011719 0-.023437 0-.035156 0l-.113281-.003906c-4.265626-.015625-7.710938-3.492187-7.691407-7.757812.019531-4.257813 3.476563-7.695313 7.726563-7.695313h.03125l.117187.003907c4.265625.019531 7.710938 3.492187 7.691407 7.761718-.019532 4.253906-3.476563 7.691406-7.726563 7.691406zm0 0" fill="#fda736"/><path d="m439.90625 38.746094c-.011719 0-.023438 0-.035156 0h-.113282c-4.269531-.019532-7.710937-3.492188-7.691406-7.761719.015625-4.253906 3.472656-7.691406 7.722656-7.691406h.035157.113281c4.269531.019531 7.710938 3.496093 7.691406 7.761719-.015625 4.253906-3.472656 7.691406-7.722656 7.691406zm0 0" fill="#fed370"/><path d="m74.65625 143.074219c-.011719 0-.023438 0-.035156 0h-.117188c-4.265625-.019531-7.710937-3.492188-7.691406-7.761719.019531-4.253906 3.476562-7.691406 7.726562-7.691406h.035157.113281c4.265625.019531 7.710938 3.496094 7.691406 7.761718-.019531 4.253907-3.472656 7.691407-7.722656 7.691407zm0 0" fill="#fed370"/></svg>