<svg height="512pt" viewBox="0 -11 512.00018 512" width="512pt" xmlns="http://www.w3.org/2000/svg"><path d="m500.0625 247.765625c0 66.234375-26.511719 126.261719-69.511719 170.066406-38.921875 39.65625-91.363281 66.015625-149.863281 71.609375-7.710938.746094-15.519531 1.121094-23.421875 1.121094-74.3125 0-140.828125-33.386719-185.367187-85.980469-12.597657-14.867187-23.449219-31.289062-32.199219-48.921875-16.152344-32.5-25.230469-69.125-25.230469-107.882812v-.011719c0-100.976563 61.636719-187.5625 149.351562-224.164063 28.769532-12.003906 60.328126-18.632812 93.445313-18.632812h.128906c59.722657.035156 114.402344 21.617188 156.667969 57.402344.011719.011718.011719.011718.023438.023437 52.589843 44.539063 85.976562 111.054688 85.976562 185.371094zm0 0" fill="#9bf2e5"/><path d="m500.0625 247.761719c0 66.238281-26.511719 126.265625-69.511719 170.070312-38.921875 39.65625-91.363281 66.015625-149.863281 71.609375-7.710938.746094-15.519531 1.117188-23.421875 1.117188-74.3125 0-140.828125-33.386719-185.367187-85.976563v-.011719c42.300781 35.796876 97.011718 57.394532 156.769531 57.394532 7.902343 0 15.710937-.375 23.425781-1.121094 58.5-5.59375 110.9375-31.953125 149.859375-71.609375 42.988281-43.804687 69.511719-103.832031 69.511719-170.066406 0-59.773438-21.59375-114.472657-57.378906-156.773438 52.589843 44.539063 85.976562 111.054688 85.976562 185.367188zm0 0" fill="#2de0c7"/><path d="m280.691406 413.101562v76.339844c-7.714844.746094-15.523437 1.117188-23.425781 1.117188-74.324219 0-140.839844-33.386719-185.367187-85.976563v-.011719c-12.597657-14.871093-23.433594-31.277343-32.199219-48.910156h72.648437c2.855469 0 5.605469-1.140625 7.621094-3.15625l18.878906-18.890625c2.027344-2.015625 3.15625-4.753906 3.15625-7.621093v-29.109376c0-5.957031-4.8125-10.78125-10.777344-10.78125h-48.234374c-5.96875 0-10.792969-4.835937-10.792969-10.789062v-39.332031c0-3.632813 1.832031-7.023438 4.871093-9.019531l35.089844-23.050782c1.757813-1.164062 3.820313-1.769531 5.917969-1.769531h44.25c35.132813 0 63.625 28.480469 63.625 63.617187v42.472657c0 2.867187 1.132813 5.605469 3.160156 7.621093l25.542969 25.558594c2.027344 2.027344 3.15625 4.765625 3.15625 7.621094v32.265625c0 2.855469 1.144531 5.59375 3.160156 7.621094l16.558594 16.558593c2.027344 2.019532 3.160156 4.769532 3.160156 7.625zm0 0" fill="#84e507"/><path d="m252.09375 460.84375c9.707031-.933594 19.25-2.421875 28.59375-4.476562v33.074218c-7.710938.746094-15.519531 1.117188-23.421875 1.117188-74.324219 0-140.839844-33.386719-185.367187-85.976563v-.011719c42.300781 35.796876 97.011718 57.394532 156.769531 57.394532 7.902343 0 15.710937-.375 23.425781-1.121094zm0 0" fill="#69cc00"/><path d="m430.550781 327.683594c0-2.855469-1.128906-5.59375-3.15625-7.621094l-23.109375-23.109375c-2.027344-2.027344-4.765625-3.160156-7.621094-3.160156h-83.390624c-5.945313 0-10.78125-4.835938-10.78125-10.789063v-129.261718c0-2.851563-1.128907-5.59375-3.15625-7.617188l-25.824219-25.824219c-2.027344-2.03125-4.765625-3.160156-7.632813-3.160156h-57.496094c-2.855468 0-5.597656-1.128906-7.621093-3.15625l-33.773438-33.785156c-2.027343-2.027344-3.171875-4.765625-3.171875-7.621094v-48.976563c28.773438-12.003906 60.332032-18.636718 93.449219-18.636718 59.78125 0 114.515625 21.605468 156.820313 57.429687l.011718.011719c52.589844 44.539062 85.964844 111.042969 85.964844 185.355469 0 66.238281-26.511719 126.265625-69.511719 170.070312zm0 0" fill="#84e507"/><path d="m430.550781 354.089844c25.835938-38.585938 40.914063-84.988282 40.914063-134.921875 0-59.773438-21.59375-114.460938-57.367188-156.761719 52.589844 44.539062 85.964844 111.042969 85.964844 185.359375 0 66.234375-26.511719 126.261719-69.511719 170.066406zm0 0" fill="#69cc00"/><path d="m257.394531 4.96875-.046875 98.105469-.074218 134.695312c-.003907 5.519531-4.480469 9.996094-10 9.996094l-134.695313.007813h-98.109375v-.011719c0-100.976563 61.636719-187.558594 149.351562-224.160157 28.769532-12.003906 60.328126-18.636718 93.445313-18.636718h.128906zm0 0" fill="#fed370"/><path d="m257.394531 39.171875-.039062 84.289063-.0625 114.3125c-.003907 5.519531-4.480469 9.992187-10 9.992187l-114.3125.007813h-84.292969v-.007813c0-86.753906 52.953125-161.140625 128.3125-192.585937 24.71875-10.3125 51.832031-16.011719 80.285156-16.011719h.109375zm0 0" fill="#fda736"/><path d="m257.347656 103.078125-.074218 134.691406c-.003907 5.523438-4.480469 9.996094-10 9.996094l-134.695313.011719v-.011719c0-79.910156 64.78125-144.6875 144.6875-144.6875zm0 0" fill="#fd8f07"/><path d="m257.347656 175.425781-.035156 62.351563c-.003906 5.519531-4.476562 9.992187-10 9.992187l-62.347656.003907v-.003907c0-39.953125 32.386718-72.34375 72.34375-72.34375zm0 0" fill="#fc5921"/><path d="m353.046875 332.96875h-27.609375c-4.140625 0-7.5-3.359375-7.5-7.5s3.359375-7.5 7.5-7.5h27.609375c4.140625 0 7.5 3.359375 7.5 7.5s-3.359375 7.5-7.5 7.5zm0 0" fill="#69cc00"/><path d="m385.59375 232.210938c-.007812 0-.019531 0-.03125 0h-.113281c-4.140625-.019532-7.484375-3.390626-7.464844-7.535157.015625-4.128906 3.371094-7.464843 7.5-7.464843h.03125.113281c4.140625.015624 7.484375 3.390624 7.464844 7.53125-.019531 4.132812-3.371094 7.46875-7.5 7.46875zm0 0" fill="#edff85"/><path d="m222.148438 440.972656c-.011719 0-.019532 0-.03125 0h-.113282c-4.140625-.015625-7.484375-3.390625-7.464844-7.53125.015626-4.132812 3.371094-7.46875 7.5-7.46875h.03125.113282c4.140625.019532 7.484375 3.390625 7.464844 7.535156-.019532 4.128907-3.371094 7.464844-7.5 7.464844zm0 0" fill="#edff85"/><path d="m239.046875 425.335938h-.113281c-4.140625 0-7.5-3.359376-7.5-7.5 0-4.144532 3.359375-7.5 7.5-7.5h.113281c4.140625 0 7.5 3.355468 7.5 7.5 0 4.140624-3.359375 7.5-7.5 7.5zm0 0" fill="#69cc00"/><path d="m366.484375 249.242188c-.011719 0-.023437 0-.035156 0h-.109375c-4.144532-.019532-7.488282-3.390626-7.46875-7.53125.019531-4.144532 3.386718-7.464844 7.53125-7.46875h.113281c4.140625.019531 7.484375 3.390624 7.46875 7.53125-.019531 4.132812-3.375 7.46875-7.5 7.46875zm0 0" fill="#edff85"/><path d="m153.429688 209.984375c-.011719 0-.023438 0-.03125 0h-.121094c-4.140625-.019531-7.484375-3.390625-7.46875-7.53125.015625-4.132813 3.371094-7.46875 7.5-7.46875h.03125.121094c4.140624.015625 7.484374 3.386719 7.46875 7.527344-.019532 4.132812-3.371094 7.472656-7.5 7.472656zm0 0" fill="#fed370"/><path d="m174.027344 197.984375c-.007813 0-.019532 0-.03125 0h-.121094c-4.140625-.019531-7.484375-3.390625-7.46875-7.53125s3.394531-7.53125 7.53125-7.46875h.121094c4.140625.015625 7.484375 3.386719 7.46875 7.527344-.015625 4.132812-3.371094 7.472656-7.5 7.472656zm0 0" fill="#fc5921"/><g fill="#fed370"><path d="m465.835938 17.878906c-.011719 0-.023438 0-.035157 0-4.144531-.019531-7.484375-3.394531-7.464843-7.535156l.015624-2.878906c.019532-4.128906 3.371094-7.464844 7.496094-7.464844h.039063c4.140625.0195312 7.484375 3.394531 7.464843 7.535156l-.015624 2.882813c-.019532 4.128906-3.375 7.460937-7.5 7.460937zm0 0"/><path d="m465.746094 47.199219c-.011719 0-.023438 0-.035156 0-4.144532-.019531-7.484376-3.394531-7.464844-7.535157l.011718-2.882812c.019532-4.128906 3.375-7.460938 7.5-7.460938h.039063c4.140625.019532 7.480469 3.394532 7.460937 7.535157l-.011718 2.878906c-.019532 4.128906-3.375 7.464844-7.5 7.464844zm0 0"/><path d="m481.898438 31.152344c-.011719 0-.023438 0-.039063 0l-2.878906-.015625c-4.140625-.019531-7.484375-3.394531-7.464844-7.535157.019531-4.128906 3.375-7.464843 7.5-7.464843h.039063l2.878906.015625c4.140625.019531 7.484375 3.394531 7.464844 7.535156-.019532 4.128906-3.375 7.464844-7.5 7.464844zm0 0"/><path d="m452.578125 31.0625c-.011719 0-.023437 0-.035156 0l-2.882813-.015625c-4.140625-.019531-7.484375-3.394531-7.464844-7.535156.023438-4.128907 3.375-7.464844 7.5-7.464844h.039063l2.878906.015625c4.144531.019531 7.484375 3.394531 7.464844 7.535156-.019531 4.128906-3.375 7.464844-7.5 7.464844zm0 0"/></g><path d="m488.441406 72.785156c-.011718 0-.023437 0-.039062 0-4.140625-.019531-7.484375-3.394531-7.464844-7.535156l.015625-2.878906c.019531-4.132813 3.375-7.464844 7.5-7.464844h.035156c4.144531.019531 7.484375 3.394531 7.464844 7.535156l-.015625 2.878906c-.015625 4.132813-3.371094 7.464844-7.496094 7.464844zm0 0" fill="#fd8f07"/><path d="m488.347656 102.105469c-.011718 0-.023437 0-.035156 0-4.140625-.019531-7.484375-3.394531-7.464844-7.539063l.015625-2.878906c.019531-4.128906 3.371094-7.464844 7.496094-7.464844h.039063c4.140624.019532 7.484374 3.394532 7.464843 7.539063l-.015625 2.878906c-.019531 4.128906-3.375 7.464844-7.5 7.464844zm0 0" fill="#fd8f07"/><path d="m504.5 86.058594c-.011719 0-.023438 0-.035156 0l-2.878906-.015625c-4.144532-.019531-7.484376-3.394531-7.464844-7.535157.019531-4.128906 3.371094-7.464843 7.496094-7.464843h.039062l2.878906.015625c4.144532.019531 7.484375 3.390625 7.464844 7.535156-.019531 4.128906-3.375 7.464844-7.5 7.464844zm0 0" fill="#fd8f07"/><path d="m475.183594 85.96875c-.011719 0-.027344 0-.039063 0l-2.878906-.015625c-4.140625-.019531-7.484375-3.394531-7.464844-7.535156.019531-4.144531 3.433594-7.496094 7.535157-7.464844l2.882812.015625c4.140625.019531 7.480469 3.390625 7.460938 7.535156-.019532 4.128906-3.371094 7.464844-7.496094 7.464844zm0 0" fill="#fd8f07"/><path d="m23.640625 412.113281c-.011719 0-.027344 0-.039063 0-4.140624-.019531-7.484374-3.394531-7.464843-7.539062l.015625-2.878907c.019531-4.128906 3.375-7.464843 7.5-7.464843h.035156c4.144531.023437 7.484375 3.394531 7.464844 7.539062l-.015625 2.878907c-.019531 4.128906-3.371094 7.464843-7.496094 7.464843zm0 0" fill="#fed370"/><path d="m23.546875 441.429688c-.011719 0-.023437 0-.035156 0-4.144531-.019532-7.484375-3.394532-7.464844-7.535157l.015625-2.878906c.019531-4.128906 3.371094-7.464844 7.496094-7.464844h.039062c4.140625.019531 7.484375 3.394531 7.464844 7.535157l-.015625 2.882812c-.019531 4.128906-3.375 7.460938-7.5 7.460938zm0 0" fill="#fed370"/><path d="m39.699219 425.382812c-.011719 0-.023438 0-.035157 0l-2.882812-.011718c-4.140625-.019532-7.480469-3.394532-7.460938-7.535156.019532-4.144532 3.351563-7.5 7.535157-7.464844l2.878906.011718c4.144531.019532 7.484375 3.394532 7.464844 7.539063-.019531 4.128906-3.375 7.460937-7.5 7.460937zm0 0" fill="#fed370"/><path d="m10.382812 425.292969c-.015624 0-.027343 0-.039062 0l-2.878906-.015625c-4.144532-.019532-7.4843752-3.390625-7.464844-7.535156.0195312-4.128907 3.375-7.464844 7.5-7.464844h.035156l2.882813.015625c4.140625.019531 7.480469 3.394531 7.460937 7.535156-.019531 4.128906-3.371094 7.464844-7.496094 7.464844zm0 0" fill="#fed370"/></svg>