<svg height="511pt" viewBox="0 0 511.99964 511" width="511pt" xmlns="http://www.w3.org/2000/svg"><path d="m472.128906 216.113281c0 141.253907-115.261718 256.515625-256.515625 256.515625-89.84375 0-168.898437-46.191406-214.707031-116.113281-2.933594-4.476563 1.792969-9.992187 6.644531-7.738281 32.820313 15.253906 69.402344 23.773437 107.988281 23.773437 142.058594-.003906 256.511719-114.457031 256.511719-256.515625 0-38.582031-8.519531-75.164062-23.773437-107.984375-2.253906-4.851562 3.261718-9.578125 7.738281-6.644531 69.925781 45.808594 116.113281 124.859375 116.113281 214.707031zm0 0" fill="#fed370"/><path d="m472.125 216.117188c0 141.25-115.257812 256.507812-256.507812 256.507812-78.730469 0-149.171876-35.460938-196.222657-91.289062 44.632813 37.621093 102.289063 60.292968 165.230469 60.304687 141.25 0 256.515625-115.269531 256.515625-256.519531-.007813-62.941406-22.679687-120.597656-60.300781-165.230469 55.824218 47.050781 91.285156 117.492187 91.285156 196.226563zm0 0" fill="#fda736"/><path d="m83.011719 237.363281c-.011719 0-.023438 0-.039063 0-4.203125-.019531-7.59375-3.445312-7.574218-7.648437l.015624-2.882813c.019532-4.191406 3.421876-7.578125 7.609376-7.578125h.039062c4.203125.019532 7.59375 3.445313 7.574219 7.648438l-.015625 2.886718c-.019532 4.191407-3.421875 7.574219-7.609375 7.574219zm0 0" fill="#fda736"/><path d="m82.921875 266.738281c-.011719 0-.023437 0-.039063 0-4.203124-.019531-7.59375-3.445312-7.574218-7.648437l.015625-2.886719c.019531-4.191406 3.421875-7.574219 7.609375-7.574219h.039062c4.203125.019532 7.59375 3.445313 7.574219 7.648438l-.015625 2.886718c-.019531 4.191407-3.421875 7.574219-7.609375 7.574219zm0 0" fill="#fda736"/><path d="m99.105469 250.660156c-.015625 0-.027344 0-.039063 0l-2.886718-.011718c-4.203126-.019532-7.59375-3.445313-7.574219-7.648438.019531-4.191406 3.421875-7.574219 7.609375-7.574219h.039062l2.886719.011719c4.203125.019531 7.59375 3.445312 7.574219 7.648438-.019532 4.191406-3.425782 7.574218-7.609375 7.574218zm0 0" fill="#fda736"/><path d="m69.730469 250.570312c-.015625 0-.027344 0-.039063 0l-2.886718-.015624c-4.203126-.019532-7.59375-3.441407-7.574219-7.644532.019531-4.191406 3.425781-7.578125 7.609375-7.578125h.039062l2.886719.015625c4.203125.019532 7.59375 3.445313 7.574219 7.648438-.019532 4.191406-3.425782 7.574218-7.609375 7.574218zm0 0" fill="#fda736"/><path d="m159.796875 194.074219c-.011719 0-.023437 0-.035156 0-4.207031-.019531-7.597657-3.441407-7.578125-7.644531l.015625-2.886719c.015625-4.191407 3.421875-7.578125 7.609375-7.578125h.035156c4.203125.019531 7.597656 3.445312 7.578125 7.648437l-.015625 2.886719c-.019531 4.191406-3.421875 7.574219-7.609375 7.574219zm0 0" fill="#fed370"/><path d="m159.707031 223.449219c-.015625 0-.027343 0-.039062 0-4.203125-.019531-7.59375-3.445313-7.574219-7.648438l.011719-2.886719c.019531-4.191406 3.425781-7.574218 7.613281-7.574218h.035156c4.207032.019531 7.597656 3.445312 7.578125 7.648437l-.015625 2.886719c-.019531 4.1875-3.425781 7.574219-7.609375 7.574219zm0 0" fill="#fed370"/><path d="m175.886719 207.371094c-.011719 0-.023438 0-.039063 0l-2.882812-.015625c-4.207032-.019531-7.597656-3.441407-7.578125-7.644531.023437-4.191407 3.425781-7.578126 7.613281-7.578126h.039062l2.882813.015626c4.207031.019531 7.597656 3.445312 7.578125 7.648437-.019531 4.191406-3.425781 7.574219-7.613281 7.574219zm0 0" fill="#fed370"/><path d="m146.511719 207.28125c-.011719 0-.023438 0-.035157 0l-2.886718-.015625c-4.203125-.019531-7.59375-3.445313-7.574219-7.648437.019531-4.203126 3.414063-7.609376 7.648437-7.574219l2.882813.015625c4.207031.019531 7.597656 3.445312 7.578125 7.648437-.019531 4.1875-3.425781 7.574219-7.613281 7.574219zm0 0" fill="#fed370"/><g fill="#fda736"><path d="m472.167969 379.082031c-.011719 0-.027344 0-.039063 0-4.203125-.019531-7.59375-3.441406-7.574218-7.648437l.015624-2.882813c.019532-4.191406 3.421876-7.578125 7.609376-7.578125h.039062c4.203125.023438 7.59375 3.445313 7.574219 7.648438l-.015625 2.886718c-.019532 4.191407-3.421875 7.574219-7.609375 7.574219zm0 0"/><path d="m472.078125 408.457031c-.015625 0-.027344 0-.039063 0-4.203124-.019531-7.59375-3.445312-7.574218-7.648437l.011718-2.886719c.019532-4.191406 3.425782-7.574219 7.613282-7.574219h.035156c4.203125.019532 7.597656 3.445313 7.578125 7.648438l-.015625 2.886718c-.019531 4.191407-3.425781 7.574219-7.609375 7.574219zm0 0"/><path d="m488.257812 392.378906c-.011718 0-.023437 0-.035156 0l-2.886718-.011718c-4.203126-.019532-7.59375-3.445313-7.574219-7.648438.019531-4.191406 3.421875-7.574219 7.609375-7.574219h.039062l2.886719.011719c4.203125.019531 7.59375 3.445312 7.574219 7.648438-.023438 4.191406-3.425782 7.574218-7.613282 7.574218zm0 0"/><path d="m458.886719 392.289062c-.015625 0-.027344 0-.039063 0l-2.886718-.015624c-4.203126-.019532-7.59375-3.441407-7.574219-7.644532.019531-4.191406 3.425781-7.578125 7.609375-7.578125h.039062l2.886719.015625c4.203125.019532 7.59375 3.445313 7.574219 7.648438-.019532 4.191406-3.425782 7.574218-7.609375 7.574218zm0 0"/><path d="m81.035156 483.125c-.011718 0-.023437 0-.035156 0-4.203125-.019531-7.597656-3.441406-7.578125-7.648438l.015625-2.882812c.019531-4.195312 3.421875-7.578125 7.609375-7.578125h.035156c4.207031.019531 7.597657 3.445313 7.578125 7.648437l-.011718 2.886719c-.023438 4.191407-3.425782 7.574219-7.613282 7.574219zm0 0"/><path d="m80.945312 512.5c-.011718 0-.023437 0-.035156 0-4.207031-.019531-7.597656-3.445312-7.578125-7.648438l.011719-2.886718c.019531-4.191406 3.425781-7.574219 7.613281-7.574219h.035157c4.203124.019531 7.597656 3.441406 7.578124 7.648437l-.015624 2.882813c-.019532 4.191406-3.421876 7.578125-7.609376 7.578125zm0 0"/><path d="m97.125 496.421875c-.011719 0-.023438 0-.035156 0l-2.886719-.011719c-4.203125-.019531-7.59375-3.445312-7.574219-7.648437.019532-4.191407 3.421875-7.578125 7.609375-7.578125h.039063l2.882812.015625c4.207032.019531 7.597656 3.441406 7.578125 7.644531-.019531 4.195312-3.425781 7.578125-7.613281 7.578125zm0 0"/><path d="m67.753906 496.332031c-.011718 0-.023437 0-.039062 0l-2.882813-.011719c-4.207031-.023437-7.597656-3.445312-7.578125-7.648437.019532-4.191406 3.425782-7.578125 7.613282-7.578125h.035156l2.886718.015625c4.203126.019531 7.59375 3.441406 7.574219 7.644531-.019531 4.191406-3.425781 7.578125-7.609375 7.578125zm0 0"/></g><path d="m488.296875 19.523438c-.011719 0-.023437 0-.039063 0-4.203124-.019532-7.59375-3.445313-7.574218-7.648438l.015625-2.886719c.019531-4.191406 3.421875-7.574219 7.609375-7.574219h.039062c4.203125.019532 7.59375 3.441407 7.574219 7.648438l-.011719 2.886719c-.023437 4.1875-3.425781 7.574219-7.613281 7.574219zm0 0" fill="#fed370"/><path d="m488.207031 48.894531c-.011719 0-.027343 0-.039062 0-4.203125-.019531-7.59375-3.441406-7.574219-7.648437l.015625-2.882813c.019531-4.191406 3.421875-7.578125 7.609375-7.578125h.039062c4.203126.019532 7.59375 3.445313 7.574219 7.648438l-.015625 2.886718c-.019531 4.191407-3.425781 7.574219-7.609375 7.574219zm0 0" fill="#fed370"/><path d="m504.386719 32.820312c-.011719 0-.023438 0-.035157 0l-2.886718-.015624c-4.203125-.019532-7.59375-3.445313-7.574219-7.648438.019531-4.191406 3.421875-7.574219 7.609375-7.574219h.039062l2.886719.011719c4.203125.023438 7.59375 3.445312 7.574219 7.648438-.019531 4.191406-3.425781 7.578124-7.613281 7.578124zm0 0" fill="#fed370"/><path d="m475.015625 32.726562c-.011719 0-.023437 0-.039063 0l-2.886718-.011718c-4.203125-.019532-7.59375-3.445313-7.574219-7.648438.019531-4.191406 3.425781-7.574218 7.613281-7.574218h.035156l2.886719.011718c4.203125.019532 7.597657 3.445313 7.574219 7.648438-.019531 4.191406-3.421875 7.574218-7.609375 7.574218zm0 0" fill="#fed370"/><path d="m478.707031 94.136719c-.011719 0-.023437 0-.035156 0h-.117187c-4.203126-.019531-7.597657-3.441407-7.578126-7.644531.015626-4.195313 3.421876-7.578126 7.609376-7.578126h.035156.117187c4.203125.015626 7.597657 3.4375 7.578125 7.640626-.019531 4.195312-3.421875 7.582031-7.609375 7.582031zm0 0" fill="#fed370"/><path d="m292.613281 144.175781h-.117187c-4.203125 0-7.613282-3.40625-7.613282-7.609375s3.40625-7.609375 7.613282-7.609375h.117187c4.203125 0 7.613281 3.40625 7.613281 7.609375s-3.40625 7.609375-7.613281 7.609375zm0 0" fill="#fda736"/><path d="m368.933594 472.675781h-.117188c-4.203125 0-7.609375-3.410156-7.609375-7.613281s3.40625-7.609375 7.609375-7.609375h.117188c4.203125 0 7.613281 3.40625 7.613281 7.609375s-3.40625 7.613281-7.613281 7.613281zm0 0" fill="#fed370"/><path d="m171.707031 265.046875c-.007812 0-.019531 0-.03125 0h-.117187c-4.203125-.015625-7.597656-3.4375-7.578125-7.640625.015625-4.195312 3.421875-7.582031 7.609375-7.582031h.035156l.117188.003906c4.203124.015625 7.59375 3.4375 7.578124 7.640625-.019531 4.191406-3.421874 7.578125-7.613281 7.578125zm0 0" fill="#fda736"/><path d="m155.96875 309c-.011719 0-.023438 0-.03125 0h-.117188c-4.207031-.015625-7.597656-3.4375-7.582031-7.644531.019531-4.191407 3.421875-7.578125 7.613281-7.578125h.03125.117188c4.203125.019531 7.597656 3.441406 7.578125 7.644531-.015625 4.191406-3.421875 7.578125-7.609375 7.578125zm0 0" fill="#fda736"/></svg>