<svg height="512pt" viewBox="-69 0 512 512.00001" width="512pt" xmlns="http://www.w3.org/2000/svg"><path d="m356.890625 502.925781c-4.269531 0-7.726563-3.460937-7.726563-7.726562v-49.238281l-97.789062-73.988282c-.652344-.492187-1.222656-1.085937-1.6875-1.757812l-31.464844-45.390625-52.363281-24.328125c-.605469-.28125-1.167969-.636719-1.679687-1.0625l-35.167969-29.195313c-.453125-.375-.863281-.804687-1.21875-1.273437l-117.148438-154.46875c-2.578125-3.398438-1.910156-8.246094 1.488281-10.824219 3.402344-2.578125 8.246094-1.914063 10.824219 1.484375l116.613281 153.761719 33.707032 27.984375 53.355468 24.792968c1.246094.578126 2.3125 1.476563 3.09375 2.605469l31.957032 46.09375 99.871094 75.558594c1.929687 1.460937 3.0625 3.742187 3.0625 6.164063v53.078124c0 4.269532-3.460938 7.730469-7.726563 7.730469zm0 0" fill="#5100cb"/><path d="m223.371094 326.429688c-1.1875 0-2.390625-.273438-3.519532-.851563-3.796874-1.945313-5.296874-6.601563-3.347656-10.398437l28.140625-54.890626-53.199219-12.355468c-2.921874-.679688-5.1875-2.984375-5.808593-5.917969-.625-2.933594.503906-5.964844 2.894531-7.773437l47.765625-36.097657-32.484375-49.015625c-.292969-.445312-.539062-.914062-.734375-1.40625l-51.09375-128.058594c-1.578125-3.964843.351563-8.457031 4.316406-10.039062 3.960938-1.582031 8.457031.347656 10.039063 4.3125l50.796875 127.320312 36.050781 54.40625c2.253906 3.402344 1.472656 7.96875-1.78125 10.429688l-40.382812 30.519531 46.761718 10.863281c2.316406.539063 4.257813 2.117188 5.261719 4.273438 1 2.160156.949219 4.660156-.136719 6.777344l-32.65625 63.699218c-1.371094 2.667969-4.078125 4.203126-6.882812 4.203126zm0 0" fill="#5100cb"/><path d="m33.601562 109.828125c0 9.277344-7.523437 16.800781-16.800781 16.800781-9.277343 0-16.800781-7.523437-16.800781-16.800781s7.523438-16.800781 16.800781-16.800781c9.277344 0 16.800781 7.523437 16.800781 16.800781zm0 0" fill="#f0a9ff"/><path d="m175.964844 16.800781c0 9.277344-7.523438 16.800781-16.804688 16.800781-9.277344 0-16.800781-7.523437-16.800781-16.800781 0-9.277343 7.523437-16.800781 16.800781-16.800781 9.28125 0 16.804688 7.523438 16.804688 16.800781zm0 0" fill="#e667f9"/><path d="m227.328125 145.304688c0 9.277343-7.519531 16.800781-16.800781 16.800781-9.277344 0-16.800782-7.523438-16.800782-16.800781 0-9.28125 7.523438-16.800782 16.800782-16.800782 9.28125 0 16.800781 7.519532 16.800781 16.800782zm0 0" fill="#d82fea"/><path d="m263.601562 199.910156c0 9.277344-7.523437 16.800782-16.800781 16.800782-9.277343 0-16.800781-7.523438-16.800781-16.800782 0-9.28125 7.523438-16.800781 16.800781-16.800781 9.277344 0 16.800781 7.519531 16.800781 16.800781zm0 0" fill="#e667f9"/><path d="m210.042969 240.261719c0 9.28125-7.519531 16.800781-16.800781 16.800781-9.277344 0-16.800782-7.519531-16.800782-16.800781 0-9.277344 7.523438-16.800781 16.800782-16.800781 9.28125 0 16.800781 7.523437 16.800781 16.800781zm0 0" fill="#f0a9ff"/><path d="m272.835938 255.214844c0 9.277344-7.519532 16.800781-16.800782 16.800781-9.277344 0-16.800781-7.523437-16.800781-16.800781 0-9.28125 7.523437-16.800782 16.800781-16.800782 9.28125 0 16.800782 7.519532 16.800782 16.800782zm0 0" fill="#e667f9"/><path d="m240.585938 318.703125c0 9.277344-7.519532 16.800781-16.800782 16.800781-9.277344 0-16.800781-7.523437-16.800781-16.800781s7.523437-16.800781 16.800781-16.800781c9.28125 0 16.800782 7.523437 16.800782 16.800781zm0 0" fill="#e667f9"/><path d="m272.789062 366.164062c0 9.277344-7.523437 16.800782-16.800781 16.800782-9.277343 0-16.800781-7.523438-16.800781-16.800782 0-9.28125 7.523438-16.800781 16.800781-16.800781 9.277344 0 16.800781 7.519531 16.800781 16.800781zm0 0" fill="#f0a9ff"/><path d="m373.691406 442.097656c0 9.277344-7.519531 16.800782-16.800781 16.800782-9.277344 0-16.800781-7.523438-16.800781-16.800782 0-9.28125 7.523437-16.800781 16.800781-16.800781 9.28125 0 16.800781 7.519531 16.800781 16.800781zm0 0" fill="#e667f9"/><path d="m373.691406 495.199219c0 9.277343-7.519531 16.800781-16.800781 16.800781-9.277344 0-16.800781-7.523438-16.800781-16.800781 0-9.277344 7.523437-16.800781 16.800781-16.800781 9.28125 0 16.800781 7.523437 16.800781 16.800781zm0 0" fill="#e667f9"/><path d="m185.566406 293.410156c0 9.28125-7.519531 16.804688-16.800781 16.804688-9.277344 0-16.800781-7.523438-16.800781-16.804688 0-9.277344 7.523437-16.800781 16.800781-16.800781 9.28125 0 16.800781 7.523437 16.800781 16.800781zm0 0" fill="#d82fea"/><path d="m150.679688 263.582031c0 9.277344-7.523438 16.800781-16.800782 16.800781s-16.800781-7.523437-16.800781-16.800781c0-9.28125 7.523437-16.800781 16.800781-16.800781s16.800782 7.519531 16.800782 16.800781zm0 0" fill="#e667f9"/><g fill="#d82fea"><path d="m286.785156 133.46875c-.011718 0-.023437 0-.035156 0-4.269531-.023438-7.710938-3.496094-7.691406-7.765625l.011718-2.804687c.023438-4.253907 3.476563-7.6875 7.726563-7.6875h.039063c4.265624.019531 7.707031 3.492187 7.6875 7.761718l-.011719 2.804688c-.019531 4.253906-3.476563 7.691406-7.726563 7.691406zm0 0"/><path d="m286.695312 162.007812c-.011718 0-.023437 0-.035156 0-4.265625-.019531-7.710937-3.496093-7.691406-7.761718l.015625-2.804688c.019531-4.269531 3.449219-7.703125 7.761719-7.691406 4.265625.019531 7.710937 3.496094 7.691406 7.765625l-.015625 2.800781c-.019531 4.253906-3.476563 7.691406-7.726563 7.691406zm0 0"/><path d="m302.421875 146.386719c-.015625 0-.027344 0-.039063 0l-2.804687-.015625c-4.269531-.019532-7.710937-3.496094-7.6875-7.761719.019531-4.257813 3.472656-7.691406 7.722656-7.691406h.039063l2.804687.015625c4.265625.019531 7.707031 3.496094 7.6875 7.761718-.019531 4.257813-3.472656 7.691407-7.722656 7.691407zm0 0"/><path d="m273.878906 146.296875c-.011718 0-.027344 0-.039062 0l-2.804688-.011719c-4.265625-.023437-7.707031-3.496094-7.6875-7.765625.019532-4.253906 3.476563-7.6875 7.726563-7.6875h.035156l2.804687.011719c4.269532.023438 7.710938 3.496094 7.691407 7.765625-.023438 4.253906-3.476563 7.6875-7.726563 7.6875zm0 0"/><path d="m52.402344 269.613281c-.011719 0-.023438 0-.039063 0-4.265625-.023437-7.707031-3.5-7.6875-7.765625l.015625-2.804687c.019532-4.253907 3.476563-7.6875 7.722656-7.6875h.039063c4.269531.023437 7.710937 3.496093 7.6875 7.765625l-.011719 2.804687c-.019531 4.253907-3.476562 7.6875-7.726562 7.6875zm0 0"/><path d="m52.316406 298.152344c-.011718 0-.023437 0-.039062 0-4.265625-.019532-7.707032-3.496094-7.6875-7.761719l.011718-2.804687c.019532-4.257813 3.476563-7.691407 7.726563-7.691407h.035156c4.269531.019531 7.710938 3.496094 7.691407 7.761719l-.015626 2.804688c-.019531 4.257812-3.472656 7.691406-7.722656 7.691406zm0 0"/><path d="m68.039062 282.53125c-.011718 0-.027343 0-.039062 0l-2.804688-.015625c-4.265624-.019531-7.707031-3.496094-7.6875-7.761719.019532-4.257812 3.476563-7.691406 7.726563-7.691406h.035156l2.804688.015625c4.269531.019531 7.710937 3.496094 7.691406 7.765625-.023437 4.253906-3.476563 7.6875-7.726563 7.6875zm0 0"/><path d="m39.496094 282.441406c-.011719 0-.023438 0-.035156 0l-2.804688-.011718c-4.265625-.019532-7.710938-3.496094-7.6875-7.761719.019531-4.257813 3.472656-7.691407 7.722656-7.691407h.039063l2.800781.011719c4.269531.023438 7.710938 3.496094 7.691406 7.765625-.019531 4.253906-3.476562 7.6875-7.726562 7.6875zm0 0"/></g><path d="m286.28125 453.753906c-.015625 0-.023438 0-.039062 0-4.265626-.019531-7.710938-3.492187-7.6875-7.761718l.011718-2.804688c.019532-4.253906 3.476563-7.691406 7.722656-7.691406h.039063c4.265625.023437 7.710937 3.496094 7.691406 7.765625l-.015625 2.804687c-.019531 4.253906-3.476562 7.6875-7.722656 7.6875zm0 0" fill="#e667f9"/><path d="m286.191406 482.296875c-.011718 0-.023437 0-.039062 0-4.265625-.019531-7.707032-3.496094-7.6875-7.765625l.011718-2.800781c.019532-4.257813 3.476563-7.691407 7.726563-7.691407h.035156c4.269531.019532 7.710938 3.496094 7.691407 7.761719l-.015626 2.804688c-.019531 4.253906-3.472656 7.691406-7.722656 7.691406zm0 0" fill="#e667f9"/><path d="m301.914062 466.675781c-.011718 0-.023437 0-.035156 0l-2.804687-.015625c-4.269531-.019531-7.710938-3.496094-7.691407-7.761718.019532-4.269532 3.511719-7.757813 7.761719-7.691407l2.804688.015625c4.269531.019532 7.710937 3.492188 7.691406 7.761719-.019531 4.253906-3.476563 7.691406-7.726563 7.691406zm0 0" fill="#e667f9"/><path d="m273.371094 466.585938c-.011719 0-.023438 0-.035156 0l-2.804688-.015626c-4.269531-.019531-7.710938-3.496093-7.6875-7.761718.019531-4.253906 3.472656-7.691406 7.722656-7.691406h.039063l2.804687.015624c4.265625.019532 7.707032 3.496094 7.6875 7.765626-.019531 4.253906-3.476562 7.6875-7.726562 7.6875zm0 0" fill="#e667f9"/><path d="m329.558594 172.535156c-.011719 0-.027344 0-.039063 0-4.265625-.023437-7.707031-3.5-7.6875-7.765625l.015625-2.804687c.019532-4.253906 3.476563-7.6875 7.722656-7.6875h.039063c4.269531.023437 7.710937 3.5 7.6875 7.765625l-.011719 2.804687c-.019531 4.253906-3.476562 7.6875-7.726562 7.6875zm0 0" fill="#d82fea"/><path d="m329.472656 201.074219c-.011718 0-.023437 0-.039062 0-4.265625-.019531-7.707032-3.496094-7.6875-7.761719l.011718-2.804688c.019532-4.253906 3.476563-7.691406 7.726563-7.691406h.035156c4.265625.023438 7.710938 3.496094 7.691407 7.765625l-.015626 2.804688c-.019531 4.253906-3.472656 7.6875-7.722656 7.6875zm0 0" fill="#d82fea"/><path d="m345.195312 185.453125c-.015624 0-.027343 0-.039062 0l-2.804688-.011719c-4.265624-.023437-7.707031-3.496094-7.6875-7.765625.019532-4.253906 3.476563-7.6875 7.722657-7.6875h.039062l2.804688.011719c4.265625.023438 7.707031 3.496094 7.6875 7.765625-.019531 4.253906-3.472657 7.6875-7.722657 7.6875zm0 0" fill="#d82fea"/><path d="m316.652344 185.367188c-.011719 0-.023438 0-.035156 0l-2.804688-.015626c-4.269531-.019531-7.710938-3.496093-7.691406-7.761718.023437-4.257813 3.476562-7.691406 7.726562-7.691406h.039063l2.804687.015624c4.265625.019532 7.707032 3.496094 7.6875 7.761719-.019531 4.253907-3.476562 7.691407-7.726562 7.691407zm0 0" fill="#d82fea"/><path d="m95.222656 93.074219c-.011718 0-.023437 0-.039062 0-4.265625-.019531-7.707032-3.492188-7.6875-7.761719l.011718-2.804688c.019532-4.253906 3.476563-7.6875 7.726563-7.6875h.035156c4.265625.019532 7.710938 3.492188 7.691407 7.761719l-.015626 2.804688c-.019531 4.253906-3.472656 7.6875-7.722656 7.6875zm0 0" fill="#f0a9ff"/><path d="m95.132812 121.617188c-.011718 0-.023437 0-.035156 0-4.269531-.019532-7.710937-3.496094-7.691406-7.761719l.015625-2.804688c.019531-4.253906 3.472656-7.691406 7.722656-7.691406h.039063c4.265625.019531 7.707031 3.496094 7.6875 7.761719l-.011719 2.804687c-.019531 4.253907-3.476563 7.691407-7.726563 7.691407zm0 0" fill="#f0a9ff"/><path d="m110.855469 105.996094c-.011719 0-.023438 0-.035157 0l-2.804687-.015625c-4.265625-.019531-7.710937-3.492188-7.691406-7.761719.023437-4.253906 3.476562-7.691406 7.726562-7.691406h.039063l2.800781.015625c4.269531.019531 7.710937 3.492187 7.691406 7.761719-.019531 4.253906-3.476562 7.691406-7.726562 7.691406zm0 0" fill="#f0a9ff"/><path d="m82.316406 105.90625c-.011718 0-.023437 0-.039062 0l-2.800782-.011719c-4.269531-.019531-7.710937-3.496093-7.691406-7.761719.019532-4.257812 3.476563-7.691406 7.726563-7.691406h.035156l2.804687.011719c4.265626.019531 7.710938 3.496094 7.6875 7.765625-.019531 4.253906-3.472656 7.6875-7.722656 7.6875zm0 0" fill="#f0a9ff"/></svg>