<svg height="512pt" viewBox="-1 0 512 512" width="512pt" xmlns="http://www.w3.org/2000/svg"><path d="m11.152344 512h488.339844c7.195312 0 12.472656-6.707031 10.867187-13.710938-4.574219-19.960937-11.503906-39.542968-20.785156-58.296874-8.746094-17.707032-19.59375-34.6875-32.523438-50.554688-5.800781-7.128906-12.015625-14.023438-18.667969-20.671875-7.699218-7.699219-15.742187-14.828125-24.0625-21.390625-13.023437-10.253906-26.757812-19.132812-41.003906-26.652344l-4.363281-25.574218c-.757813-4.328126-3.828125-7.898438-8-9.257813l-40.164063-13.199219c-4.1875-1.375-8.78125-.335937-11.929687 2.710938l-18.519531 17.816406c-48.554688-7.554688-98.519532-1.4375-143.636719 18.386719l-9.261719-6.113281c-3.671875-2.421876-8.367187-2.621094-12.230468-.511719l-37.097657 20.257812c-3.871093 2.109375-6.246093 6.171875-6.191406 10.554688l.234375 16.960937c-1.660156 1.460938-3.3125 2.933594-4.917969 4.429688-2.402343 2.207031-4.753906 4.472656-7.074219 6.792968-7.308593 7.296876-14.070312 14.953126-20.296874 22.90625-.714844.902344-1.40625 1.808594-2.097657 2.722657-6.648437 8.714843-12.640625 17.773437-17.996093 27.113281-4.375 7.617188-8.3125 15.441406-11.828126 23.40625-3.347656 7.585938-6.3125 15.308594-8.878906 23.140625-3.828125 11.660156-6.796875 23.5625-8.894531 35.601563-1.203125 6.851562 4.027344 13.132812 10.980469 13.132812zm0 0" fill="#ff8b73"/><path d="m499.492188 512h-34.59375c7.191406 0 12.476562-6.703125 10.867187-13.710938-4.578125-19.957031-11.5-39.542968-20.789063-58.296874-8.75-17.703126-19.59375-34.691407-32.523437-50.550782-5.804687-7.132812-12.007813-14.035156-18.664063-20.675781-7.699218-7.699219-15.742187-14.832031-24.066406-21.390625-11.625-9.148438-23.808594-17.210938-36.425781-24.179688-2.886719-1.59375-4.820313-4.484374-5.207031-7.757812l-4.582032-38.5625 27.441407 9.007812c4.179687 1.359376 7.242187 4.941407 8 9.269532l4.371093 25.574218c14.238282 7.511719 27.976563 16.394532 40.992188 26.652344 8.324219 6.558594 16.367188 13.6875 24.070312 21.386719 6.652344 6.644531 12.867188 13.546875 18.667969 20.675781 12.933594 15.859375 23.777344 32.847656 32.519531 50.554688 9.289063 18.753906 16.210938 38.335937 20.785157 58.292968 1.609375 7.007813-3.660157 13.710938-10.863281 13.710938zm0 0" fill="#ff5c3c"/><path d="m489.570312 439.992188c-9.683593-.019532-21.371093-.039063-34.625-.058594-34.363281-.023438-79.269531-.023438-127.167968-.011719-18.554688 0-36.894532 4.710937-52.503906 14.125-4.265626 2.59375-8.96875 4.929687-14.019532 7.003906-16.066406 6.621094-35.703125 10.515625-56.925781 10.515625-27.835937 0-52.953125-6.683594-70.824219-17.4375-15.609375-9.382812-33.925781-14.0625-52.472656-14.042968-11.894531.011718-38.683594.03125-63.082031.042968 3.507812-7.972656 7.453125-15.796875 11.820312-23.414062 5.355469-9.339844 11.355469-18.402344 17.996094-27.109375 13.898437 0 26.144531 0 33.167969-.007813 15.640625-.03125 31.117187-3.363281 44.941406-10.039062 2.582031-1.242188 5.105469-2.605469 7.554688-4.085938 17.882812-10.773437 43.039062-17.480468 70.898437-17.480468 27.800781 0 52.898437 6.675781 70.757813 17.394531 15.609374 9.382812 33.898437 14.042969 52.421874 14.042969 34.042969-.019532 66.589844-.03125 94.921876-.007813 12.425781 0 24.039062.007813 34.625.019531 12.929687 15.859375 23.777343 32.847656 32.515624 50.550782zm0 0" fill="#ff5c3c"/><path d="m489.570312 439.992188c-9.683593-.019532-21.371093-.039063-34.625-.058594-8.738281-17.6875-19.574218-34.65625-32.492187-50.492188-.011719-.011718-.011719-.011718-.023437-.019531 12.421874 0 24.039062.007813 34.625.019531 12.929687 15.859375 23.777343 32.847656 32.515624 50.550782zm0 0" fill="#ff2e04"/><path d="m332.660156 479.328125c-4.242187 0-7.6875-3.425781-7.707031-7.671875v-.113281c-.019531-4.257813 3.417969-7.722657 7.671875-7.738281h.035156c4.242188 0 7.6875 3.425781 7.707032 7.671874v.113282c.015624 4.257812-3.417969 7.722656-7.675782 7.738281-.011718 0-.023437 0-.03125 0zm0 0" fill="#ff5c3c"/><path d="m270.726562 348.097656c-4.238281 0-7.683593-3.425781-7.703124-7.671875v-.117187c-.019532-4.253906 3.414062-7.71875 7.671874-7.738282h.03125c4.242188 0 7.6875 3.429688 7.707032 7.671876v.117187c.019531 4.253906-3.414063 7.71875-7.671875 7.738281-.011719 0-.023438 0-.035157 0zm0 0" fill="#ff2e04"/><path d="m307.765625 484.625c-4.238281 0-7.6875-3.425781-7.707031-7.671875v-.113281c-.019532-4.257813 3.417968-7.722656 7.675781-7.742188h.03125c4.242187 0 7.6875 3.429688 7.707031 7.675782v.113281c.019532 4.253906-3.417968 7.71875-7.671875 7.738281-.011719 0-.023437 0-.035156 0zm0 0" fill="#ff2e04"/><path d="m201.644531 450.117188c-26.730469 0-47.667969-15.359376-47.667969-34.96875 0-19.613282 20.9375-34.972657 47.667969-34.972657s47.667969 15.359375 47.667969 34.972657c0 19.609374-20.9375 34.96875-47.667969 34.96875zm0-54.527344c-17.484375 0-32.257812 8.957031-32.257812 19.558594 0 10.601562 14.773437 19.558593 32.257812 19.558593s32.257813-8.957031 32.257813-19.558593c0-10.601563-14.773438-19.558594-32.257813-19.558594zm0 0" fill="#ff8b73"/><path d="m453.25 492.457031c-2.320312 0-4.617188-1.042969-6.132812-3.027343l-8.609376-11.277344c-.648437-.851563-1.671874-1.359375-2.742187-1.359375h-19.269531c-1.039063 0-2.011719.464843-2.671875 1.269531l-5.195313 6.351562c-2.695312 3.296876-7.546875 3.785157-10.84375 1.089844-3.292968-2.691406-3.78125-7.546875-1.089844-10.84375l5.195313-6.351562c3.597656-4.402344 8.921875-6.925782 14.605469-6.925782h19.269531c5.839844 0 11.445313 2.769532 14.992187 7.414063l8.609376 11.277344c2.582031 3.382812 1.933593 8.21875-1.449219 10.800781-1.394531 1.066406-3.039063 1.582031-4.667969 1.582031zm0 0" fill="#ff5c3c"/><path d="m410.410156 79.132812v91.496094c0 6.164063-4.992187 11.15625-11.15625 11.15625h-142.808594c-2.511718 0-4.828124-.839844-6.695312-2.230468-2.707031-2.035157-4.460938-5.285157-4.460938-8.925782v-102.65625h153.964844c6.164063 0 11.15625 4.992188 11.15625 11.160156zm0 0" fill="#7e18ea"/><path d="m410.410156 148.429688v22.199218c0 6.164063-4.992187 11.15625-11.15625 11.15625h-142.808594c-2.511718 0-4.828124-.839844-6.695312-2.230468-2.707031-2.035157-4.460938-5.285157-4.460938-8.925782v-22.199218zm0 0" fill="#00c2cc"/><path d="m410.410156 79.132812v25.789063h-165.121094v-36.949219h153.964844c6.164063 0 11.15625 4.992188 11.15625 11.160156zm0 0" fill="#ffe5c0"/><path d="m347.929688 32.25v91.496094c0 6.167968-4.992188 11.160156-11.15625 11.160156h-131.652344v-113.8125h131.652344c6.164062 0 11.15625 4.992188 11.15625 11.15625zm0 0" fill="#b200bf"/><path d="m347.929688 104.921875v18.828125c0 6.164062-4.992188 11.15625-11.15625 11.15625h-131.652344v-29.984375zm0 0" fill="#9bf2e5"/><path d="m347.929688 32.25v25.792969h-142.808594v-36.949219h131.652344c6.164062 0 11.15625 4.992188 11.15625 11.15625zm0 0" fill="#fef5e3"/><path d="m339.007812 134.910156-89.257812 44.640625c-2.710938-2.03125-4.460938-5.277343-4.460938-8.925781v-35.726562zm0 0" fill="#2500ad"/><path d="m205.121094 330.058594c-4.257813 0-7.707032-3.449219-7.707032-7.707032v-314.644531c0-4.257812 3.449219-7.707031 7.707032-7.707031 4.253906 0 7.707031 3.449219 7.707031 7.707031v314.644531c0 4.257813-3.453125 7.707032-7.707031 7.707032zm0 0" fill="#898ec9"/><path d="m170.40625 342.300781c-1.714844 0-3.441406-.566406-4.871094-1.738281-3.296875-2.695312-3.785156-7.546875-1.089844-10.84375l5.191407-6.355469c3.601562-4.402343 8.921875-6.925781 14.605469-6.925781h41.585937c5.839844 0 11.445313 2.773438 14.992187 7.414062l4.429688 5.804688c2.582031 3.382812 1.933594 8.21875-1.449219 10.804688-3.382812 2.582031-8.21875 1.933593-10.800781-1.449219l-4.429688-5.804688c-.648437-.847656-1.675781-1.355469-2.742187-1.355469h-41.585937c-1.039063 0-2.015626.460938-2.671876 1.265626l-5.195312 6.355468c-1.519531 1.863282-3.734375 2.828125-5.96875 2.828125zm0 0" fill="#ff5c3c"/></svg>