<svg height="512pt" viewBox="0 -5 512.001 512" width="512pt" xmlns="http://www.w3.org/2000/svg"><path d="m499.996094 181.015625c0 99.976563-81.042969 181.023437-181.019532 181.023437-99.96875 0-181.015624-81.046874-181.015624-181.023437 0-99.96875 81.046874-181.015625 181.015624-181.015625 64.839844 0 121.722657 34.089844 153.691407 85.320312 3.109375 4.996094 5.984375 10.148438 8.613281 15.453126 11.980469 24.179687 18.714844 51.425781 18.714844 80.242187zm0 0" fill="#2de0c7"/><g fill="#00c2cc"><path d="m481.28125 100.773438h-78.800781c-13.554688 0-26.289063-5.273438-35.871094-14.855469-6.664063-6.664063-15.515625-10.332031-24.941406-10.332031h-38.609375c-4.277344 0-7.726563-3.460938-7.726563-7.726563s3.449219-7.726563 7.726563-7.726563h38.609375c13.546875 0 26.292969 5.277344 35.871093 14.855469 6.65625 6.664063 15.515626 10.332031 24.941407 10.332031h70.1875c3.109375 4.996094 5.984375 10.148438 8.613281 15.453126zm0 0"/><path d="m313.828125 174.554688h-37c-4.269531 0-7.726563-3.457032-7.726563-7.722657 0-4.269531 3.457032-7.726562 7.726563-7.726562h37c4.265625 0 7.726563 3.457031 7.726563 7.726562 0 4.265625-3.460938 7.722657-7.726563 7.722657zm0 0"/><path d="m499.996094 181.011719c0 99.980469-81.042969 181.023437-181.019532 181.023437-4.460937 0-8.890624-.164062-13.269531-.484375 93.777344-6.789062 167.742188-85.019531 167.742188-180.539062 0-95.507813-73.964844-173.738281-167.742188-180.527344 4.378907-.320313 8.808594-.484375 13.269531-.484375 99.976563 0 181.019532 81.042969 181.019532 181.011719zm0 0"/></g><path d="m303.054688 67.859375c0-10.46875-11.644532-18.957031-26.007813-18.957031s-26.003906 8.488281-26.003906 18.957031 11.640625 18.957031 26.003906 18.957031 26.007813-8.488281 26.007813-18.957031zm0 0" fill="#9bf2e5"/><path d="m274.550781 82.058594c0 40.59375-32.90625 73.5-73.496093 73.5-40.59375 0-73.5-32.90625-73.5-73.5 0-40.589844 32.90625-73.496094 73.5-73.496094 40.589843 0 73.496093 32.90625 73.496093 73.496094zm0 0" fill="#ff5c3c"/><path d="m274.554688 82.066406c0 40.585938-32.914063 73.492188-73.503907 73.492188-3.820312 0-7.582031-.289063-11.25-.855469 35.253907-5.417969 62.246094-35.871094 62.246094-72.636719 0-36.769531-26.992187-67.230468-62.246094-72.648437 3.667969-.570313 7.429688-.855469 11.25-.855469 40.589844 0 73.503907 32.902344 73.503907 73.503906zm0 0" fill="#ff2e04"/><path d="m512 406.828125v72.917969c0 12.238281-9.921875 22.160156-22.171875 22.160156h-467.65625c-12.25 0-22.171875-9.921875-22.171875-22.160156v-72.917969zm0 0" fill="#fd7504"/><path d="m512 406.828125v49.316406c0 12.238281-9.921875 22.160157-22.171875 22.160157h-467.65625c-12.25 0-22.171875-9.921876-22.171875-22.160157v-49.316406zm0 0" fill="#fda736"/><path d="m489.835938 438.625h-467.671876c-12.238281 0-22.164062-9.925781-22.164062-22.167969v-117.242187c0-12.242188 9.925781-22.164063 22.164062-22.164063h467.671876c12.242187 0 22.164062 9.921875 22.164062 22.164063v117.242187c0 12.242188-9.925781 22.167969-22.164062 22.167969zm0 0" fill="#fed370"/><path d="m408.46875 382.402344h-38.222656c-4.269532 0-7.726563-3.460938-7.726563-7.726563s3.457031-7.726562 7.726563-7.726562h38.222656c4.265625 0 7.722656 3.460937 7.722656 7.726562s-3.457031 7.726563-7.722656 7.726563zm0 0" fill="#fda736"/><path d="m477.488281 306.292969h-39.390625c-4.265625 0-7.726562-3.457031-7.726562-7.726563 0-4.265625 3.460937-7.726562 7.726562-7.726562h39.390625c4.269531 0 7.726563 3.460937 7.726563 7.726562 0 4.269532-3.457032 7.726563-7.726563 7.726563zm0 0" fill="#fda736"/><path d="m450.457031 249.789062v46.203126c0 5.691406-4.613281 10.304687-10.300781 10.304687h-131.8125v-169.980469c0-5.691406 4.613281-10.304687 10.300781-10.304687h32.914063c4.453125 0 8.398437 2.855469 9.789062 7.089843l18.171875 55.339844 5.066407 15.453125.082031.238281h30.792969c3.359374 0 6.511718 1.636719 8.449218 4.398438l21.148438 30.289062 3.542968 5.066407c1.207032 1.730469 1.855469 3.789062 1.855469 5.902343zm0 0" fill="#fd8f07"/><path d="m339.867188 258.019531v48.273438h-31.523438v-79.796875zm0 0" fill="#fd7504"/><path d="m327.503906 267.40625v93.550781h-186.050781v-80.085937l-30.8125-14.917969c-3.554687-1.71875-5.808594-5.324219-5.808594-9.273437v-23.886719l-91.75-36.542969c-3.914062-1.566406-6.488281-5.355469-6.488281-9.570312v-51.105469c0-5.6875 4.613281-10.300781 10.300781-10.300781h205.582031c2.730469 0 5.347657 1.078124 7.285157 3.015624l26.722656 26.722657c1.9375 1.9375 3.019531 4.554687 3.019531 7.285156v32.839844l64.980469 64.984375c1.9375 1.9375 3.019531 4.554687 3.019531 7.285156zm0 0" fill="#fda736"/><path d="m259.503906 195.136719v-32.839844c0-2.730469-1.085937-5.351563-3.019531-7.285156l-26.722656-26.722657c-1.933594-1.929687-4.550781-3.015624-7.285157-3.015624h-23.320312l43.472656 43.460937v37.105469l68.003906 68.003906v87.113281h16.875v-93.550781c0-2.730469-1.085937-5.351562-3.019531-7.285156zm0 0" fill="#fd8f07"/><path d="m327.503906 324.621094v36.335937h-186.050781v-46.246093zm0 0" fill="#fd8f07"/><path d="m93.890625 335.417969v36.636719c0 5.691406 4.613281 10.304687 10.300781 10.304687h270.171875c5.691407 0 10.304688-4.613281 10.304688-10.304687v-22.242188c0-5.476562-4.285157-9.996094-9.753907-10.285156l-270.175781-14.394532c-5.894531-.316406-10.847656 4.378907-10.847656 10.285157zm0 0" fill="#fda736"/><path d="m259.503906 288.597656c0 4.265625-3.460937 7.726563-7.726562 7.726563h-110.324219v-15.453125h110.324219c4.261718 0 7.726562 3.460937 7.726562 7.726562zm0 0" fill="#fd8f07"/><path d="m259.503906 178.6875v15.453125h-118.050781c-4.273437 0-7.726563-3.460937-7.726563-7.726563 0-4.265624 3.453126-7.726562 7.726563-7.726562zm0 0" fill="#fd8f07"/><path d="m165.21875 240.539062c0 4.265626-3.460938 7.726563-7.726562 7.726563h-52.660157v-15.453125h52.660157c4.265624 0 7.726562 3.460938 7.726562 7.726562zm0 0" fill="#fd8f07"/><path d="m384.585938 203.894531h-36.210938c-4.273438 0-7.726562-3.460937-7.726562-7.726562s3.453124-7.726563 7.726562-7.726563h31.144531zm0 0" fill="#fd7504"/><path d="m450.457031 249.789062v4.480469h-96.589843c-4.265626 0-7.726563-3.460937-7.726563-7.726562 0-4.261719 3.460937-7.722657 7.726563-7.722657h91.191406l3.542968 5.066407c1.207032 1.730469 1.855469 3.789062 1.855469 5.902343zm0 0" fill="#fd7504"/><path d="m441.523438 382.402344h-.105469c-4.269531 0-7.726563-3.460938-7.726563-7.726563s3.457032-7.726562 7.726563-7.726562h.105469c4.265624 0 7.726562 3.460937 7.726562 7.726562s-3.460938 7.726563-7.726562 7.726563zm0 0" fill="#fda736"/><path d="m167.105469 420.128906c-.027344 0-.050781 0-.074219 0h-.105469c-4.269531-.039062-7.695312-3.53125-7.65625-7.800781.042969-4.265625 3.5625-7.6875 7.800781-7.652344h.105469c4.269531.039063 7.695313 3.53125 7.652344 7.800781-.039063 4.242188-3.488281 7.652344-7.722656 7.652344zm0 0" fill="#fd7504"/><path d="m453.707031 366.890625h-.105469c-4.265624 0-7.726562-3.460937-7.726562-7.726563 0-4.265624 3.460938-7.726562 7.726562-7.726562h.105469c4.269531 0 7.726563 3.460938 7.726563 7.726562 0 4.265626-3.457032 7.726563-7.726563 7.726563zm0 0" fill="#fda736"/><path d="m60.265625 320.332031h-.105469c-4.269531 0-7.726562-3.457031-7.726562-7.722656 0-4.269531 3.457031-7.726563 7.726562-7.726563h.105469c4.265625 0 7.726563 3.457032 7.726563 7.726563 0 4.265625-3.460938 7.722656-7.726563 7.722656zm0 0" fill="#fd7504"/><path d="m111.773438 404.160156h-62.835938v-26.703125c0-5.691406 4.613281-10.300781 10.300781-10.300781h32.753907c4.433593 0 8.367187 2.832031 9.769531 7.039062zm0 0" fill="#fd8f07"/><path d="m141.453125 411.886719h-90.039063c-4.269531 0-7.726562-3.457031-7.726562-7.726563 0-4.265625 3.457031-7.726562 7.726562-7.726562h90.039063c4.269531 0 7.726563 3.460937 7.726563 7.726562 0 4.269532-3.457032 7.726563-7.726563 7.726563zm0 0" fill="#fda736"/><path d="m454.175781 151.652344c0-10.46875-11.644531-18.953125-26.003906-18.953125-14.363281 0-26.007813 8.484375-26.007813 18.953125s11.644532 18.957031 26.007813 18.957031c14.359375 0 26.003906-8.488281 26.003906-18.957031zm0 0" fill="#9bf2e5"/><path d="m319.03125 43.082031h-.105469c-4.269531 0-7.726562-3.457031-7.726562-7.726562 0-4.265625 3.457031-7.726563 7.726562-7.726563h.105469c4.265625 0 7.726562 3.460938 7.726562 7.726563 0 4.269531-3.460937 7.726562-7.726562 7.726562zm0 0" fill="#00c2cc"/><path d="m454.226562 194.136719h-.105468c-4.265625 0-7.726563-3.457031-7.726563-7.726563 0-4.265625 3.460938-7.726562 7.726563-7.726562h.105468c4.269532 0 7.726563 3.460937 7.726563 7.726562 0 4.269532-3.457031 7.726563-7.726563 7.726563zm0 0" fill="#9bf2e5"/><path d="m267.230469 40.867188c.007812 4.265624-3.433594 7.738281-7.695313 7.757812-5.027344.023438-10.003906.421875-14.90625 1.226562-17.84375 2.90625-34.894531 10.941407-50.851562 23.992188-22.871094 18.699219-46.8125 25.765625-62.871094 28.402344-.421875.0625-.847656.101562-1.257812.101562-3.71875 0-6.996094-2.6875-7.613282-6.476562-.691406-4.214844 2.164063-8.179688 6.367188-8.882813 14.207031-2.328125 35.375-8.570312 55.597656-25.113281 16.214844-13.257812 33.53125-21.976562 51.695312-26.023438 7.769532-1.761718 15.699219-2.648437 23.777344-2.679687h.03125c4.253906 0 7.703125 3.441406 7.726563 7.695313zm0 0" fill="#ffb5a6"/><path d="m275.707031 84.796875c-8.570312 5.066406-17.039062 8.785156-25.03125 11.484375-17.183593 5.8125-32.226562 6.984375-41.527343 6.984375-5.832032 0-9.417969-.460937-9.871094-.523437-4.234375-.566407-7.191406-4.46875-6.613282-8.695313.566407-4.222656 4.449219-7.179687 8.675782-6.613281.328125.039062 23.3125 2.824218 50.640625-8.128906 5.171875-2.070313 10.507812-4.636719 15.867187-7.808594 3.667969-2.164063 8.40625-.949219 10.578125 2.71875 2.175781 3.679687.960938 8.417968-2.71875 10.582031zm0 0" fill="#ffb5a6"/><path d="m259.535156 48.625c-5.027344.023438-10.003906.421875-14.90625 1.226562-2.453125-5.015624-5.453125-9.703124-8.933594-14 7.769532-1.761718 15.699219-2.648437 23.777344-2.679687h.03125c4.253906 0 7.707032 3.441406 7.726563 7.695313.007812 4.265624-3.433594 7.738281-7.695313 7.757812zm0 0" fill="#ff8b73"/><path d="m275.707031 84.796875c-8.570312 5.066406-17.039062 8.785156-25.03125 11.484375.894531-4.59375 1.367188-9.351562 1.367188-14.214844 0-.925781-.019531-1.84375-.0625-2.761718 5.171875-2.070313 10.507812-4.636719 15.867187-7.808594 3.667969-2.164063 8.40625-.949219 10.578125 2.71875 2.175781 3.679687.960938 8.417968-2.71875 10.582031zm0 0" fill="#ff8b73"/></svg>