<svg height="512pt" viewBox="0 -8 512.001 512" width="512pt" xmlns="http://www.w3.org/2000/svg"><path d="m24.191406 274.847656c-2.191406-12.90625-3.347656-26.164062-3.347656-39.699218 0-129.867188 105.277344-235.148438 235.148438-235.148438 70.734374 0 134.167968 31.234375 177.285156 80.644531 35.601562 40.804688 57.34375 94.03125 57.863281 152.3125.015625.738281.015625 1.457031.015625 2.191407 0 13.53125-1.15625 26.792968-3.351562 39.699218zm0 0" fill="#c5ee09"/><path d="m129.226562 144.625c0-12.445312-13.234374-22.535156-29.558593-22.535156s-29.558594 10.089844-29.558594 22.535156c0 12.441406 13.234375 22.53125 29.558594 22.53125s29.558593-10.089844 29.558593-22.53125zm0 0" fill="#fed370"/><path d="m491.160156 235.15625c0 13.523438-1.164062 26.785156-3.359375 39.691406h-44.171875c2.183594-12.90625 3.347656-26.167968 3.347656-39.691406 0-.742188 0-1.464844-.023437-2.195312-.515625-58.289063-22.261719-111.507813-57.855469-152.3125-38.578125-44.214844-93.414062-73.863282-155.207031-79.613282 7.273437-.679687 14.648437-1.0273435 22.097656-1.0273435 70.734375 0 134.171875 31.2226565 177.285157 80.6406255 35.601562 40.808593 57.347656 94.027343 57.863281 152.3125.023437.730468.023437 1.453124.023437 2.195312zm0 0" fill="#84e507"/><path d="m491.140625 232.960938h-310.632813c-9.960937 0-18.964843-4.039063-25.476562-10.558594-6.53125-6.523438-10.558594-15.535156-10.558594-25.5 0-19.902344 16.132813-36.054688 36.035156-36.054688h14.578126c11.085937 0 21.089843-4.480468 28.351562-11.746094 7.261719-7.261718 11.753906-17.273437 11.753906-28.359374 0-22.140626 17.957032-40.09375 40.105469-40.09375h157.976563c35.605468 40.804687 57.351562 94.023437 57.867187 152.3125zm0 0" fill="#fed370"/><path d="m491.140625 232.960938h-44.1875c-.511719-58.289063-22.261719-111.507813-57.851563-152.3125h44.171876c35.605468 40.804687 57.351562 94.023437 57.867187 152.3125zm0 0" fill="#fda736"/><path d="m406.058594 137.578125c-4.25 0-7.703125-3.433594-7.722656-7.6875-.023438-4.265625 3.417968-7.742187 7.6875-7.765625h.199218c4.230469-.039062 7.742188 3.421875 7.765625 7.6875.019531 4.265625-3.421875 7.742188-7.6875 7.765625h-.203125c-.011718 0-.027344 0-.039062 0zm0 0" fill="#fda736"/><path d="m512 401.136719v72.917969c0 12.238281-9.921875 22.15625-22.171875 22.15625h-467.65625c-12.25 0-22.171875-9.917969-22.171875-22.15625v-72.917969zm0 0" fill="#00c4ce"/><path d="m512 401.136719v49.316406c0 12.238281-9.921875 22.15625-22.171875 22.15625h-467.65625c-12.25 0-22.171875-9.917969-22.171875-22.15625v-49.316406zm0 0" fill="#00c2cc"/><path d="m489.835938 432.929688h-467.671876c-12.238281 0-22.164062-9.921876-22.164062-22.164063v-117.242187c0-12.242188 9.925781-22.164063 22.164062-22.164063h467.671876c12.242187 0 22.164062 9.921875 22.164062 22.164063v117.242187c0 12.242187-9.925781 22.164063-22.164062 22.164063zm0 0" fill="#9bf2e5"/><path d="m206.878906 325.636719c0-11.902344-27.441406-21.546875-61.292968-21.546875-33.855469 0-61.296876 9.644531-61.296876 21.546875 0 11.902343 27.441407 21.550781 61.296876 21.550781 33.851562 0 61.292968-9.648438 61.292968-21.550781zm0 0" fill="#00c2cc"/><path d="m63.683594 333.363281c-4.265625 0-7.722656-3.457031-7.722656-7.726562 0-18.695313 13.097656-33.601563 36.886718-41.960938 4.023438-1.417969 8.433594.699219 9.851563 4.726563 1.414062 4.023437-.703125 8.433594-4.726563 9.847656-9.921875 3.488281-26.5625 11.683594-26.5625 27.386719 0 4.269531-3.457031 7.726562-7.726562 7.726562zm0 0" fill="#00c2cc"/><path d="m145.585938 375.515625c-4.269532 0-7.726563-3.457031-7.726563-7.726563 0-4.265624 3.457031-7.722656 7.726563-7.722656 17.789062 0 34.695312-2.5 47.613281-7.042968 9.917969-3.484376 26.558593-11.679688 26.558593-27.382813 0-4.269531 3.460938-7.726563 7.726563-7.726563s7.726563 3.457032 7.726563 7.726563c0 18.695313-13.101563 33.601563-36.886719 41.960937-14.519531 5.105469-33.25 7.914063-52.738281 7.914063zm0 0" fill="#2de0c7"/><path d="m124.800781 319.082031v-285.824219c0-9.011718 10.757813-13.679687 17.339844-7.523437l21.246094 19.875c2.082031 1.945313 3.265625 4.671875 3.265625 7.523437v265.949219s0 3.773438-20.925782 3.773438c-20.925781 0-20.925781-3.773438-20.925781-3.773438zm0 0" fill="#6163aa"/><path d="m425.007812 354.511719c0-11.902344-27.441406-21.550781-61.292968-21.550781-33.855469 0-61.296875 9.648437-61.296875 21.550781 0 11.898437 27.441406 21.546875 61.296875 21.546875 33.851562 0 61.292968-9.648438 61.292968-21.546875zm0 0" fill="#00c2cc"/><path d="m313.535156 327.566406c-3.1875 0-6.171875-1.988281-7.289062-5.167968-1.414063-4.023438.703125-8.4375 4.726562-9.851563 14.519532-5.105469 33.25-7.914063 52.738282-7.914063 19.488281 0 38.21875 2.8125 52.738281 7.914063 4.027343 1.414063 6.144531 5.824219 4.726562 9.851563-1.414062 4.023437-5.824219 6.144531-9.851562 4.726562-12.914063-4.539062-29.824219-7.039062-47.613281-7.039062-17.789063 0-34.699219 2.5-47.613282 7.039062-.84375.296875-1.710937.441406-2.5625.441406zm0 0" fill="#00c4ce"/><path d="m413.890625 396.914062c-3.191406 0-6.171875-1.988281-7.289063-5.167968-1.417968-4.023438.699219-8.4375 4.722657-9.847656 5.011719-1.765626 12.167969-4.890626 17.808593-9.777344 3.222657-2.792969 8.105469-2.445313 10.898438.78125 2.796875 3.222656 2.445312 8.105468-.777344 10.898437-7.476562 6.476563-16.527344 10.464844-22.804687 12.671875-.84375.300782-1.710938.441406-2.558594.441406zm0 0" fill="#00c2cc"/><path d="m357.941406 404.304688c-.078125 0-.15625-.003907-.230468-.003907-17.484376-.519531-33.644532-3.222656-46.734376-7.828125-23.789062-8.359375-36.886718-23.265625-36.886718-41.964844 0-4.265624 3.457031-7.722656 7.726562-7.722656 4.265625 0 7.722656 3.457032 7.722656 7.722656 0 15.707032 16.640626 23.902344 26.5625 27.386719 11.441407 4.023438 26.378907 6.496094 42.0625 6.957031 4.269532.128907 7.621094 3.6875 7.496094 7.953126-.125 4.1875-3.558594 7.5-7.71875 7.5zm0 0" fill="#00c2cc"/><path d="m384.496094 347.957031v-130.1875c0-9.011719-10.757813-13.679687-17.339844-7.523437l-21.246094 19.875c-2.082031 1.949218-3.261718 4.671875-3.261718 7.523437v110.3125s0 3.769531 20.921874 3.769531c20.925782 0 20.925782-3.769531 20.925782-3.769531zm0 0" fill="#6163aa"/><g fill="#fd8f07"><path d="m139.507812 207.9375h-14.707031c-4.265625 0-7.726562-3.460938-7.726562-7.726562 0-4.269532 3.460937-7.726563 7.726562-7.726563h14.707031c4.269532 0 7.726563 3.460937 7.726563 7.726563 0 4.265624-3.457031 7.726562-7.726563 7.726562zm0 0"/><path d="m139.507812 136.503906h-14.707031c-4.265625 0-7.726562-3.460937-7.726562-7.726562s3.460937-7.726563 7.726562-7.726563h14.707031c4.269532 0 7.726563 3.460938 7.726563 7.726563s-3.457031 7.726562-7.726563 7.726562zm0 0"/><path d="m363.714844 318.675781h-16.027344c-4.269531 0-7.726562-3.457031-7.726562-7.726562 0-4.265625 3.457031-7.726563 7.726562-7.726563h16.027344c4.265625 0 7.722656 3.460938 7.722656 7.726563 0 4.269531-3.457031 7.726562-7.722656 7.726562zm0 0"/><path d="m381.660156 269.191406h-16.027344c-4.269531 0-7.726562-3.457031-7.726562-7.726562 0-4.265625 3.457031-7.726563 7.726562-7.726563h16.027344c4.265625 0 7.726563 3.460938 7.726563 7.726563 0 4.269531-3.460938 7.726562-7.726563 7.726562zm0 0"/></g><path d="m95.507812 378.480469h-.199218c-4.269532 0-7.726563-3.460938-7.726563-7.726563s3.457031-7.726562 7.726563-7.726562h.199218c4.269532 0 7.726563 3.460937 7.726563 7.726562s-3.457031 7.726563-7.726563 7.726563zm0 0" fill="#00c4ce"/><path d="m70.769531 385.6875h-.203125c-4.265625 0-7.722656-3.460938-7.722656-7.726562 0-4.265626 3.457031-7.726563 7.722656-7.726563h.203125c4.265625 0 7.726563 3.460937 7.726563 7.726563 0 4.265624-3.460938 7.726562-7.726563 7.726562zm0 0" fill="#00c4ce"/><path d="m448.902344 315.28125h-.203125c-4.265625 0-7.722657-3.460938-7.722657-7.726562 0-4.265626 3.457032-7.726563 7.722657-7.726563h.203125c4.269531 0 7.726562 3.460937 7.726562 7.726563 0 4.265624-3.457031 7.726562-7.726562 7.726562zm0 0" fill="#2de0c7"/><path d="m463.097656 334.558594h-.199218c-4.269532 0-7.726563-3.460938-7.726563-7.726563s3.457031-7.726562 7.726563-7.726562h.199218c4.269532 0 7.726563 3.460937 7.726563 7.726562s-3.457031 7.726563-7.726563 7.726563zm0 0" fill="#00c4ce"/><path d="m248.992188 404.304688c-.015626 0-.027344 0-.039063 0h-.203125c-4.265625-.023438-7.707031-3.5-7.6875-7.765626.023438-4.253906 3.476562-7.6875 7.726562-7.6875h.039063.199219c4.269531.019532 7.710937 3.496094 7.691406 7.765626-.023438 4.253906-3.480469 7.6875-7.726562 7.6875zm0 0" fill="#00c4ce"/><path d="m349.433594 144.625c0-12.445312-13.234375-22.535156-29.558594-22.535156s-29.554688 10.089844-29.554688 22.535156c0 12.441406 13.230469 22.53125 29.554688 22.53125s29.558594-10.089844 29.558594-22.53125zm0 0" fill="#fd8f07"/><path d="m349.4375 144.625c0 12.445312-13.238281 22.53125-29.566406 22.53125-16.316406 0-29.554688-10.085938-29.554688-22.53125 0-3.347656.957032-6.53125 2.6875-9.394531 4.667969 7.746093 14.949219 13.136719 26.867188 13.136719 11.929687 0 22.210937-5.390626 26.867187-13.136719 1.742188 2.863281 2.699219 6.046875 2.699219 9.394531zm0 0" fill="#fd7504"/></svg>