<svg height="512pt" viewBox="0 -2 512.001 512" width="512pt" xmlns="http://www.w3.org/2000/svg"><path d="m512 412.574219v72.917969c0 12.234374-9.921875 22.15625-22.171875 22.15625h-467.65625c-12.25 0-22.171875-9.921876-22.171875-22.15625v-72.917969zm0 0" fill="#fd7504"/><path d="m512 412.574219v49.3125c0 12.238281-9.921875 22.160156-22.171875 22.160156h-467.65625c-12.25 0-22.171875-9.921875-22.171875-22.160156v-49.3125zm0 0" fill="#ffc183"/><path d="m489.835938 444.367188h-467.671876c-12.238281 0-22.164062-9.921876-22.164062-22.164063v-117.242187c0-12.242188 9.925781-22.167969 22.164062-22.167969h467.671876c12.242187 0 22.164062 9.925781 22.164062 22.167969v117.242187c0 12.242187-9.925781 22.164063-22.164062 22.164063zm0 0" fill="#ffe5c0"/><path d="m103.730469 359.433594c-.972657 0-1.960938-.1875-2.917969-.574219-3.949219-1.617187-5.84375-6.125-4.230469-10.074219l67.019531-164.109375c1.613282-3.953125 6.121094-5.84375 10.074219-4.230469 3.949219 1.613282 5.84375 6.121094 4.230469 10.070313l-67.019531 164.109375c-1.222657 2.996094-4.109375 4.808594-7.15625 4.808594zm0 0" fill="#383c7c"/><path d="m408.269531 359.433594c-3.046875 0-5.933593-1.8125-7.15625-4.808594l-67.019531-164.109375c-1.613281-3.949219.28125-8.460937 4.230469-10.074219 3.953125-1.613281 8.460937.28125 10.074219 4.230469l67.019531 164.109375c1.613281 3.953125-.28125 8.460938-4.230469 10.074219-.957031.390625-1.949219.578125-2.917969.578125zm0 0" fill="#383c7c"/><path d="m380.054688 138.539062c0 68.515626-55.542969 124.054688-124.054688 124.054688s-124.054688-55.539062-124.054688-124.054688c0-68.511718 55.542969-124.050781 124.054688-124.050781s124.054688 55.539063 124.054688 124.050781zm0 0" fill="#898ec9"/><g fill="#6163aa"><path d="m170.753906 136.84375c-4.265625 0-7.726562-3.460938-7.726562-7.726562v-15.796876c0-4.269531 3.460937-7.726562 7.726562-7.726562 4.269532 0 7.726563 3.457031 7.726563 7.726562v15.796876c0 4.265624-3.457031 7.726562-7.726563 7.726562zm0 0"/><path d="m193.160156 141.003906c-4.269531 0-7.726562-3.457031-7.726562-7.726562v-15.792969c0-4.269531 3.457031-7.726563 7.726562-7.726563 4.265625 0 7.726563 3.457032 7.726563 7.726563v15.792969c0 4.269531-3.460938 7.726562-7.726563 7.726562zm0 0"/><path d="m380.054688 138.546875c0 68.503906-55.539063 124.042969-124.054688 124.042969-4.644531 0-9.21875-.257813-13.730469-.761719 62.046875-6.832031 110.308594-59.421875 110.308594-123.28125 0-63.871094-48.261719-116.464844-110.308594-123.292969 4.511719-.503906 9.085938-.761718 13.730469-.761718 68.515625 0 124.054688 55.535156 124.054688 124.054687zm0 0"/><path d="m256 416.179688c-4.269531 0-7.726562-3.460938-7.726562-7.726563v-167.144531c0-4.269532 3.460937-7.726563 7.726562-7.726563s7.726562 3.460938 7.726562 7.726563v167.144531c0 4.265625-3.457031 7.726563-7.726562 7.726563zm0 0"/></g><path d="m385.71875 131.578125v40c0 4.492187-2.914062 8.457031-7.191406 9.824219-6.230469 1.992187-12.773438 3.832031-19.609375 5.507812-29.871094 7.34375-65.136719 11.582032-102.917969 11.582032s-73.050781-4.238282-102.917969-11.582032c-6.835937-1.675781-13.378906-3.515625-19.609375-5.507812-4.28125-1.367188-7.191406-5.332032-7.191406-9.824219v-40c0-6.855469 6.582031-11.832031 13.160156-9.898437 4.386719 1.292968 8.914063 2.511718 13.578125 3.65625 29.878907 7.351562 65.171875 11.597656 102.980469 11.597656s73.101562-4.246094 102.980469-11.597656c4.664062-1.144532 9.191406-2.363282 13.578125-3.65625 6.578125-1.933594 13.160156 3.042968 13.160156 9.898437zm0 0" fill="#fd8f07"/><path d="m385.71875 131.582031v40c0 4.492188-2.914062 8.460938-7.191406 9.820313-6.078125 1.9375-12.441406 3.738281-19.097656 5.386718 1.328124-1.945312 2.082031-4.285156 2.082031-6.746093v-46.730469c0-3.058594-1.125-5.789062-2.925781-7.882812.132812-.027344.257812-.058594.390624-.089844 4.664063-1.144532 9.199219-2.371094 13.578126-3.660156 6.582031-1.933594 13.164062 3.039062 13.164062 9.902343zm0 0" fill="#fd7504"/><path d="m269.507812 41.207031h-27.015624v-27.699219c0-7.460937 6.046874-13.507812 13.507812-13.507812s13.507812 6.046875 13.507812 13.507812zm0 0" fill="#fd8f07"/><path d="m283.472656 48.933594h-54.945312c-4.265625 0-7.726563-3.460938-7.726563-7.726563s3.460938-7.726562 7.726563-7.726562h54.945312c4.265625 0 7.726563 3.460937 7.726563 7.726562s-3.460938 7.726563-7.726563 7.726563zm0 0" fill="#6163aa"/><path d="m341.300781 159.691406c-.023437 0-.050781 0-.074219 0h-.105468c-4.269532-.042968-7.695313-3.535156-7.65625-7.800781.042968-4.242187 3.492187-7.652344 7.726562-7.652344h.074219.105469c4.269531.039063 7.695312 3.53125 7.652344 7.796875-.039063 4.246094-3.492188 7.65625-7.722657 7.65625zm0 0" fill="#ff2e04"/><path d="m341.300781 178.050781c-.023437 0-.050781 0-.074219 0l-.105468-.003906c-4.269532-.039063-7.695313-3.53125-7.65625-7.796875.042968-4.242188 3.492187-7.65625 7.726562-7.65625h.074219l.105469.003906c4.269531.039063 7.695312 3.53125 7.652344 7.796875-.039063 4.242188-3.492188 7.65625-7.722657 7.65625zm0 0" fill="#c5ee09"/><path d="m100.78125 418.339844h-62.835938v-26.707032c0-5.6875 4.613282-10.300781 10.300782-10.300781h32.753906c4.433594 0 8.367188 2.835938 9.773438 7.039063zm0 0" fill="#fd8f07"/><path d="m130.464844 426.066406h-99.417969c-4.265625 0-7.726563-3.460937-7.726563-7.726562 0-4.269532 3.460938-7.726563 7.726563-7.726563h99.414063c4.269531 0 7.726562 3.457031 7.726562 7.726563 0 4.265625-3.457031 7.726562-7.722656 7.726562zm0 0" fill="#ffc183"/><path d="m388.238281 361.886719h62.835938v-26.703125c0-5.691406-4.613281-10.300782-10.300781-10.300782h-32.753907c-4.433593 0-8.367187 2.832032-9.773437 7.035157zm0 0" fill="#fd8f07"/><path d="m457.972656 369.613281h-99.414062c-4.269532 0-7.726563-3.457031-7.726563-7.726562 0-4.265625 3.457031-7.726563 7.726563-7.726563h99.414062c4.265625 0 7.726563 3.460938 7.726563 7.726563 0 4.269531-3.460938 7.726562-7.726563 7.726562zm0 0" fill="#ffc183"/><path d="m458.023438 396.792969h-.105469c-4.269531 0-7.726563-3.460938-7.726563-7.726563 0-4.269531 3.460938-7.726562 7.726563-7.726562h.105469c4.269531 0 7.726562 3.457031 7.726562 7.726562 0 4.265625-3.457031 7.726563-7.726562 7.726563zm0 0" fill="#ffc183"/><path d="m440.507812 407.5625h-.105468c-4.269532 0-7.726563-3.460938-7.726563-7.726562 0-4.265626 3.460938-7.726563 7.726563-7.726563h.105468c4.269532 0 7.726563 3.460937 7.726563 7.726563 0 4.265624-3.457031 7.726562-7.726563 7.726562zm0 0" fill="#ffc183"/><path d="m283.523438 353.957031h-.105469c-4.269531 0-7.726563-3.460937-7.726563-7.726562 0-4.269531 3.460938-7.726563 7.726563-7.726563h.105469c4.269531 0 7.726562 3.460938 7.726562 7.726563s-3.457031 7.726562-7.726562 7.726562zm0 0" fill="#fd8f07"/><path d="m62.433594 353.957031h-.109375c-4.265625 0-7.722657-3.460937-7.722657-7.726562 0-4.269531 3.457032-7.726563 7.722657-7.726563h.109375c4.265625 0 7.726562 3.460938 7.726562 7.726563s-3.460937 7.726562-7.726562 7.726562zm0 0" fill="#fd8f07"/><path d="m145.769531 330.546875h-.105469c-4.269531 0-7.726562-3.460937-7.726562-7.726563 0-4.269531 3.460938-7.726562 7.726562-7.726562h.105469c4.269531 0 7.726563 3.460938 7.726563 7.726562 0 4.269532-3.457032 7.726563-7.726563 7.726563zm0 0" fill="#ffc183"/></svg>