<svg height="512pt" viewBox="-19 0 512 512.00026" width="512pt" xmlns="http://www.w3.org/2000/svg"><path d="m282.46875 361.117188-74.191406-83.53125v-82.335938c0-4.265625-3.457032-7.726562-7.726563-7.726562-4.265625 0-7.722656 3.460937-7.722656 7.726562v82.335938l-74.191406 83.53125c-1.253907 1.414062-1.949219 3.238281-1.949219 5.132812v120.734375c0 4.269531 3.457031 7.726563 7.726562 7.726563 4.265626 0 7.726563-3.457032 7.726563-7.726563v-117.800781l60.683594-68.328125v186.128906c0 4.269531 3.460937 7.726563 7.726562 7.726563 4.269531 0 7.726563-3.457032 7.726563-7.726563v-186.128906l60.6875 68.328125v117.800781c0 4.269531 3.457031 7.726563 7.722656 7.726563 4.269531 0 7.726562-3.457032 7.726562-7.726563v-120.738281c.003907-1.890625-.691406-3.714844-1.945312-5.128906zm0 0" fill="#4e5093"/><g fill="#898ec9"><path d="m241.859375 292.15625h-82.617187c-6.425782 0-11.636719-5.210938-11.636719-11.636719s5.210937-11.632812 11.636719-11.632812h82.617187c6.425781 0 11.636719 5.207031 11.636719 11.632812s-5.207032 11.636719-11.636719 11.636719zm0 0"/><path d="m212.109375 512h-23.117187c-6.425782 0-11.636719-5.210938-11.636719-11.636719s5.210937-11.636719 11.636719-11.636719h23.117187c6.425781 0 11.636719 5.210938 11.636719 11.636719s-5.207032 11.636719-11.636719 11.636719zm0 0"/><path d="m135.972656 512h-23.117187c-6.425781 0-11.636719-5.210938-11.636719-11.636719s5.210938-11.636719 11.636719-11.636719h23.117187c6.425782 0 11.636719 5.210938 11.636719 11.636719s-5.210937 11.636719-11.636719 11.636719zm0 0"/><path d="m288.25 512h-23.117188c-6.425781 0-11.636718-5.210938-11.636718-11.636719s5.210937-11.636719 11.636718-11.636719h23.117188c6.425781 0 11.636719 5.210938 11.636719 11.636719-.003907 6.425781-5.210938 11.636719-11.636719 11.636719zm0 0"/></g><path d="m470.207031 37.507812c9.953125 25.300782 1.550781 52.289063-18.761719 60.277344-3.34375 1.316406-6.804687 2.03125-10.292968 2.191406-9.277344.46875-18.773438-2.960937-26.894532-9.371093-7.398437-5.824219-13.664062-14.101563-17.621093-24.164063-9.953125-25.308594-1.550781-52.296875 18.769531-60.292968 10.957031-4.308594 23.160156-2.203126 33.625 4.617187 8.355469 5.460937 15.617188 13.933594 20.273438 24.5625.316406.714844.613281 1.441406.902343 2.179687zm0 0" fill="#2de0c7"/><path d="m469.304688 35.328125-28.152344 64.648437c-9.277344.46875-18.773438-2.960937-26.894532-9.371093l34.773438-79.839844c8.359375 5.460937 15.621094 13.933594 20.273438 24.5625zm0 0" fill="#9bf2e5"/><path d="m155.179688 124.835938-115.839844 54.558593c-5.574219 2.625-8.152344 9.125-5.898438 14.855469l10.246094 26.050781c2.253906 5.730469 8.570312 8.730469 14.4375 6.855469l121.96875-38.972656zm0 0" fill="#5100cb"/><path d="m243.207031 77.144531-87.695312 34.492188c-5.171875 2.035156-7.714844 7.878906-5.683594 13.050781l26.453125 67.246094c2.03125 5.171875 7.875 7.71875 13.046875 5.683594l87.695313-34.492188zm0 0" fill="#7e18ea"/><path d="m438.644531 107.589844-151.804687 59.707031c-6.007813 2.363281-12.792969-.59375-15.15625-6.601563l-30.730469-78.128906c-2.363281-6.011718.59375-12.796875 6.601563-15.160156l151.800781-59.707031c6.011719-2.363281 12.796875.59375 15.160156 6.601562l30.730469 78.128907c2.363281 6.007812-.589844 12.796874-6.601563 15.160156zm0 0" fill="#b200bf"/><path d="m282.816406 93.105469c-3.085937 0-5.996094-1.859375-7.191406-4.902344-1.5625-3.972656.390625-8.457031 4.363281-10.015625l.113281-.046875c3.96875-1.558594 8.457032.394531 10.015626 4.367187 1.5625 3.972657-.394532 8.457032-4.363282 10.015626l-.113281.042968c-.929687.367188-1.882813.539063-2.824219.539063zm0 0" fill="#2de0c7"/><path d="m301.703125 85.675781c-3.085937 0-6-1.859375-7.195313-4.902343-1.558593-3.972657.394532-8.457032 4.367188-10.015626l.113281-.042968c3.96875-1.558594 8.457031.394531 10.015625 4.367187 1.558594 3.96875-.394531 8.453125-4.367187 10.015625l-.113281.042969c-.925782.363281-1.882813.535156-2.820313.535156zm0 0" fill="#2de0c7"/><path d="m40.882812 214.09375c-3.082031 0-5.996093-1.859375-7.191406-4.902344-1.5625-3.96875.390625-8.453125 4.363282-10.015625l25.566406-10.058593c3.96875-1.558594 8.457031.390624 10.019531 4.363281 1.5625 3.972656-.390625 8.457031-4.363281 10.019531l-25.566406 10.054688c-.929688.367187-1.886719.539062-2.828126.539062zm0 0" fill="#2500ad"/><path d="m206.605469 194.097656c-3.082031 0-5.992188-1.859375-7.191407-4.902344l-31.355468-79.722656c-1.5625-3.96875.390625-8.457031 4.363281-10.015625 3.964844-1.5625 8.453125.390625 10.015625 4.359375l31.355469 79.722656c1.5625 3.972657-.390625 8.457032-4.359375 10.019532-.929688.363281-1.886719.539062-2.828125.539062zm0 0" fill="#5100cb"/><path d="m55.574219 253.398438-11.605469 4.5625c-6.007812 2.363281-12.796875-.589844-15.160156-6.601563l-27.996094-71.171875c-2.359375-6.007812.59375-12.796875 6.601562-15.160156l11.605469-4.566406c6.011719-2.363282 12.796875.59375 15.160157 6.601562l27.996093 71.175781c2.363281 6.007813-.59375 12.796875-6.601562 15.160157zm0 0" fill="#b200bf"/><path d="m418.617188 133.636719-11.605469 4.566406c-6.007813 2.363281-12.796875-.59375-15.160157-6.601563l-43.679687-111.0625c-2.363281-6.007812.589844-12.796874 6.597656-15.160156l11.609375-4.566406c6.007813-2.359375 12.792969.59375 15.15625 6.601562l43.683594 111.0625c2.363281 6.011719-.59375 12.796876-6.601562 15.160157zm0 0" fill="#7e18ea"/><path d="m219.996094 197.617188c0 16.9375-13.730469 30.667968-30.667969 30.667968s-30.664063-13.730468-30.664063-30.667968 13.726563-30.664063 30.664063-30.664063 30.667969 13.726563 30.667969 30.664063zm0 0" fill="#898ec9"/><path d="m165.394531 248.84375c-3.082031 0-5.996093-1.855469-7.191406-4.898438-1.5625-3.972656.390625-8.457031 4.359375-10.019531l110.621094-43.507812c3.972656-1.5625 8.457031.390625 10.019531 4.363281 1.5625 3.96875-.390625 8.457031-4.363281 10.015625l-110.621094 43.511719c-.925781.363281-1.882812.535156-2.824219.535156zm0 0" fill="#b200bf"/></svg>