<svg height="512pt" viewBox="-7 0 512 512" width="512pt" xmlns="http://www.w3.org/2000/svg"><g fill="#fda736"><path d="m148.632812 263.226562c-4.152343 0-7.519531-3.367187-7.519531-7.519531v-10.621093c0-4.152344 3.367188-7.519532 7.519531-7.519532 4.152344 0 7.519532 3.367188 7.519532 7.519532v10.621093c0 4.152344-3.367188 7.519531-7.519532 7.519531zm0 0"/><path d="m173.835938 263.226562c-4.15625 0-7.519532-3.367187-7.519532-7.519531v-10.621093c0-4.152344 3.363282-7.519532 7.519532-7.519532 4.152343 0 7.515624 3.367188 7.515624 7.519532v10.621093c0 4.152344-3.367187 7.519531-7.515624 7.519531zm0 0"/><path d="m329.914062 263.226562c-4.152343 0-7.515624-3.367187-7.515624-7.519531v-10.621093c0-4.152344 3.363281-7.519532 7.515624-7.519532 4.15625 0 7.519532 3.367188 7.519532 7.519532v10.621093c0 4.152344-3.367188 7.519531-7.519532 7.519531zm0 0"/><path d="m355.117188 263.226562c-4.152344 0-7.519532-3.367187-7.519532-7.519531v-10.621093c0-4.152344 3.367188-7.519532 7.519532-7.519532 4.152343 0 7.519531 3.367188 7.519531 7.519532v10.621093c0 4.152344-3.367188 7.519531-7.519531 7.519531zm0 0"/></g><path d="m109.316406 227.691406h285.117188v19.144532h-285.117188zm0 0" fill="#4e5093"/><path d="m109.316406 425.398438h285.117188v19.140624h-285.117188zm0 0" fill="#4e5093"/><path d="m115.550781 28.515625v454.96875c0 5.535156-4.488281 10.023437-10.023437 10.023437h-95.503906c-5.53125 0-10.023438-4.488281-10.023438-10.023437v-454.96875c0-5.535156 4.492188-10.027344 10.023438-10.027344h95.503906c5.53125 0 10.023437 4.492188 10.023437 10.027344zm0 0" fill="#2de0c7"/><path d="m38.757812 18.488281h38.035157v475.023438h-38.035157zm0 0" fill="#00c4ce"/><path d="m38.753906 512c-4.152344 0-7.519531-3.367188-7.519531-7.519531v-496.960938c0-4.152343 3.367187-7.519531 7.519531-7.519531s7.519532 3.367188 7.519532 7.519531v496.960938c0 4.152343-3.367188 7.519531-7.519532 7.519531zm0 0" fill="#9bf2e5"/><path d="m76.796875 512c-4.15625 0-7.519531-3.367188-7.519531-7.519531v-496.960938c0-4.152343 3.363281-7.519531 7.519531-7.519531 4.152344 0 7.515625 3.367188 7.515625 7.519531v496.960938c0 4.152343-3.367188 7.519531-7.515625 7.519531zm0 0" fill="#9bf2e5"/><path d="m498.257812 28.515625v454.96875c0 5.535156-4.492187 10.023437-10.023437 10.023437h-95.503906c-5.53125 0-10.023438-4.488281-10.023438-10.023437v-454.96875c0-5.535156 4.492188-10.027344 10.023438-10.027344h95.503906c5.53125 0 10.023437 4.492188 10.023437 10.027344zm0 0" fill="#2de0c7"/><path d="m421.464844 18.488281h38.035156v475.023438h-38.035156zm0 0" fill="#00c4ce"/><path d="m421.464844 512c-4.15625 0-7.519532-3.367188-7.519532-7.519531v-496.960938c0-4.152343 3.363282-7.519531 7.519532-7.519531 4.152344 0 7.515625 3.367188 7.515625 7.519531v496.960938c0 4.152343-3.363281 7.519531-7.515625 7.519531zm0 0" fill="#9bf2e5"/><path d="m459.503906 512c-4.152344 0-7.519531-3.367188-7.519531-7.519531v-496.960938c0-4.152343 3.367187-7.519531 7.519531-7.519531s7.519532 3.367188 7.519532 7.519531v496.960938c0 4.152343-3.367188 7.519531-7.519532 7.519531zm0 0" fill="#9bf2e5"/><path d="m234.175781 417.023438c-4.152343 0-7.519531-3.367188-7.519531-7.519532v-23.421875c0-4.152343 3.367188-7.519531 7.519531-7.519531 4.152344 0 7.519531 3.367188 7.519531 7.519531v23.421875c0 4.152344-3.367187 7.519532-7.519531 7.519532zm0 0" fill="#4e5093"/><path d="m269.574219 417.023438c-4.152344 0-7.519531-3.367188-7.519531-7.519532v-23.421875c0-4.152343 3.367187-7.519531 7.519531-7.519531 4.152343 0 7.519531 3.367188 7.519531 7.519531v23.421875c0 4.152344-3.367188 7.519532-7.519531 7.519532zm0 0" fill="#4e5093"/><path d="m291.535156 102.851562v273.652344c0 5.28125-4.289062 9.574219-9.574218 9.574219h-60.171876c-5.292968 0-9.582031-4.292969-9.582031-9.574219v-273.652344c0-5.292968 4.289063-9.582031 9.582031-9.582031h60.171876c5.285156 0 9.574218 4.289063 9.574218 9.582031zm0 0" fill="#fda736"/><path d="m291.535156 102.851562v273.652344c0 5.28125-4.289062 9.574219-9.574218 9.574219h-13.683594c5.28125 0 9.574218-4.292969 9.574218-9.574219v-273.652344c0-5.292968-4.292968-9.582031-9.574218-9.582031h13.683594c5.285156 0 9.574218 4.289063 9.574218 9.582031zm0 0" fill="#fd7504"/><path d="m268.980469 461.9375h-34.210938c-4.519531 0-8.617187-2.652344-10.464843-6.777344l-12.65625-28.257812c-3.398438-7.585938 2.152343-16.152344 10.460937-16.152344h59.53125c8.308594 0 13.859375 8.566406 10.460937 16.152344l-12.65625 28.257812c-1.847656 4.125-5.945312 6.777344-10.464843 6.777344zm0 0" fill="#fda736"/><path d="m210.632812 123.652344h-20.035156c-4.152344 0-7.519531-3.367188-7.519531-7.519532 0-4.152343 3.367187-7.519531 7.519531-7.519531h20.035156c4.152344 0 7.519532 3.367188 7.519532 7.519531 0 4.152344-3.367188 7.519532-7.519532 7.519532zm0 0" fill="#4e5093"/><path d="m180.570312 165.316406h-16.09375c-5.535156 0-10.023437-4.488281-10.023437-10.023437v-65.640625c0-5.539063 4.488281-10.023438 10.023437-10.023438h16.09375c5.539063 0 10.027344 4.484375 10.027344 10.023438v65.640625c0 5.535156-4.488281 10.023437-10.027344 10.023437zm0 0" fill="#2de0c7"/><path d="m313.152344 123.652344h-20.035156c-4.152344 0-7.519532-3.367188-7.519532-7.519532 0-4.152343 3.367188-7.519531 7.519532-7.519531h20.035156c4.152344 0 7.519531 3.367188 7.519531 7.519531 0 4.152344-3.367187 7.519532-7.519531 7.519532zm0 0" fill="#4e5093"/><path d="m323.175781 165.316406h16.097657c5.535156 0 10.023437-4.488281 10.023437-10.023437v-65.640625c0-5.539063-4.488281-10.023438-10.023437-10.023438h-16.097657c-5.535156 0-10.023437 4.484375-10.023437 10.023438v65.640625c0 5.535156 4.488281 10.023437 10.023437 10.023437zm0 0" fill="#2de0c7"/><path d="m266.464844 352.742188c0 4.152343-3.371094 7.519531-7.519532 7.519531h-46.738281v-15.035157h46.738281c4.148438 0 7.519532 3.367188 7.519532 7.515626zm0 0" fill="#2de0c7"/><path d="m298.125 322.925781h-92.5c-5.535156 0-10.023438-4.488281-10.023438-10.027343v-9.585938c0-5.535156 4.488282-10.023438 10.023438-10.023438h92.5c5.535156 0 10.023438 4.488282 10.023438 10.023438v9.585938c0 5.539062-4.488282 10.027343-10.023438 10.027343zm0 0" fill="#898ec9"/><path d="m234.230469 274.402344h-.109375c-4.152344 0-7.519532-3.367188-7.519532-7.519532 0-4.152343 3.367188-7.519531 7.519532-7.519531h.109375c4.152343 0 7.515625 3.367188 7.515625 7.519531 0 4.152344-3.363282 7.519532-7.515625 7.519532zm0 0" fill="#4e5093"/><path d="m234.230469 256.617188c-.023438 0-.046875 0-.070313 0l-.105468-.003907c-4.152344-.035156-7.488282-3.433593-7.449219-7.585937.039062-4.152344 3.445312-7.46875 7.585937-7.449219h.109375c4.152344.039063 7.488281 3.433594 7.449219 7.585937-.039062 4.132813-3.398438 7.453126-7.519531 7.453126zm0 0" fill="#4e5093"/><path d="m234.121094 235.984375c-4.152344 0-7.519532-3.367187-7.519532-7.519531v-68.277344c0-4.15625 3.367188-7.519531 7.519532-7.519531s7.519531 3.363281 7.519531 7.519531v68.277344c0 4.152344-3.367187 7.519531-7.519531 7.519531zm0 0" fill="#2de0c7"/></svg>