<svg height="512pt" viewBox="0 -4 512.00108 512" width="512pt" xmlns="http://www.w3.org/2000/svg"><path d="m278.964844 326.089844c-4.203125 0-7.613282-3.410156-7.613282-7.613282v-38.28125c0-4.203124 3.40625-7.609374 7.613282-7.609374 4.203125 0 7.609375 3.40625 7.609375 7.609374v38.28125c0 4.203126-3.40625 7.613282-7.609375 7.613282zm0 0" fill="#fda736"/><path d="m299.699219 326.089844c-4.203125 0-7.609375-3.410156-7.609375-7.613282v-17.054687c0-4.203125 3.40625-7.613281 7.609375-7.613281 4.207031 0 7.613281 3.40625 7.613281 7.613281v17.054687c0 4.203126-3.40625 7.613282-7.613281 7.613282zm0 0" fill="#fd8f07"/><path d="m248.523438 223.535156v107.679688h-120.347657l18.042969-37.3125 41.167969-85.167969h46.328125c8.175781 0 14.808594 6.625 14.808594 14.800781zm0 0" fill="#4e5093"/><path d="m248.523438 293.902344v37.3125h-120.347657l18.042969-37.3125zm0 0" fill="#fda736"/><path d="m215.007812 8.617188c56.992188 56.996093 56.992188 149.398437 0 206.390624-56.992187 56.992188-149.398437 56.992188-206.390624 0zm0 0" fill="#fef5e3"/><path d="m215.011719 215.003906c-31.148438 31.144532-72.878907 45.273438-113.625 42.371094 33.773437-2.425781 66.867187-16.542969 92.699219-42.371094 53.460937-53.453125 56.769531-138.0625 9.933593-195.390625l10.992188-10.992187c56.992187 56.996094 56.992187 149.398437 0 206.382812zm0 0" fill="#ffe5c0"/><path d="m68.84375 68.84375c-4.445312 4.441406-8.707031 8.941406-12.78125 13.464844-48.109375 53.484375-69.324219 110.816406-47.445312 132.699218 18.824218 18.828126 63.890624 5.75 110.171874-28.90625 12.0625-9.03125 24.210938-19.53125 35.992188-31.316406 11.785156-11.785156 22.289062-23.933594 31.320312-35.996094 34.65625-46.28125 47.730469-91.34375 28.90625-110.171874-21.882812-21.878907-79.21875-.664063-132.699218 47.445312-4.523438 4.074219-9.023438 8.335938-13.464844 12.78125zm0 0" fill="#ffd4a1"/><path d="m.890625 199.917969c1.234375 6.03125 3.78125 11.136719 7.734375 15.089843 18.824219 18.824219 63.882812 5.75 110.160156-28.902343 12.066406-9.035157 24.214844-19.539063 36-31.324219s22.289063-23.933594 31.3125-35.988281c34.664063-46.289063 47.738282-91.347657 28.914063-110.175781-3.953125-3.949219-9.058594-6.496094-15.089844-7.730469 4.652344 22.710937-9.25 58.515625-36.636719 95.082031-9.03125 12.058594-19.539062 24.203125-31.324218 35.988281-11.785157 11.785157-23.929688 22.289063-36 31.324219-36.566407 27.386719-72.371094 41.289062-95.070313 36.636719zm0 0" fill="#ffc183"/><path d="m30.839844 40.570312 25.222656 41.738282 62.726562 103.792968c12.0625-9.03125 24.210938-19.535156 35.992188-31.320312 11.785156-11.785156 22.289062-23.933594 31.320312-35.992188l-103.792968-62.726562-41.738282-25.222656c-6.332031-3.824219-13.554687 3.398437-9.730468 9.730468zm0 0" fill="#fda736"/><path d="m109.121094 170.113281 9.664062 15.988281c12.070313-9.035156 24.214844-19.535156 36-31.3125 11.777344-11.789062 22.289063-23.941406 31.3125-36.003906l-15.996094-9.664062c-8.386718 10.878906-17.964843 21.796875-28.578124 32.402344-10.605469 10.617187-21.523438 20.195312-32.402344 28.589843zm0 0" fill="#fd8f07"/><path d="m30.332031 229.203125c-4.203125 0-7.609375-3.40625-7.609375-7.609375v-181.023438c0-4.203124 3.40625-7.609374 7.609375-7.609374s7.609375 3.40625 7.609375 7.609374v181.023438c0 4.203125-3.40625 7.609375-7.609375 7.609375zm0 0" fill="#fd8f07"/><path d="m221.15625 38.449219h-181.09375c-4.203125 0-7.609375-3.40625-7.609375-7.609375s3.40625-7.609375 7.609375-7.609375h181.09375c4.207031 0 7.613281 3.40625 7.613281 7.609375s-3.40625 7.609375-7.613281 7.609375zm0 0" fill="#fd8f07"/><path d="m23.683594 45.15625h12.183594c5.128906 0 9.289062-4.160156 9.289062-9.289062v-12.183594c0-5.128906-4.160156-9.289063-9.289062-9.289063h-12.183594c-5.128906 0-9.289063 4.15625-9.289063 9.289063v12.183594c0 5.128906 4.15625 9.289062 9.289063 9.289062zm0 0" fill="#fef5e3"/><path d="m330.066406 231.6875h24.929688v112.023438h-24.929688zm0 0" fill="#6163aa"/><path d="m389.191406 242.460938h-93.324218c-9.335938 0-16.902344-7.570313-16.902344-16.90625v-31.539063c0-9.335937 7.566406-16.902344 16.902344-16.902344h93.324218c9.335938 0 16.90625 7.566407 16.90625 16.902344v31.539063c0 9.335937-7.570312 16.90625-16.90625 16.90625zm0 0" fill="#fda736"/><path d="m406.097656 194.015625v31.542969c0 9.335937-7.570312 16.898437-16.90625 16.898437h-18.269531c9.339844 0 16.910156-7.5625 16.910156-16.898437v-31.542969c0-9.335937-7.570312-16.90625-16.910156-16.90625h18.269531c9.335938 0 16.90625 7.570313 16.90625 16.90625zm0 0" fill="#fd8f07"/><path d="m311.980469 217.398438h-.109375c-4.203125 0-7.609375-3.410157-7.609375-7.613282s3.40625-7.609375 7.609375-7.609375h.109375c4.207031 0 7.613281 3.40625 7.613281 7.609375s-3.40625 7.613282-7.613281 7.613282zm0 0" fill="#2de0c7"/><path d="m373.191406 217.398438h-.113281c-4.203125 0-7.613281-3.410157-7.613281-7.613282s3.410156-7.609375 7.613281-7.609375h.113281c4.203125 0 7.609375 3.40625 7.609375 7.609375s-3.40625 7.613282-7.609375 7.613282zm0 0" fill="#2de0c7"/><path d="m353.253906 273.769531h-21.445312c-4.203125 0-7.609375-3.410156-7.609375-7.613281s3.40625-7.609375 7.609375-7.609375h21.445312c4.203125 0 7.609375 3.40625 7.609375 7.609375 0 4.207031-3.40625 7.613281-7.609375 7.613281zm0 0" fill="#4e5093"/><path d="m353.253906 299.675781h-21.445312c-4.203125 0-7.609375-3.410156-7.609375-7.613281 0-4.207031 3.40625-7.613281 7.609375-7.613281h21.445312c4.203125 0 7.609375 3.410156 7.609375 7.613281s-3.40625 7.613281-7.609375 7.613281zm0 0" fill="#4e5093"/><path d="m480.246094 456.460938h-434.332032c-7.265624 0-12.441406-7.054688-10.28125-13.984376l4.382813-14.027343 3.804687-12.175781 28.175782-90.234376c1.398437-4.503906 5.570312-7.558593 10.28125-7.558593h361.605468c4.710938 0 8.878907 3.054687 10.28125 7.558593l28.171876 90.234376 3.808593 12.175781 4.382813 14.027343c2.160156 6.929688-3.015625 13.984376-10.28125 13.984376zm0 0" fill="#fef5e3"/><path d="m480.246094 456.460938h-434.332032c-7.265624 0-12.441406-7.054688-10.28125-13.984376l4.382813-14.027343 3.804687-12.175781h438.515626l3.804687 12.175781 4.386719 14.027343c2.160156 6.929688-3.015625 13.984376-10.28125 13.984376zm0 0" fill="#ffe5c0"/><path d="m480.246094 456.460938h-434.332032c-7.265624 0-12.441406-7.054688-10.28125-13.984376l4.382813-14.027343h446.125l4.382813 14.027343c2.164062 6.929688-3.011719 13.984376-10.277344 13.984376zm0 0" fill="#fd8f07"/><path d="m166.179688 461.597656c0 23.636719-19.160157 42.800782-42.796876 42.800782-23.636718 0-42.800781-19.164063-42.800781-42.800782 0-23.636718 19.164063-42.796875 42.800781-42.796875 23.636719 0 42.796876 19.160157 42.796876 42.796875zm0 0" fill="#383c7c"/><path d="m139.386719 461.597656c0 8.839844-7.164063 16.007813-16.003907 16.007813-8.839843 0-16.007812-7.167969-16.007812-16.007813s7.167969-16.003906 16.007812-16.003906c8.839844 0 16.003907 7.164062 16.003907 16.003906zm0 0" fill="#fd8f07"/><path d="m307.324219 461.597656c0 23.636719-19.160157 42.800782-42.796875 42.800782-23.636719 0-42.800782-19.164063-42.800782-42.800782 0-23.636718 19.164063-42.796875 42.800782-42.796875 23.636718 0 42.796875 19.160157 42.796875 42.796875zm0 0" fill="#383c7c"/><path d="m280.53125 461.597656c0 8.839844-7.164062 16.007813-16.003906 16.007813s-16.007813-7.167969-16.007813-16.007813 7.167969-16.003906 16.007813-16.003906 16.003906 7.164062 16.003906 16.003906zm0 0" fill="#fd8f07"/><path d="m448.46875 461.597656c0 23.636719-19.160156 42.800782-42.796875 42.800782-23.640625 0-42.800781-19.164063-42.800781-42.800782 0-23.636718 19.160156-42.796875 42.800781-42.796875 23.636719 0 42.796875 19.160157 42.796875 42.796875zm0 0" fill="#383c7c"/><g fill="#fd8f07"><path d="m421.675781 461.597656c0 8.839844-7.164062 16.007813-16.003906 16.007813s-16.007813-7.167969-16.007813-16.007813 7.167969-16.003906 16.007813-16.003906 16.003906 7.164062 16.003906 16.003906zm0 0"/><path d="m123.441406 403.445312c-.023437 0-.046875 0-.070312 0h-.109375c-4.203125-.039062-7.582031-3.476562-7.542969-7.679687.035156-4.179687 3.4375-7.542969 7.609375-7.542969h.066406.113281c4.203126.039063 7.582032 3.476563 7.542969 7.679688-.039062 4.179687-3.441406 7.542968-7.609375 7.542968zm0 0"/><path d="m264.582031 403.445312c-.023437 0-.046875 0-.066406 0h-.113281c-4.203125-.039062-7.582032-3.476562-7.542969-7.679687.039063-4.179687 3.4375-7.542969 7.613281-7.542969h.066406.113282c4.203125.039063 7.578125 3.476563 7.542968 7.679688-.039062 4.179687-3.441406 7.542968-7.613281 7.542968zm0 0"/><path d="m405.726562 403.445312c-.023437 0-.046874 0-.066406 0h-.113281c-4.203125-.039062-7.582031-3.476562-7.542969-7.679687.039063-4.179687 3.4375-7.542969 7.609375-7.542969h.070313.109375c4.203125.039063 7.582031 3.476563 7.546875 7.679688-.039063 4.179687-3.441406 7.542968-7.613282 7.542968zm0 0"/></g><path d="m465.46875 287.808594c-4.203125 0-7.609375-3.410156-7.609375-7.613282v-32.589843c0-4.203125 3.40625-7.613281 7.609375-7.613281h38.921875c4.203125 0 7.609375 3.410156 7.609375 7.613281s-3.40625 7.613281-7.609375 7.613281h-31.308594v24.976562c0 4.203126-3.40625 7.613282-7.613281 7.613282zm0 0" fill="#4e5093"/><path d="m421.089844 365.398438c-4.203125 0-7.613282-3.40625-7.613282-7.613282v-77.589844c0-4.207031 3.40625-7.613281 7.613282-7.613281h72.527344c4.203124 0 7.613281 3.40625 7.613281 7.613281 0 4.203126-3.410157 7.609376-7.613281 7.609376h-64.917969v69.980468c0 4.207032-3.40625 7.613282-7.609375 7.613282zm0 0" fill="#6163aa"/><path d="m437.738281 280.195312c0 9.195313-7.453125 16.648438-16.648437 16.648438-9.195313 0-16.648438-7.453125-16.648438-16.648438 0-9.195312 7.453125-16.648437 16.648438-16.648437 9.195312 0 16.648437 7.453125 16.648437 16.648437zm0 0" fill="#fef5e3"/><path d="m474.074219 374.179688h-73.042969c-8.414062 0-15.234375-6.820313-15.234375-15.234376 0-8.414062 6.820313-15.234374 15.234375-15.234374h73.042969c8.414062 0 15.234375 6.820312 15.234375 15.234374 0 8.414063-6.820313 15.234376-15.234375 15.234376zm0 0" fill="#fda736"/><path d="m165.679688 369.5625h-43.273438c-5.601562 0-10.148438-4.542969-10.148438-10.148438v-5.554687c0-5.605469 4.546876-10.148437 10.148438-10.148437h43.273438c5.605468 0 10.148437 4.542968 10.148437 10.148437v5.554687c0 5.605469-4.542969 10.148438-10.148437 10.148438zm0 0" fill="#2de0c7"/><path d="m244.765625 353.476562h-44.355469c-4.203125 0-7.609375-3.40625-7.609375-7.613281 0-4.203125 3.410157-7.609375 7.609375-7.609375h44.355469c4.203125 0 7.613281 3.40625 7.613281 7.609375 0 4.207031-3.410156 7.613281-7.613281 7.613281zm0 0" fill="#4e5093"/><path d="m218.914062 372.863281h-18.5c-4.203124 0-7.613281-3.40625-7.613281-7.609375 0-4.207031 3.410157-7.613281 7.613281-7.613281h18.5c4.203126 0 7.613282 3.410156 7.613282 7.613281s-3.410156 7.609375-7.613282 7.609375zm0 0" fill="#4e5093"/></svg>