<svg height="512pt" viewBox="-1 0 511 512" width="512pt" xmlns="http://www.w3.org/2000/svg"><path d="m487.621094 263.042969h-464.835938c0-112.996094 80.644532-207.160157 187.515625-228.074219 8.175781-1.605469 16.507813-2.78125 24.964844-3.5 6.570313-.5625 13.21875-.839844 19.9375-.839844 15.363281 0 30.378906 1.488282 44.902344 4.339844 2.871093.558594 5.730469 1.175781 8.554687 1.835938 102.589844 24.144531 178.960938 116.28125 178.960938 226.238281zm0 0" fill="#a7acd3"/><path d="m105.113281 260.457031c-4.265625 0-7.726562-3.460937-7.726562-7.726562v-21.527344c0-4.269531 3.460937-7.726563 7.726562-7.726563 4.269531 0 7.726563 3.457032 7.726563 7.726563v21.527344c0 4.265625-3.457032 7.726562-7.726563 7.726562zm0 0" fill="#383c7c"/><path d="m80.035156 260.457031c-4.269531 0-7.726562-3.460937-7.726562-7.726562v-14.800781c0-4.269532 3.460937-7.726563 7.726562-7.726563 4.269532 0 7.726563 3.460937 7.726563 7.726563v14.800781c0 4.265625-3.457031 7.726562-7.726563 7.726562zm0 0" fill="#383c7c"/><path d="m405.292969 260.457031c-4.269531 0-7.726563-3.460937-7.726563-7.726562v-21.527344c0-4.269531 3.457032-7.726563 7.726563-7.726563 4.265625 0 7.726562 3.457032 7.726562 7.726563v21.527344c0 4.265625-3.460937 7.726562-7.726562 7.726562zm0 0" fill="#383c7c"/><path d="m428.3125 260.457031c-4.269531 0-7.726562-3.460937-7.726562-7.726562v-14.800781c0-4.269532 3.457031-7.726563 7.726562-7.726563 4.265625 0 7.722656 3.460937 7.722656 7.726563v14.800781c0 4.265625-3.457031 7.726562-7.722656 7.726562zm0 0" fill="#383c7c"/><path d="m487.621094 263.042969h-42.515625c0-109.957031-76.367188-202.09375-178.957031-226.238281-10.472657-2.464844-21.21875-4.226563-32.195313-5.214844.4375-.042969.875-.089844 1.3125-.121094 6.570313-.5625 13.21875-.839844 19.9375-.839844 18.402344 0 36.300781 2.140625 53.457031 6.175782 102.589844 24.144531 178.960938 116.28125 178.960938 226.238281zm0 0" fill="#898ec9"/><path d="m300.105469 34.964844v222.414062h-89.804688v-222.414062c8.175781-1.601563 16.507813-2.78125 24.960938-3.496094 6.574219-.5625 13.222656-.84375 19.941406-.84375 15.363281 0 30.378906 1.492188 44.902344 4.339844zm0 0" fill="#7e18ea"/><path d="m22.804688 274.378906h464.796874v201.285156h-464.796874zm0 0" fill="#d82fea"/><path d="m455.191406 274.378906h32.414063v201.285156h-32.414063zm0 0" fill="#b200bf"/><path d="m22.804688 274.378906h464.796874v45.5625h-464.796874zm0 0" fill="#898ec9"/><path d="m455.191406 274.378906h32.410156v45.5625h-32.410156zm0 0" fill="#6163aa"/><path d="m22.804688 445.625h464.796874v30.039062h-464.796874zm0 0" fill="#b200bf"/><path d="m498.691406 512h-486.976562c-6.195313 0-11.214844-5.019531-11.214844-11.214844v-31.585937c0-6.195313 5.019531-11.214844 11.214844-11.214844h486.976562c6.195313 0 11.214844 5.019531 11.214844 11.214844v31.585937c0 6.195313-5.019531 11.214844-11.214844 11.214844zm0 0" fill="#a7acd3"/><path d="m297.710938 512h-85.019532v-130.894531c0-6.195313 5.023438-11.214844 11.214844-11.214844h62.589844c6.195312 0 11.214844 5.023437 11.214844 11.214844zm0 0" fill="#898ec9"/><path d="m297.710938 408.855469h-85.019532v-27.75c0-6.195313 5.023438-11.214844 11.214844-11.214844h62.589844c6.195312 0 11.214844 5.019531 11.214844 11.214844zm0 0" fill="#383c7c"/><path d="m310.128906 416.578125h-109.851562c-4.265625 0-7.726563-3.457031-7.726563-7.722656 0-4.269531 3.460938-7.726563 7.726563-7.726563h109.851562c4.265625 0 7.722656 3.457032 7.722656 7.726563 0 4.265625-3.457031 7.722656-7.722656 7.722656zm0 0" fill="#c5ee09"/><path d="m338.53125 435.429688h-.117188c-4.269531 0-7.726562-3.457032-7.726562-7.726563 0-4.265625 3.460938-7.722656 7.726562-7.722656h.117188c4.269531 0 7.726562 3.457031 7.726562 7.722656 0 4.269531-3.457031 7.726563-7.726562 7.726563zm0 0" fill="#383c7c"/><path d="m171.992188 435.429688h-.117188c-4.269531 0-7.726562-3.457032-7.726562-7.726563 0-4.265625 3.460937-7.722656 7.726562-7.722656h.117188c4.269531 0 7.726562 3.457031 7.726562 7.722656 0 4.269531-3.460938 7.726563-7.726562 7.726563zm0 0" fill="#383c7c"/><path d="m80.035156 457.984375h-57.234375v-38.128906h46.933594c5.6875 0 10.300781 4.609375 10.300781 10.300781zm0 0" fill="#383c7c"/><path d="m487.605469 457.984375h-57.234375v-27.828125c0-5.691406 4.613281-10.300781 10.300781-10.300781h46.933594zm0 0" fill="#383c7c"/><path d="m317.910156 254.570312h-43.652344v-243.355468c0-6.195313 5.019532-11.214844 11.214844-11.214844h21.222656c6.195313 0 11.214844 5.019531 11.214844 11.214844zm0 0" fill="#d82fea"/><path d="m230.628906 170.761719 147-43.191407-11.394531-38.777343-135.605469 39.84375zm0 0" fill="#6163aa"/><path d="m483.542969 108.699219-106.824219 31.386719c-5.941406 1.746093-12.175781-1.65625-13.921875-7.597657l-11.695313-39.808593c-1.746093-5.941407 1.65625-12.175782 7.597657-13.921876l106.824219-31.386718zm0 0" fill="#c5ee09"/><path d="m483.542969 108.703125-106.820313 31.382813c-5.945312 1.75-12.175781-1.648438-13.925781-7.59375l-.425781-1.433594c1.617187.269531 3.328125.1875 5.019531-.308594l112.855469-33.253906zm0 0" fill="#84e507"/><path d="m396.660156 139.617188c-3.339844 0-6.421875-2.179688-7.410156-5.546876l-16.753906-57.027343c-1.203125-4.09375 1.140625-8.386719 5.234375-9.59375 4.101562-1.203125 8.386719 1.144531 9.589843 5.238281l16.757813 57.023438c1.199219 4.097656-1.144531 8.390624-5.234375 9.59375-.730469.210937-1.464844.3125-2.183594.3125zm0 0" fill="#edff85"/><path d="m489.203125 73.714844c-4.976563-16.933594-15.585937-28.730469-23.699219-26.347656-8.113281 2.386718-10.65625 18.046874-5.683594 34.980468 4.976563 16.933594 15.589844 28.730469 23.703126 26.347656 8.113281-2.382812 10.65625-18.046874 5.679687-34.980468zm0 0" fill="#383c7c"/><path d="m236.148438 254.570312h-43.652344v-243.355468c0-6.195313 5.023437-11.214844 11.214844-11.214844h21.222656c6.195312 0 11.214844 5.019531 11.214844 11.214844zm0 0" fill="#d82fea"/><path d="m293.707031 257.378906h-77.007812v-26.394531c0-5.519531 4.480469-10 10-10h57.007812c5.523438 0 10 4.480469 10 10zm0 0" fill="#a7acd3"/><g fill="#c5ee09"><path d="m455.191406 401.414062h-24.820312c-4.269532 0-7.726563-3.460937-7.726563-7.726562s3.460938-7.726562 7.726563-7.726562h24.820312c4.269532 0 7.726563 3.460937 7.726563 7.726562s-3.457031 7.726562-7.726563 7.726562zm0 0"/><path d="m455.191406 378.1875h-24.820312c-4.269532 0-7.726563-3.460938-7.726563-7.726562 0-4.269532 3.460938-7.726563 7.726563-7.726563h24.820312c4.269532 0 7.726563 3.457031 7.726563 7.726563 0 4.265624-3.457031 7.726562-7.726563 7.726562zm0 0"/><path d="m80.035156 401.414062h-24.820312c-4.269532 0-7.726563-3.460937-7.726563-7.726562s3.457031-7.726562 7.726563-7.726562h24.820312c4.269532 0 7.726563 3.460937 7.726563 7.726562s-3.457031 7.726562-7.726563 7.726562zm0 0"/><path d="m80.035156 378.1875h-24.820312c-4.269532 0-7.726563-3.460938-7.726563-7.726562 0-4.269532 3.457031-7.726563 7.726563-7.726563h24.820312c4.269532 0 7.726563 3.457031 7.726563 7.726563 0 4.265624-3.457031 7.726562-7.726563 7.726562zm0 0"/><path d="m498.691406 284.867188h-486.976562c-6.195313 0-11.214844-5.019532-11.214844-11.214844v-7.867188c0-6.195312 5.019531-11.214844 11.214844-11.214844h486.976562c6.195313 0 11.214844 5.019532 11.214844 11.214844v7.867188c0 6.195312-5.019531 11.214844-11.214844 11.214844zm0 0"/></g></svg>