<svg height="512pt" viewBox="-74 0 511 512" width="512pt" xmlns="http://www.w3.org/2000/svg"><path d="m316.660156 136.117188h-269.9375v-88.890626c0-26.082031 21.144532-47.226562 47.226563-47.226562h175.480469c26.085937 0 47.226562 21.144531 47.226562 47.226562v88.890626zm0 0" fill="#6163aa"/><path d="m316.65625 47.222656v88.894532h-19.851562v-88.894532c0-26.082031-21.152344-47.222656-47.234376-47.222656h19.863282c26.082031 0 47.222656 21.140625 47.222656 47.222656zm0 0" fill="#4e5093"/><path d="m212.382812 110.296875h-32.910156v-70.117187c0-5.6875 4.613282-10.300782 10.300782-10.300782h12.308593c5.691407 0 10.300781 4.613282 10.300781 10.300782zm0 0" fill="#c5ee09"/><path d="m267.832031 110.296875h-32.910156v-70.117187c0-5.6875 4.609375-10.300782 10.300781-10.300782h12.308594c5.6875 0 10.300781 4.613282 10.300781 10.300782zm0 0" fill="#c5ee09"/><path d="m21.496094 152.660156h320.390625v278.136719h-320.390625zm0 0" fill="#ffe5c0"/><path d="m352.335938 174.691406h-341.289063c-5.824219 0-10.546875-4.722656-10.546875-10.546875v-45.503906c0-11.648437 9.441406-21.09375 21.089844-21.09375h320.199218c11.648438 0 21.09375 9.445313 21.09375 21.09375v45.503906c0 5.824219-4.722656 10.546875-10.546874 10.546875zm0 0" fill="#fef5e3"/><path d="m362.878906 118.636719v45.511719c0 5.820312-4.71875 10.539062-10.539062 10.539062h-16.976563c5.820313 0 10.539063-4.71875 10.539063-10.539062v-45.511719c0-11.640625-9.4375-21.089844-21.089844-21.089844h16.976562c11.652344 0 21.089844 9.449219 21.089844 21.089844zm0 0" fill="#ffe5c0"/><path d="m350.949219 433.582031v78.417969h-338.515625v-78.417969c0-50.230469 40.710937-90.941406 90.941406-90.941406h156.628906c43.136719 0 79.253906 30.015625 88.597656 70.320313 1.535157 6.621093 2.347657 13.523437 2.347657 20.621093zm0 0" fill="#a7acd3"/><path d="m350.949219 433.582031v40.96875c-18.160157-6.671875-31.109375-24.128906-31.109375-44.605469v-6.445312c0-5.824219 4.722656-10.546875 10.546875-10.546875h18.210937c1.539063 6.625 2.351563 13.53125 2.351563 20.628906zm0 0" fill="#c5ee09"/><path d="m281.949219 345.304688v166.695312h-200.515625v-166.695312c7.027344-1.738282 14.371094-2.667969 21.945312-2.667969h156.628906c7.570313 0 14.914063.929687 21.941407 2.667969zm0 0" fill="#6163aa"/><path d="m319.839844 220.90625c0 76.300781-61.851563 138.152344-138.148438 138.152344s-138.148437-61.851563-138.148437-138.152344c0-76.296875 61.851562-138.148438 138.148437-138.148438s138.148438 61.851563 138.148438 138.148438zm0 0" fill="#a7acd3"/><path d="m319.839844 220.910156c0 76.300782-61.851563 138.148438-138.148438 138.148438-3.355468 0-6.664062-.113282-9.957031-.359375 71.648437-5.101563 128.183594-64.84375 128.183594-137.789063 0-72.941406-56.535157-132.683594-128.183594-137.789062 3.292969-.242188 6.605469-.359375 9.957031-.359375 76.296875 0 138.148438 61.851562 138.148438 138.148437zm0 0" fill="#898ec9"/><path d="m284.285156 218.800781c0 25.351563-9.199218 48.550781-24.453125 66.457031-6.101562 7.167969-13.167969 13.496094-21.007812 18.757813-16.328125 10.984375-35.980469 17.371094-57.132813 17.371094-21.148437 0-40.804687-6.386719-57.132812-17.371094-7.839844-5.261719-14.90625-11.589844-21.003906-18.757813-15.257813-17.90625-24.457032-41.105468-24.457032-66.457031 0-56.660156 45.933594-74.378906 102.59375-74.378906s102.59375 17.71875 102.59375 74.378906zm0 0" fill="#2de0c7"/><g fill="#00c4ce"><path d="m217.371094 193.953125c-.617188 0-1.238282-.074219-1.863282-.230469-7.480468-1.851562-21.621093-10.519531-21.621093-30.0625 0-4.265625 3.457031-7.722656 7.722656-7.722656 4.269531 0 7.726563 3.457031 7.726563 7.722656 0 12.472656 9.480468 14.964844 9.886718 15.0625 4.140625 1.027344 6.667969 5.214844 5.640625 9.359375-.871093 3.515625-4.023437 5.871094-7.492187 5.871094zm0 0"/><path d="m147.875 193.722656-3.714844-15-.101562.027344c1.667968-.464844 9.984375-3.382812 9.984375-15.089844 0-4.269531 3.460937-7.726562 7.726562-7.726562s7.726563 3.460937 7.726563 7.726562c0 19.542969-14.140625 28.210938-21.621094 30.0625zm0 0"/><path d="m261.175781 253.703125c-1.078125 0-2.175781-.226563-3.21875-.703125-10.160156-4.664062-14.671875-13.574219-15.152343-14.578125-1.847657-3.847656-.226563-8.460937 3.621093-10.308594 3.824219-1.835937 8.410157-.242187 10.277344 3.554688.117187.222656 2.640625 4.964843 7.695313 7.285156 3.878906 1.78125 5.582031 6.363281 3.804687 10.242187-1.300781 2.835938-4.101563 4.507813-7.027344 4.507813zm0 0"/><path d="m102.207031 253.703125c-2.925781 0-5.726562-1.671875-7.027343-4.507813-1.777344-3.878906-.074219-8.464843 3.800781-10.242187 5.15625-2.363281 7.644531-7.171875 7.667969-7.21875 1.847656-3.847656 6.460937-5.46875 10.308593-3.621094 3.847657 1.847657 5.46875 6.460938 3.621094 10.308594-.480469 1.003906-4.992187 9.914063-15.152344 14.578125-1.046875.476562-2.140625.703125-3.21875.703125zm0 0"/><path d="m244.160156 209.617188c-1.976562 0-3.953125-.753907-5.460937-2.261719-3.019531-3.019531-3.019531-7.910157 0-10.929688l10.210937-10.210937c3.015625-3.015625 7.90625-3.015625 10.925782 0 3.019531 3.019531 3.019531 7.910156 0 10.929687l-10.210938 10.210938c-1.507812 1.507812-3.484375 2.261719-5.464844 2.261719zm0 0"/><path d="m119.222656 209.617188c-1.980468 0-3.957031-.753907-5.464844-2.261719l-10.210937-10.210938c-3.019531-3.019531-3.019531-7.910156 0-10.929687 3.015625-3.015625 7.910156-3.015625 10.925781 0l10.210938 10.210937c3.019531 3.019531 3.019531 7.910157 0 10.929688-1.507813 1.507812-3.484375 2.261719-5.460938 2.261719zm0 0"/><path d="m261.789062 220.34375v47.277344c0 5.972656-.660156 11.886718-1.957031 17.636718-6.101562 7.167969-13.167969 13.496094-21.007812 18.757813-16.328125 10.984375-35.980469 17.371094-57.132813 17.371094-21.148437 0-40.804687-6.386719-57.132812-17.371094-7.839844-5.261719-14.90625-11.589844-21.003906-18.757813-1.300782-5.75-1.957032-11.664062-1.957032-17.636718v-47.277344c0-25.628906 20.847656-46.480469 46.480469-46.480469h67.230469c25.628906 0 46.480468 20.851563 46.480468 46.480469zm0 0"/></g><path d="m215.304688 186.222656c18.847656 0 34.125 15.277344 34.125 34.125v47.273438c0 13.394531-3.894532 25.878906-10.605469 36.394531-16.328125 10.980469-35.980469 17.375-57.132813 17.375s-40.804687-6.394531-57.132812-17.375c-6.710938-10.515625-10.605469-23-10.605469-36.394531v-47.273438c0-18.847656 15.277344-34.125 34.125-34.125zm0 0" fill="#ffd4a1"/><path d="m249.429688 220.351562v47.265626c0 13.398437-3.894532 25.878906-10.605469 36.394531-4.460938 3.003906-9.179688 5.660156-14.097657 7.933593 6.773438-11.5 10.644532-24.886718 10.644532-39.179687v-53.988281c0-13.546875-6.910156-25.476563-17.398438-32.460938 17.59375 1.363282 31.457032 16.078125 31.457032 34.035156zm0 0" fill="#ffc183"/><path d="m185.796875 279.488281h-13.597656c-4.265625 0-7.726563-3.460937-7.726563-7.726562v-41.246094c0-4.265625 3.460938-7.726563 7.726563-7.726563 4.269531 0 7.726562 3.460938 7.726562 7.726563v33.519531h5.871094c4.265625 0 7.722656 3.457032 7.722656 7.726563 0 4.265625-3.457031 7.726562-7.722656 7.726562zm0 0" fill="#fd7504"/><path d="m147.867188 240.636719c-.027344 0-.058594 0-.085938 0-4.269531-.046875-7.734375-3.546875-7.6875-7.8125.046875-4.238281 3.453125-7.644531 7.679688-7.644531h.085937l.089844.003906c4.269531.046875 7.691406 3.542968 7.640625 7.808594-.042969 4.238281-3.496094 7.644531-7.722656 7.644531zm0 0" fill="#00a6cc"/><path d="m215.609375 240.636719c-.03125 0-.058594 0-.085937 0-4.269532-.046875-7.734376-3.546875-7.6875-7.8125.046874-4.238281 3.453124-7.644531 7.679687-7.644531h.085937l.089844.003906c4.269532.046875 7.691406 3.542968 7.640625 7.808594-.046875 4.238281-3.496093 7.644531-7.722656 7.644531zm0 0" fill="#00a6cc"/><path d="m223.496094 220.039062h-17.101563c-4.269531 0-7.726562-3.460937-7.726562-7.726562s3.457031-7.726562 7.726562-7.726562h17.101563c4.269531 0 7.726562 3.460937 7.726562 7.726562s-3.457031 7.726562-7.726562 7.726562zm0 0" fill="#fd7504"/><path d="m156.988281 220.039062h-17.105469c-4.265624 0-7.726562-3.460937-7.726562-7.726562s3.460938-7.726562 7.726562-7.726562h17.105469c4.269531 0 7.726563 3.460937 7.726563 7.726562s-3.457032 7.726562-7.726563 7.726562zm0 0" fill="#fd7504"/><path d="m182.574219 303.792969c-6.1875 0-11.671875-1.082031-15.570313-2.449219-4.027344-1.410156-6.148437-5.820312-4.734375-9.847656 1.40625-4.015625 5.792969-6.136719 9.8125-4.746094 1.03125.347656 23.5625 7.640625 37.023438-12.378906 2.378906-3.542969 7.179687-4.484375 10.722656-2.105469 3.539063 2.382813 4.480469 7.183594 2.101563 10.722656-10.894532 16.203125-26.609376 20.804688-39.355469 20.804688zm0 0" fill="#ff5c3c"/><path d="m273.640625 363.328125h-183.898437c-9.855469 0-17.84375-7.988281-17.84375-17.84375v-11.167969c0-9.855468 7.988281-17.84375 17.84375-17.84375h183.894531c9.855469 0 17.84375 7.988282 17.84375 17.84375v11.167969c.003906 9.855469-7.988281 17.84375-17.839844 17.84375zm0 0" fill="#c5ee09"/><path d="m102.027344 369.296875c-4.265625 0-7.722656-3.460937-7.722656-7.726563v-43.339843c0-4.269531 3.457031-7.726563 7.722656-7.726563 4.269531 0 7.726562 3.457032 7.726562 7.726563v43.339843c0 4.265626-3.457031 7.726563-7.726562 7.726563zm0 0" fill="#84e507"/><path d="m133.894531 369.296875c-4.265625 0-7.726562-3.460937-7.726562-7.726563v-43.339843c0-4.269531 3.460937-7.726563 7.726562-7.726563s7.726563 3.457032 7.726563 7.726563v43.339843c0 4.265626-3.460938 7.726563-7.726563 7.726563zm0 0" fill="#84e507"/><path d="m165.757812 369.296875c-4.265624 0-7.726562-3.460937-7.726562-7.726563v-43.339843c0-4.269531 3.460938-7.726563 7.726562-7.726563 4.265626 0 7.726563 3.457032 7.726563 7.726563v43.339843c0 4.265626-3.457031 7.726563-7.726563 7.726563zm0 0" fill="#84e507"/><path d="m197.625 369.296875c-4.269531 0-7.726562-3.460937-7.726562-7.726563v-43.339843c0-4.269531 3.457031-7.726563 7.726562-7.726563 4.265625 0 7.726562 3.457032 7.726562 7.726563v43.339843c0 4.265626-3.460937 7.726563-7.726562 7.726563zm0 0" fill="#84e507"/><path d="m229.488281 369.296875c-4.265625 0-7.726562-3.460937-7.726562-7.726563v-43.339843c0-4.269531 3.460937-7.726563 7.726562-7.726563s7.726563 3.457032 7.726563 7.726563v43.339843c0 4.265626-3.460938 7.726563-7.726563 7.726563zm0 0" fill="#84e507"/><path d="m261.351562 369.296875c-4.265624 0-7.722656-3.460937-7.722656-7.726563v-43.339843c0-4.269531 3.457032-7.726563 7.722656-7.726563 4.269532 0 7.726563 3.457032 7.726563 7.726563v43.339843c0 4.265626-3.457031 7.726563-7.726563 7.726563zm0 0" fill="#84e507"/><path d="m246.8125 420.992188h-23.882812c-5.824219 0-10.546876-4.722657-10.546876-10.546876v-5.421874c0-5.824219 4.722657-10.546876 10.546876-10.546876h23.882812c5.824219 0 10.542969 4.722657 10.542969 10.546876v5.421874c0 5.824219-4.71875 10.546876-10.542969 10.546876zm0 0" fill="#ff5c3c"/><path d="m257.414062 450.332031c-.027343 0-.050781 0-.074218 0h-.109375c-4.265625-.039062-7.695313-3.53125-7.652344-7.800781.039063-4.242188 3.488281-7.652344 7.722656-7.652344h.074219.109375c4.265625.039063 7.691406 3.53125 7.652344 7.796875-.039063 4.246094-3.492188 7.65625-7.722657 7.65625zm0 0" fill="#c5ee09"/><path d="m257.414062 467.726562c-.027343 0-.050781 0-.074218 0h-.109375c-4.265625-.039062-7.695313-3.53125-7.652344-7.796874.039063-4.242188 3.488281-7.65625 7.722656-7.65625h.074219.109375c4.265625.039062 7.691406 3.53125 7.652344 7.800781-.039063 4.242187-3.492188 7.652343-7.722657 7.652343zm0 0" fill="#c5ee09"/><path d="m127.316406 403.132812v108.867188h-15.453125v-108.867188c0-4.265624 3.460938-7.726562 7.726563-7.726562 4.265625-.003906 7.726562 3.457031 7.726562 7.726562zm0 0" fill="#7e18ea"/><path d="m153.359375 429.648438v82.351562h-15.453125v-82.351562c0-4.265626 3.460938-7.726563 7.726562-7.726563 4.265626 0 7.726563 3.460937 7.726563 7.726563zm0 0" fill="#7e18ea"/><path d="m38.960938 451.652344c0 4.273437-3.453126 7.726562-7.726563 7.726562h-18.800781v-15.453125h18.800781c4.273437 0 7.726563 3.460938 7.726563 7.726563zm0 0" fill="#7e18ea"/><path d="m38.960938 474.046875c0 4.265625-3.453126 7.726563-7.726563 7.726563h-18.800781v-15.453126h18.800781c4.273437 0 7.726563 3.460938 7.726563 7.726563zm0 0" fill="#c5ee09"/><path d="m116.765625 49.566406h-24.710937c-5.4375 0-9.84375-4.410156-9.84375-9.84375 0-5.4375 4.40625-9.84375 9.84375-9.84375h24.710937c5.433594 0 9.839844 4.40625 9.839844 9.84375 0 5.433594-4.40625 9.84375-9.839844 9.84375zm0 0" fill="#2de0c7"/><path d="m339.777344 350.363281h-10.796875c-4.269531 0-7.726563-3.457031-7.726563-7.726562 0-4.265625 3.457032-7.726563 7.726563-7.726563h10.796875c4.265625 0 7.726562 3.460938 7.726562 7.726563 0 4.269531-3.460937 7.726562-7.726562 7.726562zm0 0" fill="#fef5e3"/><path d="m339.777344 331.429688h-10.796875c-4.269531 0-7.726563-3.460938-7.726563-7.726563s3.457032-7.726563 7.726563-7.726563h10.796875c4.265625 0 7.726562 3.460938 7.726562 7.726563s-3.460937 7.726563-7.726562 7.726563zm0 0" fill="#fef5e3"/><path d="m339.777344 312.492188h-10.796875c-4.269531 0-7.726563-3.460938-7.726563-7.726563s3.457032-7.726563 7.726563-7.726563h10.796875c4.265625 0 7.726562 3.460938 7.726562 7.726563s-3.460937 7.726563-7.726562 7.726563zm0 0" fill="#fef5e3"/><path d="m339.777344 293.554688h-10.796875c-4.269531 0-7.726563-3.457032-7.726563-7.726563 0-4.265625 3.457032-7.722656 7.726563-7.722656h10.796875c4.265625 0 7.726562 3.457031 7.726562 7.722656 0 4.269531-3.460937 7.726563-7.726562 7.726563zm0 0" fill="#fef5e3"/></svg>