<svg height="512pt" viewBox="-14 0 512 512" width="512pt" xmlns="http://www.w3.org/2000/svg"><path d="m483.390625 75.660156v87.3125c0 5.882813-4.765625 10.648438-10.648437 10.648438h-136.277344c-2.398438 0-4.605469-.804688-6.390625-2.128906-2.585938-1.941407-4.257813-5.042969-4.257813-8.519532v-97.957031h146.925782c5.882812-.003906 10.648437 4.761719 10.648437 10.644531zm0 0" fill="#7e18ea"/><path d="m483.390625 141.789062v21.183594c0 5.882813-4.765625 10.648438-10.648437 10.648438h-136.277344c-2.398438 0-4.605469-.804688-6.390625-2.128906-2.585938-1.941407-4.257813-5.042969-4.257813-8.519532v-21.183594zm0 0" fill="#00c2cc"/><path d="m483.390625 75.660156v24.609375h-157.574219v-35.257812h146.925782c5.882812 0 10.648437 4.765625 10.648437 10.648437zm0 0" fill="#ffe5c0"/><path d="m423.765625 30.921875v87.316406c0 5.882813-4.761719 10.644531-10.644531 10.644531h-125.632813v-108.605468h125.628907c5.886718 0 10.648437 4.761718 10.648437 10.644531zm0 0" fill="#b200bf"/><path d="m423.765625 100.269531v17.96875c0 5.882813-4.761719 10.644531-10.644531 10.644531h-125.632813v-28.613281zm0 0" fill="#9bf2e5"/><path d="m423.765625 30.921875v24.613281h-136.277344v-35.257812h125.628907c5.886718 0 10.648437 4.761718 10.648437 10.644531zm0 0" fill="#fef5e3"/><path d="m287.484375 512c-4.140625 0-7.5-3.355469-7.5-7.5v-497c0-4.144531 3.359375-7.5 7.5-7.5 4.144531 0 7.5 3.355469 7.5 7.5v497c0 4.144531-3.355469 7.5-7.5 7.5zm0 0" fill="#6163aa"/><path d="m415.253906 128.886719-85.179687 42.601562c-2.585938-1.9375-4.257813-5.039062-4.257813-8.519531v-34.089844zm0 0" fill="#2500ad"/><path d="m183.484375 129.800781v176.871094c0 9.886719-8.007813 17.898437-17.898437 17.898437h-141.511719c-9.886719 0-17.910157-8.011718-17.910157-17.898437v-176.871094zm0 0" fill="#ffe5c0"/><path d="m183.484375 157.179688v63.058593h-23.5v104.332031h-135.910156c-9.886719 0-17.910157-8.011718-17.910157-17.898437v-133.230469c6.511719-7.660156 14.75-12.871094 23.601563-15.070312-6.710937-8.359375-11.851563-18.03125-14.960937-28.570313h160.050781c-2.96875 10.039063-7.769531 19.300781-14.03125 27.378907zm0 0" fill="#ffd4a1"/><path d="m41.675781 291.898438h106.308594v175.339843h-106.308594zm0 0" fill="#898ec9"/><g fill="#6163aa"><path d="m41.675781 291.898438h106.308594v34.140624h-106.308594zm0 0"/><path d="m124.828125 397.980469h-59.992187c-4.144532 0-7.5-3.359375-7.5-7.5 0-4.144531 3.355468-7.5 7.5-7.5h59.992187c4.144531 0 7.5 3.355469 7.5 7.5 0 4.140625-3.359375 7.5-7.5 7.5zm0 0"/><path d="m94.835938 291.898438h53.148437v175.339843h-53.148437zm0 0"/></g><path d="m94.835938 291.898438h53.148437v34.140624h-53.148437zm0 0" fill="#4e5093"/><path d="m132.324219 390.480469c0 4.140625-3.359375 7.5-7.5 7.5h-29.988281v-15h29.988281c4.140625 0 7.5 3.359375 7.5 7.5zm0 0" fill="#4e5093"/><path d="m41.675781 413.636719c12.789063 0 23.160157-10.367188 23.160157-23.15625 0-12.792969-10.371094-23.160157-23.160157-23.160157zm0 0" fill="#2de0c7"/><path d="m147.988281 413.636719c-12.792969 0-23.160156-10.367188-23.160156-23.15625 0-12.792969 10.367187-23.160157 23.160156-23.160157zm0 0" fill="#2de0c7"/><path d="m183.050781 141.1875h-176.441406c-3.011719 0-5.453125-2.441406-5.453125-5.453125v-23.523437c0-6.023438 4.882812-10.90625 10.90625-10.90625h165.535156c6.019532 0 10.902344 4.882812 10.902344 10.90625v23.523437c0 3.011719-2.441406 5.453125-5.449219 5.453125zm0 0" fill="#fef5e3"/><path d="m147.984375 169.179688v144.859374h-144.589844v-98.027343c0-21.5625 11.179688-39.710938 26.402344-45.160157 3.039063-1.089843 6.238281-1.671874 9.550781-1.671874zm0 0" fill="#6163aa"/><path d="m147.984375 169.179688v144.859374h-118.1875v-143.1875c3.039063-1.089843 6.238281-1.671874 9.550781-1.671874zm0 0" fill="#4e5093"/><path d="m41.796875 169.179688h106.070313v144.859374h-106.070313zm0 0" fill="#898ec9"/><path d="m147.867188 169.179688v1.410156c-14.429688 11.921875-32.910157 19.082031-53.042969 19.082031-20.117188 0-38.597657-7.160156-53.027344-19.070313v-1.421874zm0 0" fill="#6163aa"/><path d="m147.867188 169.179688h119.449218v39.058593h-119.449218zm0 0" fill="#6163aa"/><path d="m166.25 106.25c0 39.441406-31.976562 71.417969-71.421875 71.417969-39.441406 0-71.417969-31.976563-71.417969-71.417969 0-39.445312 31.976563-71.421875 71.417969-71.421875 39.445313 0 71.421875 31.976563 71.421875 71.421875zm0 0" fill="#a7acd3"/><path d="m147.867188 105.160156c0 18.351563-9.332032 34.53125-23.5 44.050782-6.121094 4.117187-13.152344 7-20.730469 8.25-2.859375.488281-5.8125.738281-8.8125.738281-2.339844 0-4.648438-.148438-6.910157-.460938-2.617187-.328125-5.179687-.859375-7.65625-1.566406-5.390624-1.542969-10.421874-3.910156-14.960937-6.960937-3.109375-2.089844-5.992187-4.5-8.582031-7.191407-9.25-9.539062-14.929688-22.539062-14.929688-36.859375 0-27.96875 21.660156-37.589844 49.128906-38.390625 1.292969-.039062 2.59375-.058593 3.910157-.058593 8.953125 0 17.382812.847656 24.773437 2.878906 2.546875.691406 4.96875 1.53125 7.25 2.511718 4.660156 2.019532 8.726563 4.667969 12.007813 8.058594 5.691406 5.898438 9.011719 14.039063 9.011719 25zm0 0" fill="#2de0c7"/><path d="m138.855469 80.160156-35.21875 77.300782c-2.859375.488281-5.8125.738281-8.8125.738281-2.339844 0-4.648438-.148438-6.910157-.460938l38.933594-85.636719c4.660156 2.019532 8.726563 4.667969 12.007813 8.058594zm0 0" fill="#9bf2e5"/><path d="m119.597656 69.589844-39.339844 86.582031c-5.390624-1.542969-10.421874-3.910156-14.960937-6.960937-3.109375-2.089844-5.992187-4.5-8.582031-7.191407l34.199218-75.25c1.292969-.039062 2.59375-.058593 3.910157-.058593 8.953125 0 17.382812.847656 24.773437 2.878906zm0 0" fill="#9bf2e5"/><path d="m45.835938 111.605469c0-8.144531-5.347657-14.746094-11.945313-14.746094-6.601563 0-11.949219 6.601563-11.949219 14.746094 0 8.140625 5.347656 14.742187 11.949219 14.742187 6.597656 0 11.945313-6.601562 11.945313-14.742187zm0 0" fill="#4e5093"/><path d="m167.71875 111.605469c0-8.144531-5.351562-14.746094-11.949219-14.746094-6.597656 0-11.949219 6.601563-11.949219 14.746094 0 8.140625 5.351563 14.742187 11.949219 14.742187 6.597657 0 11.949219-6.601562 11.949219-14.742187zm0 0" fill="#4e5093"/><path d="m33.71875 353.496094h-.117188c-18.558593 0-33.601562-15.042969-33.601562-33.601563v-8.8125c0-4.46875 3.625-8.09375 8.09375-8.09375h34.320312c4.472657 0 8.097657 3.621094 8.097657 8.09375v25.625c-.003907 9.269531-7.519531 16.789063-16.792969 16.789063zm0 0" fill="#2de0c7"/><path d="m171.046875 489.761719v6.359375c0 4.617187-3.75 8.367187-8.382813 8.367187l-59.457031.011719c-4.621093 0-8.371093-3.75-8.382812-8.371094v-24.46875c0-4.621094 3.75-8.371094 8.382812-8.371094l41.359375-.007812c14.621094 0 26.480469 11.859375 26.480469 26.480469zm0 0" fill="#00c4ce"/><path d="m136.046875 485.339844c.027344 4.140625-3.300781 7.53125-7.441406 7.570312l-33.710938.289063h-.070312v-15l33.652343-.289063h.070313c4.109375 0 7.460937 3.308594 7.5 7.429688zm0 0" fill="#00a6cc"/><path d="m94.824219 471.660156v24.46875c0 4.621094-3.75 8.371094-8.367188 8.371094l-59.472656-.011719c-4.617187 0-8.367187-3.75-8.367187-8.367187v-6.359375c0-14.621094 11.859374-26.480469 26.480468-26.480469l41.359375.007812c4.628907 0 8.367188 3.75 8.367188 8.371094zm0 0" fill="#2de0c7"/><path d="m94.824219 478.199219v15h-.058594l-33.71875-.289063c-4.140625-.039062-7.472656-3.429687-7.429687-7.570312.039062-4.121094 3.390624-7.429688 7.5-7.429688h.070312zm0 0" fill="#00c2cc"/><path d="m317.824219 199.574219v-.117188c0-18.558593-15.046875-33.601562-33.601563-33.601562h-8.8125c-4.472656 0-8.097656 3.625-8.097656 8.09375v34.320312c0 4.472657 3.625 8.097657 8.097656 8.097657h25.621094c9.273438-.003907 16.792969-7.519532 16.792969-16.792969zm0 0" fill="#2de0c7"/><path d="m122.523438 215.742188h-15c-4.140626 0-7.5-3.355469-7.5-7.5 0-4.140626 3.359374-7.5 7.5-7.5h15c4.140624 0 7.5 3.359374 7.5 7.5 0 4.144531-3.359376 7.5-7.5 7.5zm0 0" fill="#ff5c3c"/><path d="m124.878906 240.609375h-.101562c-4.144532 0-7.5-3.359375-7.5-7.5 0-4.144531 3.355468-7.5 7.5-7.5h.101562c4.144532 0 7.5 3.355469 7.5 7.5 0 4.140625-3.355468 7.5-7.5 7.5zm0 0" fill="#ff5c3c"/><path d="m124.882812 257.167969c-.023437 0-.046874 0-.074218 0l-.101563-.003907c-4.144531-.035156-7.46875-3.425781-7.429687-7.566406.039062-4.121094 3.386718-7.433594 7.496094-7.433594h.074218l.101563.003907c4.144531.039062 7.46875 3.429687 7.429687 7.570312-.039062 4.117188-3.386718 7.429688-7.496094 7.429688zm0 0" fill="#ff5c3c"/><path d="m66.664062 296.773438c-4.140624 0-7.5-3.355469-7.5-7.5v-49.515626c0-4.144531 3.359376-7.5 7.5-7.5 4.144532 0 7.5 3.355469 7.5 7.5v49.515626c0 4.144531-3.355468 7.5-7.5 7.5zm0 0" fill="#6163aa"/><path d="m147.984375 299.398438h-106.308594c-4.140625 0-7.5-3.359376-7.5-7.5 0-4.144532 3.359375-7.5 7.5-7.5h106.308594c4.140625 0 7.5 3.355468 7.5 7.5 0 4.140624-3.359375 7.5-7.5 7.5zm0 0" fill="#2de0c7"/><path d="m147.867188 169.179688h12v39.058593h-12zm0 0" fill="#4e5093"/></svg>