<svg height="512pt" viewBox="0 -15 512 512" width="512pt" xmlns="http://www.w3.org/2000/svg"><path d="m289.734375 451.746094h-231.667969l-12.613281-162.121094 244.28125 23.757812zm0 0" fill="#383c7c"/><path d="m161.058594 421.964844h-109.667969c-18.789063 0-34.078125-15.289063-34.078125-34.078125v-2.367188c0-4.203125 3.40625-7.609375 7.613281-7.609375 4.203125 0 7.609375 3.40625 7.609375 7.609375v2.367188c0 10.394531 8.460938 18.851562 18.855469 18.851562h109.667969c4.203125 0 7.613281 3.410157 7.613281 7.613281-.003906 4.203126-3.410156 7.613282-7.613281 7.613282zm0 0" fill="#c5ee09"/><path d="m105.472656 395.496094h-64.226562c-22.742188 0-41.246094-18.5-41.246094-41.242188 0-22.742187 18.503906-41.246094 41.246094-41.246094h.21875c4.207031 0 7.613281 3.40625 7.613281 7.613282 0 4.203125-3.40625 7.609375-7.613281 7.609375h-.21875c-14.351563 0-26.023438 11.675781-26.023438 26.023437s11.671875 26.019532 26.023438 26.019532h64.226562c4.203125 0 7.613282 3.410156 7.613282 7.613281s-3.410157 7.609375-7.613282 7.609375zm0 0" fill="#2de0c7"/><path d="m397.816406 470.074219h-347.335937c-6.695313 0-12.121094-5.425781-12.121094-12.121094s5.425781-12.121094 12.121094-12.121094h347.335937zm0 0" fill="#898ec9"/><path d="m465.90625 394.734375c-.089844 2.140625-.183594 4.171875-.273438 6.097656-.621093 12.617188-11 22.53125-23.625 22.53125h-217.902343c-116.640625 0-213.703125-95.4375-213.488281-212.066406.210937-116.730469 94.898437-211.296875 211.679687-211.296875 87.015625 0 143.453125 39.324219 179.867187 93.996094 6.960938 10.453125 13.191407 21.464844 18.765626 32.871094 37.953124 77.710937 45.363281 173.695312 45.554687 235.003906.050781 12.566406-.210937 23.667968-.578125 32.863281zm0 0" fill="#fef5e3"/><path d="m465.359375 403.390625c-1.777344 11.378906-11.589844 19.972656-23.351563 19.972656h-217.902343c-116.640625 0-213.703125-95.4375-213.488281-212.066406.109374-63.316406 28.019531-120.109375 72.175781-158.816406-32.605469 37.164062-52.398438 85.835937-52.488281 139.128906-.210938 116.628906 96.847656 212.066406 213.488281 212.066406h217.902343c1.246094 0 2.476563-.101562 3.664063-.285156zm0 0" fill="#ffe5c0"/><path d="m465.90625 394.734375c-.214844.007813-.425781.007813-.640625.007813h-101.292969c-62.699218 0-113.695312-51.003907-113.695312-113.695313v-73.363281c0-62.691406 50.996094-113.6875 113.695312-113.6875h38.1875c6.964844 10.453125 13.195313 21.464844 18.765625 32.871094 37.957031 77.710937 45.367188 173.695312 45.558594 235.003906.050781 12.566406-.210937 23.667968-.578125 32.863281zm0 0" fill="#ffe5c0"/><path d="m466.484375 361.871094h-102.519531c-9.449219 0-18.503906-1.621094-26.9375-4.601563-4.835938-1.703125-9.460938-3.867187-13.824219-6.421875-9.710937-5.675781-18.128906-13.335937-24.703125-22.410156-9.660156-13.300781-15.351562-29.679688-15.351562-47.382812v-73.367188c0-44.628906 36.1875-80.816406 80.816406-80.816406h56.964844c8.917968 18.269531 16.15625 37.546875 21.996093 57.140625 3.714844 12.453125 6.871094 25.023437 9.542969 37.558593 1.21875 5.652344 2.316406 11.292969 3.347656 16.910157 1.761719 9.757812 3.261719 19.429687 4.515625 28.949219 4.636719 35.097656 6.066407 67.996093 6.152344 94.441406zm0 0" fill="#2de0c7"/><path d="m460.335938 267.429688-94.453126 94.441406h-1.917968c-9.449219 0-18.503906-1.621094-26.9375-4.601563l118.789062-118.789062c1.761719 9.757812 3.261719 19.429687 4.519532 28.949219zm0 0" fill="#9bf2e5"/><path d="m452.46875 221.570312-129.265625 129.277344c-9.710937-5.675781-18.128906-13.339844-24.703125-22.410156l144.425781-144.425781c3.714844 12.453125 6.871094 25.023437 9.542969 37.558593zm0 0" fill="#9bf2e5"/><path d="m465.265625 382.5625h-101.296875c-55.976562 0-101.515625-45.539062-101.515625-101.511719v-73.363281c0-55.972656 45.539063-101.511719 101.515625-101.511719h58.722656c11.429688 0 20.695313 9.261719 20.695313 20.691407 0 11.433593-9.265625 20.695312-20.695313 20.695312h-58.722656c-33.152344 0-60.125 26.972656-60.125 60.125v73.363281c0 33.152344 26.972656 60.125 60.125 60.125h101.296875c11.429687 0 20.695313 9.261719 20.695313 20.691407 0 11.433593-9.265626 20.695312-20.695313 20.695312zm0 0" fill="#898ec9"/><path d="m512 439.917969c0 17.964843-14.558594 32.523437-32.519531 32.523437h-175.222657c-38.75 0-74.167968-22.800781-90.203124-58.089844-3.785157-8.335937-10.726563-14.640624-19.019532-17.773437-3.769531-1.417969-7.828125-2.1875-11.988281-2.1875h-.886719c-17.953125 0-32.523437-14.558594-32.523437-32.523437 0-17.960938 14.570312-32.519532 32.523437-32.519532h.886719c13.597656 0 26.785156 2.804688 38.859375 7.96875 22.359375 9.554688 40.941406 27.210938 51.359375 50.117188 5.507813 12.121094 17.675781 19.964844 30.992187 19.964844h175.222657c17.960937 0 32.519531 14.558593 32.519531 32.519531zm0 0" fill="#c5ee09"/><path d="m221.902344 337.320312-26.867188 59.257813c-3.769531-1.421875-7.828125-2.1875-11.988281-2.1875h-.890625c-17.949219 0-32.519531-14.558594-32.519531-32.523437 0-17.964844 14.570312-32.519532 32.519531-32.519532h.890625c13.597656 0 26.78125 2.804688 38.855469 7.972656zm0 0" fill="#4e5093"/><g fill="#84e507"><path d="m466.488281 481.746094c-4.203125 0-7.609375-3.40625-7.609375-7.613282v-63.441406c0-4.207031 3.40625-7.613281 7.609375-7.613281s7.613281 3.40625 7.613281 7.613281v63.441406c0 4.207032-3.410156 7.613282-7.613281 7.613282zm0 0"/><path d="m426.238281 481.746094c-4.203125 0-7.609375-3.40625-7.609375-7.613282v-63.441406c0-4.207031 3.40625-7.613281 7.609375-7.613281 4.207031 0 7.613281 3.40625 7.613281 7.613281v63.441406c0 4.207032-3.40625 7.613282-7.613281 7.613282zm0 0"/><path d="m385.992188 481.746094c-4.207032 0-7.613282-3.40625-7.613282-7.613282v-63.441406c0-4.207031 3.40625-7.613281 7.613282-7.613281 4.203124 0 7.609374 3.40625 7.609374 7.613281v63.441406c0 4.207032-3.40625 7.613282-7.609374 7.613282zm0 0"/><path d="m345.742188 481.746094c-4.203126 0-7.609376-3.40625-7.609376-7.613282v-63.441406c0-4.207031 3.40625-7.613281 7.609376-7.613281 4.203124 0 7.613281 3.40625 7.613281 7.613281v63.441406c0 4.207032-3.40625 7.613282-7.613281 7.613282zm0 0"/><path d="m305.496094 481.746094c-4.207032 0-7.613282-3.40625-7.613282-7.613282v-63.441406c0-4.207031 3.40625-7.613281 7.613282-7.613281 4.203125 0 7.609375 3.40625 7.609375 7.613281v63.441406c0 4.207032-3.40625 7.613282-7.609375 7.613282zm0 0"/><path d="m253.144531 465.339844c-1.054687 0-2.132812-.222656-3.15625-.691406-3.824219-1.746094-5.507812-6.261719-3.761719-10.085938l28.535157-63.988281c1.746093-3.824219 6.269531-5.507813 10.085937-3.761719 3.824219 1.75 5.507813 6.265625 3.757813 10.085938l-28.53125 63.992187c-1.277344 2.796875-4.039063 4.449219-6.929688 4.449219zm0 0"/><path d="m215.011719 423.027344c-1.855469 0-3.714844-.671875-5.183594-2.035156-3.074219-2.863282-3.25-7.679688-.386719-10.757813l45.945313-49.003906c2.863281-3.078125 7.679687-3.253907 10.757812-.390625 3.078125 2.863281 3.253907 7.679687.390625 10.757812l-45.949218 49.003906c-1.496094 1.613282-3.535157 2.425782-5.574219 2.425782zm0 0"/></g><path d="m187.175781 244.25c0 13.195312-10.699219 23.894531-23.894531 23.894531s-23.894531-10.699219-23.894531-23.894531 10.699219-23.894531 23.894531-23.894531 23.894531 10.699219 23.894531 23.894531zm0 0" fill="#898ec9"/><path d="m330.820312 251.859375h-147.703124c-4.203126 0-7.613282-3.40625-7.613282-7.609375s3.40625-7.613281 7.613282-7.613281h147.703124c4.203126 0 7.609376 3.40625 7.609376 7.613281 0 4.203125-3.40625 7.609375-7.609376 7.609375zm0 0" fill="#383c7c"/><path d="m352.234375 280.871094h-4.195313c-7.753906 0-14.039062-6.285156-14.039062-14.039063v-44.925781c0-7.753906 6.285156-14.039062 14.039062-14.039062h4.195313c5.605469 0 10.148437 4.546874 10.148437 10.152343v52.703125c0 5.601563-4.542968 10.148438-10.148437 10.148438zm0 0" fill="#fef5e3"/><path d="m208.46875 266.941406c-4.203125 0-7.609375-3.410156-7.609375-7.613281v-29.925781c0-4.203125 3.40625-7.613282 7.609375-7.613282 4.207031 0 7.613281 3.40625 7.613281 7.613282v29.925781c0 4.203125-3.40625 7.613281-7.613281 7.613281zm0 0" fill="#898ec9"/><path d="m229.144531 257.480469c-4.203125 0-7.613281-3.410157-7.613281-7.613281v-13.371094c0-4.203125 3.410156-7.609375 7.613281-7.609375 4.207031 0 7.613281 3.40625 7.613281 7.609375v13.371094c0 4.203124-3.40625 7.613281-7.613281 7.613281zm0 0" fill="#898ec9"/><path d="m345.804688 90.003906c-.019532 0-.039063 0-.0625 0l-.121094-.003906c-4.203125-.03125-7.585938-3.46875-7.550782-7.671875.035157-4.183594 3.4375-7.550781 7.613282-7.550781h.058594.125c4.203124.035156 7.582031 3.472656 7.550781 7.675781-.035157 4.179687-3.4375 7.550781-7.613281 7.550781zm0 0" fill="#4e5093"/><path d="m280.84375 114.441406h-.121094c-4.203125 0-7.613281-3.40625-7.613281-7.613281 0-4.203125 3.410156-7.609375 7.613281-7.609375h.121094c4.207031 0 7.613281 3.40625 7.613281 7.609375 0 4.207031-3.40625 7.613281-7.613281 7.613281zm0 0" fill="#4e5093"/><path d="m241.882812 172.980469h-.121093c-4.207031 0-7.613281-3.40625-7.613281-7.609375 0-4.207032 3.40625-7.613282 7.613281-7.613282h.121093c4.203126 0 7.609376 3.40625 7.609376 7.613282 0 4.203125-3.40625 7.609375-7.609376 7.609375zm0 0" fill="#4e5093"/></svg>