<svg height="512pt" viewBox="-62 0 512 512.001" width="512pt" xmlns="http://www.w3.org/2000/svg"><path d="m387.679688 478.363281c0 9.285157-3.757813 17.699219-9.847657 23.789063-6.089843 6.078125-14.496093 9.847656-23.777343 9.847656h-258.625c-18.574219 0-33.636719-15.058594-33.636719-33.632812 0-9.28125 3.761719-17.699219 9.847656-23.789063 1.558594-1.554687 3.257813-2.957031 5.089844-4.171875 5.347656-3.585938 11.773437-5.675781 18.699219-5.675781h258.625c6.921874 0 13.363281 2.101562 18.71875 5.699219 8.992187 6.023437 14.90625 16.292968 14.90625 27.933593zm0 0" fill="#ffe5c0"/><path d="m372.773438 450.425781c-9.734376 15.742188-27.144532 26.25-46.976563 26.25h-202.070313c-19.828124 0-37.261718-10.519531-46.996093-26.269531 5.347656-3.585938 11.777343-5.675781 18.699219-5.675781h258.625c6.921874 0 13.363281 2.101562 18.71875 5.695312zm0 0" fill="#ffd4a1"/><path d="m91.679688 223.40625v208.628906l-23.148438-16.6875-20.65625-14.886718c-25.207031-18.171876-40.144531-47.347657-40.144531-78.425782v-98.632812c0-23.1875 18.789062-41.976563 41.96875-41.976563 6.769531 0 13.167969 1.605469 18.832031 4.460938 13.730469 6.890625 23.148438 21.097656 23.148438 37.519531zm0 0" fill="#ffe5c0"/><path d="m91.679688 432.035156-23.148438-16.6875v-229.460937c13.730469 6.890625 23.148438 21.097656 23.148438 37.519531zm0 0" fill="#ffd4a1"/><path d="m79.347656 270.234375h-71.621094c-4.269531 0-7.726562-3.460937-7.726562-7.726563 0-4.269531 3.460938-7.726562 7.726562-7.726562h71.621094c4.269532 0 7.726563 3.457031 7.726563 7.726562 0 4.265626-3.457031 7.726563-7.726563 7.726563zm0 0" fill="#6163aa"/><path d="m79.347656 304.257812h-71.621094c-4.269531 0-7.726562-3.460937-7.726562-7.726562 0-4.269531 3.460938-7.726562 7.726562-7.726562h71.621094c4.269532 0 7.726563 3.457031 7.726563 7.726562 0 4.265625-3.457031 7.726562-7.726563 7.726562zm0 0" fill="#6163aa"/><path d="m79.347656 338.277344h-70.074218c-4.269532 0-7.726563-3.460938-7.726563-7.726563s3.457031-7.726562 7.726563-7.726562h70.074218c4.269532 0 7.726563 3.460937 7.726563 7.726562s-3.457031 7.726563-7.726563 7.726563zm0 0" fill="#6163aa"/><path d="m91.679688 223.40625v7.570312h-83.953126v-7.570312c0-23.1875 18.796876-41.976562 41.976563-41.976562s41.976563 18.789062 41.976563 41.976562zm0 0" fill="#4e5093"/><path d="m368.621094 103.378906v318.109375c0 23.652344-19.171875 42.824219-42.824219 42.824219h-202.070313c-23.652343 0-42.832031-19.171875-42.832031-42.824219v-358.792969c0-7.921874 3.214844-15.082031 8.40625-20.273437 5.355469-5.355469 12.824219-8.601563 21.046875-8.386719 15.605469.414063 27.894532 13.519532 27.894532 29.125v149.738282c0 2.6875 1.09375 5.109374 2.84375 6.871093 1.761718 1.75 4.171874 2.839844 6.839843 2.851563 5.378907.023437 9.765625-4.644532 9.765625-10.011719v-183.9375c0-7.914063 3.207032-15.082031 8.398438-20.277344 5.179687-5.179687 12.351562-8.394531 20.273437-8.394531 15.84375 0 28.679688 12.835938 28.679688 28.671875v184.226563c0 2.6875 1.082031 5.109374 2.84375 6.871093s4.183593 2.839844 6.859375 2.851563c5.359375 0 9.738281-4.667969 9.738281-10.011719v-145.277344c0-7.910156 3.203125-15.082031 8.394531-20.273437 5.355469-5.355469 12.824219-8.601563 21.046875-8.386719 15.605469.414063 27.898438 13.515625 27.898438 29.136719v145.089844c0 2.6875 1.089843 5.109374 2.851562 6.871093s4.203125 2.851563 6.894531 2.851563c5.335938-.007813 9.703126-4.675782 9.703126-10.011719v-109.703125c0-7.921875 3.203124-15.09375 8.394531-20.273438 5.359375-5.359374 12.828125-8.605468 21.058593-8.386718 15.605469.410156 27.894532 13.515625 27.894532 29.132812zm0 0" fill="#fef5e3"/><path d="m368.621094 235.261719v175.316406h-225.742188c-11.074218 0-20.089844-9.015625-20.089844-20.097656v-135.128907c0-11.074218 9.015626-20.089843 20.089844-20.089843zm0 0" fill="#ffe5c0"/><path d="m368.621094 103.378906v318.109375c0 23.652344-19.171875 42.824219-42.824219 42.824219h-20.046875c23.652344 0 42.824219-19.171875 42.824219-42.824219v-318.109375c0-12.382812-7.714844-23.179687-18.695313-27.320312 3.355469-1.265625 7.023438-1.914063 10.847656-1.8125 15.605469.410156 27.894532 13.515625 27.894532 29.132812zm0 0" fill="#ffe5c0"/><path d="m368.621094 102.902344v9.765625h-57.347656v-9.765625c0-7.917969 3.207031-15.085938 8.394531-20.273438 5.191406-5.1875 12.359375-8.398437 20.277343-8.398437 15.832032 0 28.675782 12.835937 28.675782 28.671875zm0 0" fill="#4e5093"/><path d="m291.828125 67.335938v10.535156h-57.351563v-10.535156c0-7.921876 3.210938-15.085938 8.398438-20.273438 5.195312-5.191406 12.363281-8.398438 20.28125-8.398438 15.835938 0 28.671875 12.835938 28.671875 28.671876zm0 0" fill="#4e5093"/><path d="m215.039062 28.675781v18.269531h-57.347656v-18.269531c0-7.917969 3.207032-15.085937 8.394532-20.273437 5.191406-5.1875 12.359374-8.39843775 20.273437-8.39843775 15.84375 0 28.679687 12.83593775 28.679687 28.67187475zm0 0" fill="#4e5093"/><path d="m138.246094 62.695312v15.175782h-57.351563v-15.175782c0-7.917968 3.210938-15.085937 8.40625-20.273437 5.1875-5.1875 12.355469-8.398437 20.273438-8.398437 15.835937 0 28.671875 12.835937 28.671875 28.671874zm0 0" fill="#4e5093"/><g fill="#898ec9"><path d="m135.152344 112.867188h-51.976563c-4.269531 0-7.726562-3.457032-7.726562-7.726563 0-4.265625 3.460937-7.726563 7.726562-7.726563h51.976563c4.265625 0 7.722656 3.460938 7.722656 7.726563.003906 4.269531-3.457031 7.726563-7.722656 7.726563zm0 0"/><path d="m135.152344 144.65625h-51.976563c-4.269531 0-7.726562-3.460938-7.726562-7.726562 0-4.269532 3.460937-7.726563 7.726562-7.726563h51.976563c4.265625 0 7.722656 3.457031 7.722656 7.726563 0 4.265624-3.457031 7.726562-7.722656 7.726562zm0 0"/><path d="m135.152344 176.441406h-51.976563c-4.269531 0-7.726562-3.460937-7.726562-7.726562 0-4.269532 3.460937-7.726563 7.726562-7.726563h51.976563c4.265625 0 7.722656 3.460938 7.722656 7.726563.003906 4.265625-3.457031 7.726562-7.722656 7.726562zm0 0"/><path d="m289.140625 112.867188h-51.976563c-4.265624 0-7.726562-3.457032-7.726562-7.726563 0-4.265625 3.460938-7.726563 7.726562-7.726563h51.976563c4.265625 0 7.726563 3.460938 7.726563 7.726563 0 4.269531-3.460938 7.726563-7.726563 7.726563zm0 0"/><path d="m289.140625 144.65625h-51.976563c-4.265624 0-7.726562-3.460938-7.726562-7.726562 0-4.269532 3.460938-7.726563 7.726562-7.726563h51.976563c4.265625 0 7.726563 3.457031 7.726563 7.726563 0 4.265624-3.460938 7.726562-7.726563 7.726562zm0 0"/><path d="m289.140625 176.441406h-51.976563c-4.265624 0-7.726562-3.460937-7.726562-7.726562 0-4.269532 3.460938-7.726563 7.726562-7.726563h51.976563c4.265625 0 7.726563 3.460938 7.726563 7.726563s-3.460938 7.726562-7.726563 7.726562zm0 0"/><path d="m212.992188 81.957031h-51.972657c-4.269531 0-7.726562-3.457031-7.726562-7.726562 0-4.265625 3.457031-7.722657 7.726562-7.722657h51.972657c4.269531 0 7.726562 3.457032 7.726562 7.722657 0 4.269531-3.457031 7.726562-7.726562 7.726562zm0 0"/><path d="m212.992188 116.753906h-51.972657c-4.269531 0-7.726562-3.460937-7.726562-7.726562 0-4.269532 3.457031-7.726563 7.726562-7.726563h51.972657c4.269531 0 7.726562 3.457031 7.726562 7.726563 0 4.265625-3.457031 7.726562-7.726562 7.726562zm0 0"/><path d="m212.992188 151.546875h-51.972657c-4.269531 0-7.726562-3.460937-7.726562-7.726563 0-4.265624 3.457031-7.726562 7.726562-7.726562h51.972657c4.269531 0 7.726562 3.460938 7.726562 7.726562 0 4.265626-3.457031 7.726563-7.726562 7.726563zm0 0"/><path d="m365.6875 146.199219h-51.976562c-4.265626 0-7.722657-3.457031-7.722657-7.722657 0-4.269531 3.457031-7.726562 7.722657-7.726562h51.976562c4.269531 0 7.726562 3.457031 7.726562 7.726562 0 4.265626-3.460937 7.722657-7.726562 7.722657zm0 0"/><path d="m365.6875 176.441406h-51.976562c-4.265626 0-7.722657-3.460937-7.722657-7.726562 0-4.269532 3.457031-7.726563 7.722657-7.726563h51.976562c4.269531 0 7.726562 3.460938 7.726562 7.726563s-3.460937 7.726562-7.726562 7.726562zm0 0"/><path d="m365.6875 206.679688h-51.976562c-4.265626 0-7.722657-3.457032-7.722657-7.726563 0-4.265625 3.457031-7.726563 7.722657-7.726563h51.976562c4.269531 0 7.726562 3.460938 7.726562 7.726563 0 4.269531-3.460937 7.726563-7.726562 7.726563zm0 0"/><path d="m136.699219 385.84375h-54.296875c-4.269532 0-7.730469-3.464844-7.730469-7.734375v-12.765625c0-4.269531 3.460937-7.730469 7.730469-7.730469h54.296875zm0 0"/></g><path d="m122.789062 357.617188h13.910157v28.226562h-13.910157zm0 0" fill="#6163aa"/><path d="m136.699219 278.355469v28.226562h-54.289063c-4.277344 0-7.738281-3.460937-7.738281-7.738281v-12.761719c0-4.265625 3.460937-7.726562 7.738281-7.726562zm0 0" fill="#898ec9"/><path d="m122.789062 278.355469h13.910157v28.226562h-13.910157zm0 0" fill="#6163aa"/><path d="m142.882812 398.214844h226.257813c4.273437 0 7.734375-3.460938 7.734375-7.734375v-135.125c0-4.269531-3.460938-7.734375-7.734375-7.734375h-226.257813c-4.269531 0-7.730468 3.464844-7.730468 7.734375v135.125c0 4.273437 3.460937 7.734375 7.730468 7.734375zm0 0" fill="#a7acd3"/><path d="m376.875 255.351562v135.128907c0 4.273437-3.460938 7.738281-7.738281 7.738281h-25.300781c4.265624 0 7.726562-3.464844 7.726562-7.738281v-135.128907c0-4.265624-3.460938-7.726562-7.726562-7.726562h25.300781c4.277343 0 7.738281 3.460938 7.738281 7.726562zm0 0" fill="#898ec9"/><path d="m354.050781 497.558594h-258.625c-4.265625 0-7.726562-3.457032-7.726562-7.722656 0-4.269532 3.460937-7.726563 7.726562-7.726563h258.625c4.269531 0 7.726563 3.457031 7.726563 7.726563 0 4.265624-3.457032 7.722656-7.726563 7.722656zm0 0" fill="#6163aa"/><path d="m376.875 373.859375h-141.832031c-5.691407 0-10.304688-4.613281-10.304688-10.300781v-22.132813c0-5.6875 4.613281-10.300781 10.304688-10.300781h141.832031zm0 0" fill="#898ec9"/><path d="m351.5625 331.121094h25.3125v42.742187h-25.3125zm0 0" fill="#6163aa"/><path d="m256.054688 314.308594c-4.269532 0-7.769532-3.460938-7.769532-7.726563 0-4.269531 3.421875-7.726562 7.6875-7.726562h.078125c4.269531 0 7.726563 3.457031 7.726563 7.726562 0 4.265625-3.457032 7.726563-7.722656 7.726563zm0 0" fill="#6163aa"/><path d="m281.941406 314.308594c-4.269531 0-7.769531-3.460938-7.769531-7.726563 0-4.269531 3.421875-7.726562 7.6875-7.726562h.082031c4.265625 0 7.722656 3.457031 7.722656 7.726562 0 4.265625-3.457031 7.726563-7.722656 7.726563zm0 0" fill="#6163aa"/><path d="m307.828125 314.308594c-4.269531 0-7.765625-3.460938-7.765625-7.726563 0-4.269531 3.417969-7.726562 7.6875-7.726562h.078125c4.265625 0 7.726563 3.457031 7.726563 7.726562 0 4.265625-3.460938 7.726563-7.726563 7.726563zm0 0" fill="#6163aa"/></svg>