<svg height="512pt" viewBox="-83 0 512 512.001" width="512pt" xmlns="http://www.w3.org/2000/svg"><path d="m317.800781 421.3125v-231.339844c0-27.726562-12.75-53.917968-34.578125-71.019531-2.789062-2.1875-6.710937-2.1875-9.503906 0-21.824219 17.101563-34.578125 43.292969-34.578125 71.019531v231.339844zm0 0" fill="#ff5c3c"/><path d="m317.796875 189.976562v231.335938h-22.296875v-231.335938c0-24.894531-10.285156-48.5625-28.175781-65.5 2.03125-1.933593 4.164062-3.78125 6.394531-5.527343 1.390625-1.089844 3.078125-1.632813 4.753906-1.632813 1.675782 0 3.359375.542969 4.75 1.632813 21.832032 17.101562 34.574219 43.296875 34.574219 71.027343zm0 0" fill="#ff2e04"/><g fill="#dd1f00"><path d="m315.972656 210.320312h-74.699218c-4.265626 0-7.726563-3.457031-7.726563-7.726562 0-4.265625 3.460937-7.726562 7.726563-7.726562h74.699218c4.269532 0 7.726563 3.460937 7.726563 7.726562 0 4.269531-3.457031 7.726562-7.726563 7.726562zm0 0"/><path d="m315.972656 261.96875h-74.699218c-4.265626 0-7.726563-3.460938-7.726563-7.726562 0-4.265626 3.460937-7.726563 7.726563-7.726563h74.699218c4.269532 0 7.726563 3.460937 7.726563 7.726563 0 4.265624-3.457031 7.726562-7.726563 7.726562zm0 0"/><path d="m315.972656 313.617188h-74.699218c-4.265626 0-7.726563-3.460938-7.726563-7.726563 0-4.269531 3.460937-7.726563 7.726563-7.726563h74.699218c4.269532 0 7.726563 3.457032 7.726563 7.726563 0 4.265625-3.457031 7.726563-7.726563 7.726563zm0 0"/><path d="m315.972656 365.265625h-74.699218c-4.265626 0-7.726563-3.460937-7.726563-7.726563 0-4.269531 3.460937-7.726562 7.726563-7.726562h74.699218c4.269532 0 7.726563 3.457031 7.726563 7.726562 0 4.265626-3.457031 7.726563-7.726563 7.726563zm0 0"/><path d="m298.222656 344.621094c-4.265625 0-7.777344-3.457032-7.777344-7.726563 0-4.265625 3.40625-7.722656 7.675782-7.722656h.101562c4.269532 0 7.726563 3.457031 7.726563 7.722656 0 4.269531-3.457031 7.726563-7.726563 7.726563zm0 0"/><path d="m298.222656 293.707031c-.023437 0-.050781 0-.074218 0-4.269532-.042969-7.742188-3.535156-7.703126-7.804687.042969-4.238282 3.441407-7.648438 7.675782-7.648438h.074218.105469c4.265625.042969 7.691407 3.535156 7.648438 7.800782-.042969 4.242187-3.492188 7.652343-7.726563 7.652343zm0 0"/><path d="m298.222656 242.792969c-4.265625 0-7.777344-3.460938-7.777344-7.726563 0-4.269531 3.40625-7.726562 7.675782-7.726562h.101562c4.269532 0 7.726563 3.460937 7.726563 7.726562s-3.457031 7.726563-7.726563 7.726563zm0 0"/></g><path d="m29.246094 421.3125v-231.339844c0-27.726562 12.75-53.917968 34.578125-71.019531 2.789062-2.1875 6.710937-2.1875 9.503906 0 21.824219 17.101563 34.578125 43.292969 34.578125 71.019531v231.339844zm0 0" fill="#ff5c3c"/><path d="m29.25 189.976562v231.335938h22.296875v-231.335938c0-24.894531 10.285156-48.5625 28.175781-65.5-2.03125-1.933593-4.164062-3.78125-6.394531-5.527343-1.390625-1.089844-3.078125-1.632813-4.753906-1.632813s-3.359375.542969-4.75 1.632813c-21.832031 17.101562-34.574219 43.296875-34.574219 71.027343zm0 0" fill="#ff2e04"/><path d="m105.769531 210.320312h-74.695312c-4.269531 0-7.726563-3.457031-7.726563-7.726562 0-4.265625 3.457032-7.726562 7.726563-7.726562h74.699219c4.265624 0 7.726562 3.460937 7.726562 7.726562 0 4.269531-3.460938 7.726562-7.730469 7.726562zm0 0" fill="#dd1f00"/><path d="m105.769531 261.96875h-74.695312c-4.269531 0-7.726563-3.460938-7.726563-7.726562 0-4.265626 3.457032-7.726563 7.726563-7.726563h74.699219c4.265624 0 7.726562 3.460937 7.726562 7.726563 0 4.265624-3.460938 7.726562-7.730469 7.726562zm0 0" fill="#dd1f00"/><path d="m105.769531 313.617188h-74.695312c-4.269531 0-7.726563-3.460938-7.726563-7.726563 0-4.269531 3.457032-7.726563 7.726563-7.726563h74.699219c4.265624 0 7.726562 3.457032 7.726562 7.726563 0 4.265625-3.460938 7.726563-7.730469 7.726563zm0 0" fill="#dd1f00"/><path d="m105.769531 365.265625h-74.695312c-4.269531 0-7.726563-3.460937-7.726563-7.726563 0-4.269531 3.457032-7.726562 7.726563-7.726562h74.699219c4.265624 0 7.726562 3.457031 7.726562 7.726562 0 4.265626-3.460938 7.726563-7.730469 7.726563zm0 0" fill="#dd1f00"/><path d="m48.925781 344.621094h-.101562c-4.269531 0-7.726563-3.457032-7.726563-7.726563 0-4.265625 3.457032-7.722656 7.726563-7.722656 4.265625 0 7.777343 3.457031 7.777343 7.722656 0 4.269531-3.40625 7.726563-7.675781 7.726563zm0 0" fill="#dd1f00"/><path d="m48.824219 293.707031c-4.234375 0-7.683594-3.410156-7.726563-7.652343-.042968-4.265626 3.382813-7.757813 7.652344-7.800782h.074219c4.234375 0 7.734375 3.40625 7.777343 7.648438.042969 4.269531-3.332031 7.761718-7.597656 7.804687h-.105468c-.023438 0-.050782 0-.074219 0zm0 0" fill="#dd1f00"/><path d="m48.925781 242.792969h-.101562c-4.269531 0-7.726563-3.460938-7.726563-7.726563 0-4.269531 3.457032-7.726562 7.726563-7.726562 4.265625 0 7.777343 3.460937 7.777343 7.726562s-3.40625 7.726563-7.675781 7.726563zm0 0" fill="#dd1f00"/><path d="m252.183594 369.957031v-224.636719c0-55.457031-25.503906-107.835937-69.15625-142.039062-5.582032-4.375-13.425782-4.375-19.007813 0-43.652343 34.203125-69.15625 86.582031-69.15625 142.039062v224.636719zm0 0" fill="#fd8f07"/><path d="m252.1875 145.324219v224.632812h-29.71875v-224.632812c0-53.152344-23.414062-103.480469-63.792969-137.675781 1.746094-1.488282 3.53125-2.949219 5.34375-4.367188 2.800781-2.191406 6.152344-3.28125 9.503907-3.28125 3.351562 0 6.703124 1.089844 9.503906 3.28125 43.660156 34.199219 69.160156 86.578125 69.160156 142.042969zm0 0" fill="#fd7504"/><path d="m259.625 205.71875c-1.625 2.316406-4.210938 3.550781-6.839844 3.550781-1.667968 0-3.335937-.492187-4.800781-1.523437-8.023437-5.636719-16.574219-10.3125-25.515625-13.960938-15.402344-6.292968-31.957031-9.546875-48.945312-9.546875-26.835938 0-52.578126 8.125-74.460938 23.507813-3.769531 2.65625-8.984375 1.75-11.640625-2.027344-2.660156-3.773438-1.742187-8.984375 2.027344-11.644531 24.714843-17.367188 53.789062-26.546875 84.074219-26.546875 16.875 0 33.367187 2.855468 48.945312 8.386718 12.382812 4.390626 24.1875 10.46875 35.128906 18.160157 3.769532 2.660156 4.6875 7.871093 2.027344 11.644531zm0 0" fill="#fda736"/><path d="m259.625 310.0625c-1.625 2.320312-4.210938 3.554688-6.839844 3.554688-1.667968 0-3.335937-.492188-4.800781-1.523438-8.023437-5.644531-16.574219-10.3125-25.515625-13.960938-15.402344-6.292968-31.957031-9.546874-48.945312-9.546874-26.835938 0-52.578126 8.125-74.460938 23.507812-3.769531 2.65625-8.984375 1.742188-11.640625-2.03125-2.660156-3.78125-1.742187-8.980469 2.027344-11.640625 24.714843-17.367187 53.789062-26.546875 84.074219-26.546875 16.875 0 33.367187 2.855469 48.945312 8.386719 12.382812 4.386719 24.1875 10.464843 35.128906 18.160156 3.769532 2.660156 4.6875 7.859375 2.027344 11.640625zm0 0" fill="#fda736"/><path d="m259.625 310.0625c-1.625 2.320312-4.210938 3.554688-6.839844 3.554688-1.667968 0-3.335937-.492188-4.800781-1.523438-8.023437-5.644531-16.574219-10.3125-25.515625-13.960938v-17.871093c12.382812 4.386719 24.1875 10.464843 35.128906 18.160156 3.769532 2.660156 4.6875 7.859375 2.027344 11.640625zm0 0" fill="#fd8f07"/><path d="m67.394531 459.390625v42.6875c0 5.480469-4.4375 9.917969-9.917969 9.917969h-19.171874c-5.476563 0-9.917969-4.441406-9.917969-9.917969v-42.6875zm0 0" fill="#a7acd3"/><path d="m67.394531 492.824219v9.253906c0 5.476563-4.4375 9.917969-9.917969 9.917969h-19.171874c-5.476563 0-9.917969-4.441406-9.917969-9.917969v-9.253906zm0 0" fill="#7e18ea"/><path d="m326.265625 459.390625v42.6875c0 5.480469-4.441406 9.917969-9.917969 9.917969h-19.171875c-5.476562 0-9.917969-4.441406-9.917969-9.917969v-42.6875zm0 0" fill="#a7acd3"/><path d="m326.265625 492.824219v9.253906c0 5.476563-4.441406 9.917969-9.917969 9.917969h-19.171875c-5.476562 0-9.917969-4.441406-9.917969-9.917969v-9.253906zm0 0" fill="#7e18ea"/><path d="m212.867188 459.390625v42.6875c0 5.480469-4.441407 9.921875-9.921876 9.921875h-58.84375c-5.480468 0-9.921874-4.4375-9.921874-9.921875v-42.6875zm0 0" fill="#898ec9"/><path d="m165.796875 459.390625h15.453125v52.609375h-15.453125zm0 0" fill="#6163aa"/><path d="m212.867188 492.828125v9.25c0 5.480469-4.441407 9.921875-9.921876 9.921875h-58.84375c-5.480468 0-9.921874-4.441406-9.921874-9.921875v-9.25zm0 0" fill="#7e18ea"/><path d="m165.796875 492.828125h15.453125v19.171875h-15.453125zm0 0" fill="#5100cb"/><path d="m337.117188 469.546875h-120.390626v-138.132813c4.515626 2.90625 11.714844 7.339844 19.332032 13.289063 12.664062 9.890625 26.5 23.964844 31.242187 42.125 2.054688 7.84375 8.46875 13.757813 16.375 15.5 18.042969 3.996094 47.679688 14.570313 59.261719 41.894531 1.796875 4.214844 3.164062 8.839844 3.976562 13.898438.984376 6-3.726562 11.425781-9.796874 11.425781zm0 0" fill="#898ec9"/><path d="m236.058594 344.703125v124.84375h-19.332032v-138.132813c4.515626 2.90625 11.714844 7.339844 19.332032 13.289063zm0 0" fill="#6163aa"/><path d="m337.117188 469.546875h-120.390626v-25.320313h126.214844c1.792969 4.214844 3.160156 8.835938 3.976563 13.894532.980469 6-3.730469 11.425781-9.800781 11.425781zm0 0" fill="#b200bf"/><path d="m216.726562 444.226562h19.332032v25.320313h-19.332032zm0 0" fill="#7e18ea"/><path d="m130.320312 331.414062v138.132813h-120.390624c-6.070313 0-10.78125-5.425781-9.800782-11.425781.816406-5.058594 2.183594-9.679688 3.980469-13.898438 11.582031-27.324218 41.21875-37.898437 59.261719-41.894531 7.902344-1.746094 14.320312-7.65625 16.375-15.5 4.738281-18.164063 18.574218-32.234375 31.242187-42.125 7.617188-5.949219 14.816407-10.382813 19.332031-13.289063zm0 0" fill="#898ec9"/><path d="m110.988281 344.703125c7.617188-5.949219 14.816407-10.382813 19.332031-13.289063v138.132813h-19.332031zm0 0" fill="#6163aa"/><path d="m130.320312 444.226562v25.320313h-120.390624c-6.070313 0-10.78125-5.425781-9.800782-11.425781.816406-5.058594 2.183594-9.679688 3.980469-13.894532zm0 0" fill="#b200bf"/><path d="m110.988281 444.226562h19.332031v25.320313h-19.332031zm0 0" fill="#7e18ea"/><path d="m224.15625 239.929688v229.617187h-101.265625v-229.617187c0-35.707032 16.410156-69.425782 44.515625-91.441407 1.792969-1.398437 3.953125-2.109375 6.117188-2.109375 2.164062 0 4.328124.710938 6.117187 2.109375 14.054687 11.003907 25.179687 24.941407 32.804687 40.589844 7.609376 15.640625 11.710938 32.996094 11.710938 50.851563zm0 0" fill="#a7acd3"/><path d="m224.15625 239.925781v229.621094h-22.664062v-229.621094c0-17.851562-4.105469-35.199219-11.722657-50.851562-6.644531-13.648438-15.96875-26.007813-27.574219-36.242188 1.6875-1.496093 3.421876-2.945312 5.207032-4.34375 1.796875-1.410156 3.957031-2.113281 6.121094-2.113281 2.164062 0 4.324218.703125 6.121093 2.113281 14.054688 11.007813 25.183594 24.945313 32.789063 40.585938 7.617187 15.652343 11.722656 33 11.722656 50.851562zm0 0" fill="#898ec9"/><path d="m200.585938 241.125c-1.679688 0-3.371094-.546875-4.792969-1.671875-6.402344-5.070313-14.101563-7.753906-22.269531-7.753906-8.167969 0-15.867188 2.683593-22.269532 7.753906-3.347656 2.652344-8.207031 2.085937-10.855468-1.257813-2.648438-3.34375-2.085938-8.203124 1.257812-10.855468 9.160156-7.253906 20.179688-11.09375 31.867188-11.09375s22.707031 3.839844 31.867187 11.09375c3.347656 2.652344 3.910156 7.511718 1.261719 10.855468-1.527344 1.925782-3.785156 2.929688-6.066406 2.929688zm0 0" fill="#2de0c7"/><path d="m122.890625 422.960938h101.265625v15.453124h-101.265625zm0 0" fill="#898ec9"/><path d="m122.890625 401.789062h101.265625v15.453126h-101.265625zm0 0" fill="#898ec9"/><path d="m200.644531 388.492188c-.023437 0-.050781 0-.074219 0-4.269531-.042969-7.746093-3.535157-7.703124-7.804688.042968-4.238281 3.441406-7.648438 7.671874-7.648438h.078126.101562c4.269531.042969 7.695312 3.535157 7.652344 7.800782-.042969 4.242187-3.496094 7.652344-7.726563 7.652344zm0 0" fill="#7e18ea"/><path d="m200.644531 367.367188c-4.269531 0-7.777343-3.457032-7.777343-7.722657 0-4.269531 3.40625-7.726562 7.671874-7.726562h.105469c4.265625 0 7.726563 3.457031 7.726563 7.726562 0 4.265625-3.460938 7.722657-7.726563 7.722657zm0 0" fill="#7e18ea"/><path d="m259.625 111.671875c-1.625 2.316406-4.210938 3.554687-6.839844 3.554687-1.667968 0-3.335937-.496093-4.800781-1.527343-9.960937-7.003907-20.726563-12.496094-32.027344-16.410157-13.515625-4.6875-27.816406-7.097656-42.433593-7.097656-26.835938 0-52.578126 8.128906-74.460938 23.507813-3.769531 2.660156-8.980469 1.753906-11.640625-2.027344-2.65625-3.769531-1.742187-8.984375 2.03125-11.640625 24.710937-17.371094 53.785156-26.546875 84.070313-26.546875 12.226562 0 24.261718 1.492187 35.890624 4.429687 17.164063 4.316407 33.453126 11.765626 48.183594 22.117188 3.769532 2.65625 4.6875 7.871094 2.027344 11.640625zm0 0" fill="#fda736"/><path d="m259.625 205.71875c-1.625 2.316406-4.210938 3.550781-6.839844 3.550781-1.667968 0-3.335937-.492187-4.800781-1.523437-8.023437-5.636719-16.574219-10.3125-25.515625-13.960938v-17.871094c12.382812 4.390626 24.1875 10.46875 35.128906 18.160157 3.769532 2.660156 4.6875 7.871093 2.027344 11.644531zm0 0" fill="#fd8f07"/><path d="m247.984375 113.699219c-9.960937-7.003907-20.726563-12.496094-32.027344-16.410157-1.8125-6.582031-3.996093-13.050781-6.542969-19.378906 17.164063 4.320313 33.453126 11.765625 48.183594 22.121094 3.769532 2.65625 4.6875 7.867188 2.027344 11.640625-1.625 2.316406-4.210938 3.554687-6.839844 3.554687-1.667968 0-3.335937-.496093-4.800781-1.527343zm0 0" fill="#fd8f07"/></svg>