<svg height="512pt" viewBox="-26 0 512 512" width="512pt" xmlns="http://www.w3.org/2000/svg"><path d="m93.421875 228.257812c-4.203125 0-7.609375-3.40625-7.609375-7.613281v-41.769531c0-4.203125 3.40625-7.609375 7.609375-7.609375s7.613281 3.40625 7.613281 7.609375v41.769531c0 4.203125-3.410156 7.613281-7.613281 7.613281zm0 0" fill="#fd8f07"/><path d="m74.886719 228.257812c-4.203125 0-7.613281-3.40625-7.613281-7.613281v-18.070312c0-4.207031 3.410156-7.613281 7.613281-7.613281s7.609375 3.40625 7.609375 7.613281v18.070312c0 4.203125-3.40625 7.613281-7.609375 7.613281zm0 0" fill="#fd8f07"/><path d="m119.011719 249.394531h-60.453125v-18.601562c0-5.605469 4.542968-10.148438 10.148437-10.148438h40.15625c5.605469 0 10.148438 4.542969 10.148438 10.148438zm0 0" fill="#6163aa"/><path d="m119.011719 484.359375h-86.734375v-228.007813c0-5.605468 4.542968-10.148437 10.148437-10.148437h76.585938zm0 0" fill="#a7acd3"/><path d="m204.9375 430.113281h-65.039062c-4.207032 0-7.613282-3.40625-7.613282-7.609375 0-4.207031 3.410156-7.613281 7.613282-7.613281h65.039062c4.203125 0 7.609375 3.40625 7.609375 7.613281 0 4.203125-3.40625 7.609375-7.609375 7.609375zm0 0" fill="#383c7c"/><path d="m202.90625 280.726562h-60.980469c-4.203125 0-7.609375-3.40625-7.609375-7.609374 0-4.207032 3.40625-7.613282 7.609375-7.613282h60.980469c4.203125 0 7.609375 3.40625 7.609375 7.613282 0 4.203124-3.40625 7.609374-7.609375 7.609374zm0 0" fill="#383c7c"/><path d="m145.960938 485.9375h-28.664063v-316.007812c0-5.605469 4.546875-10.152344 10.148437-10.152344h8.367188c5.601562 0 10.148438 4.546875 10.148438 10.152344zm0 0" fill="#fd8f07"/><path d="m328.457031 280.726562h-44.742187c-4.203125 0-7.613282-3.40625-7.613282-7.609374 0-4.207032 3.410157-7.613282 7.613282-7.613282h44.742187c4.203125 0 7.609375 3.40625 7.609375 7.613282 0 4.203124-3.40625 7.609374-7.609375 7.609374zm0 0" fill="#383c7c"/><path d="m328.457031 430.113281h-44.742187c-4.203125 0-7.613282-3.40625-7.613282-7.609375 0-4.207031 3.410157-7.613281 7.613282-7.613281h44.742187c4.203125 0 7.609375 3.40625 7.609375 7.613281 0 4.203125-3.40625 7.609375-7.609375 7.609375zm0 0" fill="#383c7c"/><path d="m327.765625 501.019531c0 4.207031 3.410156 7.613281 7.613281 7.613281h108.214844c4.207031 0 7.613281-3.40625 7.613281-7.613281v-478.789062c0-4.203125-3.40625-7.609375-7.613281-7.609375-4.203125 0-7.609375 3.40625-7.609375 7.609375v15.371093h-12.070313v-29.992187c0-4.203125-3.40625-7.609375-7.609374-7.609375-4.203126 0-7.613282 3.40625-7.613282 7.609375v29.992187h-73.285156c-3.855469 0-7.203125 2.988282-7.597656 6.835938-.027344.257812-.039063.515625-.039063.773438v.003906 455.804687zm48.167969-345.625-32.945313 22.363281v-44.722656zm-15.789063-29.117187h58.683594l-29.34375 19.917968zm0 58.234375 29.339844-19.917969 29.34375 19.917969zm58.683594 15.222656-29.34375 19.914063-29.339844-19.914063zm-42.894531 29.113281-32.945313 22.363282v-44.722657zm-15.789063 29.117188 29.339844-19.917969 29.34375 19.917969zm58.683594 15.222656-29.34375 19.917969-29.339844-19.917969zm-42.894531 29.117188-32.945313 22.359374v-44.722656zm13.550781 9.195312 29.34375 19.917969h-58.683594zm-29.339844 35.140625h58.683594l-29.34375 19.917969zm15.789063 29.117187-32.945313 22.359376v-44.722657zm60.050781-22.363281v44.722657l-32.945313-22.359376zm-32.945313-51.089843 32.941407-22.363282v44.722656zm0-73.457032 32.941407-22.359375v44.722657zm0-73.453125 32.941407-22.363281v44.726562zm15.789063-44.339843h-58.683594l29.339844-19.914063zm-15.789063-29.113282 32.941407-22.363281v44.722656zm-13.554687 303.011719 29.34375 19.917969h-58.683594zm29.34375-332.128906-29.34375 19.917969-29.339844-19.917969zm-42.894531 29.117187-32.945313 22.363282v-44.726563zm-32.945313 344.90625 32.945313 22.363282-32.945313 22.363281zm17.15625-6.753906h58.683594l-29.34375 19.917969zm75.839844 6.753906v44.726563l-32.945313-22.363281zm-92.996094 66.5625v-3.441406l46.496094-31.558594 46.496094 31.558594v3.441406zm0 0" fill="#4e5093"/><path d="m265.019531 99.691406v86.992188h-47.589843v-86.992188c0-5.960937 2.308593-11.6875 6.4375-15.980468l17.359374-18.054688 17.355469 18.054688c4.128907 4.292968 6.4375 10.019531 6.4375 15.980468zm0 0" fill="#6163aa"/><path d="m249.28125 74.039062 9.300781 9.667969c4.128907 4.296875 6.4375 10.023438 6.4375 15.984375v86.988282h-15.738281zm0 0" fill="#4e5093"/><path d="m265.019531 143.207031v43.476563h-47.589843v-43.476563zm0 0" fill="#a7acd3"/><path d="m249.28125 143.207031h15.738281v43.472657h-15.738281zm0 0" fill="#898ec9"/><path d="m283.707031 214.886719v256.78125h-84.964843v-256.78125c0-1.339844.261718-2.667969.78125-3.914063l9.355468-22.339844c1.574219-3.773437 5.265625-6.230468 9.355469-6.230468h45.976563c4.089843 0 7.78125 2.457031 9.355468 6.230468l9.355469 22.339844c.519531 1.246094.785156 2.574219.785156 3.914063zm0 0" fill="#fd8f07"/><path d="m283.707031 214.898438v256.769531h-24.023437v-258.808594l-12.738282-30.457031 17.253907-.011719c4.101562 0 7.792969 2.457031 9.367187 6.230469l9.359375 22.359375c.515625 1.238281.78125 2.566406.78125 3.917969zm0 0" fill="#fd7504"/><path d="m198.742188 306.511719h84.964843v15.222656h-84.964843zm0 0" fill="#a7acd3"/><path d="m259.683594 306.511719h24.023437v15.222656h-24.023437zm0 0" fill="#898ec9"/><path d="m283.714844 350.191406v39.820313h-84.980469v-39.820313zm0 0" fill="#a7acd3"/><path d="m259.695312 350.191406h24.019532v39.820313h-24.019532zm0 0" fill="#898ec9"/><path d="m198.742188 441.265625h84.964843v43.089844h-84.964843zm0 0" fill="#a7acd3"/><path d="m220.367188 441.265625h15.222656v43.089844h-15.222656zm0 0" fill="#383c7c"/><path d="m246.855469 441.265625h15.222656v43.089844h-15.222656zm0 0" fill="#383c7c"/><path d="m270.097656 118.101562c0 4.199219-3.410156 7.609376-7.613281 7.609376h-42.511719c-4.210937 0-7.613281-3.410157-7.613281-7.609376 0-4.203124 3.402344-7.613281 7.613281-7.613281h42.511719c4.203125 0 7.613281 3.410157 7.613281 7.613281zm0 0" fill="#a7acd3"/><path d="m270.097656 118.101562c0 4.199219-3.410156 7.609376-7.613281 7.609376h-13.203125v-15.222657h13.203125c4.203125 0 7.613281 3.410157 7.613281 7.613281zm0 0" fill="#898ec9"/><path d="m241.222656 83.417969c-4.203125 0-7.609375-3.40625-7.609375-7.613281v-21.671876c0-4.203124 3.40625-7.613281 7.609375-7.613281 4.207032 0 7.613282 3.410157 7.613282 7.613281v21.671876c0 4.207031-3.40625 7.613281-7.613282 7.613281zm0 0" fill="#4e5093"/><g fill="#383c7c"><path d="m60.90625 280.726562h-4.699219c-4.203125 0-7.609375-3.40625-7.609375-7.609374 0-4.207032 3.40625-7.613282 7.609375-7.613282h4.699219c4.203125 0 7.609375 3.40625 7.609375 7.613282 0 4.203124-3.40625 7.609374-7.609375 7.609374zm0 0"/><path d="m60.90625 307.644531h-4.699219c-4.203125 0-7.609375-3.410156-7.609375-7.613281 0-4.207031 3.40625-7.609375 7.609375-7.609375h4.699219c4.203125 0 7.609375 3.40625 7.609375 7.609375s-3.40625 7.613281-7.609375 7.613281zm0 0"/><path d="m60.90625 334.558594h-4.699219c-4.203125 0-7.609375-3.40625-7.609375-7.613282 0-4.203124 3.40625-7.609374 7.609375-7.609374h4.699219c4.203125 0 7.609375 3.40625 7.609375 7.609374 0 4.203126-3.40625 7.613282-7.609375 7.613282zm0 0"/><path d="m60.90625 361.472656h-4.699219c-4.203125 0-7.609375-3.40625-7.609375-7.613281 0-4.203125 3.40625-7.609375 7.609375-7.609375h4.699219c4.203125 0 7.609375 3.40625 7.609375 7.609375 0 4.207031-3.40625 7.613281-7.609375 7.613281zm0 0"/><path d="m60.90625 388.386719h-4.699219c-4.203125 0-7.609375-3.40625-7.609375-7.609375 0-4.207032 3.40625-7.613282 7.609375-7.613282h4.699219c4.203125 0 7.609375 3.40625 7.609375 7.613282 0 4.203125-3.40625 7.609375-7.609375 7.609375zm0 0"/><path d="m60.90625 415.300781h-4.699219c-4.203125 0-7.609375-3.40625-7.609375-7.613281 0-4.203125 3.40625-7.609375 7.609375-7.609375h4.699219c4.203125 0 7.609375 3.40625 7.609375 7.609375 0 4.207031-3.40625 7.613281-7.609375 7.613281zm0 0"/><path d="m60.90625 442.214844h-4.699219c-4.203125 0-7.609375-3.40625-7.609375-7.609375 0-4.207031 3.40625-7.613281 7.609375-7.613281h4.699219c4.203125 0 7.609375 3.40625 7.609375 7.613281 0 4.203125-3.40625 7.609375-7.609375 7.609375zm0 0"/><path d="m89.363281 280.726562h-4.699219c-4.203124 0-7.609374-3.40625-7.609374-7.609374 0-4.207032 3.40625-7.613282 7.609374-7.613282h4.699219c4.203125 0 7.609375 3.40625 7.609375 7.613282 0 4.203124-3.40625 7.609374-7.609375 7.609374zm0 0"/><path d="m89.363281 307.644531h-4.699219c-4.203124 0-7.609374-3.410156-7.609374-7.613281 0-4.207031 3.40625-7.609375 7.609374-7.609375h4.699219c4.203125 0 7.609375 3.40625 7.609375 7.609375s-3.40625 7.613281-7.609375 7.613281zm0 0"/><path d="m89.363281 334.558594h-4.699219c-4.203124 0-7.609374-3.40625-7.609374-7.613282 0-4.203124 3.40625-7.609374 7.609374-7.609374h4.699219c4.203125 0 7.609375 3.40625 7.609375 7.609374 0 4.203126-3.40625 7.613282-7.609375 7.613282zm0 0"/><path d="m89.363281 361.472656h-4.699219c-4.203124 0-7.609374-3.40625-7.609374-7.613281 0-4.203125 3.40625-7.609375 7.609374-7.609375h4.699219c4.203125 0 7.609375 3.40625 7.609375 7.609375 0 4.207031-3.40625 7.613281-7.609375 7.613281zm0 0"/><path d="m89.363281 388.386719h-4.699219c-4.203124 0-7.609374-3.40625-7.609374-7.609375 0-4.207032 3.40625-7.613282 7.609374-7.613282h4.699219c4.203125 0 7.609375 3.40625 7.609375 7.613282 0 4.203125-3.40625 7.609375-7.609375 7.609375zm0 0"/><path d="m89.363281 415.300781h-4.699219c-4.203124 0-7.609374-3.40625-7.609374-7.613281 0-4.203125 3.40625-7.609375 7.609374-7.609375h4.699219c4.203125 0 7.609375 3.40625 7.609375 7.609375 0 4.207031-3.40625 7.613281-7.609375 7.613281zm0 0"/><path d="m89.363281 442.214844h-4.699219c-4.203124 0-7.609374-3.40625-7.609374-7.609375 0-4.207031 3.40625-7.613281 7.609374-7.613281h4.699219c4.203125 0 7.609375 3.40625 7.609375 7.613281 0 4.203125-3.40625 7.609375-7.609375 7.609375zm0 0"/></g><path d="m450.597656 512h-440.445312c-5.605469 0-10.14843775-4.542969-10.14843775-10.148438v-9.480468c0-5.605469 4.54296875-10.148438 10.14843775-10.148438h440.445312c5.605469 0 10.148438 4.542969 10.148438 10.148438v9.480468c0 5.605469-4.542969 10.148438-10.148438 10.148438zm0 0" fill="#898ec9"/><path d="m460.75 492.371094v9.480468c0 5.601563-4.546875 10.148438-10.148438 10.148438h-440.453124c-5.601563 0-10.148438-4.546875-10.148438-10.148438v-9.480468c0-.261719.0117188-.515625.03125-.769532.394531 5.246094 4.777344 9.367188 10.117188 9.367188h440.453124c5.335938 0 9.71875-4.121094 10.117188-9.367188.019531.253907.03125.507813.03125.769532zm0 0" fill="#6163aa"/></svg>