<svg height="512pt" viewBox="-24 0 512 512" width="512pt" xmlns="http://www.w3.org/2000/svg"><path d="m446.0625 212.742188h-427.664062v-202.441407c0-5.6875 4.613281-10.300781 10.300781-10.300781h407.0625c5.6875 0 10.300781 4.613281 10.300781 10.300781zm0 0" fill="#6163aa"/><g fill="#383c7c"><path d="m46.984375 0h370.492187v170.351562h-370.492187zm0 0"/><path d="m30.296875 512h-8.53125c-5.691406 0-10.300781-4.613281-10.300781-10.300781v-22.058594h29.136718v22.058594c0 5.6875-4.613281 10.300781-10.304687 10.300781zm0 0"/><path d="m133.054688 512h-8.53125c-5.691407 0-10.304688-4.613281-10.304688-10.300781v-22.058594h29.136719v22.058594c0 5.6875-4.613281 10.300781-10.300781 10.300781zm0 0"/></g><path d="m144.414062 488.273438h-134.007812c-5.746094 0-10.40625-4.660157-10.40625-10.40625v-272.296876c0-5.746093 4.660156-10.40625 10.40625-10.40625h134.007812c5.746094 0 10.40625 4.660157 10.40625 10.40625v272.296876c0 5.75-4.660156 10.40625-10.40625 10.40625zm0 0" fill="#898ec9"/><path d="m32.832031 229.050781h89.15625v259.222657h-89.15625zm0 0" fill="#6163aa"/><path d="m32.832031 229.050781h25.851563v259.222657h-25.851563zm0 0" fill="#2de0c7"/><path d="m299.234375 488.273438h-134.007813c-5.746093 0-10.40625-4.660157-10.40625-10.40625v-272.296876c0-5.746093 4.660157-10.40625 10.40625-10.40625h134.007813c5.746094 0 10.40625 4.660157 10.40625 10.40625v272.296876c0 5.75-4.660156 10.40625-10.40625 10.40625zm0 0" fill="#a7acd3"/><path d="m187.652344 229.050781h89.15625v259.222657h-89.15625zm0 0" fill="#6163aa"/><path d="m434.160156 512h8.535156c5.6875 0 10.300782-4.613281 10.300782-10.300781v-22.058594h-29.136719v22.058594c0 5.6875 4.613281 10.300781 10.300781 10.300781zm0 0" fill="#383c7c"/><path d="m331.40625 512h8.53125c5.691406 0 10.300781-4.613281 10.300781-10.300781v-22.058594h-29.132812v22.058594c0 5.6875 4.613281 10.300781 10.300781 10.300781zm0 0" fill="#383c7c"/><path d="m320.046875 488.273438h134.007813c5.746093 0 10.40625-4.660157 10.40625-10.40625v-272.296876c0-5.746093-4.660157-10.40625-10.40625-10.40625h-134.007813c-5.75 0-10.40625 4.660157-10.40625 10.40625v272.296876c0 5.75 4.660156 10.40625 10.40625 10.40625zm0 0" fill="#898ec9"/><path d="m342.472656 229.050781h89.15625v259.222657h-89.15625zm0 0" fill="#6163aa"/><path d="m405.777344 229.050781h25.851562v259.222657h-25.851562zm0 0" fill="#2de0c7"/><path d="m232.230469 317.324219c-4.265625 0-7.726563-3.457031-7.726563-7.726563v-47.722656c0-4.269531 3.460938-7.726562 7.726563-7.726562s7.726562 3.457031 7.726562 7.726562v47.722656c0 4.269532-3.460937 7.726563-7.726562 7.726563zm0 0" fill="#fef5e3"/><path d="m232.230469 343.238281c-4.265625 0-7.726563-3.457031-7.726563-7.726562v-.105469c0-4.269531 3.460938-7.726562 7.726563-7.726562s7.726562 3.457031 7.726562 7.726562v.105469c0 4.269531-3.460937 7.726562-7.726562 7.726562zm0 0" fill="#fef5e3"/><path d="m232.230469 362.554688c-4.265625 0-7.726563-3.457032-7.726563-7.726563v-.105469c0-4.269531 3.460938-7.726562 7.726563-7.726562s7.726562 3.457031 7.726562 7.726562v.105469c0 4.269531-3.460937 7.726563-7.726562 7.726563zm0 0" fill="#fef5e3"/><path d="m417.476562 116.617188v15.453124h-177.519531v38.28125h-15.453125v-38.28125h-177.519531v-15.453124h177.519531v-116.617188h15.453125v116.617188zm0 0" fill="#292e68"/><path d="m369.878906 36.6875c-.023437 0-.046875 0-.074218 0l-.105469-.003906c-4.269531-.039063-7.695313-3.53125-7.65625-7.796875.042969-4.242188 3.492187-7.65625 7.726562-7.65625h.074219l.105469.003906c4.269531.039063 7.695312 3.53125 7.65625 7.796875-.042969 4.242188-3.492188 7.65625-7.726563 7.65625zm0 0" fill="#2de0c7"/><path d="m389.195312 36.6875c-.023437 0-.046874 0-.074218 0l-.105469-.003906c-4.269531-.039063-7.695313-3.53125-7.65625-7.796875.039063-4.242188 3.492187-7.65625 7.726563-7.65625h.070312l.109375.003906c4.265625.039063 7.695313 3.53125 7.65625 7.796875-.042969 4.242188-3.492187 7.65625-7.726563 7.65625zm0 0" fill="#2de0c7"/></svg>