<svg height="512pt" viewBox="-46 0 512 512" width="512pt" xmlns="http://www.w3.org/2000/svg"><path d="m328.9375 31.511719-3.058594-22.46875c-.703125-5.179688-5.125-9.042969-10.355468-9.042969h-209.957032c-5.226562 0-9.652344 3.863281-10.355468 9.039062l-3.054688 22.46875h236.78125zm0 0" fill="#d82fea"/><path d="m338.019531 512h-254.949219c-50.304687 0-89.070312-44.378906-82.300781-94.230469l1.945313-14.257812 31.925781-235.128907 3.6875-27.207031h344.433594l3.6875 27.207031 31.925781 235.128907 1.945312 14.257812c6.769532 49.851563-31.996093 94.230469-82.300781 94.230469zm0 0" fill="#898ec9"/><path d="m386.449219 168.382812c-1.132813.164063-2.296875.246094-3.484375.246094h-344.839844c-1.1875 0-2.351562-.082031-3.484375-.246094l3.6875-27.207031h344.433594zm0 0" fill="#6163aa"/><path d="m338.023438 511.996094h-21.8125c50.304687 0 89.066406-44.375 82.296874-94.222656l-1.9375-14.261719-35.617187-262.339844h21.808594l35.617187 262.339844 1.9375 14.261719c6.773438 49.847656-31.992187 94.222656-82.292968 94.222656zm0 0" fill="#6163aa"/><path d="m338.023438 511.996094h-254.957032c-50.300781 0-89.0625-44.375-82.292968-94.222656l1.9375-14.261719h415.667968l1.9375 14.261719c6.773438 49.847656-31.992187 94.222656-82.292968 94.222656zm0 0" fill="#d82fea"/><path d="m338.023438 511.996094h-21.8125c50.304687 0 89.066406-44.375 82.296874-94.222656l-1.9375-14.261719h21.808594l1.9375 14.261719c6.773438 49.847656-31.992187 94.222656-82.292968 94.222656zm0 0" fill="#b200bf"/><path d="m351.011719 156.269531h-280.933594c-7.621094 0-13.503906-6.730469-12.472656-14.28125l7.4375-54.660156 6.59375-48.511719c.855469-6.230468 6.179687-10.886718 12.476562-10.886718h252.867188c6.292969 0 11.621093 4.65625 12.476562 10.886718l6.59375 48.511719 7.4375 54.660156c1.027344 7.550781-4.855469 14.28125-12.476562 14.28125zm0 0" fill="#898ec9"/><path d="m351.011719 156.269531h-280.933594c-7.621094 0-13.503906-6.730469-12.472656-14.28125l7.4375-54.660156h291.007812l7.4375 54.660156c1.027344 7.550781-4.855469 14.28125-12.476562 14.28125zm0 0" fill="#6163aa"/><path d="m351.011719 156.261719h-21.8125c7.628906 0 13.503906-6.722657 12.472656-14.273438l-14.03125-103.171875c-.859375-6.230468-6.179687-10.886718-12.472656-10.886718h21.808593c6.292969 0 11.628907 4.65625 12.472657 10.886718l14.03125 103.171875c1.035156 7.554688-4.84375 14.273438-12.46875 14.273438zm0 0" fill="#6163aa"/><path d="m382.964844 156.269531h-344.839844c-6.949219 0-12.582031-5.632812-12.582031-12.582031v-31.414062c0-6.953126 5.632812-12.585938 12.582031-12.585938h344.839844c6.949218 0 12.582031 5.636719 12.582031 12.585938v31.414062c.003906 6.949219-5.632813 12.582031-12.582031 12.582031zm0 0" fill="#2de0c7"/><path d="m130.828125 512v-232.980469c0-44.027343 35.691406-79.714843 79.71875-79.714843 44.023437 0 79.714844 35.6875 79.714844 79.714843v232.980469zm0 0" fill="#383c7c"/><path d="m258.242188 280.316406c0 26.351563-21.359376 47.699219-47.695313 47.699219-7.53125 0-14.652344-1.75-20.980469-4.851563-7.769531-3.804687-14.339844-9.65625-19.019531-16.875-4.867187-7.472656-7.699219-16.398437-7.699219-25.972656 0-26.335937 21.359375-47.683594 47.699219-47.683594 9.574219 0 18.5 2.820313 25.96875 7.683594 7.207031 4.679688 13.070313 11.265625 16.878906 19.019532 3.101563 6.332031 4.847657 13.449218 4.847657 20.980468zm0 0" fill="#2de0c7"/><path d="m253.394531 259.335938-63.828125 63.828124c-7.769531-3.804687-14.339844-9.65625-19.019531-16.875l65.96875-65.972656c7.207031 4.679688 13.070313 11.265625 16.878906 19.019532zm0 0" fill="#9bf2e5"/><path d="m165.921875 391.355469c-4.269531 0-7.726563-3.457031-7.726563-7.726563v-10.695312c0-4.269532 3.457032-7.726563 7.726563-7.726563 4.265625 0 7.726563 3.457031 7.726563 7.726563v10.695312c0 4.269532-3.460938 7.726563-7.726563 7.726563zm0 0" fill="#898ec9"/><path d="m358.835938 343.125c0 9.132812-7.40625 16.535156-16.539063 16.535156s-16.535156-7.402344-16.535156-16.535156 7.402343-16.539062 16.535156-16.539062 16.539063 7.40625 16.539063 16.539062zm0 0" fill="#d82fea"/><path d="m95.328125 343.125c0 9.132812-7.402344 16.535156-16.535156 16.535156-9.132813 0-16.535157-7.402344-16.535157-16.535156s7.402344-16.539062 16.535157-16.539062c9.132812 0 16.535156 7.40625 16.535156 16.539062zm0 0" fill="#d82fea"/><g fill="#b200bf"><path d="m182.28125 50.339844c-4.269531 0-7.726562-3.460938-7.726562-7.726563v-12.167969c0-4.265624 3.460937-7.722656 7.726562-7.722656s7.726562 3.457032 7.726562 7.722656v12.167969c0 4.265625-3.457031 7.726563-7.726562 7.726563zm0 0"/><path d="m210.546875 50.339844c-4.269531 0-7.726563-3.460938-7.726563-7.726563v-12.167969c0-4.265624 3.457032-7.722656 7.726563-7.722656 4.265625 0 7.722656 3.457032 7.722656 7.722656v12.167969c0 4.265625-3.457031 7.726563-7.722656 7.726563zm0 0"/><path d="m238.808594 50.339844c-4.265625 0-7.726563-3.460938-7.726563-7.726563v-12.167969c0-4.265624 3.460938-7.722656 7.726563-7.722656s7.726562 3.457032 7.726562 7.722656v12.167969c0 4.265625-3.460937 7.726563-7.726562 7.726563zm0 0"/></g><path d="m76.339844 440.28125h-.128906c-4.269532 0-7.726563-3.460938-7.726563-7.726562 0-4.265626 3.457031-7.726563 7.726563-7.726563h.128906c4.269531 0 7.726562 3.460937 7.726562 7.726563 0 4.265624-3.457031 7.726562-7.726562 7.726562zm0 0" fill="#383c7c"/><path d="m102.730469 440.28125h-.128907c-4.269531 0-7.726562-3.460938-7.726562-7.726562 0-4.265626 3.457031-7.726563 7.726562-7.726563h.128907c4.269531 0 7.726562 3.460937 7.726562 7.726563 0 4.265624-3.457031 7.726562-7.726562 7.726562zm0 0" fill="#383c7c"/></svg>