<svg height="512pt" viewBox="0 -72 512 511" width="512pt" xmlns="http://www.w3.org/2000/svg"><path d="m154.0625 114.003906h-44.964844v-22.480468c0-12.417969 10.066406-22.484376 22.480469-22.484376 12.417969 0 22.484375 10.066407 22.484375 22.484376zm0 0" fill="#a7acd3"/><path d="m446.253906 257.136719v42.796875c0 11.371094-9.21875 20.601562-20.605468 20.601562h-378.445313c-11.382813 0-20.605469-9.230468-20.605469-20.601562v-42.796875zm0 0" fill="#fd8f07"/><path d="m446.253906 257.136719v16.691406c-5.234375.886719-10.570312 1.335937-15.988281 1.335937h-403.667969v-18.027343zm0 0" fill="#fd7504"/><path d="m143.753906 325.597656c0 22.609375-18.328125 40.933594-40.933594 40.933594-22.605468 0-40.933593-18.324219-40.933593-40.933594 0-22.605468 18.328125-40.933594 40.933593-40.933594 22.605469 0 40.933594 18.328126 40.933594 40.933594zm0 0" fill="#898ec9"/><path d="m118.128906 325.597656c0 8.457032-6.855468 15.308594-15.308594 15.308594-8.453124 0-15.308593-6.851562-15.308593-15.308594 0-8.453125 6.855469-15.308594 15.308593-15.308594 8.453126 0 15.308594 6.855469 15.308594 15.308594zm0 0" fill="#fd8f07"/><path d="m278.742188 325.597656c0 22.609375-18.324219 40.933594-40.933594 40.933594-22.605469 0-40.929688-18.324219-40.929688-40.933594 0-22.605468 18.324219-40.933594 40.929688-40.933594 22.609375 0 40.933594 18.328126 40.933594 40.933594zm0 0" fill="#898ec9"/><path d="m253.117188 325.597656c0 8.457032-6.851563 15.308594-15.308594 15.308594-8.453125 0-15.304688-6.851562-15.304688-15.308594 0-8.453125 6.851563-15.308594 15.304688-15.308594 8.457031 0 15.308594 6.855469 15.308594 15.308594zm0 0" fill="#fd8f07"/><path d="m413.734375 325.597656c0 22.609375-18.328125 40.933594-40.933594 40.933594s-40.933593-18.324219-40.933593-40.933594c0-22.605468 18.328124-40.933594 40.933593-40.933594s40.933594 18.328126 40.933594 40.933594zm0 0" fill="#898ec9"/><path d="m388.109375 325.597656c0 8.457032-6.855469 15.308594-15.308594 15.308594s-15.308593-6.851562-15.308593-15.308594c0-8.453125 6.855468-15.308594 15.308593-15.308594s15.308594 6.855469 15.308594 15.308594zm0 0" fill="#fd8f07"/><path d="m512 181.070312c0 22.570313-9.148438 43.007813-23.941406 57.792969-14.792969 14.792969-35.222656 23.941407-57.792969 23.941407h-419.964844c-5.6875 0-10.300781-4.617188-10.300781-10.300782v-72.175781c0-2.730469 1.082031-5.347656 2.996094-7.273437l70.382812-70.683594c1.925782-1.945313 4.554688-3.035156 7.296875-3.035156h349.589844c23.476563 0 44.636719 9.886718 59.535156 25.742187 13.773438 14.617187 22.199219 34.328125 22.199219 55.992187zm0 0" fill="#6163aa"/><path d="m416.347656 135.90625c0 53.691406-43.679687 97.382812-97.382812 97.382812-53.691406 0-97.382813-43.691406-97.382813-97.382812 0-12.929688 2.535157-25.28125 7.140625-36.570312h180.488282c4.601562 11.289062 7.136718 23.640624 7.136718 36.570312zm0 0" fill="#4e5093"/><path d="m512 181.070312c0 22.570313-9.148438 43.007813-23.941406 57.792969-14.792969 14.792969-35.222656 23.941407-57.792969 23.941407h-419.964844c-5.6875 0-10.300781-4.617188-10.300781-10.300782v-19.574218c101.96875-1.339844 186.09375-10.984376 254.402344-24.191407 67.34375-13.019531 119.316406-29.503906 157.867187-44.933593 38.734375-15.503907 63.921875-29.9375 77.53125-38.726563 13.773438 14.617187 22.199219 34.328125 22.199219 55.992187zm0 0" fill="#383c7c"/><path d="m412.269531 163.804688c-12.011719 40.144531-49.296875 69.484374-93.304687 69.484374-24.746094 0-47.355469-9.269531-64.5625-24.546874 67.34375-13.023438 119.316406-29.507813 157.867187-44.9375zm0 0" fill="#292e68"/><path d="m199.546875 99.335938v71.898437c0 6.183594-5.011719 11.195313-11.195313 11.195313h-188.351562v-2.101563c0-2.730469 1.082031-5.347656 2.996094-7.273437l70.382812-70.683594c1.925782-1.945313 4.554688-3.035156 7.296875-3.035156zm0 0" fill="#2de0c7"/><path d="m156.246094 99.335938-83.09375 83.09375h-22.972656l83.09375-83.09375zm0 0" fill="#9bf2e5"/><path d="m195.042969 99.335938-83.09375 83.09375h-30.347657l83.09375-83.09375zm0 0" fill="#9bf2e5"/><path d="m403.984375 135.90625c0 46.953125-38.0625 85.019531-85.015625 85.019531-46.957031 0-85.019531-38.066406-85.019531-85.019531 0-46.957031 38.0625-85.019531 85.019531-85.019531 46.953125 0 85.015625 38.0625 85.015625 85.019531zm0 0" fill="#2de0c7"/><path d="m377.304688 135.90625c0 8.261719-1.71875 16.121094-4.820313 23.25-8.984375 20.644531-29.566406 35.089844-53.519531 35.089844-32.214844 0-58.339844-26.125-58.339844-58.339844 0-32.222656 26.125-58.339844 58.339844-58.339844 23.871094 0 44.378906 14.320313 53.414062 34.839844 3.164063 7.191406 4.925782 15.144531 4.925782 23.5zm0 0" fill="#6163aa"/><path d="m377.304688 135.90625c0 8.261719-1.71875 16.121094-4.820313 23.25h-5.957031c-8.074219 0-14.628906-6.550781-14.628906-14.628906v-17.480469c0-8.085937 6.554687-14.640625 14.628906-14.640625h5.851562c3.164063 7.191406 4.925782 15.144531 4.925782 23.5zm0 0" fill="#a7acd3"/><path d="m186.574219 237.664062h-6.179688c-5.691406 0-10.300781-4.609374-10.300781-10.300781v-12.878906c0-5.6875 4.609375-10.300781 10.300781-10.300781h6.179688c5.691406 0 10.304687 4.613281 10.304687 10.300781v12.878906c0 5.691407-4.613281 10.300781-10.304687 10.300781zm0 0" fill="#fd8f07"/><path d="m376.148438 288.53125h-6.179688c-5.691406 0-10.304688-4.613281-10.304688-10.304688v-21.117187c0-5.691406 4.613282-10.304687 10.304688-10.304687h6.179688c5.691406 0 10.300781 4.613281 10.300781 10.304687v21.117187c0 5.691407-4.609375 10.304688-10.300781 10.304688zm0 0" fill="#2de0c7"/><path d="m240.902344 288.785156h-6.183594c-5.6875 0-10.300781-4.609375-10.300781-10.300781v-21.121094c0-5.6875 4.613281-10.300781 10.300781-10.300781h6.183594c5.6875 0 10.300781 4.613281 10.300781 10.300781v21.121094c0 5.691406-4.613281 10.300781-10.300781 10.300781zm0 0" fill="#2de0c7"/><path d="m105.910156 288.785156h-6.179687c-5.691407 0-10.300781-4.609375-10.300781-10.300781v-21.121094c0-5.6875 4.609374-10.300781 10.300781-10.300781h6.179687c5.691406 0 10.304688 4.613281 10.304688 10.300781v21.121094c0 5.691406-4.613282 10.300781-10.304688 10.300781zm0 0" fill="#2de0c7"/><path d="m416.539062 245.390625h-.105468c-4.269532 0-7.726563-3.457031-7.726563-7.726563 0-4.265624 3.457031-7.726562 7.726563-7.726562h.105468c4.269532 0 7.726563 3.460938 7.726563 7.726562 0 4.269532-3.457031 7.726563-7.726563 7.726563zm0 0" fill="#fd8f07"/><path d="m435.015625 245.390625h-.109375c-4.265625 0-7.722656-3.457031-7.722656-7.726563 0-4.265624 3.457031-7.726562 7.722656-7.726562h.109375c4.265625 0 7.726563 3.460938 7.726563 7.726562 0 4.269532-3.460938 7.726563-7.726563 7.726563zm0 0" fill="#fd8f07"/><g fill="#898ec9"><path d="m497.648438 321.890625c-.007813 0-.015626 0-.023438 0l-10.898438-.03125c-4.269531-.011719-7.714843-3.480469-7.703124-7.75.011718-4.261719 3.46875-7.703125 7.722656-7.703125h.023437l10.902344.03125c4.265625.011719 7.714844 3.480469 7.703125 7.746094-.011719 4.261718-3.46875 7.707031-7.726562 7.707031zm0 0"/><path d="m482.109375 295.769531c-2.675781 0-5.28125-1.394531-6.707031-3.882812-2.125-3.703125-.84375-8.425781 2.859375-10.546875l9.457031-5.421875c3.699219-2.121094 8.421875-.84375 10.542969 2.859375 2.125 3.699218.84375 8.421875-2.859375 10.542968l-9.457032 5.421876c-1.210937.695312-2.53125 1.027343-3.835937 1.027343zm0 0"/><path d="m491.367188 353.398438c-1.316407 0-2.652344-.335938-3.875-1.046876l-9.425782-5.480468c-3.6875-2.144532-4.9375-6.871094-2.796875-10.5625 2.148438-3.6875 6.875-4.941406 10.566407-2.796875l9.421874 5.480469c3.6875 2.144531 4.941407 6.871093 2.796876 10.5625-1.433594 2.464843-4.023438 3.84375-6.6875 3.84375zm0 0"/></g><path d="m430.269531 137.257812c-4.269531 0-7.726562-3.457031-7.726562-7.726562v-121.304688c0-4.269531 3.457031-7.726562 7.726562-7.726562 4.265625 0 7.722657 3.460938 7.722657 7.726562v121.304688c0 4.269531-3.457032 7.726562-7.722657 7.726562zm0 0" fill="#2de0c7"/><path d="m451.734375 124.824219c-4.269531 0-7.726563-3.460938-7.726563-7.726563v-48.054687c0-4.269531 3.460938-7.726563 7.726563-7.726563s7.726563 3.457032 7.726563 7.726563v48.054687c0 4.265625-3.457032 7.726563-7.726563 7.726563zm0 0" fill="#2de0c7"/></svg>