<svg height="512pt" viewBox="-24 0 512 512.0005" width="512pt" xmlns="http://www.w3.org/2000/svg"><path d="m377.871094 50.871094-93.832032 102.6875-39.816406 43.578125-12.1875 13.328125-30.460937 33.339844-34.140625-34.132813 33.359375-30.480469 13.320312-12.167968 43.574219-39.816407 102.679688-93.828125c11.652343-10.644531 28.144531 5.839844 17.503906 17.492188zm0 0" fill="#898ec9"/><path d="m284.039062 153.558594-39.816406 43.578125c-5.707031-4.234375-11.113281-8.902344-16.164062-13.949219-5.054688-5.046875-9.714844-10.457031-13.949219-16.164062l43.578125-39.816407zm0 0" fill="#6163aa"/><path d="m203.574219 443.316406-54.425781 54.425782-11.136719-28.578126-6.128907-15.71875-5.179687-13.320312-6.132813-15.722656-12.125-31.121094 54.425782-54.425781 12.125 31.125 6.128906 15.71875 5.183594 13.320312 6.128906 15.730469zm0 0" fill="#898ec9"/><path d="m232.039062 210.464844-30.464843 33.339844-34.136719-34.132813 33.355469-30.480469c6.367187 3.695313 12.300781 8.261719 17.648437 13.609375 5.40625 5.394531 9.941406 11.351563 13.597656 17.664063zm0 0" fill="#6163aa"/><path d="m209.703125 305.839844-83.804687 83.804687c-28.800782 28.800781-75.496094 28.800781-104.296876 0-28.800781-28.800781-28.800781-75.496093 0-104.296875l83.804688-83.804687c28.800781-28.800781 75.496094-28.800781 104.296875 0s28.800781 75.496093 0 104.296875zm0 0" fill="#d82fea"/><path d="m231.304688 253.691406c0 18.875-7.199219 37.746094-21.601563 52.148438l-83.804687 83.804687c-28.804688 28.804688-75.492188 28.804688-104.296876 0-2.554687-2.554687-4.882812-5.242187-6.984374-8.054687 28.886718 21.550781 69.96875 19.210937 96.207031-7.015625l83.808593-83.804688c14.398438-14.402343 21.589844-33.277343 21.589844-52.160156 0-15.511719-4.851562-31.015625-14.574218-44.050781 2.8125 2.101562 5.5 4.429687 8.054687 6.988281 14.402344 14.398437 21.601563 33.273437 21.601563 52.144531zm0 0" fill="#b200bf"/><path d="m149.832031 246.949219-82.824219 82.824219c-5.503906 5.5-14.421874 5.5-19.925781 0-5.5-5.503907-5.5-14.421876 0-19.925782l82.824219-82.824218c5.503906-5.5 14.421875-5.5 19.925781 0 5.5 5.503906 5.5 14.421874 0 19.925781zm0 0" fill="#2de0c7"/><path d="m75.601562 366.015625c-1.980468 0-3.957031-.753906-5.464843-2.261719-3.019531-3.019531-3.019531-7.910156 0-10.929687l11.011719-11.011719c3.019531-3.015625 7.910156-3.015625 10.929687 0 3.015625 3.015625 3.015625 7.910156 0 10.925781l-11.015625 11.015625c-1.507812 1.507813-3.484375 2.261719-5.460938 2.261719zm0 0" fill="#2de0c7"/><path d="m224.554688 440.042969-68.902344 68.902343c-4.074219 4.074219-10.679688 4.074219-14.753906 0-4.074219-4.074218-4.074219-10.679687 0-14.753906l68.902343-68.902344c4.074219-4.074218 10.679688-4.074218 14.753907 0 4.074218 4.074219 4.074218 10.679688 0 14.753907zm0 0" fill="#d82fea"/><path d="m192.4375 414.75-54.425781 54.414062-6.128907-15.71875 54.425782-54.425781zm0 0" fill="#6163aa"/><path d="m181.125 385.699219-54.421875 54.425781-6.132813-15.722656 54.425782-54.421875zm0 0" fill="#6163aa"/><path d="m411.246094 29.246094c0 16.152344-13.09375 29.246094-29.25 29.246094-16.152344 0-29.246094-13.09375-29.246094-29.246094s13.09375-29.246094 29.246094-29.246094c16.15625 0 29.25 13.09375 29.25 29.246094zm0 0" fill="#fda736"/><path d="m220.472656 107.472656c-7.601562-7.601562-20.445312-.09375-17.414062 10.222656 6.105468 20.773438 17.347656 40.359376 33.738281 56.75 16.390625 16.390626 35.976563 27.636719 56.753906 33.742188 10.316407 3.03125 17.820313-9.816406 10.21875-17.417969zm0 0" fill="#fda736"/><path d="m366.046875 100.179688c-1.976563 0-3.953125-.753907-5.460937-2.261719l-47.257813-47.257813c-3.019531-3.015625-3.019531-7.90625 0-10.925781 3.015625-3.015625 7.90625-3.015625 10.925781 0l47.257813 47.253906c3.015625 3.019531 3.015625 7.910157 0 10.929688-1.511719 1.507812-3.488281 2.261719-5.464844 2.261719zm0 0" fill="#fd8f07"/><g fill="#fda736"><path d="m353.972656 124.058594c-1.976562 0-3.957031-.753906-5.464844-2.261719l-59.058593-59.0625c-3.015625-3.015625-3.015625-7.90625 0-10.925781 3.019531-3.015625 7.910156-3.015625 10.929687 0l59.058594 59.058594c3.015625 3.019531 3.015625 7.910156 0 10.929687-1.511719 1.507813-3.488281 2.261719-5.464844 2.261719zm0 0"/><path d="m186.957031 43.046875c-1.988281 0-3.980469-.761719-5.488281-2.289063l-2.078125-2.097656c-3.003906-3.027344-2.980469-7.921875.050781-10.925781 3.03125-3 7.921875-2.980469 10.925782.050781l2.078124 2.097656c3.003907 3.03125 2.980469 7.925782-.050781 10.925782-1.507812 1.496094-3.472656 2.238281-5.4375 2.238281zm0 0"/><path d="m208.132812 64.355469c-1.988281 0-3.980468-.761719-5.488281-2.289063l-2.078125-2.097656c-3.003906-3.03125-2.976562-7.925781.054688-10.925781 3.03125-3.003907 7.921875-2.980469 10.925781.050781l2.078125 2.097656c3 3.035156 2.976562 7.925782-.054688 10.929688-1.507812 1.492187-3.472656 2.234375-5.4375 2.234375zm0 0"/><path d="m206.113281 43.105469c-1.992187 0-3.980469-.765625-5.492187-2.292969-3-3.03125-2.976563-7.921875.054687-10.925781l2.097657-2.074219c3.03125-3.003906 7.921874-2.984375 10.925781.050781 3.003906 3.03125 2.980469 7.925781-.050781 10.925781l-2.097657 2.078126c-1.507812 1.492187-3.472656 2.238281-5.4375 2.238281zm0 0"/><path d="m184.804688 64.28125c-1.992188 0-3.980469-.765625-5.492188-2.289062-3-3.03125-2.976562-7.925782.054688-10.929688l2.097656-2.074219c3.03125-3.003906 7.921875-2.980469 10.925781.050781s2.976563 7.925782-.050781 10.929688l-2.097656 2.074219c-1.507813 1.492187-3.472657 2.238281-5.4375 2.238281zm0 0"/></g><path d="m435.179688 113.429688c-1.988282 0-3.980469-.765626-5.488282-2.289063l-2.078125-2.097656c-3.003906-3.03125-2.980469-7.925781.050781-10.929688 3.03125-3 7.921876-2.976562 10.925782.050781l2.078125 2.097657c3.003906 3.03125 2.980469 7.925781-.050781 10.929687-1.507813 1.492188-3.472657 2.238282-5.4375 2.238282zm0 0" fill="#fd8f07"/><path d="m456.355469 134.734375c-1.988281 0-3.976563-.761719-5.488281-2.289063l-2.078126-2.09375c-3.003906-3.03125-2.980468-7.925781.050782-10.929687 3.03125-3 7.925781-2.980469 10.929687.050781l2.074219 2.097656c3.003906 3.03125 2.980469 7.925782-.050781 10.925782-1.507813 1.496094-3.472657 2.238281-5.4375 2.238281zm0 0" fill="#fd8f07"/><path d="m454.335938 113.484375c-1.992188 0-3.980469-.765625-5.492188-2.289063-3-3.03125-2.980469-7.925781.050781-10.925781l2.097657-2.078125c3.03125-3.003906 7.921874-2.980468 10.929687.050782 3 3.03125 2.976563 7.921874-.054687 10.925781l-2.09375 2.078125c-1.507813 1.492187-3.472657 2.238281-5.4375 2.238281zm0 0" fill="#fd8f07"/><path d="m433.027344 134.660156c-1.992188 0-3.980469-.761718-5.492188-2.289062-3-3.03125-2.976562-7.921875.054688-10.925782l2.09375-2.078124c3.035156-3 7.925781-2.980469 10.929687.050781 3 3.03125 2.980469 7.925781-.050781 10.929687l-2.097656 2.074219c-1.507813 1.492187-3.472656 2.238281-5.4375 2.238281zm0 0" fill="#fd8f07"/><path d="m144.082031 111.261719c-1.988281 0-3.976562-.765625-5.488281-2.289063l-2.078125-2.097656c-3.003906-3.03125-2.980469-7.925781.050781-10.929688 3.03125-3 7.921875-2.976562 10.925782.050782l2.078124 2.097656c3.003907 3.03125 2.980469 7.925781-.050781 10.929688-1.507812 1.492187-3.472656 2.238281-5.4375 2.238281zm0 0" fill="#fda736"/><path d="m165.257812 132.566406c-1.988281 0-3.976562-.761718-5.488281-2.289062l-2.074219-2.097656c-3.003906-3.03125-2.980468-7.921876.050782-10.925782s7.925781-2.980468 10.925781.054688l2.078125 2.09375c3.003906 3.03125 2.976562 7.925781-.054688 10.929687-1.503906 1.492188-3.472656 2.234375-5.4375 2.234375zm0 0" fill="#fda736"/><path d="m163.238281 111.316406c-1.988281 0-3.976562-.765625-5.488281-2.289062-3.003906-3.03125-2.980469-7.925782.050781-10.925782l2.097657-2.078124c3.03125-3.003907 7.921874-2.980469 10.925781.050781 3.003906 3.03125 2.980469 7.921875-.050781 10.925781l-2.097657 2.078125c-1.507812 1.492187-3.472656 2.238281-5.4375 2.238281zm0 0" fill="#fda736"/><path d="m141.929688 132.492188c-1.988282 0-3.976563-.761719-5.488282-2.289063-3.003906-3.03125-2.980468-7.921875.050782-10.925781l2.097656-2.078125c3.03125-3 7.921875-2.980469 10.925781.050781s2.980469 7.925781-.050781 10.929688l-2.097656 2.074218c-1.507813 1.492188-3.472657 2.238282-5.4375 2.238282zm0 0" fill="#fda736"/></svg>