<svg height="511pt" viewBox="0 -85 511.9998 511" width="511pt" xmlns="http://www.w3.org/2000/svg"><path d="m111.722656 108.613281c-4.269531 0-7.726562-3.457031-7.726562-7.722656v-12.625c0-4.265625 3.457031-7.726563 7.726562-7.726563 4.265625 0 7.726563 3.460938 7.726563 7.726563v12.625c0 4.265625-3.460938 7.722656-7.726563 7.722656zm0 0" fill="#69cc00"/><path d="m400.277344 108.613281c-4.265625 0-7.726563-3.457031-7.726563-7.722656v-12.625c0-4.265625 3.460938-7.726563 7.726563-7.726563 4.269531 0 7.726562 3.460938 7.726562 7.726563v12.625c0 4.265625-3.460937 7.722656-7.726562 7.722656zm0 0" fill="#69cc00"/><path d="m378.265625 119.953125h-244.558594c5.585938-62.632813 58.199219-111.722656 122.277344-111.722656 7.042969 0 13.941406.59375 20.65625 1.734375 15.722656 2.664062 30.433594 8.308594 43.515625 16.351562 3.328125 2.035156 6.550781 4.234375 9.648438 6.585938 5.65625 4.257812 10.925781 8.996094 15.769531 14.152344 18.210937 19.433593 30.1875 44.804687 32.691406 72.898437zm0 0" fill="#2de0c7"/><path d="m320.15625 26.316406-93.640625 93.636719h-59.863281l109.988281-109.988281c15.722656 2.664062 30.433594 8.308594 43.515625 16.351562zm0 0" fill="#9bf2e5"/><path d="m345.574219 47.054688-72.902344 72.898437h-29.921875l87.054688-87.050781c5.65625 4.257812 10.925781 8.996094 15.769531 14.152344zm0 0" fill="#9bf2e5"/><path d="m99.617188 230.148438c41.457031 37.222656 96.265624 59.878906 156.367187 59.878906 60.105469 0 114.910156-22.65625 156.371094-59.878906zm0 0" fill="#b200bf"/><path d="m412.355469 230.148438c-41.460938 37.230468-96.265625 59.878906-156.371094 59.878906-8.949219 0-17.78125-.503906-26.46875-1.476563 49.652344-5.59375 94.605469-26.714843 129.898437-58.402343zm0 0" fill="#7e18ea"/><path d="m62.007812 185.480469h388.070313l-18.066406 43.875c-1.445313 3.503906-4.863281 5.792969-8.65625 5.796875l-334.613281.140625c-3.796876 0-7.222657-2.292969-8.664063-5.808594zm0 0" fill="#c5ee09"/><path d="m112.257812 212.808594c-4.269531 0-7.726562-3.457032-7.726562-7.726563v-9.117187c0-4.265625 3.457031-7.726563 7.726562-7.726563 4.265626 0 7.726563 3.460938 7.726563 7.726563v9.117187c0 4.269531-3.460937 7.726563-7.726563 7.726563zm0 0" fill="#b200bf"/><path d="m132.074219 212.808594c-4.265625 0-7.726563-3.457032-7.726563-7.726563v-9.117187c0-4.265625 3.460938-7.726563 7.726563-7.726563 4.269531 0 7.726562 3.460938 7.726562 7.726563v9.117187c0 4.269531-3.457031 7.726563-7.726562 7.726563zm0 0" fill="#b200bf"/><path d="m151.894531 212.808594c-4.269531 0-7.726562-3.457032-7.726562-7.726563v-9.117187c0-4.265625 3.460937-7.726563 7.726562-7.726563s7.726563 3.460938 7.726563 7.726563v9.117187c0 4.269531-3.457032 7.726563-7.726563 7.726563zm0 0" fill="#b200bf"/><path d="m450.078125 185.484375-18.070313 43.867187c-1.441406 3.511719-4.859374 5.796876-8.652343 5.796876l-12.761719.007812c1.09375-.992188 1.984375-2.226562 2.574219-3.648438l18.953125-46.023437zm0 0" fill="#84e507"/><path d="m477.726562 168.296875h-443.421874l15.207031-17.871094 38.167969-44.855469c1.769531-2.089843 4.386718-3.296874 7.128906-3.296874l322.414062.03125c2.742188 0 5.347656 1.203124 7.117188 3.296874l38.167968 44.824219zm0 0" fill="#c5ee09"/><path d="m417.214844 102.308594c2.753906 0 5.355468 1.199218 7.132812 3.296875l53.371094 62.699219h-23.0625l-53.351562-62.671876c-1.777344-2.097656-4.382813-3.292968-7.125-3.292968zm0 0" fill="#84e507"/><path d="m477.726562 168.296875h-443.421874l15.207031-17.871094h413zm0 0" fill="#84e507"/><path d="m9.382812 162.785156h493.234376c8.132812 0 12.398437 9.652344 6.925781 15.664063l-11.1875 12.292969c-1.773438 1.949218-4.285157 3.0625-6.921875 3.0625l-470.816406.089843c-2.640626 0-5.160157-1.117187-6.933594-3.074219l-11.234375-12.378906c-5.460938-6.019531-1.191407-15.65625 6.933593-15.65625zm0 0" fill="#2de0c7"/><path d="m255.984375 341.71875c-.007813 0-.015625 0-.023437 0-4.265626-.011719-7.714844-3.480469-7.703126-7.746094l.03125-10.902344c.015626-4.257812 3.472657-7.703124 7.726563-7.703124h.023437c4.265626.011718 7.714844 3.480468 7.703126 7.75l-.03125 10.902343c-.015626 4.253907-3.472657 7.699219-7.726563 7.699219zm0 0" fill="#7e18ea"/><path d="m287.53125 335.632812c-2.675781 0-5.28125-1.394531-6.707031-3.886718l-5.425781-9.453125c-2.121094-3.703125-.839844-8.425781 2.859374-10.546875 3.699219-2.125 8.425782-.84375 10.546876 2.859375l5.421874 9.453125c2.125 3.703125.84375 8.425781-2.855468 10.546875-1.210938.695312-2.535156 1.027343-3.839844 1.027343zm0 0" fill="#7e18ea"/><path d="m224.46875 335.449219c-1.320312 0-2.65625-.339844-3.875-1.046875-3.691406-2.144532-4.945312-6.875-2.800781-10.5625l5.480469-9.425782c2.144531-3.691406 6.875-4.941406 10.558593-2.796874 3.691407 2.144531 4.945313 6.871093 2.800781 10.5625l-5.480468 9.421874c-1.433594 2.46875-4.023438 3.847657-6.683594 3.847657zm0 0" fill="#7e18ea"/><g fill="#9bf2e5"><path d="m91.308594 18.757812c-.011719 0-.027344 0-.039063 0-4.269531-.023437-7.707031-3.5-7.6875-7.765624l.015625-2.804688c.019532-4.253906 3.476563-7.6875 7.722656-7.6875h.039063c4.269531.019531 7.710937 3.496094 7.6875 7.765625l-.011719 2.804687c-.023437 4.253907-3.476562 7.6875-7.726562 7.6875zm0 0"/><path d="m91.222656 47.296875c-.015625 0-.027344 0-.039062 0-4.265625-.019531-7.710938-3.492187-7.691406-7.761719l.015624-2.804687c.019532-4.253907 3.476563-7.691407 7.722657-7.691407h.039062c4.265625.023438 7.710938 3.496094 7.6875 7.765626l-.011719 2.804687c-.019531 4.253906-3.472656 7.6875-7.722656 7.6875zm0 0"/><path d="m106.945312 31.675781c-.015624 0-.027343 0-.039062 0l-2.804688-.011719c-4.265624-.019531-7.707031-3.496093-7.6875-7.765624.019532-4.253907 3.476563-7.6875 7.722657-7.6875h.039062l2.804688.011718c4.265625.019532 7.707031 3.496094 7.6875 7.761719-.019531 4.257813-3.476563 7.691406-7.722657 7.691406zm0 0"/><path d="m78.402344 31.589844c-.011719 0-.027344 0-.039063 0l-2.804687-.015625c-4.265625-.019531-7.707032-3.496094-7.6875-7.765625.023437-4.253906 3.476562-7.6875 7.726562-7.6875h.039063l2.804687.015625c4.265625.019531 7.707032 3.496093 7.6875 7.765625-.019531 4.253906-3.476562 7.6875-7.726562 7.6875zm0 0"/><path d="m477.757812 67.609375c-.011718 0-.023437 0-.035156 0-4.269531-.019531-7.710937-3.492187-7.691406-7.761719l.011719-2.804687c.023437-4.253907 3.476562-7.6875 7.726562-7.6875h.039063c4.265625.019531 7.707031 3.492187 7.6875 7.761719l-.011719 2.804687c-.019531 4.253906-3.476563 7.6875-7.726563 7.6875zm0 0"/><path d="m477.667969 96.152344c-.011719 0-.023438 0-.039063 0-4.265625-.023438-7.707031-3.5-7.6875-7.765625l.015625-2.804688c.019531-4.253906 3.476563-7.6875 7.726563-7.6875h.039062c4.265625.019531 7.707032 3.496094 7.6875 7.765625l-.015625 2.804688c-.019531 4.253906-3.476562 7.6875-7.726562 7.6875zm0 0"/><path d="m493.394531 80.53125c-.015625 0-.027343 0-.039062 0l-2.804688-.015625c-4.265625-.019531-7.707031-3.492187-7.6875-7.761719.019531-4.253906 3.476563-7.691406 7.722657-7.691406h.039062l2.804688.015625c4.265624.019531 7.707031 3.492187 7.6875 7.761719-.019532 4.253906-3.472657 7.691406-7.722657 7.691406zm0 0"/><path d="m464.851562 80.441406c-.011718 0-.023437 0-.035156 0l-2.804687-.011718c-4.265625-.019532-7.710938-3.496094-7.691407-7.765626.023438-4.253906 3.476563-7.6875 7.726563-7.6875h.035156l2.804688.011719c4.269531.019531 7.710937 3.496094 7.691406 7.761719-.019531 4.257812-3.476563 7.691406-7.726563 7.691406zm0 0"/></g><path d="m51.003906 59.816406c-.011718 0-.027344 0-.039062 0-4.269532-.019531-7.707032-3.496094-7.6875-7.765625l.011718-2.804687c.023438-4.253906 3.480469-7.6875 7.726563-7.6875h.039063c4.269531.023437 7.710937 3.5 7.6875 7.765625l-.011719 2.804687c-.023438 4.253906-3.476563 7.6875-7.726563 7.6875zm0 0" fill="#2de0c7"/><path d="m50.917969 88.355469c-.015625 0-.023438 0-.039063 0-4.265625-.019531-7.710937-3.492188-7.6875-7.761719l.011719-2.804688c.019531-4.253906 3.476563-7.6875 7.726563-7.6875h.035156c4.265625.019532 7.710937 3.492188 7.691406 7.761719l-.015625 2.804688c-.019531 4.253906-3.476563 7.6875-7.722656 7.6875zm0 0" fill="#2de0c7"/><path d="m66.640625 72.734375c-.015625 0-.023437 0-.039063 0l-2.804687-.011719c-4.265625-.019531-7.707031-3.496094-7.6875-7.761718.019531-4.257813 3.472656-7.691407 7.722656-7.691407h.039063l2.804687.011719c4.265625.023438 7.710938 3.496094 7.6875 7.765625-.019531 4.253906-3.472656 7.6875-7.722656 7.6875zm0 0" fill="#2de0c7"/><path d="m38.097656 72.648438c-.011718 0-.023437 0-.035156 0l-2.804688-.011719c-4.265624-.023438-7.710937-3.496094-7.691406-7.765625.023438-4.253906 3.476563-7.6875 7.726563-7.6875h.035156l2.804687.011718c4.269532.019532 7.710938 3.496094 7.691407 7.761719-.019531 4.257813-3.476563 7.691407-7.726563 7.691407zm0 0" fill="#2de0c7"/></svg>