<svg height="512pt" viewBox="0 0 512 512" width="512pt" xmlns="http://www.w3.org/2000/svg"><path d="m404.773438 256c0 82.160156-66.605469 148.765625-148.765626 148.765625-82.160156 0-148.765624-66.605469-148.765624-148.765625s66.605468-148.765625 148.765624-148.765625c82.160157 0 148.765626 66.605469 148.765626 148.765625zm0 0" fill="#b200bf"/><path d="m378.863281 256c0 67.851562-55.003906 122.855469-122.855469 122.855469-67.851562 0-122.855468-55.003907-122.855468-122.855469s55.003906-122.855469 122.855468-122.855469c67.851563 0 122.855469 55.003907 122.855469 122.855469zm0 0" fill="#6163aa"/><g fill="#2500ad"><path d="m256.007812 512c-43.417968 0-84.714843-19.527344-113.296874-53.570312-2.664063-3.171876-2.253907-7.90625.921874-10.566407 3.171876-2.664062 7.902344-2.25 10.5625.917969 25.730469 30.644531 62.835938 48.21875 101.8125 48.21875 74.648438 0 135.378907-63.453125 135.378907-141.449219 0-78-60.730469-141.453125-135.378907-141.453125-4.144531 0-7.5-3.359375-7.5-7.5s3.355469-7.5 7.5-7.5c82.917969 0 150.378907 70.183594 150.378907 156.453125 0 86.265625-67.460938 156.449219-150.378907 156.449219zm0 0"/><path d="m363.550781 65.894531c-2.140625 0-4.265625-.910156-5.746093-2.679687-25.730469-30.640625-62.835938-48.214844-101.8125-48.214844-36.992188 0-71.539063 15.300781-97.277344 43.078125-2.816406 3.039063-7.5625 3.222656-10.601563.40625-3.039062-2.816406-3.21875-7.5625-.402343-10.597656 28.609374-30.878907 67.0625-47.886719 108.28125-47.886719 43.417968 0 84.714843 19.527344 113.296874 53.570312 2.664063 3.171876 2.253907 7.90625-.921874 10.566407-1.402344 1.179687-3.113282 1.757812-4.816407 1.757812zm0 0"/><path d="m255.992188 312.902344c-82.917969 0-150.378907-70.183594-150.378907-156.453125 0-21.078125 3.960938-41.535157 11.777344-60.796875 1.558594-3.835938 5.929687-5.6875 9.769531-4.128906 3.839844 1.554687 5.6875 5.929687 4.132813 9.769531-7.085938 17.464843-10.679688 36.019531-10.679688 55.15625 0 78 60.730469 141.453125 135.378907 141.453125 4.144531 0 7.5 3.359375 7.5 7.5s-3.355469 7.5-7.5 7.5zm0 0"/><path d="m119.515625 401.960938c-.59375 0-1.191406-.070313-1.789063-.21875-69.316406-16.96875-117.726562-76.894532-117.726562-145.734376 0-43.417968 19.527344-84.714843 53.570312-113.296874 3.175782-2.664063 7.90625-2.25 10.566407.921874 2.664062 3.171876 2.253906 7.902344-.921875 10.5625-30.640625 25.730469-48.214844 62.835938-48.214844 101.8125 0 61.90625 43.710938 115.84375 106.289062 131.164063 4.023438.984375 6.488282 5.046875 5.503907 9.070313-.839844 3.421874-3.902344 5.71875-7.277344 5.71875zm0 0"/><path d="m167.523438 405.996094c-3.902344 0-7.195313-3.019532-7.472657-6.972656-.292969-4.128907 2.820313-7.714844 6.953125-8.007813 35.570313-2.507813 68.597656-17.703125 92.992188-42.78125 24.441406-25.125 37.902344-57.878906 37.902344-92.226563 0-4.144531 3.359374-7.5 7.5-7.5 4.144531 0 7.5 3.355469 7.5 7.5 0 38.273438-14.96875 74.742188-42.148438 102.683594-26.96875 27.726563-63.4375 44.519532-102.691406 47.289063-.175782.011719-.355469.015625-.535156.015625zm0 0"/><path d="m453.609375 371.046875c-2.140625 0-4.265625-.910156-5.75-2.679687-2.660156-3.171876-2.25-7.902344.921875-10.566407 30.644531-25.726562 48.21875-62.832031 48.21875-101.808593 0-74.648438-63.453125-135.378907-141.449219-135.378907-77.996093 0-141.453125 60.730469-141.453125 135.378907 0 4.144531-3.355468 7.5-7.5 7.5-4.140625 0-7.5-3.355469-7.5-7.5 0-82.917969 70.183594-150.378907 156.453125-150.378907 86.265625 0 156.449219 67.460938 156.449219 150.378907 0 43.417968-19.527344 84.714843-53.570312 113.296874-1.40625 1.179688-3.117188 1.757813-4.820313 1.757813zm0 0"/></g><path d="m450.703125 133.144531c0 14.308594-11.597656 25.910157-25.90625 25.910157s-25.910156-11.601563-25.910156-25.910157c0-14.308593 11.601562-25.910156 25.910156-25.910156s25.90625 11.601563 25.90625 25.910156zm0 0" fill="#9bf2e5"/><path d="m450.710938 133.140625c0 14.308594-11.601563 25.910156-25.910157 25.910156-3.25 0-6.351562-.601562-9.210937-1.691406 9.769531-3.699219 16.710937-13.148437 16.710937-24.21875s-6.941406-20.519531-16.710937-24.21875c2.859375-1.09375 5.960937-1.691406 9.210937-1.691406 14.308594 0 25.910157 11.597656 25.910157 25.910156zm0 0" fill="#2de0c7"/><path d="m252.625 385.144531c0 14.308594-11.597656 25.910157-25.90625 25.910157-14.3125 0-25.910156-11.601563-25.910156-25.910157 0-14.308593 11.597656-25.910156 25.910156-25.910156 14.308594 0 25.90625 11.601563 25.90625 25.910156zm0 0" fill="#fda736"/><path d="m252.628906 385.140625c0 14.308594-11.597656 25.910156-25.910156 25.910156-2.820312 0-5.527344-.449219-8.070312-1.28125 10.363281-3.390625 17.839843-13.140625 17.839843-24.628906 0-11.492187-7.476562-21.242187-17.839843-24.628906 2.542968-.832031 5.25-1.28125 8.070312-1.28125 14.3125 0 25.910156 11.597656 25.910156 25.910156zm0 0" fill="#fd8f07"/><path d="m137 81c-.011719 0-.023438 0-.035156 0h-.105469c-4.140625-.019531-7.480469-3.394531-7.464844-7.535156.019531-4.128906 3.375-7.464844 7.5-7.464844h.035157.105468c4.144532.019531 7.484375 3.394531 7.464844 7.535156-.019531 4.128906-3.375 7.464844-7.5 7.464844zm0 0" fill="#c5ee09"/><path d="m144.105469 405.996094h-.105469c-4.144531 0-7.5-3.355469-7.5-7.5 0-4.140625 3.355469-7.5 7.5-7.5h.105469c4.140625 0 7.5 3.359375 7.5 7.5 0 4.144531-3.359375 7.5-7.5 7.5zm0 0" fill="#c5ee09"/><path d="m217.496094 68.460938c-.011719 0-.023438 0-.035156 0-4.144532-.023438-7.484376-3.394532-7.464844-7.535157l.011718-2.722656c.019532-4.132813 3.375-7.464844 7.5-7.464844h.035157c4.140625.019531 7.484375 3.390625 7.464843 7.535157l-.011718 2.71875c-.019532 4.132812-3.375 7.46875-7.5 7.46875zm0 0" fill="#c5ee09"/><path d="m217.410156 96.164062c-.011718 0-.023437 0-.035156 0-4.144531-.019531-7.484375-3.394531-7.464844-7.535156l.011719-2.722656c.019531-4.128906 3.375-7.464844 7.5-7.464844h.035156c4.140625.019532 7.484375 3.394532 7.464844 7.535156l-.011719 2.722657c-.019531 4.128906-3.375 7.464843-7.5 7.464843zm0 0" fill="#c5ee09"/><path d="m232.671875 81c-.011719 0-.023437 0-.035156 0l-2.722657-.011719c-4.140624-.019531-7.484374-3.394531-7.464843-7.535156.019531-4.132813 3.375-7.464844 7.5-7.464844h.035156l2.722656.011719c4.140625.019531 7.484375 3.394531 7.464844 7.535156-.019531 4.128906-3.375 7.464844-7.5 7.464844zm0 0" fill="#c5ee09"/><path d="m204.96875 80.914062c-.015625 0-.023438 0-.035156 0l-2.722656-.011718c-4.144532-.019532-7.484376-3.394532-7.464844-7.535156.019531-4.132813 3.371094-7.464844 7.496094-7.464844h.039062l2.722656.011718c4.140625.019532 7.480469 3.394532 7.464844 7.535157-.023438 4.128906-3.375 7.464843-7.5 7.464843zm0 0" fill="#c5ee09"/><path d="m174.066406 203.605469c-.011718 0-.023437 0-.035156 0-4.144531-.019531-7.484375-3.390625-7.464844-7.535157l.011719-2.71875c.019531-4.132812 3.375-7.464843 7.5-7.464843h.035156c4.140625.019531 7.484375 3.390625 7.464844 7.535156l-.011719 2.71875c-.019531 4.132813-3.375 7.464844-7.5 7.464844zm0 0" fill="#9bf2e5"/><path d="m173.980469 231.3125c-.011719 0-.023438 0-.035157 0-4.144531-.019531-7.484374-3.394531-7.464843-7.535156l.011719-2.722656c.019531-4.128907 3.375-7.464844 7.5-7.464844h.035156c4.140625.019531 7.484375 3.394531 7.464844 7.535156l-.011719 2.722656c-.019531 4.128906-3.375 7.464844-7.5 7.464844zm0 0" fill="#9bf2e5"/><path d="m189.242188 216.148438c-.011719 0-.023438 0-.035157 0l-2.722656-.015626c-4.140625-.019531-7.484375-3.390624-7.464844-7.535156.019531-4.128906 3.375-7.464844 7.5-7.464844h.035157l2.722656.015626c4.140625.019531 7.484375 3.390624 7.464844 7.535156-.019532 4.128906-3.375 7.464844-7.5 7.464844zm0 0" fill="#9bf2e5"/><path d="m161.539062 216.0625c-.015624 0-.023437 0-.035156 0l-2.722656-.011719c-4.144531-.023437-7.484375-3.394531-7.464844-7.535156.019532-4.132813 3.371094-7.464844 7.496094-7.464844h.039062l2.71875.011719c4.144532.019531 7.484376 3.390625 7.464844 7.535156-.015625 4.128906-3.371094 7.464844-7.496094 7.464844zm0 0" fill="#9bf2e5"/><path d="m284.304688 429.378906c-.011719 0-.023438 0-.035157 0-4.140625-.019531-7.484375-3.390625-7.464843-7.535156l.011718-2.722656c.019532-4.128906 3.375-7.464844 7.5-7.464844h.035156c4.140626.023438 7.484376 3.394531 7.464844 7.535156l-.011718 2.722656c-.019532 4.132813-3.375 7.464844-7.5 7.464844zm0 0" fill="#edff85"/><path d="m284.21875 457.085938c-.011719 0-.023438 0-.035156 0-4.140625-.019532-7.484375-3.394532-7.464844-7.535157l.011719-2.722656c.023437-4.128906 3.375-7.464844 7.5-7.464844h.035156c4.144531.019531 7.484375 3.394531 7.464844 7.535157l-.011719 2.722656c-.019531 4.128906-3.375 7.464844-7.5 7.464844zm0 0" fill="#edff85"/><path d="m299.480469 441.921875c-.011719 0-.023438 0-.035157 0l-2.722656-.015625c-4.144531-.019531-7.484375-3.390625-7.464844-7.535156.019532-4.128906 3.375-7.464844 7.5-7.464844h.035157l2.722656.015625c4.144531.019531 7.484375 3.394531 7.464844 7.535156-.019531 4.128907-3.375 7.464844-7.5 7.464844zm0 0" fill="#edff85"/><path d="m271.777344 441.835938c-.011719 0-.023438 0-.035156 0l-2.722657-.015626c-4.140625-.019531-7.484375-3.390624-7.464843-7.535156.019531-4.128906 3.375-7.464844 7.5-7.464844h.035156l2.722656.015626c4.140625.019531 7.484375 3.390624 7.464844 7.535156-.019532 4.128906-3.375 7.464844-7.5 7.464844zm0 0" fill="#edff85"/><path d="m88.195312 239.421875c0 9.695313-7.859374 17.554687-17.554687 17.554687s-17.550781-7.859374-17.550781-17.554687c0-9.691406 7.855468-17.550781 17.550781-17.550781s17.554687 7.859375 17.554687 17.550781zm0 0" fill="#edff85"/><path d="m460.359375 206.597656c0 9.695313-7.859375 17.554688-17.554687 17.554688-9.691407 0-17.550782-7.859375-17.550782-17.554688 0-9.695312 7.859375-17.550781 17.550782-17.550781 9.695312 0 17.554687 7.855469 17.554687 17.550781zm0 0" fill="#edff85"/><path d="m312.910156 256c0 31.425781-25.476562 56.902344-56.902344 56.902344-31.425781 0-56.902343-25.476563-56.902343-56.902344s25.476562-56.902344 56.902343-56.902344c31.425782 0 56.902344 25.476563 56.902344 56.902344zm0 0" fill="#c5ee09"/><path d="m312.910156 256c0 31.429688-25.480468 56.898438-56.898437 56.898438-18.5625 0-35.042969-8.878907-45.433594-22.628907 9.53125 7.199219 21.410156 11.46875 34.273437 11.46875 31.417969 0 56.898438-25.46875 56.898438-56.898437 0-12.871094-4.269531-24.738282-11.480469-34.269532 13.75 10.390626 22.640625 26.871094 22.640625 45.429688zm0 0" fill="#69cc00"/><path d="m271.722656 259.902344c-.011718 0-.023437 0-.035156 0h-.105469c-4.140625-.019532-7.484375-3.390625-7.464843-7.535156.019531-4.128907 3.375-7.464844 7.5-7.464844h.035156.105468c4.140626.019531 7.484376 3.394531 7.464844 7.535156-.019531 4.128906-3.375 7.464844-7.5 7.464844zm0 0" fill="#69cc00"/><path d="m274.386719 277.503906c-.015625 0-.023438 0-.035157 0h-.105468c-4.144532-.019531-7.484375-3.390625-7.464844-7.535156.019531-4.128906 3.375-7.464844 7.5-7.464844h.035156.105469c4.140625.019532 7.480469 3.394532 7.464844 7.535156-.023438 4.132813-3.375 7.464844-7.5 7.464844zm0 0" fill="#69cc00"/></svg>