<svg height="511pt" viewBox="-36 0 511 511.995" width="511pt" xmlns="http://www.w3.org/2000/svg"><path d="m326.972656 19.105469 15.820313 7.234375-37.273438 81.5-15.820312-7.234375zm0 0" fill="#00c4ce"/><path d="m355.804688 19.402344c0 10.714844-8.683594 19.398437-19.398438 19.398437s-19.402344-8.683593-19.402344-19.398437 8.6875-19.402344 19.402344-19.402344 19.398438 8.6875 19.398438 19.402344zm0 0" fill="#b200bf"/><path d="m152.390625 100.609375-15.820313 7.234375-37.273437-81.496094 15.820313-7.238281zm0 0" fill="#00c4ce"/><path d="m125.082031 19.402344c0 10.714844-8.6875 19.398437-19.402343 19.398437-10.714844 0-19.398438-8.683593-19.398438-19.398437s8.683594-19.402344 19.398438-19.402344c10.714843 0 19.402343 8.6875 19.402343 19.402344zm0 0" fill="#b200bf"/><path d="m420.421875 481.679688c0 16.742187-13.566406 30.308593-30.308594 30.308593h-335.90625c-8.371093 0-15.941406-3.390625-21.429687-8.878906-5.488282-5.488281-8.878906-13.058594-8.878906-21.429687 0-8.371094 3.390624-15.941407 8.878906-21.429688 5.488281-5.488281 13.058594-8.878906 21.429687-8.878906 20.953125 0 37.933594-16.980469 37.933594-37.933594v-229.488281c0-35.90625 14.546875-68.414063 38.082031-91.9375 5.617188-5.617188 11.742188-10.726563 18.308594-15.226563 20.929688-14.425781 46.292969-22.855468 73.628906-22.855468 71.8125 0 130.019532 58.207031 130.019532 130.019531v229.488281c0 20.953125 16.980468 37.933594 37.933593 37.933594 8.371094 0 15.941407 3.390625 21.429688 8.878906s8.878906 13.058594 8.878906 21.429688zm0 0" fill="#2de0c7"/><path d="m420.417969 481.675781c0 16.742188-13.566407 30.320313-30.308594 30.320313h-2.863281c1.039062-3.050782 1.597656-6.316406 1.597656-9.714844 0-8.367188-3.398438-15.9375-8.878906-21.429688-5.492188-5.492187-13.0625-8.878906-21.4375-8.878906-20.945313 0-37.933594-16.976562-37.933594-37.933594v-250.09375c0-66.457031-49.851562-121.265624-114.195312-129.074218 5.160156-.628906 10.425781-.945313 15.761718-.945313 71.8125 0 130.019532 58.203125 130.019532 130.019531v229.492188c0 20.953125 16.976562 37.929688 37.929687 37.929688 8.375 0 15.949219 3.390624 21.429687 8.878906 5.488282 5.492187 8.878907 13.066406 8.878907 21.429687zm0 0" fill="#00c2cc"/><path d="m351.292969 505.964844c0 2.035156-.121094 4.050781-.359375 6.023437h-100.109375c-.238281-1.972656-.359375-3.988281-.359375-6.023437 0-27.847656 22.578125-50.414063 50.414062-50.414063 27.84375 0 50.414063 22.566407 50.414063 50.414063zm0 0" fill="#00c2cc"/><path d="m198.214844 141.785156c0 37.195313-30.148438 67.34375-67.34375 67.34375-14.417969 0-27.777344-4.527344-38.730469-12.25v-12.929687c0-35.910157 14.546875-68.414063 38.082031-91.9375 5.617188-5.617188 11.742188-10.726563 18.308594-15.226563 28.621094 7.753906 49.683594 33.921875 49.683594 65zm0 0" fill="#00c2cc"/><path d="m352.179688 242.0625v91.808594c-21.261719-4.460938-37.234376-23.316406-37.234376-45.902344 0-22.589844 15.972657-41.445312 37.234376-45.90625zm0 0" fill="#00c2cc"/><path d="m352.179688 242.066406v91.8125c-13.652344-2.867187-25.117188-11.664062-31.585938-23.574218v-44.667969c6.46875-11.90625 17.9375-20.707031 31.585938-23.570313zm0 0" fill="#00a6cc"/><path d="m276.15625 178.054688c0 29.820312-24.175781 53.996093-53.996094 53.996093-29.824218 0-54-24.175781-54-53.996093 0-29.824219 24.175782-54 54-54 29.820313 0 53.996094 24.175781 53.996094 54zm0 0" fill="#fef5e3"/><path d="m276.15625 178.054688c0 14.910156-12.089844 26.996093-27 26.996093s-27-12.085937-27-26.996093c0-14.914063 12.089844-27 27-27s27 12.085937 27 27zm0 0" fill="#b200bf"/><path d="m264.449219 300.066406c0 23.355469-18.933594 42.289063-42.289063 42.289063-23.355468 0-42.289062-18.933594-42.289062-42.289063 0-23.355468 18.933594-42.289062 42.289062-42.289062 23.355469 0 42.289063 18.933594 42.289063 42.289062zm0 0" fill="#fef5e3"/><path d="m258.253906 285.117188c0 11.679687-9.46875 21.144531-21.144531 21.144531s-21.144531-9.464844-21.144531-21.144531c0-11.675782 9.46875-21.144532 21.144531-21.144532s21.144531 9.46875 21.144531 21.144532zm0 0" fill="#b200bf"/><path d="m259.222656 415.953125-12-8.769531c9.957032-4.699219 18.367188-12.113282 24.304688-21.292969l4.578125 18.757813c2.394531 9.796874-8.738281 17.25-16.882813 11.304687zm0 0" fill="#fef5e3"/><path d="m222.160156 420.515625c-31.433594 0-58.816406-22.320313-65.113281-53.074219-.855469-4.179687 1.839844-8.261718 6.023437-9.121094 4.175782-.851562 8.261719 1.839844 9.117188 6.023438 4.832031 23.59375 25.847656 40.71875 49.972656 40.71875 7.621094 0 14.941406-1.636719 21.753906-4.863281 8.625-4.070313 15.925782-10.46875 21.125-18.503907 5.316407-8.226562 8.128907-17.785156 8.128907-27.640624 0-4.269532 3.460937-7.726563 7.726562-7.726563s7.726563 3.460937 7.726563 7.726563c0 12.835937-3.667969 25.296874-10.605469 36.03125-6.765625 10.460937-16.273437 18.785156-27.496094 24.082031-8.886719 4.210937-18.429687 6.347656-28.359375 6.347656zm0 0" fill="#00a6cc"/><path d="m162.167969 431.679688c0 10.433593-8.457031 18.890624-18.890625 18.890624s-18.890625-8.457031-18.890625-18.890624c0-10.433594 8.457031-18.890626 18.890625-18.890626s18.890625 8.457032 18.890625 18.890626zm0 0" fill="#00c2cc"/><path d="m145.175781 373.703125c-4.25 0-7.707031-3.4375-7.722656-7.695313-.019531-4.257812 3.410156-7.726562 7.667969-7.757812.292968-.003906 17.140625-.339844 29.96875-10.449219 3.351562-2.640625 8.207031-2.0625 10.851562 1.289063 2.640625 3.351562 2.0625 8.207031-1.289062 10.847656-17.144532 13.511719-38.539063 13.761719-39.441406 13.765625-.011719 0-.023438 0-.035157 0zm0 0" fill="#00a6cc"/><path d="m151.078125 259.945312h-.109375c-4.265625 0-7.722656-3.460937-7.722656-7.726562 0-4.269531 3.457031-7.726562 7.722656-7.726562h.109375c4.265625 0 7.726563 3.457031 7.726563 7.726562 0 4.265625-3.460938 7.726562-7.726563 7.726562zm0 0" fill="#b200bf"/><path d="m324.148438 439.40625h-.109376c-4.265624 0-7.722656-3.457031-7.722656-7.726562 0-4.265626 3.457032-7.726563 7.722656-7.726563h.109376c4.265624 0 7.726562 3.460937 7.726562 7.726563 0 4.269531-3.460938 7.726562-7.726562 7.726562zm0 0" fill="#b200bf"/><path d="m168.214844 470.101562h-.105469c-4.269531 0-7.726563-3.460937-7.726563-7.726562s3.457032-7.726562 7.726563-7.726562h.105469c4.269531 0 7.726562 3.460937 7.726562 7.726562s-3.457031 7.726562-7.726562 7.726562zm0 0" fill="#b200bf"/><path d="m304.230469 212.78125h-.105469c-4.269531 0-7.726562-3.460938-7.726562-7.726562 0-4.265626 3.460937-7.726563 7.726562-7.726563h.105469c4.269531 0 7.726562 3.460937 7.726562 7.726563 0 4.265624-3.457031 7.726562-7.726562 7.726562zm0 0" fill="#b200bf"/><path d="m134.011719 242.773438h-.105469c-4.269531 0-7.726562-3.457032-7.726562-7.722657 0-4.269531 3.460937-7.726562 7.726562-7.726562h.105469c4.269531 0 7.726562 3.457031 7.726562 7.726562.003907 4.265625-3.457031 7.722657-7.726562 7.722657zm0 0" fill="#b200bf"/><g fill="#2de0c7"><path d="m384.625 105.574219c-.015625 0-.027344 0-.039062 0-4.265626-.019531-7.710938-3.496094-7.6875-7.765625l.011718-2.800782c.019532-4.257812 3.476563-7.691406 7.722656-7.691406h.039063c4.265625.019532 7.710937 3.496094 7.691406 7.761719l-.015625 2.804687c-.019531 4.253907-3.472656 7.691407-7.722656 7.691407zm0 0"/><path d="m384.535156 134.113281c-.011718 0-.023437 0-.035156 0-4.269531-.019531-7.710938-3.492187-7.691406-7.761719l.011718-2.804687c.019532-4.253906 3.476563-7.6875 7.726563-7.6875h.035156c4.269531.019531 7.710938 3.492187 7.691407 7.761719l-.011719 2.804687c-.019531 4.253907-3.476563 7.6875-7.726563 7.6875zm0 0"/><path d="m400.257812 118.492188c-.011718 0-.023437 0-.039062 0l-2.804688-.011719c-4.265624-.023438-7.707031-3.5-7.6875-7.765625.023438-4.253906 3.476563-7.6875 7.726563-7.6875h.039063l2.804687.011718c4.265625.023438 7.707031 3.5 7.6875 7.765626-.023437 4.253906-3.476563 7.6875-7.726563 7.6875zm0 0"/><path d="m371.71875 118.402344c-.015625 0-.023438 0-.039062 0l-2.804688-.011719c-4.265625-.019531-7.707031-3.496094-7.6875-7.761719.019531-4.257812 3.476562-7.691406 7.722656-7.691406h.039063l2.804687.011719c4.265625.023437 7.707032 3.496093 7.6875 7.765625-.019531 4.253906-3.476562 7.6875-7.722656 7.6875zm0 0"/><path d="m23.933594 348.730469c-.011719 0-.023438 0-.035156 0-4.269532-.019531-7.710938-3.496094-7.691407-7.765625l.011719-2.804688c.019531-4.253906 3.476562-7.6875 7.726562-7.6875h.035157c4.269531.019532 7.710937 3.496094 7.691406 7.761719l-.011719 2.804687c-.023437 4.253907-3.476562 7.691407-7.726562 7.691407zm0 0"/><path d="m23.84375 377.269531c-.011719 0-.023438 0-.035156 0-4.265625-.019531-7.710938-3.496093-7.691406-7.761719l.015624-2.804687c.019532-4.253906 3.476563-7.691406 7.722657-7.691406h.039062c4.265625.019531 7.710938 3.496093 7.6875 7.765625l-.011719 2.800781c-.019531 4.257813-3.476562 7.691406-7.726562 7.691406zm0 0"/><path d="m39.570312 361.648438c-.015624 0-.027343 0-.039062 0l-2.804688-.011719c-4.265624-.023438-7.707031-3.496094-7.6875-7.765625.019532-4.253906 3.472657-7.6875 7.722657-7.6875h.039062l2.804688.011718c4.265625.019532 7.707031 3.496094 7.6875 7.761719-.019531 4.253907-3.476563 7.691407-7.722657 7.691407zm0 0"/><path d="m11.027344 361.558594c-.011719 0-.023438 0-.039063 0l-2.804687-.011719c-4.265625-.023437-7.707032-3.5-7.6875-7.765625.023437-4.253906 3.476562-7.6875 7.726562-7.6875h.039063l2.804687.011719c4.265625.023437 7.707032 3.5 7.6875 7.765625-.019531 4.257812-3.476562 7.6875-7.726562 7.6875zm0 0"/><path d="m416.339844 166.730469c-.011719 0-.023438 0-.035156 0-4.265626-.019531-7.710938-3.496094-7.691407-7.761719l.015625-2.804688c.019532-4.257812 3.476563-7.691406 7.722656-7.691406h.039063c4.265625.019532 7.707031 3.496094 7.6875 7.761719l-.011719 2.804687c-.019531 4.257813-3.476562 7.691407-7.726562 7.691407zm0 0"/><path d="m416.253906 195.269531c-.011718 0-.023437 0-.035156 0-4.269531-.019531-7.710938-3.492187-7.691406-7.761719l.011718-2.804687c.023438-4.253906 3.476563-7.6875 7.726563-7.6875h.035156c4.269531.019531 7.710938 3.492187 7.691407 7.761719l-.011719 2.804687c-.019531 4.253907-3.476563 7.6875-7.726563 7.6875zm0 0"/><path d="m431.976562 179.648438c-.011718 0-.023437 0-.035156 0l-2.804687-.011719c-4.269531-.019531-7.710938-3.496094-7.691407-7.765625.019532-4.265625 3.523438-7.71875 7.761719-7.6875l2.804688.011718c4.269531.019532 7.710937 3.496094 7.691406 7.765626-.023437 4.253906-3.476563 7.6875-7.726563 7.6875zm0 0"/><path d="m403.4375 179.5625c-.015625 0-.027344 0-.039062 0l-2.804688-.015625c-4.269531-.019531-7.710938-3.496094-7.6875-7.765625.019531-4.253906 3.476562-7.6875 7.722656-7.6875h.042969l2.800781.015625c4.269532.019531 7.710938 3.496094 7.6875 7.765625-.019531 4.253906-3.472656 7.6875-7.722656 7.6875zm0 0"/></g></svg>