<svg height="512pt" viewBox="-2 0 512 512" width="512pt" xmlns="http://www.w3.org/2000/svg"><path d="m235.625 80.199219c0 44.289062-35.90625 80.195312-80.199219 80.195312s-80.195312-35.90625-80.195312-80.195312c0-44.292969 35.902343-80.199219 80.195312-80.199219s80.199219 35.90625 80.199219 80.199219zm0 0" fill="#edff85"/><path d="m235.617188 80.199219c0 44.292969-35.902344 80.195312-80.1875 80.195312-7.703126 0-15.160157-1.082031-22.203126-3.117187 33.496094-9.621094 57.996094-40.492188 57.996094-77.082032 0-36.585937-24.5-67.457031-57.996094-77.078124 7.042969-2.03125 14.5-3.117188 22.203126-3.117188 44.285156 0 80.1875 35.902344 80.1875 80.199219zm0 0" fill="#c5ee09"/><path d="m508.4375 350.84375c0 44.292969-35.902344 80.195312-80.195312 80.195312-44.292969 0-80.195313-35.902343-80.195313-80.195312s35.902344-80.195312 80.195313-80.195312c44.292968 0 80.195312 35.902343 80.195312 80.195312zm0 0" fill="#ffe5c0"/><path d="m508.441406 350.839844c0 28.632812-15.003906 53.746094-37.558594 67.925781 7.773438-12.339844 12.257813-26.964844 12.257813-42.628906 0-44.292969-35.902344-80.195313-80.195313-80.195313-15.675781 0-30.289062 4.496094-42.640624 12.269532 14.191406-22.570313 39.304687-37.570313 67.9375-37.570313 44.292968 0 80.199218 35.917969 80.199218 80.199219zm0 0" fill="#ffd4a1"/><path d="m489.382812 236.632812c0 108.921876-88.300781 197.21875-197.21875 197.21875-108.921874 0-197.21875-88.296874-197.21875-197.21875 0-108.917968 88.296876-197.21875 197.21875-197.21875 108.917969 0 197.21875 88.300782 197.21875 197.21875zm0 0" fill="#fda736"/><path d="m489.386719 236.632812c0 108.921876-88.304688 197.214844-197.226563 197.214844-6.230468 0-12.40625-.285156-18.492187-.859375 100.242187-9.324219 178.707031-93.679687 178.707031-196.355469 0-102.675781-78.460938-187.03125-178.707031-196.355468 6.085937-.574219 12.261719-.855469 18.492187-.855469 108.921875 0 197.226563 88.289063 197.226563 197.210937zm0 0" fill="#fd8f07"/><g fill="#fed370"><path d="m446.996094 123.652344c-8.191406 2.609375-16.667969 4.984375-25.410156 7.125-39.125 9.65625-83.324219 14.703125-129.421876 14.703125-56.921874 0-110.867187-7.675781-156-22.203125-4-1.289063-6.203124-5.574219-4.914062-9.574219 1.277344-4.007813 5.574219-6.210937 9.574219-4.921875 43.652343 14.039062 95.984375 21.46875 151.339843 21.46875 42.65625 0 83.566407-4.414062 120.074219-12.871094 10.425781-2.414062 20.496094-5.167968 30.140625-8.234375 4.007813-1.277343 8.292969.933594 9.5625 4.945313 1.277344 4.011718-.933594 8.292968-4.945312 9.5625zm0 0"/><path d="m292.164062 116.484375c-47.519531 0-93.457031-6.277344-132.851562-18.160156-4.027344-1.214844-6.304688-5.460938-5.089844-9.488281 1.210938-4.027344 5.460938-6.308594 9.488282-5.089844 37.984374 11.457031 82.402343 17.511718 128.453124 17.511718 29.613282 0 58.441407-2.476562 85.671876-7.367187 4.140624-.742187 8.097656 2.011719 8.839843 6.148437.742188 4.140626-2.007812 8.097657-6.148437 8.839844-28.117188 5.046875-57.847656 7.605469-88.363282 7.605469zm0 0"/><path d="m197.132812 253.578125c-.421874 0-.851562-.03125-1.285156-.105469-25.261718-4.300781-48.675781-10.253906-69.59375-17.699218-3.960937-1.410157-6.03125-5.761719-4.621094-9.722657 1.410157-3.964843 5.761719-6.03125 9.722657-4.621093 20.09375 7.144531 42.652343 12.875 67.046875 17.03125 4.144531.703124 6.933594 4.636718 6.226562 8.78125-.628906 3.714843-3.851562 6.335937-7.496094 6.335937zm0 0"/><path d="m490.292969 222.09375c-11.441407 5.796875-24.160157 11.023438-37.914063 15.632812-43.695312 14.648438-97.8125 23.042969-154.4375 23.574219h-.074218c-4.171876 0-7.570313-3.363281-7.601563-7.542969-.042969-4.203124 3.328125-7.644531 7.542969-7.6875 57.019531-.527343 111.210937-9.1875 154.019531-24.230468 11.382813-4 21.957031-8.457032 31.574219-13.328125 3.753906-1.898438 8.332031-.40625 10.242187 3.347656 1.898438 3.746094.394531 8.335937-3.351562 10.234375zm0 0"/><path d="m292.164062 366.871094c-69.316406 0-134.9375-13.972656-180.039062-38.328125-3.699219-2-5.078125-6.617188-3.082031-10.316407 2-3.699218 6.617187-5.078124 10.316406-3.082031 42.949219 23.195313 105.933594 36.5 172.804687 36.5 18.503907 0 36.902344-1.019531 54.691407-3.027343 4.179687-.46875 7.945312 2.535156 8.417969 6.714843.46875 4.179688-2.535157 7.945313-6.710938 8.417969-18.351562 2.070312-37.328125 3.121094-56.398438 3.121094zm0 0"/><path d="m471.613281 328.859375c-16.121093 8.636719-34.757812 15.976563-55.578125 21.886719-4.78125 1.347656-9.675781 2.628906-14.679687 3.835937-.597657.140625-1.199219.214844-1.789063.214844-3.4375 0-6.554687-2.347656-7.398437-5.839844-.984375-4.089843 1.53125-8.203125 5.625-9.1875 10.789062-2.597656 21.011719-5.550781 30.636719-8.859375 13.167968-4.519531 25.207031-9.6875 35.988281-15.472656 3.703125-1.988281 8.324219-.597656 10.3125 3.117188 1.980469 3.707031.589843 8.3125-3.117188 10.304687zm0 0"/><path d="m442.4375 372.816406c-19.410156 6.960938-40.363281 12.484375-62.390625 16.464844-27.90625 5.054688-57.53125 7.652344-87.882813 7.652344-54.320312 0-106.289062-8.34375-150.277343-24.117188-3.957031-1.421875-6.019531-5.789062-4.597657-9.738281 1.421876-3.957031 5.777344-6.019531 9.734376-4.597656 42.363281 15.195312 92.542968 23.226562 145.136718 23.226562 38.292969 0 75.308594-4.253906 108.957032-12.445312 12.570312-3.058594 24.660156-6.648438 36.171874-10.78125 3.960938-1.421875 8.3125.640625 9.734376 4.597656 1.425781 3.960937-.636719 8.316406-4.585938 9.738281zm0 0"/></g><path d="m187.402344 428.972656c6.304687-12.660156 9.871094-26.925781 9.871094-42.03125 0-40.140625-25.0625-74.414062-60.386719-88.074218l-2.539063-13.125c-.925781-4.773438-5.105468-8.222657-9.96875-8.222657h-43.070312c-4.863282 0-9.042969 3.449219-9.964844 8.222657l-2.539062 13.125c-35.324219 13.660156-60.386719 47.933593-60.386719 88.074218 0 15.742188 3.875 30.570313 10.683593 43.621094l-11.023437 17.1875c-2.46875 3.84375-2.0625 8.863281.988281 12.261719l11.671875 13.007812c3.050781 3.402344 7.992188 4.34375 12.082031 2.308594l18.546876-9.238281c14.8125 9.652344 32.484374 15.28125 51.476562 15.28125 13.726562 0 26.757812-2.953125 38.523438-8.222656l17.46875 11.800781c4.027343 2.722656 9.421874 2.207031 12.859374-1.230469l25.527344-25.527344c3.4375-3.4375 3.957032-8.832031 1.234375-12.863281zm0 0" fill="#2de0c7"/><path d="m113.308594 412.742188c0 13.269531-10.757813 24.03125-24.03125 24.03125-13.273438 0-24.03125-10.761719-24.03125-24.03125 0-13.273438 10.757812-24.03125 24.03125-24.03125 13.273437 0 24.03125 10.757812 24.03125 24.03125zm0 0" fill="#00c4ce"/><path d="m113.3125 412.742188c0 13.265624-10.761719 24.027343-24.039062 24.027343-3.460938 0-6.761719-.730469-9.734376-2.058593 8.425782-3.738282 14.292969-12.175782 14.292969-21.96875 0-9.796876-5.867187-18.234376-14.292969-21.96875 2.972657-1.332032 6.273438-2.0625 9.734376-2.0625 13.277343 0 24.039062 10.761718 24.039062 24.03125zm0 0" fill="#00a6cc"/><path d="m141.730469 352.691406c0 7.851563-6.363281 14.210938-14.210938 14.210938-7.847656 0-14.210937-6.359375-14.210937-14.210938 0-7.847656 6.363281-14.210937 14.210937-14.210937 7.847657 0 14.210938 6.363281 14.210938 14.210937zm0 0" fill="#00c4ce"/><path d="m160.722656 391.195312c-.007812 0-.019531 0-.027344 0h-.148437c-4.203125-.015624-7.601563-3.433593-7.585937-7.640624.011718-4.195313 3.417968-7.585938 7.609374-7.585938h.027344.148438c4.207031.011719 7.601562 3.433594 7.589844 7.636719-.015626 4.195312-3.421876 7.589843-7.613282 7.589843zm0 0" fill="#9bf2e5"/><path d="m45.769531 384.679688c-.007812 0-.019531 0-.027343 0h-.148438c-4.207031-.015626-7.601562-3.4375-7.589844-7.640626.015625-4.195312 3.421875-7.589843 7.613282-7.589843h.027343.148438c4.207031.015625 7.601562 3.4375 7.589843 7.640625-.015624 4.195312-3.421874 7.589844-7.613281 7.589844zm0 0" fill="#9bf2e5"/><path d="m49.109375 149.914062c-.015625 0-.027344 0-.039063 0-4.207031-.019531-7.597656-3.445312-7.578124-7.648437l.015624-3.292969c.019532-4.195312 3.425782-7.578125 7.613282-7.578125h.039062c4.203125.019531 7.597656 3.445313 7.578125 7.648438l-.015625 3.296875c-.023437 4.191406-3.425781 7.574218-7.613281 7.574218zm0 0" fill="#edff85"/><path d="m49.003906 183.464844c-.011718 0-.023437 0-.039062 0-4.203125-.019532-7.597656-3.445313-7.574219-7.652344l.015625-3.292969c.019531-4.195312 3.421875-7.578125 7.613281-7.578125h.035157c4.207031.019532 7.597656 3.445313 7.578124 7.648438l-.015624 3.296875c-.019532 4.191406-3.425782 7.578125-7.613282 7.578125zm0 0" fill="#edff85"/><path d="m67.484375 165.101562c-.011719 0-.023437 0-.039063 0l-3.292968-.015624c-4.207032-.019532-7.597656-3.445313-7.578125-7.648438.019531-4.195312 3.425781-7.578125 7.613281-7.578125h.039062l3.292969.015625c4.207031.019531 7.597657 3.445312 7.578125 7.648438-.019531 4.195312-3.425781 7.578124-7.613281 7.578124zm0 0" fill="#edff85"/><path d="m33.9375 164.996094c-.011719 0-.023438 0-.035156 0l-3.296875-.011719c-4.203125-.019531-7.597657-3.445313-7.578125-7.648437.019531-4.195313 3.425781-7.578126 7.613281-7.578126h.039063l3.292968.011719c4.207032.019531 7.597656 3.445313 7.578125 7.652344-.019531 4.191406-3.425781 7.574219-7.613281 7.574219zm0 0" fill="#edff85"/><path d="m270.332031 478.453125c-.011719 0-.023437 0-.035156 0-4.207031-.019531-7.597656-3.445313-7.578125-7.648437l.011719-3.296876c.023437-4.191406 3.425781-7.578124 7.613281-7.578124h.039062c4.203126.019531 7.59375 3.445312 7.578126 7.648437l-.015626 3.296875c-.019531 4.191406-3.425781 7.578125-7.613281 7.578125zm0 0" fill="#2de0c7"/><path d="m270.226562 512c-.011718 0-.023437 0-.035156 0-4.203125-.019531-7.597656-3.445312-7.578125-7.648438l.015625-3.296874c.019532-4.191407 3.425782-7.578126 7.613282-7.578126h.035156c4.207031.019532 7.597656 3.445313 7.578125 7.648438l-.011719 3.296875c-.023438 4.191406-3.425781 7.578125-7.617188 7.578125zm0 0" fill="#2de0c7"/><path d="m288.710938 493.636719c-.011719 0-.023438 0-.039063 0l-3.292969-.015625c-4.207031-.019532-7.597656-3.441406-7.578125-7.648438.019531-4.191406 3.425781-7.578125 7.613281-7.578125h.035157l3.292969.015625c4.207031.019532 7.597656 3.445313 7.578124 7.648438-.019531 4.195312-3.421874 7.578125-7.609374 7.578125zm0 0" fill="#2de0c7"/><path d="m255.160156 493.535156c-.011718 0-.023437 0-.035156 0l-3.296875-.015625c-4.203125-.019531-7.59375-3.445312-7.574219-7.648437.019532-4.195313 3.421875-7.578125 7.609375-7.578125h.039063l3.296875.015625c4.203125.019531 7.597656 3.445312 7.578125 7.648437-.023438 4.191407-3.425782 7.578125-7.617188 7.578125zm0 0" fill="#2de0c7"/><path d="m39.734375 69.671875c-.011719 0-.019531 0-.03125 0h-.117187c-4.207032-.019531-7.601563-3.441406-7.582032-7.648437.015625-4.191407 3.421875-7.582032 7.609375-7.582032h.035157.117187c4.203125.019532 7.597656 3.441406 7.582031 7.648438-.019531 4.191406-3.421875 7.582031-7.613281 7.582031zm0 0" fill="#c5ee09"/><path d="m375.25 463.886719c-.011719 0-.023438 0-.03125 0h-.121094c-4.203125-.019531-7.597656-3.441407-7.582031-7.648438.019531-4.203125 3.4375-7.589843 7.644531-7.582031l.121094.003906c4.203125.015625 7.597656 3.441406 7.582031 7.644532-.019531 4.191406-3.425781 7.582031-7.613281 7.582031zm0 0" fill="#c5ee09"/><path d="m19.183594 89.738281c-.007813 0-.019532 0-.03125 0h-.117188c-4.207031-.019531-7.597656-3.441406-7.582031-7.644531.019531-4.195312 3.421875-7.582031 7.613281-7.582031h.03125.117188c4.207031.015625 7.601562 3.441406 7.582031 7.644531-.015625 4.195312-3.421875 7.582031-7.613281 7.582031zm0 0" fill="#c5ee09"/><path d="m36.078125 262.671875c-1.953125 0-3.910156-.75-5.398437-2.246094l-8.515626-8.566406c-2.964843-2.980469-2.949218-7.804687.03125-10.769531 2.980469-2.960938 7.800782-2.949219 10.765626.03125l8.519531 8.566406c2.964843 2.984375 2.949219 7.804688-.03125 10.769531-1.488281 1.476563-3.429688 2.214844-5.371094 2.214844zm0 0" fill="#9bf2e5"/><path d="m19.277344 286.753906c-.65625 0-1.328125-.085937-1.996094-.265625l-11.65625-3.160156c-4.058594-1.101563-6.457031-5.28125-5.359375-9.339844 1.101563-4.058593 5.28125-6.457031 9.34375-5.355469l11.65625 3.15625c4.058594 1.101563 6.457031 5.285157 5.359375 9.34375-.921875 3.390626-3.992188 5.621094-7.347656 5.621094zm0 0" fill="#9bf2e5"/><path d="m60.253906 246.007812c-3.371094 0-6.449218-2.253906-7.355468-5.667968l-3.09375-11.675782c-1.074219-4.066406 1.347656-8.230468 5.414062-9.308593 4.0625-1.078125 8.230469 1.34375 9.308594 5.410156l3.089844 11.675781c1.078124 4.066406-1.34375 8.234375-5.410157 9.3125-.652343.171875-1.308593.253906-1.953125.253906zm0 0" fill="#9bf2e5"/><path d="m34.019531 459.609375c-2.246093 0-4.472656-.992187-5.976562-2.890625l-3.296875-4.167969c-2.609375-3.296875-2.050782-8.085937 1.246094-10.695312 3.296874-2.609375 8.082031-2.050781 10.695312 1.246093l3.296875 4.167969c2.609375 3.296875 2.050781 8.085938-1.246094 10.695313-1.398437 1.105468-3.0625 1.644531-4.71875 1.644531zm0 0" fill="#00a6cc"/><path d="m160 464.53125c-1.984375 0-3.964844-.769531-5.457031-2.304688-2.933594-3.011718-2.867188-7.832031.148437-10.765624l12.519532-12.183594c3.015624-2.929688 7.835937-2.863282 10.765624.148437 2.933594 3.015625 2.867188 7.835938-.148437 10.765625l-12.519531 12.183594c-1.480469 1.4375-3.394532 2.15625-5.308594 2.15625zm0 0" fill="#00a6cc"/><path d="m111.683594 305.828125h-18.007813c-4.207031 0-7.613281-3.410156-7.613281-7.613281 0-4.207032 3.40625-7.613282 7.613281-7.613282h18.007813c4.203125 0 7.613281 3.40625 7.613281 7.613282 0 4.203125-3.410156 7.613281-7.613281 7.613281zm0 0" fill="#00a6cc"/><path d="m447.027344 363.078125c1.421875 3.960937-.640625 8.316406-4.589844 9.738281-19.410156 6.960938-40.363281 12.484375-62.390625 16.464844 7.5-6.152344 14.546875-12.84375 21.074219-20.019531 12.566406-3.054688 24.65625-6.648438 36.171875-10.78125 3.957031-1.421875 8.3125.640625 9.734375 4.597656zm0 0" fill="#fda736"/><path d="m421.585938 130.78125c-2.921876-4.601562-6.050782-9.078125-9.347657-13.402344 10.425781-2.414062 20.496094-5.164062 30.140625-8.230468 4.007813-1.28125 8.292969.933593 9.5625 4.941406 1.277344 4.011718-.933594 8.296875-4.945312 9.5625-8.191406 2.609375-16.667969 4.984375-25.410156 7.128906zm0 0" fill="#fda736"/><path d="m474.730469 318.554688c1.980469 3.703124.589843 8.3125-3.117188 10.304687-16.121093 8.636719-34.757812 15.976563-55.582031 21.886719 4.507812-6.347656 8.652344-12.964844 12.398438-19.835938 13.164062-4.519531 25.207031-9.6875 35.988281-15.472656 3.703125-1.988281 8.324219-.597656 10.3125 3.117188zm0 0" fill="#fda736"/><path d="m490.292969 222.09375c-11.441407 5.796875-24.160157 11.023438-37.914063 15.632812v-1.09375c0-4.976562-.183594-9.910156-.550781-14.792968 11.382813-4 21.957031-8.457032 31.574219-13.328125 3.753906-1.898438 8.332031-.40625 10.242187 3.347656 1.898438 3.746094.394531 8.335937-3.351562 10.234375zm0 0" fill="#fda736"/></svg>