<svg height="512pt" viewBox="0 0 512 512.00079" width="512pt" xmlns="http://www.w3.org/2000/svg"><path d="m440.777344 256c0 102.050781-82.726563 184.777344-184.777344 184.777344s-184.777344-82.726563-184.777344-184.777344 82.726563-184.777344 184.777344-184.777344 184.777344 82.726563 184.777344 184.777344zm0 0" fill="#fda736"/><path d="m436.253906 215.265625c13.441406 59.753906-3.089844 124.886719-49.597656 171.390625-32.933594 32.933594-75.203125 50.832031-118.292969 53.703125l55.65625-55.65625c12.949219-12.949219 20.214844-30.511719 20.222657-48.824219 0-9.152344 1.820312-18.117187 5.253906-26.421875 3.433594-8.289062 8.488281-15.921875 14.960937-22.394531zm0 0" fill="#fd7504"/><path d="m321.820312 83.304688-53.746093 53.746093c-16.40625 16.40625-29.816407 35.566407-39.625 56.601563-4.898438 10.519531-10.699219 20.578125-17.332031 30.046875-6.632813 9.46875-14.078126 18.355469-22.285157 26.5625l-94.78125 94.785156c-9.367187-17-15.84375-35.171875-19.449219-53.789063l77.613282-77.613281c16.410156-16.40625 29.816406-35.5625 39.617187-56.605469 4.90625-10.511718 10.710938-20.570312 17.339844-30.039062 6.632813-9.46875 14.078125-18.359375 22.285156-26.566406l29.144531-29.144532c20.789063.511719 41.523438 4.515626 61.21875 12.015626zm0 0" fill="#fed370"/><path d="m503.339844 8.660156c-17.429688-17.429687-45.019532-3.996094-55.402344 1.050782-16.925781 8.253906-38.449219 22.066406-63.964844 41.09375-6.925781 5.152343-14.0625 10.632812-21.378906 16.414062-8.765625 6.910156-17.789062 14.246094-27.042969 21.960938 13.054688 6.234374 25.539063 14.074218 37.140625 23.542968 7.683594-6.285156 15.195313-12.28125 22.476563-17.9375 1.019531-.792968 2.042969-1.574218 3.039062-2.347656 31.597657-24.3125 52.128907-36.945312 64.871094-43.515625-6.777344 13.144531-20.003906 34.582031-45.863281 67.910156-36.355469 46.851563-86.804688 103.082031-142.054688 158.332031s-111.476562 105.695313-158.328125 142.050782c-33.328125 25.859375-54.765625 39.085937-67.910156 45.863281 6.574219-12.742187 19.191406-33.265625 43.503906-64.859375.773438-1.011719 1.566407-2.019531 2.359375-3.050781 5.65625-7.28125 11.652344-14.792969 17.9375-22.476563-9.46875-11.601562-17.308594-24.085937-23.542968-37.140625-7.714844 9.242188-15.050782 18.265625-21.953126 27.03125-5.777343 7.328125-11.257812 14.464844-16.417968 21.386719-19.027344 25.519531-32.84375 47.039062-41.097656 63.964844-5.046876 10.386718-18.480469 37.976562-1.050782 55.40625 17.429688 17.429687 45.019532 3.996094 55.402344-1.050782 16.929688-8.25 38.449219-22.066406 63.96875-41.09375 51.128906-38.097656 113.863281-93.664062 176.675781-156.488281 62.820313-62.8125 118.390625-125.550781 156.488281-176.675781 19.027344-25.519531 32.84375-47.039062 41.09375-63.96875 5.046876-10.382812 18.480469-37.972656 1.050782-55.402344zm0 0" fill="#edff85"/><path d="m89.179688 335.550781c6.234374 13.054688 14.074218 25.539063 23.539062 37.140625-6.28125 7.683594-12.277344 15.195313-17.933594 22.480469-.792968 1.027344-1.585937 2.039063-2.359375 3.046875-9.734375-11.1875-18.140625-23.128906-25.199219-35.632812 6.902344-8.769532 14.238282-17.792969 21.953126-27.035157zm0 0" fill="#c5ee09"/><path d="m398.207031 92.4375c-.996093.773438-2.019531 1.554688-3.039062 2.347656-7.28125 5.65625-14.792969 11.652344-22.476563 17.9375-11.601562-9.46875-24.085937-17.308594-37.140625-23.542968 9.25-7.714844 18.277344-15.050782 27.042969-21.960938 12.496094 7.054688 24.4375 15.460938 35.613281 25.21875zm0 0" fill="#c5ee09"/><path d="m313.109375 156.851562c-6.8125-6.8125-21.90625-2.765624-33.710937 9.039063-11.808594 11.808594-15.855469 26.902344-9.042969 33.714844s21.90625 2.761719 33.710937-9.042969c11.808594-11.808594 15.855469-26.898438 9.042969-33.710938zm0 0" fill="#fed370"/><path d="m153.164062 332.886719c-1.972656 0-3.945312-.746094-5.445312-2.246094-3.015625-3.019531-3.050781-7.875-.035156-10.894531l.070312-.066406c3.015625-3.015626 7.910156-3.015626 10.925782 0 3.019531 3.015624 3.019531 7.910156 0 10.925781-1.515626 1.519531-3.515626 2.28125-5.515626 2.28125zm0 0" fill="#fd7504"/><path d="m171.761719 326.488281c-1.984375 0-3.964844-.75-5.46875-2.265625-3.003907-3.027344-3.023438-7.886718.007812-10.890625l.066407-.070312c3.027343-3.007813 7.921874-2.988281 10.925781.039062 3.007812 3.03125 2.988281 7.921875-.039063 10.929688-1.515625 1.503906-3.503906 2.257812-5.492187 2.257812zm0 0" fill="#fd7504"/><path d="m159.898438 159.8125c-1.984376 0-3.964844-.753906-5.46875-2.265625-3.003907-3.03125-3.023438-7.886719.007812-10.894531l.066406-.066406c3.03125-3.007813 7.921875-2.988282 10.925782.039062 3.007812 3.03125 2.988281 7.921875-.039063 10.925781-1.515625 1.503907-3.503906 2.261719-5.492187 2.261719zm0 0" fill="#fd7504"/><path d="m379.710938 316.679688c-1.984376 0-3.964844-.753907-5.46875-2.265626-3.007813-3.027343-3.023438-7.886718.007812-10.894531l.066406-.066406c3.027344-3.007813 7.917969-2.988281 10.929688.039063 3.003906 3.03125 2.984375 7.921874-.042969 10.929687-1.515625 1.503906-3.503906 2.257813-5.492187 2.257813zm0 0" fill="#fed370"/><g fill="#c5ee09"><path d="m476.28125 183.09375c-.011719 0-.023438 0-.035156 0-4.269532-.019531-7.710938-3.496094-7.691406-7.761719l.011718-2.804687c.019532-4.253906 3.476563-7.691406 7.726563-7.691406h.035156c4.269531.019531 7.710937 3.496093 7.691406 7.765624l-.011719 2.804688c-.023437 4.253906-3.476562 7.6875-7.726562 7.6875zm0 0"/><path d="m476.191406 211.636719c-.011718 0-.023437 0-.039062 0-4.265625-.023438-7.707032-3.5-7.6875-7.765625l.015625-2.804688c.019531-4.253906 3.476562-7.6875 7.722656-7.6875h.042969c4.265625.023438 7.707031 3.496094 7.683594 7.765625l-.011719 2.804688c-.019531 4.253906-3.476563 7.6875-7.726563 7.6875zm0 0"/><path d="m491.917969 196.011719c-.015625 0-.027344 0-.039063 0l-2.804687-.011719c-4.265625-.019531-7.707031-3.496094-7.6875-7.761719.019531-4.257812 3.472656-7.691406 7.722656-7.691406h.039063l2.804687.011719c4.265625.023437 7.707031 3.496094 7.6875 7.765625-.019531 4.253906-3.476563 7.6875-7.722656 7.6875zm0 0"/><path d="m463.375 195.925781c-.015625 0-.027344 0-.039062 0l-2.804688-.015625c-4.265625-.019531-7.707031-3.496094-7.6875-7.761718.019531-4.257813 3.476562-7.691407 7.722656-7.691407h.039063l2.804687.015625c4.269532.019532 7.710938 3.496094 7.6875 7.765625-.019531 4.253907-3.472656 7.6875-7.722656 7.6875zm0 0"/><path d="m71.265625 93.964844c-.015625 0-.027344 0-.039063 0-4.265624-.019532-7.710937-3.496094-7.6875-7.765625l.011719-2.804688c.023438-4.253906 3.476563-7.6875 7.726563-7.6875h.035156c4.269531.019531 7.710938 3.496094 7.691406 7.765625l-.015625 2.804688c-.019531 4.253906-3.476562 7.6875-7.722656 7.6875zm0 0"/><path d="m71.175781 122.503906c-.011719 0-.027343 0-.039062 0-4.265625-.019531-7.707031-3.496094-7.6875-7.761718l.015625-2.804688c.019531-4.253906 3.472656-7.6875 7.722656-7.6875h.039062c4.265626.019531 7.710938 3.496094 7.6875 7.761719l-.011718 2.804687c-.023438 4.253906-3.476563 7.6875-7.726563 7.6875zm0 0"/></g><path d="m86.898438 106.882812c-.011719 0-.023438 0-.039063 0l-2.800781-.011718c-4.269532-.023438-7.710938-3.496094-7.691406-7.765625.019531-4.265625 3.523437-7.722657 7.765624-7.6875l2.804688.011719c4.265625.023437 7.707031 3.5 7.6875 7.765624-.019531 4.253907-3.476562 7.6875-7.726562 7.6875zm0 0" fill="#edff85"/><path d="m58.359375 106.796875c-.015625 0-.027344 0-.039063 0l-2.804687-.015625c-4.265625-.019531-7.707031-3.496094-7.6875-7.761719.019531-4.253906 3.476563-7.691406 7.722656-7.691406h.039063l2.804687.015625c4.265625.019531 7.707031 3.496094 7.6875 7.761719-.019531 4.253906-3.476562 7.691406-7.722656 7.691406zm0 0" fill="#c5ee09"/><path d="m187.519531 472.300781c-.011719 0-.023437 0-.035156 0-4.269531-.023437-7.710937-3.5-7.691406-7.765625l.015625-2.804687c.019531-4.265625 3.53125-7.691407 7.765625-7.6875 4.265625.019531 7.707031 3.496093 7.6875 7.761719l-.015625 2.804687c-.019532 4.257813-3.476563 7.691406-7.726563 7.691406zm0 0" fill="#c5ee09"/><path d="m187.433594 500.839844c-.011719 0-.027344 0-.039063 0-4.265625-.019532-7.710937-3.496094-7.6875-7.761719l.011719-2.804687c.023438-4.257813 3.476562-7.691407 7.726562-7.691407h.039063c4.265625.023438 7.707031 3.5 7.6875 7.765625l-.011719 2.804688c-.023437 4.253906-3.476562 7.6875-7.726562 7.6875zm0 0" fill="#c5ee09"/><path d="m203.15625 485.21875c-.011719 0-.023438 0-.035156 0l-2.804688-.015625c-4.269531-.019531-7.710937-3.496094-7.691406-7.761719.023438-4.257812 3.476562-7.691406 7.726562-7.691406h.039063l2.800781.015625c4.269532.019531 7.710938 3.496094 7.691406 7.765625-.019531 4.253906-3.476562 7.6875-7.726562 7.6875zm0 0" fill="#c5ee09"/><path d="m174.617188 485.128906c-.015626 0-.027344 0-.039063 0l-2.804687-.011718c-4.265626-.023438-7.710938-3.496094-7.6875-7.765626.019531-4.265624 3.515624-7.738281 7.761718-7.6875l2.804688.011719c4.269531.023438 7.710937 3.5 7.691406 7.765625-.023438 4.253906-3.476562 7.6875-7.726562 7.6875zm0 0" fill="#c5ee09"/><path d="m120.617188 73.511719c-.011719 0-.023438 0-.035157 0-4.269531-.019531-7.710937-3.496094-7.691406-7.761719l.011719-2.804688c.019531-4.269531 3.472656-7.679687 7.765625-7.691406 4.265625.019532 7.707031 3.496094 7.6875 7.761719l-.011719 2.804687c-.019531 4.253907-3.476562 7.691407-7.726562 7.691407zm0 0" fill="#edff85"/><path d="m120.53125 102.050781c-.015625 0-.027344 0-.039062 0-4.269532-.019531-7.710938-3.496093-7.691407-7.761719l.015625-2.804687c.019532-4.253906 3.476563-7.6875 7.726563-7.6875h.035156c4.269531.019531 7.710937 3.496094 7.691406 7.761719l-.015625 2.804687c-.019531 4.253907-3.476562 7.6875-7.722656 7.6875zm0 0" fill="#edff85"/><path d="m136.253906 86.429688c-.015625 0-.027344 0-.039062 0l-2.804688-.011719c-4.265625-.019531-7.707031-3.496094-7.6875-7.761719.019532-4.257812 3.476563-7.691406 7.722656-7.691406h.039063l2.804687.011718c4.265626.019532 7.707032 3.496094 7.6875 7.765626-.019531 4.253906-3.472656 7.6875-7.722656 7.6875zm0 0" fill="#edff85"/><path d="m107.710938 86.34375c-.011719 0-.027344 0-.039063 0l-2.800781-.015625c-4.269532-.019531-7.710938-3.496094-7.691406-7.765625.023437-4.265625 3.53125-7.671875 7.765624-7.6875l2.804688.015625c4.265625.019531 7.707031 3.496094 7.6875 7.761719-.019531 4.253906-3.476562 7.691406-7.726562 7.691406zm0 0" fill="#edff85"/><path d="m23.988281 491.480469c-1.972656 0-3.945312-.746094-5.445312-2.246094-3.019531-3.015625-3.050781-7.875-.035157-10.890625l.070313-.070312c3.015625-3.015626 7.90625-3.015626 10.925781 0 3.015625 3.019531 3.015625 7.910156 0 10.929687-1.519531 1.515625-3.519531 2.277344-5.515625 2.277344zm0 0" fill="#c5ee09"/><path d="m44.59375 495.601562c-1.976562 0-3.949219-.746093-5.449219-2.246093-3.015625-3.015625-3.050781-7.875-.03125-10.890625l.066407-.070313c3.019531-3.015625 7.910156-3.015625 10.925781 0 3.019531 3.019531 3.019531 7.910157 0 10.929688-1.515625 1.515625-3.515625 2.277343-5.511719 2.277343zm0 0" fill="#c5ee09"/><path d="m246.035156 47.074219c-.015625 0-.027344 0-.039062 0h-.109375c-4.265625-.019531-7.707031-3.496094-7.6875-7.761719.019531-4.257812 3.472656-7.691406 7.722656-7.691406h.039063.105468c4.269532.019531 7.710938 3.496094 7.691406 7.761718-.019531 4.253907-3.472656 7.691407-7.722656 7.691407zm0 0" fill="#fd7504"/><path d="m271.367188 52.304688c-.011719 0-.023438 0-.035157 0l-.109375-.003907c-4.269531-.019531-7.710937-3.492187-7.691406-7.761719.019531-4.253906 3.476562-7.691406 7.726562-7.691406h.035157l.109375.003906c4.265625.019532 7.710937 3.492188 7.691406 7.761719-.019531 4.253907-3.476562 7.691407-7.726562 7.691407zm0 0" fill="#fda736"/><path d="m366.933594 457.582031h-.109375c-4.265625 0-7.726563-3.457031-7.726563-7.726562 0-4.265625 3.460938-7.722657 7.726563-7.722657h.109375c4.269531 0 7.726562 3.457032 7.726562 7.722657 0 4.269531-3.457031 7.726562-7.726562 7.726562zm0 0" fill="#fd7504"/><path d="m476.191406 326.472656c-.011718 0-.023437 0-.035156 0h-.109375c-4.265625-.019531-7.710937-3.496094-7.691406-7.761718.019531-4.253907 3.476562-7.691407 7.726562-7.691407h.035157.109374c4.269532.019531 7.710938 3.496094 7.691407 7.761719-.019531 4.257812-3.476563 7.691406-7.726563 7.691406zm0 0" fill="#fd7504"/><path d="m35.234375 316.664062h-.105469c-4.269531 0-7.726562-3.460937-7.726562-7.726562s3.457031-7.726562 7.726562-7.726562h.105469c4.269531 0 7.726563 3.460937 7.726563 7.726562.003906 4.265625-3.457032 7.726562-7.726563 7.726562zm0 0" fill="#fd7504"/><path d="m462.027344 306.925781h-.109375c-4.269531 0-7.726563-3.460937-7.726563-7.726562 0-4.269531 3.457032-7.726563 7.726563-7.726563h.109375c4.265625 0 7.726562 3.457032 7.726562 7.726563 0 4.265625-3.460937 7.726562-7.726562 7.726562zm0 0" fill="#fd7504"/></svg>