<svg height="512pt" viewBox="-6 0 512 512.00071" width="512pt" xmlns="http://www.w3.org/2000/svg"><path d="m265.539062 58.71875c-.011718 0-.023437 0-.035156 0h-.109375c-4.265625-.019531-7.707031-3.496094-7.6875-7.761719.019531-4.253906 3.476563-7.691406 7.722657-7.691406h.039062.105469c4.269531.019531 7.710937 3.496094 7.691406 7.761719-.019531 4.257812-3.476563 7.691406-7.726563 7.691406zm0 0"/><path d="m497.789062 215.945312-11.21875 10.921876c.132813 2.039062.246094 4.078124.316407 6.109374.125 3.007813.1875 6.015626.1875 9.042969 0 9.542969-.578125 18.957031-1.710938 28.207031-1.339843 11.117188-3.480469 22.007813-6.355469 32.597657-4.140624 15.296875-9.828124 29.996093-16.875 43.914062-39.632812 78.390625-122.375 132.359375-218.082031 132.566407l-28.347656 29.351562c-2.8125 2.925781-7.019531 4.035156-10.921875 2.914062l-75.996094-21.953124c-3.894531-1.121094-6.84375-4.316407-7.675781-8.292969l-8.117187-38.949219c-17.152344-10.644531-32.84375-23.304688-46.71875-37.65625-12.859376-13.289062-24.167969-28.019531-33.617188-43.925781-6.191406-10.394531-11.578125-21.285157-16.101562-32.59375-4.789063-11.980469-8.621094-24.417969-11.371094-37.242188-3.402344-15.785156-5.183594-32.164062-5.183594-48.933593 0-11.703126.867188-23.203126 2.546875-34.441407 3.738281-25.054687 11.496094-48.828125 22.613281-70.710937 13.441406-26.464844 31.808594-50.128906 53.9375-69.867188 43.308594-38.675781 101.050782-62.265625 164.441406-62.265625 10.054688 0 19.953126.597657 29.667969 1.75 15.207031 1.804688 29.96875 4.976563 44.175781 9.363281l19.550782-13.84375c3.320312-2.339843 7.65625-2.660156 11.273437-.824218l34.839844 17.605468c3.625 1.835938 5.945313 5.511719 6.015625 9.558594l.453125 23.726563c13.042969 9.527343 25.066406 20.296875 35.882813 32.140625 4.265624 4.648437 8.332031 9.46875 12.195312 14.445312 13.96875 17.914063 25.375 37.816406 33.699219 59.203125l10.035156 2.050781c3.976563.8125 7.179687 3.75 8.324219 7.644532l10.992187 37.457031c1.152344 3.90625.050781 8.109375-2.855469 10.929687zm0 0" fill="#ff8b73"/><path d="m497.789062 215.945312-11.21875 10.921876c.132813 2.039062.246094 4.078124.316407 6.109374.125 3.007813.1875 6.015626.1875 9.042969 0 9.542969-.578125 18.957031-1.710938 28.207031-1.339843 11.117188-3.480469 22.007813-6.355469 32.597657-4.140624 15.296875-9.828124 29.996093-16.875 43.914062-39.632812 78.390625-122.375 132.359375-218.082031 132.566407l-28.347656 29.351562c-2.8125 2.925781-7.019531 4.035156-10.921875 2.914062l-75.996094-21.953124c-3.894531-1.121094-6.84375-4.316407-7.675781-8.292969l-6.210937-29.8125c18.996093 3.976562 38.691406 6.066406 58.875 6.066406 158.050781 0 286.175781-128.132813 286.175781-286.1875 0-15.140625-1.175781-30.007813-3.441407-44.511719 5.65625 9.917969 10.601563 20.261719 14.785157 30.984375l10.03125 2.050781c3.976562.816407 7.179687 3.75 8.324219 7.644532l10.992187 37.457031c1.15625 3.90625.054687 8.109375-2.851563 10.929687zm0 0" fill="#ff5c3c"/><path d="m114.558594 172.226562c0 9.765626-3.957032 18.605469-10.355469 25.003907-6.394531 6.394531-15.234375 10.351562-25 10.351562h-76.660156c3.742187-25.054687 11.5-48.832031 22.613281-70.710937h54.046875c19.53125 0 35.355469 15.832031 35.355469 35.355468zm0 0" fill="#ff5c3c"/><path d="m273.207031 6.492188c-19.410156 16.570312-57.632812 34.488281-103.449219 46.921874-34.125 9.253907-66.152343 13.753907-90.664062 13.589844 43.316406-38.671875 101.058594-62.265625 164.441406-62.265625 10.054688 0 19.957032.59375 29.671875 1.753907zm0 0" fill="#ffb5a6"/><path d="m487.074219 242.019531c0 9.542969-.578125 18.957031-1.710938 28.207031-1.339843 11.117188-3.480469 22.007813-6.355469 32.597657h-58.320312c-.902344-.023438-1.800781-.03125-2.707031-.03125-26.238281 0-51.449219 10.402343-70.042969 28.988281-18.5625 18.574219-43.753906 29.011719-70.023438 29.011719h-245.257812c-6.191406-10.394531-11.578125-21.285157-16.101562-32.597657-4.789063-11.980468-8.621094-24.414062-11.371094-37.238281h272.730468c26.269532 0 51.460938-10.449219 70.023438-29.023437 18.59375-18.582032 43.804688-28.988282 70.042969-28.988282.90625 0 1.804687.011719 2.707031.03125h66.203125c.121094 3.007813.183594 6.015626.183594 9.042969zm0 0" fill="#ffb5a6"/><path d="m487.074219 242.019531c0 9.542969-.578125 18.957031-1.710938 28.207031-1.339843 11.117188-3.480469 22.007813-6.355469 32.597657h-50.964843c11.300781-21.800781 19.863281-45.226563 25.261719-69.847657h33.582031c.125 3.007813.1875 6.015626.1875 9.042969zm0 0" fill="#ff8b73"/><path d="m485.363281 270.226562c-3.296875 27.1875-11.308593 52.953126-23.230469 76.511719h-41.445312c-7.53125-.203125-14.976562.453125-22.242188 1.917969-18.976562 3.8125-36.589843 13.136719-50.507812 27.054688-9.292969 9.289062-20.222656 16.542968-32.121094 21.46875-11.910156 4.933593-24.765625 7.539062-37.902344 7.539062h-211.640624c-21.265626-21.972656-38.261719-47.902344-49.71875-76.523438h261.359374c26.269532 0 51.460938-10.433593 70.023438-29.007812 18.59375-18.585938 43.804688-28.992188 70.042969-28.992188.90625 0 1.804687.011719 2.707031.03125zm0 0" fill="#ff5c3c"/><path d="m485.363281 270.226562c-3.296875 27.1875-11.308593 52.953126-23.230469 76.511719h-41.445312c-7.53125-.203125-14.976562.453125-22.242188 1.917969 18.535157-23.445312 33.472657-49.871094 43.96875-78.429688zm0 0" fill="#ff2e04"/><path d="m235.03125 211.191406c0 19.636719-15.917969 35.554688-35.554688 35.554688-19.636718 0-35.554687-15.917969-35.554687-35.554688 0-19.636718 15.917969-35.554687 35.554687-35.554687 19.636719 0 35.554688 15.917969 35.554688 35.554687zm0 0" fill="#ff2e04"/><path d="m235.027344 211.1875c0 19.648438-15.914063 35.5625-35.550782 35.5625-3.679687 0-7.222656-.554688-10.558593-1.597656 14.472656-4.5 24.980469-18.007813 24.980469-33.964844s-10.507813-29.453125-24.980469-33.953125c3.335937-1.042969 6.878906-1.597656 10.558593-1.597656 19.636719 0 35.550782 15.914062 35.550782 35.550781zm0 0" fill="#dd1f00"/><path d="m178.34375 122.890625c0 12.371094-10.027344 22.398437-22.398438 22.398437-12.371093 0-22.398437-10.027343-22.398437-22.398437s10.027344-22.398437 22.398437-22.398437c12.371094 0 22.398438 10.027343 22.398438 22.398437zm0 0" fill="#ff2e04"/><path d="m178.347656 122.890625c0 12.371094-10.035156 22.394531-22.398437 22.394531-2.902344 0-5.6875-.554687-8.242188-1.574218 8.292969-3.277344 14.15625-11.363282 14.15625-20.820313s-5.863281-17.542969-14.15625-20.820313c2.554688-1.019531 5.335938-1.574218 8.242188-1.574218 12.363281-.003906 22.398437 10.019531 22.398437 22.394531zm0 0" fill="#dd1f00"/><path d="m265.484375 404.714844c0 8.023437-6.5 14.523437-14.523437 14.523437-8.019532 0-14.523438-6.5-14.523438-14.523437 0-8.019532 6.503906-14.523438 14.523438-14.523438 8.023437 0 14.523437 6.503906 14.523437 14.523438zm0 0" fill="#ff2e04"/><path d="m265.492188 404.71875c0 8.015625-6.511719 14.515625-14.527344 14.515625-1.691406 0-3.308594-.289063-4.8125-.824219 5.65625-1.976562 9.714844-7.367187 9.714844-13.691406 0-6.335938-4.058594-11.722656-9.714844-13.699219 1.503906-.539062 3.121094-.824219 4.8125-.824219 8.015625 0 14.527344 6.5 14.527344 14.523438zm0 0" fill="#dd1f00"/><path d="m372.140625 115.015625c0 8.019531-6.503906 14.523437-14.523437 14.523437-8.023438 0-14.523438-6.503906-14.523438-14.523437 0-8.023437 6.5-14.523437 14.523438-14.523437 8.019531 0 14.523437 6.5 14.523437 14.523437zm0 0" fill="#ff2e04"/><path d="m372.136719 115.019531c0 8.015625-6.5 14.515625-14.515625 14.515625-1.949219 0-3.800782-.382812-5.492188-1.082031 5.296875-2.164063 9.027344-7.367187 9.027344-13.433594 0-6.078125-3.730469-11.28125-9.027344-13.445312 1.691406-.699219 3.542969-1.082031 5.492188-1.082031 8.015625 0 14.515625 6.503906 14.515625 14.527343zm0 0" fill="#dd1f00"/><path d="m308.300781 205.578125h-34.320312c-4.265625 0-7.726563-3.460937-7.726563-7.726563 0-4.265624 3.460938-7.726562 7.726563-7.726562h34.320312c4.265625 0 7.722657 3.460938 7.722657 7.726562.003906 4.265626-3.457032 7.726563-7.722657 7.726563zm0 0" fill="#ffb5a6"/><path d="m437.59375 98.660156c-14 44.773438-56.042969 76.234375-103.78125 76.234375h-80.457031c-4.265625 0-7.726563-3.453125-7.726563-7.726562 0-4.265625 3.460938-7.726563 7.726563-7.726563h80.457031c44.121094 0 82.558594-31.316406 91.386719-74.472656.054687-.257812.113281-.503906.195312-.75 4.269531 4.644531 8.335938 9.464844 12.199219 14.441406zm0 0" fill="#ffb5a6"/><path d="m252.296875 74.734375c-.015625 0-.027344 0-.039063 0h-.105468c-4.269532-.019531-7.710938-3.496094-7.691406-7.761719.019531-4.257812 3.476562-7.691406 7.726562-7.691406h.035156.109375c4.265625.019531 7.707031 3.496094 7.6875 7.765625-.019531 4.253906-3.476562 7.6875-7.722656 7.6875zm0 0" fill="#ff2e04"/><path d="m216.546875 440.921875c-.011719 0-.023437 0-.035156 0h-.109375c-4.265625-.023437-7.710938-3.496094-7.6875-7.765625.019531-4.253906 3.472656-7.6875 7.722656-7.6875h.039062.105469c4.269531.019531 7.710938 3.496094 7.691407 7.761719-.019532 4.253906-3.476563 7.691406-7.726563 7.691406zm0 0" fill="#ff5c3c"/><path d="m273.261719 228.597656h-.109375c-4.265625 0-7.726563-3.457031-7.726563-7.726562 0-4.265625 3.460938-7.726563 7.726563-7.726563h.109375c4.265625 0 7.726562 3.460938 7.726562 7.726563 0 4.269531-3.460937 7.726562-7.726562 7.726562zm0 0" fill="#ffb5a6"/><g fill="#ff2e04"><path d="m204.222656 493.496094c-1.246094 0-2.507812-.300782-3.675781-.933594-7.402344-4.011719-16.230469-7.652344-25.523437-10.519531-11.84375-3.65625-23.769532-5.839844-33.582032-6.148438-4.265625-.132812-7.613281-3.699219-7.480468-7.964843.136718-4.265626 3.6875-7.636719 7.96875-7.480469 11.3125.355469 24.332031 2.71875 37.648437 6.828125 10.253906 3.164062 20.050781 7.210937 28.332031 11.699218 3.753906 2.03125 5.144532 6.722657 3.109375 10.472657-1.398437 2.582031-4.054687 4.046875-6.796875 4.046875zm0 0"/><path d="m366.953125 52.539062c-17.1875 0-32.507813-10.933593-38.207031-16.71875-2.996094-3.039062-2.960938-7.929687.074218-10.925781 3.039063-2.996093 7.929688-2.960937 10.929688.078125 3.097656 3.140625 14.746094 12.113282 27.203125 12.113282 4.269531 0 7.726563 3.457031 7.726563 7.722656 0 4.269531-3.457032 7.730468-7.726563 7.730468zm0 0"/><path d="m477.941406 213.347656c-1.925781 0-3.855468-.71875-5.351562-2.160156-9.863282-9.484375-11.789063-23.542969-11.667969-33.664062.050781-4.265626 3.53125-7.71875 7.820313-7.632813 4.265624.050781 7.683593 3.550781 7.632812 7.816406-.070312 5.792969.738281 16.390625 6.925781 22.34375 3.078125 2.957031 3.171875 7.847657.210938 10.925781-1.515625 1.574219-3.539063 2.371094-5.570313 2.371094zm0 0"/></g></svg>